<?xml version="1.0" standalone="no"?>
<!DOCTYPE svg PUBLIC "-//W3C//DTD SVG 1.1//EN" "http://www.w3.org/Graphics/SVG/1.1/DTD/svg11.dtd" >
<svg xmlns="http://www.w3.org/2000/svg" xmlns:xlink="http://www.w3.org/1999/xlink" version="1.1">
<metadata></metadata>
<defs>
<font id="omnesregular_italic" horiz-adv-x="750" >
<font-face units-per-em="1000" ascent="800" descent="-200" />
<missing-glyph horiz-adv-x="170" />
<glyph unicode="fi" horiz-adv-x="539" d="M520 596q-44 0 -44 33q0 21 12 36t34 15q44 0 44 -33q0 -21 -12 -36t-34 -15zM93 -4q-33 0 -27 31l83 391h-67q-29 0 -29 16q0 23 12 35q7 7 24 7h72l13 58q33 155 155 155q56 0 84 -28q14 -14 14 -32q0 -10 -6 -19t-12 -13t-7 -2q-25 36 -76 36q-69 0 -91 -106l-11 -49 h95q29 0 29 -16q0 -23 -12 -35q-7 -7 -24 -7h-99l-82 -391q-7 -31 -30 -31h-8zM439 -8q-89 0 -66 108l74 349q7 31 30 31h8q33 0 27 -31l-74 -348q-8 -36 2 -50t46 -14q2 0 0.5 -11t-13 -22.5t-34.5 -11.5z" />
<glyph unicode="fl" horiz-adv-x="539" d="M93 -4q-33 0 -27 31l83 391h-67q-29 0 -29 16q0 23 12 35q7 7 24 7h72l13 58q33 155 155 155q56 0 84 -28q14 -14 14 -32q0 -10 -6 -19t-12 -13t-7 -2q-25 36 -76 36q-69 0 -91 -106l-11 -49h95q29 0 29 -16q0 -23 -12 -35q-7 -7 -24 -7h-99l-82 -391q-7 -31 -30 -31h-8z M439 -8q-89 0 -66 108l117 550q7 31 30 31h8q33 0 27 -31l-117 -549q-8 -36 2 -50t46 -14q2 0 0.5 -11t-13 -22.5t-34.5 -11.5z" />
<glyph unicode=" "  horiz-adv-x="170" />
<glyph unicode="&#x09;" horiz-adv-x="170" />
<glyph unicode="&#xa0;" horiz-adv-x="170" />
<glyph unicode="!" horiz-adv-x="247" d="M118 177q-15 0 -19 6t-2 22l65 410q4 21 12.5 28.5t25.5 7.5q30 0 41.5 -9.5t3.5 -34.5l-110 -410q-5 -20 -17 -20zM80 -6q-48 0 -48 34q0 36 16 52q13 13 37 13q48 0 48 -34q0 -36 -16 -52q-13 -13 -37 -13z" />
<glyph unicode="&#x22;" horiz-adv-x="357" d="M293 390q-15 0 -20 5.5t-3 23.5l19 181q3 28 13 39.5t30 11.5q29 0 39 -13t0 -46l-57 -177q-7 -25 -21 -25zM144 390q-15 0 -20 5.5t-3 23.5l19 181q3 28 13 39.5t30 11.5q29 0 39 -13t0 -46l-57 -177q-7 -25 -21 -25z" />
<glyph unicode="#" horiz-adv-x="625" d="M137 -4q-14 0 -24.5 10t-10.5 33q0 13 8 39l30 97h-97q-29 0 -29 16q0 23 12 35q7 7 24 7h107l56 181h-97q-29 0 -29 16q0 23 12 35q7 7 24 7h107l54 176q0 3 12 3q14 0 24.5 -10t10.5 -33q0 -13 -8 -39l-30 -97h165l54 176q0 3 12 3q14 0 24.5 -10t10.5 -33 q0 -13 -8 -39l-30 -97h97q29 0 29 -16q0 -23 -12 -35q-7 -7 -24 -7h-108l-55 -181h97q29 0 29 -16q0 -23 -12 -35q-7 -7 -24 -7h-108l-53 -176q0 -3 -12 -3q-14 0 -24.5 10t-10.5 33q0 13 8 39l30 97h-165l-54 -176q0 -3 -12 -3zM218 231h169l56 185h-169z" />
<glyph unicode="$" horiz-adv-x="533" d="M190 -102q-31 0 -25 31l14 68q-81 14 -131 64q-37 37 -37 72q0 15 10.5 25t20.5 12.5t11 -0.5q37 -93 141 -117l53 251q-70 30 -109 68t-39 108q0 77 60 127.5t162 49.5l13 58q7 31 28 31h7q31 0 25 -31l-14 -63q80 -13 124 -57q32 -32 32 -66q0 -15 -10 -24.5t-20 -12 t-11 0.5q-35 83 -130 102l-52 -245q41 -18 63 -29.5t49.5 -32.5t40 -49t12.5 -65q0 -85 -61 -136t-179 -47l-13 -62q-7 -31 -28 -31h-7zM409 168q0 41 -28.5 66.5t-84.5 49.5l-50 -237q82 -2 122.5 31t40.5 90zM168 487q0 -42 24 -67.5t73 -48.5l48 229q-65 0 -105 -32.5 t-40 -80.5z" />
<glyph unicode="%" horiz-adv-x="732" d="M215 347q-58 0 -97 37.5t-39 99.5q0 70 47.5 121.5t118.5 51.5q58 0 97 -37.5t39 -99.5q0 -70 -47.5 -121.5t-118.5 -51.5zM52 -9q-2 -2 -8.5 0.5t-12.5 9.5t-6 17q0 21 36 54l656 590q1 0 2.5 0.5t4 -0.5t5.5 -2.5t5.5 -4t4.5 -5.5t3.5 -7t1.5 -8q0 -21 -36 -54zM524 -4 q-58 0 -97 37.5t-39 99.5q0 70 47.5 121.5t118.5 51.5q58 0 97 -37.5t39 -99.5q0 -70 -47.5 -121.5t-118.5 -51.5zM219 398q45 0 76 35.5t31 83.5q0 38 -24.5 63.5t-60.5 25.5q-45 0 -76 -35.5t-31 -83.5q0 -38 24.5 -63.5t60.5 -25.5zM528 47q45 0 76 35.5t31 83.5 q0 38 -24.5 63.5t-60.5 25.5q-45 0 -76 -35.5t-31 -83.5q0 -38 24.5 -63.5t60.5 -25.5z" />
<glyph unicode="&#x26;" horiz-adv-x="651" d="M229 -12q-98 0 -154.5 49.5t-56.5 129.5q0 84 53.5 134.5t154.5 75.5q-32 52 -32 108q0 73 50.5 123.5t127.5 50.5q64 0 104.5 -38t40.5 -100q0 -137 -192 -175l143 -185q77 94 89 202q2 1 13 2t23.5 -9.5t12.5 -29.5q0 -37 -28 -97t-75 -112l4 -6q29 -37 51.5 -52.5 t55.5 -15.5q1 0 1.5 -5t-1 -11.5t-5 -13.5t-13 -12t-23.5 -5q-34 0 -56 16t-52 55l-6 7q-99 -86 -230 -86zM292 390q87 17 125 44t38 86q0 38 -25 60.5t-64 22.5q-48 0 -77.5 -34t-29.5 -79q0 -53 33 -100zM236 46q110 0 190 71l-169 216q-174 -38 -174 -164q0 -53 39 -88 t114 -35z" />
<glyph unicode="'" horiz-adv-x="209" d="M144 390q-15 0 -20 5.5t-3 23.5l19 181q3 28 13 39.5t30 11.5q29 0 39 -13t0 -46l-57 -177q-7 -25 -21 -25z" />
<glyph unicode="(" horiz-adv-x="351" d="M231 -200q-47 0 -97 50q-95 95 -95 270q0 120 46 236.5t128 198.5q95 95 184 95q34 0 34 -29q0 -6 -3 -12.5t-6 -10t-4 -3.5q-85 -5 -162 -82q-72 -72 -110.5 -178.5t-38.5 -214.5q0 -148 79 -227q31 -31 72 -43q6 -3 6 -18q0 -32 -33 -32z" />
<glyph unicode=")" horiz-adv-x="351" d="M-49 -199q-34 0 -34 29q0 6 3 12.5t6 10t4 3.5q85 5 162 82q72 72 110.5 178.5t38.5 214.5q0 148 -79 227q-31 31 -72 43q-6 3 -6 18q0 32 33 32q47 0 97 -50q95 -95 95 -270q0 -120 -46 -236.5t-128 -198.5q-95 -95 -184 -95z" />
<glyph unicode="*" horiz-adv-x="377" d="M145 346l-3 2q-16 11 -3 33l60 92l-102 38q-23 9 -16 28l1 4q5 17 30 12l105 -28l6 107q1 25 21 25h4q20 0 21 -25l4 -108l106 29q25 5 31 -12l1 -4q6 -20 -17 -28l-102 -39l60 -91q13 -22 -3 -33l-3 -2q-16 -11 -32 8l-69 86l-68 -86q-16 -18 -32 -8z" />
<glyph unicode="+" horiz-adv-x="539" d="M227 34q-30 0 -24 31l37 174h-159q-29 0 -29 16q0 23 12 35q7 7 24 7h164l35 163q7 31 29 31h8q30 0 24 -31l-35 -163h159q29 0 29 -16q0 -23 -12 -35q-7 -7 -24 -7h-164l-37 -174q-7 -31 -29 -31h-8z" />
<glyph unicode="," horiz-adv-x="209" d="M-28 -132q-5 -6 -19.5 3t-10.5 17l110 210q3 1 17 0.5t29.5 -9.5t15.5 -24q0 -21 -19 -45z" />
<glyph unicode="-" horiz-adv-x="366" d="M75 212q-30 0 -30 17q0 23 12 35q8 8 25 8h212q30 0 30 -17q0 -23 -12 -35q-8 -8 -25 -8h-212z" />
<glyph unicode="." horiz-adv-x="209" d="M61 -6q-48 0 -48 34q0 36 16 52q13 13 37 13q48 0 48 -34q0 -36 -16 -52q-13 -13 -37 -13z" />
<glyph unicode="/" horiz-adv-x="323" d="M-27 -196q-2 0 -13 -0.5t-23 8.5t-12 24q0 19 16 50l397 764q2 0 13 0.5t23 -8.5t12 -24q0 -19 -16 -50z" />
<glyph unicode="0" horiz-adv-x="629" d="M301 -12q-113 0 -175 65t-62 170q0 67 25 169q14 58 34 102t52 83t80 60t110 21q113 0 175 -65t62 -170q0 -67 -25 -169q-14 -58 -34 -102t-52 -83t-80 -60t-110 -21zM301 46q49 0 86.5 17.5t61 50.5t38 67t25.5 81q22 91 22 161q0 79 -46 128t-123 49q-49 0 -86.5 -17.5 t-61 -50.5t-38 -67t-25.5 -81q-22 -91 -22 -161q0 -79 46 -128t123 -49z" />
<glyph unicode="1" horiz-adv-x="347" d="M149 -4q-32 0 -24 35l106 503q-30 -30 -73 -30q-40 0 -57 17q-12 12 -12 31q0 13 7.5 24.5t14.5 17t8 4.5q17 -25 57 -25q31 0 55.5 22.5t33.5 55.5h28q32 0 24 -35l-125 -589q-7 -31 -34 -31h-9z" />
<glyph unicode="2" horiz-adv-x="520" d="M119 162q-38 -38 -44 -100h336q38 0 38 -25q0 -7 -3.5 -16t-7 -15t-4.5 -6h-400q-2 0 -8.5 6.5t-12.5 18t-6 21.5q0 99 65 164q34 34 80 57t115 48q110 40 152 72.5t42 97.5q0 49 -39 80.5t-106 31.5q-116 0 -171 -117q-1 -3 -11 -0.5t-19.5 12.5t-9.5 27q0 34 38 72 q68 68 177 68q97 0 154 -47t57 -127q0 -49 -16 -85.5t-52 -63.5t-73 -44.5t-101 -40.5q-68 -24 -105.5 -43t-64.5 -46z" />
<glyph unicode="3" horiz-adv-x="532" d="M225 -12q-123 0 -186 63q-41 41 -41 81q0 21 11.5 33.5t22.5 15t12 -0.5q12 -64 59.5 -98.5t125.5 -34.5q84 0 128 42.5t44 105.5q0 54 -39.5 86t-112.5 32h-46q-29 0 -29 16q0 23 12 35q7 7 24 7h52q186 0 186 127q0 46 -39.5 74.5t-98.5 28.5q-112 0 -175 -94 q-1 -2 -9.5 1.5t-16.5 12.5t-8 19q0 24 27 51q66 68 185 68q90 0 148.5 -41t58.5 -118q0 -62 -38 -108.5t-112 -57.5q51 -17 77 -53.5t26 -84.5q0 -37 -13.5 -72.5t-41.5 -66.5t-78 -50t-115 -19z" />
<glyph unicode="4" horiz-adv-x="571" d="M344 -4q-31 0 -24 35l32 153h-303q-2 0 -7.5 7t-10.5 19t-5 22q0 29 34 63l327 317q40 39 73 39q57 0 47 -49l-76 -356h83q31 0 31 -17q0 -23 -13 -38q-6 -7 -26 -7h-88l-33 -157q-4 -18 -11 -24.5t-23 -6.5h-7zM93 245h274l72 340z" />
<glyph unicode="5" horiz-adv-x="528" d="M198 585l-44 -207q54 21 114 21q100 0 159.5 -49.5t59.5 -130.5q0 -103 -68.5 -167t-184.5 -64q-128 0 -191 67q-32 33 -32 69q0 15 10.5 25t21 13.5t11.5 0.5q16 -53 62.5 -84t119.5 -31q81 0 130.5 46t49.5 121q0 124 -153 124q-83 0 -146 -35q-42 10 -32 51l52 251 q8 41 47 41h349q1 0 2.5 -3t3 -8t1.5 -11q0 -15 -11 -27.5t-32 -12.5h-299z" />
<glyph unicode="6" horiz-adv-x="575" d="M289 -12q-102 0 -163.5 60t-61.5 171q0 84 33 195t95 173q37 37 78.5 54.5t108.5 17.5q99 0 155 -56q29 -30 29 -58q0 -15 -9.5 -25.5t-19 -14t-10.5 -0.5q-44 96 -152 96q-171 0 -227 -256q74 59 175 59q94 0 151.5 -47.5t57.5 -132.5q0 -94 -68 -165t-172 -71zM290 48 q80 0 127.5 49t47.5 123q0 59 -39.5 93.5t-113.5 34.5q-100 0 -179 -70q-5 -28 -5 -61q0 -81 42 -125t120 -44z" />
<glyph unicode="7" horiz-adv-x="518" d="M125 -4q-1 -1 -11 0.5t-20.5 11t-10.5 25.5q0 19 25 51l378 496h-340q-41 0 -41 27q0 7 3.5 17t7.5 16.5t5 6.5h402q3 0 10 -6.5t14.5 -20t7.5 -27.5q0 -23 -23 -53z" />
<glyph unicode="8" horiz-adv-x="569" d="M270 -12q-108 0 -174 47t-66 126q0 64 46.5 113t125.5 67q-87 36 -87 125q0 80 65.5 136.5t167.5 56.5q92 0 152.5 -44t60.5 -116q0 -60 -40 -108t-113 -65q105 -43 105 -140q0 -84 -66.5 -141t-176.5 -57zM335 362q75 0 116.5 35.5t41.5 95.5q0 50 -42.5 79.5 t-111.5 29.5q-72 0 -114 -37t-42 -96q0 -50 41 -78.5t111 -28.5zM272 45q80 0 126.5 39.5t46.5 101.5q0 52 -48 84.5t-130 32.5q-72 0 -120.5 -38.5t-48.5 -99.5q0 -54 47.5 -87t126.5 -33z" />
<glyph unicode="9" horiz-adv-x="575" d="M233 -12q-99 0 -155 56q-29 29 -29 58q0 15 9.5 25.5t19 14t10.5 0.5q44 -96 152 -96q168 0 225 246q-76 -59 -174 -59t-153.5 48t-55.5 137q0 98 68 169.5t173 71.5q102 0 163.5 -60t61.5 -171q0 -84 -33 -195t-95 -173q-37 -37 -78.5 -54.5t-108.5 -17.5zM299 289 q99 0 178 70q7 38 7 71q0 81 -42 125t-120 44q-81 0 -128.5 -50t-47.5 -127q0 -63 38 -98t115 -35z" />
<glyph unicode=":" horiz-adv-x="239" d="M148 334q-48 0 -48 34q0 36 16 52q13 13 37 13q48 0 48 -34q0 -36 -16 -52q-13 -13 -37 -13zM76 -6q-48 0 -48 34q0 36 16 52q13 13 37 13q48 0 48 -34q0 -36 -16 -52q-13 -13 -37 -13z" />
<glyph unicode=";" horiz-adv-x="239" d="M148 334q-48 0 -48 34q0 36 16 52q13 13 37 13q48 0 48 -34q0 -36 -16 -52q-13 -13 -37 -13zM-13 -132q-5 -6 -19.5 3t-10.5 17l110 210q3 1 17 0.5t29.5 -9.5t15.5 -24q0 -21 -19 -45z" />
<glyph unicode="&#x3c;" horiz-adv-x="468" d="M365 50l-289 172q-24 15 -24 40q0 36 42 56l349 168q2 1 6.5 -3t9.5 -12t5 -17q2 -25 -43 -47l-302 -142l231 -134q43 -24 39 -51q-1 -10 -6.5 -17.5t-10.5 -11t-7 -1.5z" />
<glyph unicode="=" horiz-adv-x="539" d="M116 346q-31 0 -31 16q0 25 13 38q7 7 25 7h360q31 0 31 -16q0 -25 -13 -38q-7 -7 -25 -7h-360zM67 119q-31 0 -31 16q0 25 13 38q7 7 25 7h360q31 0 31 -16q0 -25 -13 -38q-7 -7 -25 -7h-360z" />
<glyph unicode="&#x3e;" horiz-adv-x="468" d="M38 50q-2 -1 -6.5 3t-9.5 12t-5 17q-2 25 43 47l302 142l-231 134q-43 24 -39 51q1 10 6.5 17.5t10.5 11t7 1.5l289 -172q24 -15 24 -40q0 -36 -42 -56z" />
<glyph unicode="?" horiz-adv-x="463" d="M216 175q-23 0 -39 16.5t-16 43.5q0 41 30 67t96 49q70 24 102 52t32 80q0 49 -36 82.5t-98 33.5q-55 0 -94 -33.5t-60 -88.5q-1 -3 -11.5 0t-21 12.5t-10.5 23.5q0 40 42 82q64 64 159 64q89 0 143 -50t54 -126q0 -127 -158 -178q-58 -19 -81.5 -34t-23.5 -34 q0 -25 25 -33q2 -1 -0.5 -8t-11 -14t-22.5 -7zM165 -6q-48 0 -48 34q0 36 16 52q13 13 37 13q48 0 48 -34q0 -36 -16 -52q-13 -13 -37 -13z" />
<glyph unicode="@" horiz-adv-x="746" d="M378 -12q-141 0 -226.5 80t-85.5 213q0 158 105.5 268t257.5 110q136 0 218 -73.5t82 -195.5q0 -106 -46 -166.5t-123 -60.5q-91 0 -104 67q-38 -61 -115 -61q-50 0 -82.5 32t-32.5 88q0 71 46.5 127.5t114.5 56.5q32 0 58 -15t38 -40q12 50 51 50q6 0 11.5 -1.5 t8.5 -3.5t3 -3l-37 -174q-16 -74 48 -74q51 0 81 47t30 129q0 98 -71.5 161t-183.5 63q-127 0 -217 -95.5t-90 -231.5q0 -110 74.5 -179.5t191.5 -69.5q88 0 154 43q19 12 34 12q8 0 15.5 -7.5t11 -15.5t0.5 -10q-36 -29 -95 -49.5t-125 -20.5zM358 221q37 0 67 27.5 t38 66.5l9 43q-18 63 -80 63q-46 0 -74.5 -38.5t-28.5 -86.5q0 -34 20 -54.5t49 -20.5z" />
<glyph unicode="A" horiz-adv-x="609" d="M35 -3q-2 1 -12.5 -0.5t-22.5 8t-12 28.5q0 16 19 49l326 549q14 23 43 23q41 0 47 -30l122 -607q1 -3 -4 -7.5t-14.5 -8.5t-19.5 -4q-29 0 -36 37l-33 177h-280zM193 271h233l-57 305z" />
<glyph unicode="B" horiz-adv-x="603" d="M73 0q-22 0 -32 12t-5 33l119 561q6 41 47 41h184q95 0 144.5 -37.5t49.5 -108.5q0 -130 -137 -171q56 -15 84.5 -50t28.5 -81q0 -89 -60 -144t-193 -55h-230zM170 358h180q73 0 116.5 37.5t43.5 96.5q-3 94 -131 94h-160zM107 61h201q94 0 136 34t42 104q0 47 -36 73 t-105 26h-187z" />
<glyph unicode="C" horiz-adv-x="650" d="M353 -12q-133 0 -212.5 75.5t-79.5 203.5q0 161 104 276.5t256 115.5q122 0 193 -71q42 -42 42 -80q0 -16 -10 -26.5t-20.5 -13t-14.5 0.5q-48 131 -193 131q-121 0 -203 -95t-82 -228q0 -105 60.5 -167t158.5 -62q138 0 207 105q1 2 9.5 -1.5t16.5 -12.5t8 -22 q0 -24 -29 -53q-32 -32 -89 -54t-122 -22z" />
<glyph unicode="D" horiz-adv-x="660" d="M73 0q-22 0 -32 12t-5 33l119 561q6 41 47 41h110q151 0 235.5 -70.5t84.5 -198.5q0 -165 -104.5 -271.5t-298.5 -106.5h-156zM107 60h132q158 0 239.5 87.5t81.5 220.5q0 103 -66.5 161t-186.5 58h-88z" />
<glyph unicode="E" horiz-adv-x="576" d="M73 0q-22 0 -32 12t-5 33l119 561q8 41 47 41h383q31 0 31 -17q0 -23 -13 -38q-6 -7 -26 -7h-358l-48 -223h283q30 0 30 -16q0 -25 -12 -37q-7 -7 -25 -7h-289l-51 -240h359q31 0 31 -17q0 -23 -13 -38q-6 -7 -26 -7h-385z" />
<glyph unicode="F" horiz-adv-x="533" d="M57 -4q-32 0 -24 35l122 575q6 41 47 41h358q31 0 31 -17q0 -23 -13 -38q-6 -7 -26 -7h-333l-52 -244h248q30 0 30 -16q0 -25 -12 -37q-7 -7 -25 -7h-254l-54 -254q-7 -31 -34 -31h-9z" />
<glyph unicode="G" horiz-adv-x="706" d="M578 -4q-47 0 -32 69l3 14q-26 -40 -79 -65.5t-119 -25.5q-131 0 -210.5 73.5t-79.5 202.5q0 103 46 193.5t130.5 146t188.5 55.5q131 0 206 -75q36 -36 36 -69q0 -19 -11.5 -30t-22.5 -12.5t-12 0.5q-19 55 -72.5 90.5t-124.5 35.5q-126 0 -209 -96.5t-83 -231.5 q0 -107 59.5 -165.5t159.5 -58.5q104 0 165 61q30 30 43 58t29 103h-182q-31 0 -31 16q0 25 13 38q7 7 25 7h202q22 0 32 -12t5 -33l-61 -286q0 -3 -14 -3z" />
<glyph unicode="H" horiz-adv-x="667" d="M57 -4q-32 0 -24 35l125 589q7 31 34 31h9q32 0 24 -35l-55 -261h377l56 265q7 31 34 31h9q32 0 24 -35l-125 -589q-7 -31 -34 -31h-9q-32 0 -24 35l56 262h-377l-57 -266q-7 -31 -34 -31h-9z" />
<glyph unicode="I" horiz-adv-x="242" d="M68 -4q-32 0 -24 35l125 589q7 31 34 31h9q32 0 24 -35l-125 -589q-7 -31 -34 -31h-9z" />
<glyph unicode="J" horiz-adv-x="437" d="M158 -12q-80 0 -128 48q-24 24 -24 44q0 15 9.5 25.5t19 14.5t10.5 1q15 -33 46 -53.5t68 -20.5q55 0 86 34t48 113l91 426q7 31 34 31h9q32 0 24 -35l-92 -431q-22 -101 -70.5 -149t-130.5 -48z" />
<glyph unicode="K" horiz-adv-x="546" d="M450 -5q-25 0 -48 20.5t-65 77.5l-173 235l-64 -301q-4 -17 -11.5 -24t-22.5 -7h-9q-32 0 -24 35l125 589q7 31 34 31h9q32 0 24 -35l-57 -270l385 313q1 1 8.5 -2t15 -11t7.5 -19q0 -14 -7.5 -24.5t-28.5 -27.5l-309 -247l161 -212q34 -46 53 -60.5t45 -16.5 q1 0 1.5 -4.5t-1.5 -11t-6.5 -13t-15.5 -11t-26 -4.5z" />
<glyph unicode="L" horiz-adv-x="500" d="M73 0q-22 0 -32 12t-5 33l122 575q7 31 34 31h9q32 0 24 -35l-118 -554h308q31 0 31 -17q0 -23 -13 -38q-6 -7 -26 -7h-334z" />
<glyph unicode="M" horiz-adv-x="741" d="M56 -4q-31 0 -23 35l122 574q10 46 55 46h16q24 0 33 -11t16 -40l89 -377l252 377q21 31 34 41t35 10h18q22 0 32 -14t6 -34l-122 -576q-7 -31 -33 -31h-8q-31 0 -23 35l115 542l-251 -372q-28 -40 -63 -40q-26 0 -37 11.5t-17 35.5l-89 365l-116 -546q-7 -31 -33 -31h-8 z" />
<glyph unicode="N" horiz-adv-x="675" d="M56 -4q-31 0 -23 35l122 574q10 46 48 46h17q16 0 24.5 -8t18.5 -28l242 -514l110 519q7 31 33 31h7q31 0 23 -35l-123 -579q-9 -41 -44 -41h-7q-24 0 -42 36l-252 534l-114 -539q-7 -31 -33 -31h-7z" />
<glyph unicode="O" horiz-adv-x="732" d="M349 -11q-131 0 -209.5 79t-78.5 201q0 166 109 278t249 112q131 0 209.5 -79t78.5 -201q0 -166 -109 -278t-249 -112zM356 48q108 0 193.5 93.5t85.5 232.5q0 97 -59.5 161.5t-163.5 64.5q-108 0 -193.5 -93.5t-85.5 -232.5q0 -97 59.5 -161.5t163.5 -64.5z" />
<glyph unicode="P" horiz-adv-x="553" d="M57 -4q-32 0 -24 35l122 575q6 41 47 41h148q103 0 159 -43.5t56 -123.5q0 -109 -67 -168.5t-191 -59.5h-159l-48 -225q-7 -31 -34 -31h-9zM161 312h159q82 0 128.5 42t46.5 117q0 115 -149 115h-127z" />
<glyph unicode="Q" horiz-adv-x="744" d="M626 -12q-23 0 -38.5 11.5t-41.5 45.5l-6 7q-89 -63 -195 -63q-132 0 -208 78t-76 202q0 111 52 201.5t135 139.5t175 49q132 0 208 -78t76 -202q0 -173 -120 -288l6 -7q36 -45 66 -51q0 -2 1 -12t-8 -21.5t-26 -11.5zM352 48q80 0 150 51l-101 132q-10 14 -10 26 q0 8 11 18t20 10q15 0 27 -15l98 -130q88 95 88 234q0 97 -58.5 161.5t-160.5 64.5q-110 0 -196.5 -93t-86.5 -233q0 -97 58.5 -161.5t160.5 -64.5z" />
<glyph unicode="R" horiz-adv-x="567" d="M331 272h-11l89 -154q25 -43 43.5 -59t51.5 -16q1 0 1.5 -5t-1.5 -12t-6.5 -14t-15.5 -12t-26 -5q-28 0 -51.5 19.5t-56.5 77.5l-101 180h-95l-52 -245q-7 -31 -34 -31h-9q-32 0 -24 35l122 575q6 41 47 41h158q105 0 160 -40.5t55 -118.5q0 -101 -65.5 -158.5 t-178.5 -57.5zM164 330h169q81 0 126 40t45 111q0 52 -38 79t-110 27h-137z" />
<glyph unicode="S" horiz-adv-x="533" d="M252 -12q-131 0 -204 73q-37 37 -37 72q0 15 10.5 25t20.5 12.5t11 -0.5q23 -58 74.5 -90.5t128.5 -32.5q76 0 114.5 31.5t38.5 89.5q0 24 -9.5 43t-33 35t-42.5 25t-57 25q-39 16 -62 28.5t-51 34t-41.5 51.5t-13.5 70q0 77 59.5 128t157.5 51q124 0 188 -64 q32 -32 32 -66q0 -15 -10 -24.5t-20 -12t-11 0.5q-45 107 -182 107q-64 0 -104.5 -32t-40.5 -81q0 -27 9.5 -47t33 -36.5t43 -26.5t60.5 -27q32 -14 49 -21.5t42.5 -24t38.5 -32.5t23.5 -41.5t10.5 -56.5q0 -85 -59.5 -135.5t-166.5 -50.5z" />
<glyph unicode="T" horiz-adv-x="584" d="M239 -4q-32 0 -24 35l118 554h-199q-31 0 -31 17q0 23 13 38q6 7 26 7h469q31 0 31 -17q0 -23 -13 -38q-6 -7 -26 -7h-202l-119 -558q-7 -31 -34 -31h-9z" />
<glyph unicode="U" horiz-adv-x="639" d="M304 -12q-134 0 -195.5 76.5t-30.5 220.5l71 335q7 31 34 31h9q32 0 24 -35l-71 -336q-24 -115 18 -173t145 -58q158 0 200 198l79 373q7 31 34 31h8q32 0 24 -35l-81 -383q-52 -245 -268 -245z" />
<glyph unicode="V" horiz-adv-x="600" d="M264 -6q-41 0 -47 30l-116 607q-1 3 4 7.5t14.5 8.5t19.5 4q29 0 36 -37l96 -542l328 579l5 1q5 0 11.5 -1.5t13.5 -4.5t12 -11t5 -20q0 -16 -19 -49l-320 -549q-14 -23 -43 -23z" />
<glyph unicode="W" horiz-adv-x="904" d="M207 -7q-26 0 -36.5 8t-11.5 25l-19 611q0 4 11 9.5t22 5.5q17 0 27 -11.5t10 -31.5l8 -548l243 468q9 19 20.5 26t33.5 7q47 0 51 -44l41 -455l261 586q0 1 5 1.5t12.5 -0.5t15 -4t12.5 -11t5 -21q0 -16 -15 -47l-252 -551q-11 -23 -51 -23q-46 0 -49 34l-42 468 l-253 -477q-8 -15 -17.5 -20t-31.5 -5z" />
<glyph unicode="X" horiz-adv-x="572" d="M474 -12q-32 0 -54 25t-48 83l-81 181l-273 -289q-1 -1 -10.5 1.5t-19 11.5t-9.5 23q0 18 26 44l256 260l-137 295q-1 3 2.5 9.5t13 12.5t21.5 6q23 0 35 -27l116 -258l277 293q1 1 10.5 -1.5t19 -11.5t9.5 -23q0 -18 -26 -44l-260 -264l88 -189q24 -51 41 -66.5 t49 -15.5q1 0 1.5 -6t-1.5 -14t-6 -16t-14.5 -14t-25.5 -6z" />
<glyph unicode="Y" horiz-adv-x="549" d="M218 -4q-29 0 -22 31l52 245l-157 353q-1 3 3.5 9t15 11.5t21.5 5.5q23 0 33 -26l127 -294l273 322q1 1 11 -1.5t20 -11.5t10 -24q0 -19 -29 -52l-262 -299l-50 -238q-7 -31 -37 -31h-9z" />
<glyph unicode="Z" horiz-adv-x="564" d="M26 0q-2 0 -7.5 7t-10.5 19t-5 22q0 29 34 63l474 474h-358q-38 0 -38 25q0 7 3.5 16t7 15t4.5 6h433q2 0 7.5 -7t10.5 -19t5 -22q0 -29 -34 -63l-474 -474h380q38 0 38 -25q0 -7 -3.5 -16t-7 -15t-4.5 -6h-455z" />
<glyph unicode="[" horiz-adv-x="323" d="M34 -197q-22 0 -32 12t-5 33l161 758q9 41 47 41h151q29 0 29 -16q0 -24 -12 -36q-7 -7 -24 -7h-133l-154 -726h128q29 0 29 -16q0 -24 -12 -36q-7 -7 -24 -7h-149z" />
<glyph unicode="\" horiz-adv-x="323" d="M195 -198q-7 0 -13.5 1.5t-9.5 3.5t-3 3l-73 770q-6 71 34 71q7 0 13.5 -1.5t9.5 -3.5t3 -3l73 -770q6 -71 -34 -71z" />
<glyph unicode="]" horiz-adv-x="323" d="M-39 -197q-29 0 -29 16q0 24 12 36q7 7 24 7h133l154 726h-128q-29 0 -29 16q0 24 12 36q7 7 24 7h149q22 0 32 -12t5 -33l-161 -758q-9 -41 -47 -41h-151z" />
<glyph unicode="^" horiz-adv-x="500" d="M189 446q-19 0 -19 17q0 30 67 86q20 17 42.5 33.5t35.5 25t15 8.5t11.5 -9t24 -24.5t26.5 -30.5q39 -51 39 -77q0 -29 -24 -29q-12 0 -24 13.5t-32 47.5l-29 51l-51 -53q-57 -59 -82 -59z" />
<glyph unicode="_" horiz-adv-x="465" d="M-12 -62q-31 0 -31 17q0 25 12 37q8 8 26 8h369q31 0 31 -17q0 -25 -12 -37q-8 -8 -26 -8h-369z" />
<glyph unicode="`" horiz-adv-x="500" d="M388 551q-3 -3 -28 5.5t-61 27.5t-64 42q-30 25 -30 49q0 12 10 20.5t22 8.5q21 0 45 -21q27 -22 53.5 -53.5t41 -53.5t11.5 -25z" />
<glyph unicode="a" horiz-adv-x="569" d="M472 -8q-82 0 -65 98q-68 -102 -184 -102q-81 0 -136 53.5t-55 148.5q0 115 78 206.5t192 91.5q58 0 103 -28t65 -73l6 26q7 36 19.5 51.5t32.5 15.5q6 0 12 -2t9.5 -3.5t3.5 -2.5l-79 -371q-8 -36 1 -49.5t42 -14.5q2 0 0.5 -11t-12.5 -22.5t-33 -11.5zM231 45 q73 0 132 54t74 129l17 79q-36 124 -156 124q-89 0 -144.5 -74t-55.5 -166q0 -67 38.5 -106.5t94.5 -39.5z" />
<glyph unicode="b" horiz-adv-x="566" d="M275 -12q-61 0 -105.5 29t-68.5 77l-7 -32q-7 -36 -19 -51t-33 -15q-6 0 -12 2t-9.5 3.5t-3.5 2.5l137 646q4 17 10.5 24t19.5 7h8q33 0 27 -31l-55 -256q69 94 175 94q81 0 138.5 -56t57.5 -155q0 -114 -74 -201.5t-186 -87.5zM331 431q-57 0 -106.5 -33t-77.5 -87 l-19 -90q-13 -70 29.5 -123t121.5 -53q87 0 138.5 70t51.5 162q0 71 -40.5 112.5t-97.5 41.5z" />
<glyph unicode="c" horiz-adv-x="518" d="M257 -12q-97 0 -161.5 60t-64.5 161q0 111 79 194.5t191 83.5q105 0 165 -60q40 -40 40 -82q0 -19 -12 -29.5t-23 -9.5t-13 2q-10 54 -50.5 87.5t-104.5 33.5q-88 0 -146.5 -65.5t-58.5 -150.5q0 -74 45 -120t120 -46q98 0 155 90q1 2 10 -0.5t18 -10.5t9 -20 q0 -23 -31 -54q-27 -27 -71.5 -45.5t-95.5 -18.5z" />
<glyph unicode="d" horiz-adv-x="569" d="M472 -8q-38 0 -55 23.5t-12 65.5q-69 -93 -174 -93q-81 0 -138.5 56t-57.5 155q0 114 74 201.5t186 87.5q119 0 176 -97l55 259q7 31 30 31h8q33 0 27 -31l-117 -549q-8 -35 1 -49t42 -15q2 0 0.5 -11t-12.5 -22.5t-33 -11.5zM239 45q70 0 125 49.5t70 123.5l18 87 q-21 62 -58 94t-103 32q-87 0 -138.5 -70t-51.5 -162q0 -71 40.5 -112.5t97.5 -41.5z" />
<glyph unicode="e" horiz-adv-x="505" d="M235 -12q-99 0 -153 53.5t-54 140.5q0 129 86.5 217.5t213.5 88.5q79 0 124.5 -34.5t45.5 -91.5q0 -76 -62 -114t-215 -38q-53 0 -126 6q-1 -10 -1 -30q0 -65 37 -103.5t106 -38.5q102 0 161 79q1 2 9.5 -1t16.5 -11t8 -19q0 -20 -22 -42q-62 -62 -175 -62zM325 431 q-73 0 -132 -45t-84 -115q48 -6 106 -6q217 0 217 96q0 29 -28 49.5t-79 20.5z" />
<glyph unicode="f" horiz-adv-x="330" d="M93 -4q-33 0 -27 31l83 391h-67q-29 0 -29 16q0 23 12 35q7 7 24 7h72l13 58q33 155 155 155q56 0 84 -28q14 -14 14 -32q0 -10 -6 -19t-12 -13t-7 -2q-25 36 -76 36q-69 0 -91 -106l-11 -49h95q29 0 29 -16q0 -23 -12 -35q-7 -7 -24 -7h-99l-82 -391q-7 -31 -30 -31h-8z " />
<glyph unicode="g" horiz-adv-x="569" d="M212 -200q-116 0 -178 62q-34 34 -34 64q0 20 11.5 32t23 15t12.5 0q31 -114 171 -114q139 0 172 155l17 79q-67 -92 -175 -92q-81 0 -139.5 56t-58.5 155q0 106 79 191t189 85q58 0 103 -27.5t65 -72.5l6 25q7 36 19.5 51.5t32.5 15.5q6 0 12 -2t9.5 -3.5t3.5 -2.5 l-99 -464q-21 -100 -82.5 -154t-159.5 -54zM240 58q68 0 123.5 45.5t70.5 115.5l19 89q-36 123 -155 123q-84 0 -141 -67.5t-57 -151.5q0 -70 41.5 -112t98.5 -42z" />
<glyph unicode="h" horiz-adv-x="537" d="M436 -8q-30 0 -47 19t-17 52q0 32 26 127q25 89 25 125q0 52 -28.5 82t-80.5 30q-54 0 -93 -28t-74 -87l-60 -285q-7 -31 -30 -31h-8q-33 0 -27 31l132 623q7 31 30 31h8q33 0 27 -31l-54 -253q26 43 68 67t90 24q77 0 122 -45t45 -116q0 -40 -29 -146q-24 -84 -24 -108 q0 -19 10 -27t32 -10q2 0 0.5 -11t-12 -22t-31.5 -11z" />
<glyph unicode="i" horiz-adv-x="209" d="M190 596q-44 0 -44 33q0 21 12 36t34 15q44 0 44 -33q0 -21 -12 -36t-34 -15zM109 -8q-89 0 -66 108l74 349q7 31 30 31h8q33 0 27 -31l-74 -348q-8 -36 2 -50t46 -14q2 0 0.5 -11t-13 -22.5t-34.5 -11.5z" />
<glyph unicode="j" horiz-adv-x="209" d="M190 596q-44 0 -44 33q0 21 12 36t34 15q44 0 44 -33q0 -21 -12 -36t-34 -15zM-68 -203q-56 0 -83 27q-14 14 -14 28q0 11 6.5 21.5t13 15.5t7.5 4q25 -38 72 -38q30 0 48 18.5t27 64.5l108 511q7 31 30 31h8q33 0 27 -31l-111 -523q-27 -129 -139 -129z" />
<glyph unicode="k" horiz-adv-x="441" d="M347 -8q-30 0 -51 19.5t-67 88.5l-96 145l-46 -218q-7 -31 -30 -31h-8q-33 0 -27 31l132 623q7 31 30 31h8q33 0 27 -31l-83 -390l283 228q1 1 8 -1.5t14.5 -10.5t7.5 -21q0 -21 -35 -49l-207 -164l85 -125q32 -47 49.5 -58.5t53.5 -13.5q1 0 1 -5.5t-2 -13.5t-6.5 -15.5 t-15 -13t-25.5 -5.5z" />
<glyph unicode="l" horiz-adv-x="209" d="M109 -8q-89 0 -66 108l117 550q7 31 30 31h8q33 0 27 -31l-117 -549q-8 -36 2 -50t46 -14q2 0 0.5 -11t-13 -22.5t-34.5 -11.5z" />
<glyph unicode="m" horiz-adv-x="855" d="M754 -8q-30 0 -47 19t-17 52q0 32 26 127q25 89 25 125q0 51 -28 81.5t-74 30.5q-51 0 -87.5 -24.5t-72.5 -80.5l-62 -295q-6 -31 -36 -31h-7q-28 0 -22 31l52 247q14 67 -13 110t-82 43q-51 0 -87.5 -24.5t-72.5 -80.5l-62 -295q-6 -31 -36 -31h-7q-28 0 -22 31l96 450 q0 3 14 3q49 0 36 -69l-1 -3q57 80 151 80q56 0 95 -28t53 -77q66 105 182 105q71 0 115.5 -45.5t44.5 -115.5q0 -40 -29 -146q-24 -84 -24 -108q0 -19 10 -27t32 -10q2 0 0.5 -11t-12 -22t-31.5 -11z" />
<glyph unicode="n" horiz-adv-x="537" d="M168 411l-3 -14q27 43 68.5 67t89.5 24q77 0 122 -45t45 -116q0 -40 -29 -146q-24 -84 -24 -108q0 -19 10 -27t32 -10q2 0 0.5 -11t-12 -22t-31.5 -11q-30 0 -47 19t-17 52q0 32 26 127q25 89 25 125q0 52 -28.5 82t-80.5 30q-54 0 -93 -28t-74 -87l-60 -285 q-7 -31 -30 -31h-8q-33 0 -27 31l96 450q0 3 14 3q49 0 36 -69z" />
<glyph unicode="o" horiz-adv-x="550" d="M251 -12q-92 0 -155.5 62t-63.5 159q0 113 77 196t191 83q92 0 155.5 -62t63.5 -159q0 -113 -77 -196t-191 -83zM255 45q82 0 140 65.5t58 154.5q0 71 -45.5 118.5t-111.5 47.5q-82 0 -140 -65.5t-58 -154.5q0 -71 45.5 -118.5t111.5 -47.5z" />
<glyph unicode="p" horiz-adv-x="566" d="M8 -197q-33 0 -27 31l137 643q0 3 14 3q49 0 36 -69l-3 -16q70 93 174 93q81 0 138.5 -56t57.5 -155q0 -114 -74 -201.5t-186 -87.5q-62 0 -108 31t-66 76l-55 -261q-7 -31 -30 -31h-8zM331 431q-57 0 -106.5 -33t-77.5 -87l-19 -90q-13 -70 29.5 -123t121.5 -53 q87 0 138.5 70t51.5 162q0 71 -40.5 112.5t-97.5 41.5z" />
<glyph unicode="q" horiz-adv-x="569" d="M379 -197q-33 0 -27 31l53 248q-69 -94 -174 -94q-81 0 -138.5 56t-57.5 155q0 114 74 201.5t186 87.5q120 0 176 -98l5 23q7 36 19.5 51.5t32.5 15.5q6 0 12 -2t9.5 -3.5t3.5 -2.5l-136 -638q-7 -31 -30 -31h-8zM239 45q70 0 125 49.5t70 123.5l19 87q-22 63 -59 94.5 t-103 31.5q-87 0 -138.5 -70t-51.5 -162q0 -71 40.5 -112.5t97.5 -41.5z" />
<glyph unicode="r" horiz-adv-x="338" d="M168 411l-4 -19q50 96 134 96q29 0 49 -12.5t20 -32.5q0 -14 -6 -25t-12.5 -15t-7.5 -3q-24 26 -62 26q-55 0 -95 -63t-62 -169l-35 -167q-7 -31 -30 -31h-8q-33 0 -27 31l96 450q0 3 14 3q49 0 36 -69z" />
<glyph unicode="s" horiz-adv-x="447" d="M205 -12q-115 0 -177 62q-24 24 -24 45q0 13 8.5 23t17.5 13.5t10 1.5q54 -90 169 -90q55 0 85.5 22t30.5 59q0 30 -26 47t-88 38q-34 12 -53 20.5t-43.5 24.5t-36 39t-11.5 54q0 62 50 101.5t128 39.5q102 0 158 -56q24 -24 24 -48q0 -13 -9 -22.5t-18 -12t-11 0.5 q-19 37 -59.5 60t-89.5 23q-52 0 -81 -23t-29 -55t27.5 -50.5t90.5 -40.5q32 -11 51.5 -20t43 -24.5t34.5 -37t11 -50.5q0 -66 -49 -105t-134 -39z" />
<glyph unicode="t" horiz-adv-x="341" d="M191 -12q-69 0 -101 44.5t-14 128.5l54 257h-41q-29 0 -29 16q0 23 12 35q7 7 24 7h46l10 47q7 36 19.5 51.5t33.5 15.5q6 0 12 -2t9.5 -3.5t3.5 -2.5l-23 -106h120q29 0 29 -16q0 -23 -12 -35q-7 -7 -24 -7h-125l-55 -257q-25 -117 61 -117q41 0 66 29q1 1 4.5 -2.5 t7 -11.5t3.5 -16q0 -17 -14 -31q-24 -24 -77 -24z" />
<glyph unicode="u" horiz-adv-x="537" d="M438 -8q-76 0 -67 87q-26 -43 -68 -67t-90 -24q-94 0 -136.5 61t-21.5 158l51 242q6 31 30 31h8q33 0 27 -31l-52 -247q-15 -69 12.5 -111t90.5 -42q54 0 93 28t74 87l60 285q6 31 30 31h8q33 0 27 -31l-74 -348q-8 -36 1 -49.5t42 -14.5q2 0 0.5 -11t-12.5 -22.5 t-33 -11.5z" />
<glyph unicode="v" horiz-adv-x="463" d="M183 -5q-40 0 -46 48l-37 287q-7 56 -24.5 77t-52.5 21q-1 0 -1 5.5t1.5 13t5.5 15t14 13t25 5.5q32 0 53 -21q31 -31 43 -135l30 -258l244 413q2 -1 12 0t21 -7.5t11 -24.5t-18 -46l-225 -369q-14 -22 -25.5 -29.5t-30.5 -7.5z" />
<glyph unicode="w" horiz-adv-x="695" d="M156 -5q-47 0 -47 48l1 287q0 58 -16 78.5t-53 22.5q-1 0 -1.5 5t2 12.5t7.5 14.5t16 12t27 5q29 0 48 -19q35 -35 33 -137l-4 -255l151 302q11 22 24.5 29.5t34.5 7.5q46 0 50 -48l26 -292l192 411l5 1q4 0 10 -1t12.5 -4t12 -10.5t6.5 -17.5q2 -14 -13 -46l-179 -369 q-11 -22 -23.5 -29.5t-32.5 -7.5q-40 0 -46 48l-32 286l-154 -297q-12 -23 -24 -30t-33 -7z" />
<glyph unicode="x" horiz-adv-x="465" d="M25 -9q-1 -1 -9.5 1.5t-17.5 11t-9 20.5q0 19 30 49l166 163l-114 219q-1 2 2 7.5t11.5 11.5t20.5 6q17 0 27.5 -9.5t21.5 -32.5l78 -166l209 213q1 1 9.5 -1.5t17.5 -11t9 -20.5q0 -19 -30 -49l-182 -179l49 -93q27 -51 46.5 -65.5t58.5 -16.5q1 0 1.5 -5.5t-1 -13.5 t-5.5 -15.5t-14 -13t-25 -5.5q-38 0 -64.5 25.5t-63.5 104.5l-29 61z" />
<glyph unicode="y" horiz-adv-x="464" d="M-8 -204q-51 0 -74 23q-12 12 -12 28q0 10 6 18.5t12.5 13t8.5 2.5q9 -11 26 -18.5t29 -7.5q31 0 65 30.5t92 115.5l16 23q-30 4 -35 43l-28 263q-5 52 -23 75t-52 23q-1 0 -1 5.5t1.5 13t6 15t15.5 13t28 5.5q75 0 89 -156l24 -265l256 420q2 -1 11.5 0t20.5 -7.5 t11 -24.5q0 -15 -19 -46l-258 -413q-71 -113 -116.5 -152.5t-99.5 -39.5z" />
<glyph unicode="z" horiz-adv-x="473" d="M26 0q-2 0 -6 5.5t-8 15t-4 17.5q0 25 27 51l354 331h-268q-34 0 -34 23q0 6 3 14t6 13.5t4 5.5h340q2 0 6 -5.5t8 -15t4 -17.5q0 -25 -27 -51l-354 -331h277q34 0 34 -23q0 -6 -3 -14t-6 -13.5t-4 -5.5h-349z" />
<glyph unicode="{" horiz-adv-x="410" d="M272 -200q-44 0 -87 43q-94 94 -70 286l-58 42q-21 15 -27 24t-6 23q0 37 19 56q9 9 40 21l72 28q36 160 124 248q79 79 161 79q13 0 22.5 -7.5t9.5 -21.5q0 -6 -3 -12.5t-6 -10t-4 -3.5q-34 -2 -73.5 -21t-67.5 -47q-38 -38 -61.5 -94.5t-44.5 -149.5l-130 -51l104 -75 q-32 -194 44 -269q26 -26 69 -38q6 -3 6 -18q0 -32 -33 -32z" />
<glyph unicode="|" horiz-adv-x="243" d="M26 -197q-30 0 -22 35l166 782q7 31 36 31h6q14 0 20 -9.5t2 -25.5l-166 -782q-7 -31 -36 -31h-6z" />
<glyph unicode="}" horiz-adv-x="410" d="M-36 -200q-13 0 -22.5 7.5t-9.5 21.5q0 6 3 12.5t6 10t4 3.5q34 2 73.5 21t67.5 47q38 38 61.5 94.5t44.5 149.5l130 51l-104 75q32 194 -44 269q-26 26 -69 38q-6 3 -6 18q0 32 33 32q44 0 87 -43q94 -94 70 -286l58 -42q21 -15 27 -24t6 -23q0 -37 -19 -56 q-9 -9 -40 -21l-72 -28q-36 -160 -124 -248q-79 -79 -161 -79z" />
<glyph unicode="~" horiz-adv-x="500" d="M316 161q-25 0 -63 21.5t-76 58.5q-31 -73 -54 -73t-23 20q0 34 25 65t55 31q25 0 63 -21.5t76 -58.5q31 73 54 73t23 -20q0 -34 -25 -65t-55 -31z" />
<glyph unicode="&#xa1;" horiz-adv-x="247" d="M200 554q-48 0 -48 34q0 36 16 52q13 13 37 13q48 0 48 -34q0 -36 -16 -52q-13 -13 -37 -13zM85 -4q-30 0 -41 9t-4 35l110 410q5 20 17 20q15 0 19 -6t2 -22l-65 -410q-4 -21 -12.5 -28.5t-25.5 -7.5z" />
<glyph unicode="&#xa2;" horiz-adv-x="539" d="M224 -98q-31 0 -25 31l22 106q-73 18 -118 74t-45 140q0 110 78.5 193.5t189.5 84.5l20 95q7 31 28 31h6q31 0 25 -31l-21 -100q66 -13 109 -55q40 -40 40 -82q0 -19 -12 -29.5t-23 -9.5t-13 2q-8 45 -38 76.5t-77 41.5l-81 -380h1q97 0 155 91q1 2 10 -0.5t18 -10.5 t9 -20q0 -23 -31 -54q-27 -27 -71.5 -45.5t-95.5 -18.5h-5l-21 -99q-7 -31 -28 -31h-6zM125 257q0 -60 30 -102.5t82 -57.5l79 376q-83 -5 -137 -70t-54 -146z" />
<glyph unicode="&#xa3;" horiz-adv-x="544" d="M24 0q-31 0 -31 17q0 23 13 38q6 7 26 7h53l58 201h-79q-30 0 -30 17q0 23 12 35q8 8 25 8h89l32 113q34 121 83.5 172t129.5 51t126 -46q32 -32 32 -66q0 -20 -11.5 -31.5t-22 -11.5h-12.5q-22 97 -116 97q-50 0 -83 -39t-61 -135l-30 -104h165q30 0 30 -17 q0 -23 -12 -35q-8 -8 -25 -8h-175l-58 -201h310q38 0 38 -25q0 -7 -3.5 -16t-7 -15t-4.5 -6h-461z" />
<glyph unicode="&#xa4;" horiz-adv-x="626" d="M99 376q-29 0 -29 16q0 23 12 35q7 7 24 7h71q36 93 88 145q80 80 193 80q93 0 150 -57q35 -35 35 -80q0 -18 -11.5 -30t-22 -12.5t-12.5 0.5q-29 122 -147 122q-80 0 -139 -59q-39 -39 -68 -109h216q29 0 29 -16q0 -23 -12 -35q-7 -7 -24 -7h-229q-13 -52 -18 -100h220 q29 0 29 -16q0 -23 -12 -35q-7 -7 -24 -7h-215q5 -76 48 -124t113 -48q97 0 164 98q1 2 9 -1t15.5 -12t7.5 -20q0 -25 -32 -57q-28 -28 -72.5 -47t-89.5 -19q-109 0 -168 61.5t-63 168.5h-70q-29 0 -29 16q0 23 12 35q7 7 24 7h65q7 54 20 100h-58z" />
<glyph unicode="&#xa5;" horiz-adv-x="569" d="M99 255q-29 0 -29 16q0 23 12 35q7 7 24 7h143l-130 316q-1 3 4.5 8t15 9.5t19.5 4.5q27 0 37 -28l108 -287l248 317q1 1 11 -1t20 -11t10 -24q0 -18 -29 -53l-209 -251h136q29 0 29 -16q0 -23 -12 -35q-7 -7 -24 -7h-164l-17 -80h159q29 0 29 -16q0 -23 -12 -35 q-7 -7 -24 -7h-164l-19 -90q-7 -31 -37 -31h-3q-29 0 -22 31l18 90h-157q-29 0 -29 16q0 23 12 35q7 7 24 7h162l17 80h-157z" />
<glyph unicode="&#xa7;" horiz-adv-x="520" d="M204 -160q-133 0 -198 65q-31 31 -31 60q0 15 10 26.5t20 15.5t11 2q48 -111 193 -111q68 0 104 26t36 71q0 23 -20 42t-38 27.5t-66 26.5l-15 6q-40 14 -61.5 23.5t-49.5 27.5t-41 42t-13 56q0 58 38 95t96 50q-64 42 -64 110q0 70 56.5 114t150.5 44q116 0 177 -61 q28 -28 28 -54q0 -15 -10 -25.5t-20.5 -14.5t-11.5 -1q-47 98 -168 98q-63 0 -99.5 -25.5t-36.5 -65.5q0 -14 4 -25.5t16.5 -22.5t20 -17t30.5 -16.5t31.5 -13.5t38.5 -15q34 -13 48.5 -19t41 -20.5t38 -27t22 -33t10.5 -44.5q0 -61 -37.5 -98.5t-96.5 -48.5q67 -38 67 -106 q0 -74 -56.5 -118.5t-154.5 -44.5zM287 137q53 2 91.5 32t38.5 74q0 19 -9.5 34.5t-27.5 26.5t-39 19.5t-49 18.5q-4 1 -6.5 2t-5.5 2q-15 5 -45 17q-54 -7 -89.5 -34t-35.5 -69q0 -18 8.5 -32.5t18 -24t32.5 -20.5t36.5 -16t46.5 -17z" />
<glyph unicode="&#xa8;" horiz-adv-x="500" d="M409 548q-49 0 -49 38q0 24 13.5 41t37.5 17q49 0 49 -38q0 -24 -13.5 -41t-37.5 -17zM241 548q-49 0 -49 38q0 24 13.5 41t37.5 17q49 0 49 -38q0 -24 -13.5 -41t-37.5 -17z" />
<glyph unicode="&#xa9;" horiz-adv-x="757" d="M396 -12q-144 0 -236 94t-92 240q0 145 94 241t235 96q144 0 236 -94t92 -240q0 -145 -94 -241t-235 -96zM398 36q121 0 197 80t76 207q0 124 -78.5 206t-197.5 82q-121 0 -197 -80t-76 -207q0 -124 78.5 -206t197.5 -82zM405 144q-77 0 -127 50t-50 128q0 76 51 127.5 t125 51.5q72 0 114 -42q19 -19 19 -38q0 -10 -8 -18.5t-16.5 -11.5t-9.5 -1q-30 55 -100 55q-46 0 -80 -35.5t-34 -86.5q0 -53 34 -88t84 -35q73 0 100 60q1 2 9.5 -0.5t17 -11t8.5 -19.5q0 -19 -24 -44q-39 -41 -113 -41z" />
<glyph unicode="&#xaa;" horiz-adv-x="487" d="M420 261q-67 0 -56 79q-52 -82 -146 -82q-65 0 -108.5 43t-43.5 119q0 92 62.5 166t153.5 74q46 0 81 -21t51 -57l3 11q7 33 18.5 46.5t31.5 13.5q6 0 11.5 -1.5t8.5 -3.5t3 -3l-63 -294q-6 -29 1 -41t32 -13q2 0 0.5 -9t-11.5 -18t-29 -9zM230 311q56 0 100.5 41 t56.5 99l13 62q-28 95 -119 95q-68 0 -111 -57t-43 -128q0 -52 29.5 -82t73.5 -30zM182 -6q-43 0 -43 31q0 30 14 46q11 12 34 12q43 0 43 -31t-15 -46q-12 -12 -33 -12z" />
<glyph unicode="&#xab;" horiz-adv-x="507" d="M392 88q-36 0 -85 62q-22 28 -40 58t-18 37q0 5 33 35.5t72 59.5q82 63 117 63q23 0 23 -24q0 -15 -30.5 -43t-74.5 -55q-3 -2 -33.5 -21t-47.5 -28q30 -24 55 -47q32 -30 44 -45t12 -29q0 -9 -8 -16t-19 -7zM215 84q-39 0 -96 70q-26 32 -47 64t-21 38q0 3 11.5 15.5 t33.5 32.5t47 39q76 58 110 58q23 0 23 -24q0 -31 -91 -87q-68 -43 -75 -47q31 -24 64 -54q38 -35 52 -51.5t15 -30.5q1 -9 -7 -16t-19 -7z" />
<glyph unicode="&#xae;" horiz-adv-x="757" d="M396 -12q-144 0 -236 94t-92 240q0 145 94 241t235 96q144 0 236 -94t92 -240q0 -145 -94 -241t-235 -96zM398 36q121 0 197 80t76 207q0 124 -78.5 206t-197.5 82q-121 0 -197 -80t-76 -207q0 -124 78.5 -206t197.5 -82zM543 391q0 -50 -30.5 -75t-73.5 -28l97 -112 q2 -2 -2 -8t-12.5 -11.5t-18.5 -5.5q-24 0 -41 22l-87 110h-44v-104q0 -28 -26 -28h-8q-26 0 -26 32v281q0 16 9 25t23 9h106q134 0 134 -107zM330 333h80q35 0 54 15t19 42q0 57 -76 57h-77v-114z" />
<glyph unicode="&#xaf;" horiz-adv-x="500" d="M214 568q-31 0 -31 18q0 22 12 36q7 8 26 8h220q31 0 31 -18q0 -22 -12 -36q-7 -8 -26 -8h-220z" />
<glyph unicode="&#xb0;" horiz-adv-x="388" d="M222 348q-59 0 -97.5 37.5t-38.5 98.5q0 74 51.5 126t122.5 52q59 0 97.5 -37.5t38.5 -98.5q0 -74 -51.5 -126t-122.5 -52zM232 400q44 0 76 35.5t32 86.5q0 37 -25.5 62.5t-64.5 25.5q-44 0 -76 -35.5t-32 -86.5q0 -37 25.5 -62.5t64.5 -25.5z" />
<glyph unicode="&#xb1;" horiz-adv-x="600" d="M166 411q-29 0 -29 16q0 23 12 35q7 7 24 7h145l30 143q7 31 29 31h8q30 0 24 -31l-30 -143h138q29 0 29 -16q0 -23 -12 -35q-7 -7 -24 -7h-144l-30 -144q-7 -31 -29 -31h-8q-30 0 -24 31l30 144h-139zM96 119q-31 0 -31 16q0 25 13 38q7 7 25 7h360q31 0 31 -16 q0 -25 -13 -38q-7 -7 -25 -7h-360z" />
<glyph unicode="&#xb2;" horiz-adv-x="336" d="M98 381q-17 -17 -21 -43h175q34 0 34 -22q0 -6 -3 -14t-6 -12.5t-4 -4.5h-229q-11 0 -18 11.5t-6 27.5q3 53 38 90q30 31 104 56q40 14 57.5 22t31.5 22.5t14 35.5q0 23 -20 37t-52 14q-59 0 -87 -61q-1 -2 -10 -0.5t-18 9.5t-9 22q0 23 23 46q40 38 108 38 q58 0 92 -27.5t34 -74.5q0 -51 -32.5 -77t-99.5 -48q-76 -26 -96 -47z" />
<glyph unicode="&#xb3;" horiz-adv-x="336" d="M292 395q0 -48 -36 -82.5t-111 -34.5t-111 36q-22 21 -22 45q0 17 10 27t20 11.5t11 -0.5q11 -68 93 -68q40 0 61.5 19.5t21.5 49.5q0 24 -17.5 38t-50.5 14h-21q-24 0 -24 17t9 25q6 7 26 7h25q80 0 80 56q0 22 -19.5 35.5t-48.5 13.5q-60 0 -89 -51q-1 -1 -9.5 0.5 t-16.5 8.5t-8 19q0 19 17 34q38 40 110 40q52 0 89.5 -26t37.5 -66q0 -75 -83 -93q56 -20 56 -75z" />
<glyph unicode="&#xb4;" horiz-adv-x="500" d="M246 551q-2 3 19.5 25t57.5 52.5t67 48.5q24 15 46 15q12 0 20.5 -8t8.5 -20q0 -24 -41 -48q-34 -20 -77 -37t-71 -24t-30 -4z" />
<glyph unicode="&#xb6;" horiz-adv-x="588" d="M434 -4q-32 0 -24 35l125 589q7 31 34 31h9q32 0 24 -35l-125 -589q-7 -31 -34 -31h-9zM308 -4q-32 0 -24 35l55 259h-55q-106 0 -162 38t-56 112q0 93 60 150t191 57h119q22 0 32 -12t5 -33l-122 -575q-7 -31 -34 -31h-9z" />
<glyph unicode="&#xb7;" horiz-adv-x="221" d="M110 194q-48 0 -48 34q0 36 16 52q13 13 37 13q48 0 48 -34q0 -36 -16 -52q-13 -13 -37 -13z" />
<glyph unicode="&#xb8;" horiz-adv-x="500" d="M110 -234q-6 -6 -20 4t-10 16l107 167q1 2 15.5 -0.5t28.5 -12t14 -23.5q0 -22 -22 -45z" />
<glyph unicode="&#xb9;" horiz-adv-x="336" d="M52 285q-28 0 -25 22q0 10 5 17q7 15 30 15h69l51 230q-22 -22 -53 -22q-22 0 -35 11t-13 29q0 12 6 22t11.5 14t6.5 3q15 -23 42 -23q18 0 35.5 13.5t24.5 34.5h25q28 0 22 -31l-63 -281h63q13 0 19.5 -6t5.5 -16q0 -11 -6 -17q-5 -15 -29 -15h-192z" />
<glyph unicode="&#xba;" horiz-adv-x="443" d="M248 257q-76 0 -126.5 49t-50.5 129q0 91 61.5 157.5t153.5 66.5q77 0 127.5 -49t50.5 -128q0 -91 -61.5 -158t-154.5 -67zM175 -6q-43 0 -43 31q0 30 14 46q11 12 34 12q43 0 43 -31t-15 -46q-12 -12 -33 -12zM251 310q64 0 108 50.5t44 119.5q0 54 -34.5 90t-85.5 36 q-64 0 -107.5 -50.5t-43.5 -119.5q0 -54 34.5 -90t84.5 -36z" />
<glyph unicode="&#xbb;" horiz-adv-x="507" d="M256 85q-23 0 -23 24q0 31 91 87q68 43 75 47q-31 24 -64 54q-38 35 -52 51.5t-15 30.5q-1 9 7 16t19 7q39 0 96 -70q26 -32 47 -64t21 -38q0 -3 -11.5 -15.5t-33.5 -32.5t-47 -39q-76 -58 -110 -58zM38 83q-23 0 -23 24q0 15 30.5 43t74.5 55q3 2 33.5 21t47.5 28 q-30 24 -55 47q-32 30 -44 45t-12 29q0 9 8 16t19 7q36 0 85 -62q22 -28 40 -58t18 -37q0 -5 -33 -35.5t-72 -59.5q-82 -63 -117 -63z" />
<glyph unicode="&#xbc;" horiz-adv-x="792" d="M656 -3q-30 0 -22 31l13 67h-151q-2 0 -6.5 5t-8.5 14t-4 19q0 19 25 48l153 157q15 17 26 22.5t32 5.5q52 0 42 -45l-37 -174h35q25 0 25 -17t-10 -29q-7 -6 -22 -6h-39l-15 -68q-5 -30 -28 -30h-8zM715 632q3 -1 8 -3t11.5 -10t4.5 -19q-4 -20 -36 -53 q-6 -6 -105 -101.5t-158 -153.5l-330 -319q-2 -2 -9 1.5t-13 12t-4 18.5q3 14 9.5 23.5t26.5 29.5q11 12 51.5 51t107 103t103.5 100zM52 285q-28 0 -25 22q0 10 5 17q7 15 30 15h69l51 230q-22 -22 -53 -22q-22 0 -35 11t-13 29q0 12 6 22t11.5 14t6.5 3q15 -23 42 -23 q18 0 35.5 13.5t24.5 34.5h25q28 0 22 -31l-63 -281h63q13 0 19.5 -6t5.5 -16q0 -11 -6 -17q-5 -15 -29 -15h-192zM697 316l-164 -170h128z" />
<glyph unicode="&#xbd;" horiz-adv-x="792" d="M554 96q-17 -17 -21 -43h175q34 0 34 -22q0 -6 -3 -14t-6 -12.5t-4 -4.5h-229q-11 0 -18 11.5t-6 27.5q3 53 38 90q30 31 104 56q40 14 57.5 22t31.5 22.5t14 35.5q0 23 -20 37t-52 14q-59 0 -87 -61q-1 -2 -10 -0.5t-18 9.5t-9 22q0 23 23 46q40 38 108 38 q58 0 92 -27.5t34 -74.5q0 -51 -32.5 -77t-99.5 -48q-76 -26 -96 -47zM685 632q3 -1 8 -3t11.5 -10t4.5 -19q-4 -20 -36 -53q-6 -6 -105 -101.5t-158 -153.5l-330 -319q-2 -2 -9 1.5t-13 12t-4 18.5q3 14 9.5 23.5t26.5 29.5q11 12 51.5 51t107 103t103.5 100zM52 285 q-28 0 -25 22q0 10 5 17q7 15 30 15h69l51 230q-22 -22 -53 -22q-22 0 -35 11t-13 29q0 12 6 22t11.5 14t6.5 3q15 -23 42 -23q18 0 35.5 13.5t24.5 34.5h25q28 0 22 -31l-63 -281h63q13 0 19.5 -6t5.5 -16q0 -11 -6 -17q-5 -15 -29 -15h-192z" />
<glyph unicode="&#xbe;" horiz-adv-x="792" d="M656 -3q-30 0 -22 31l13 67h-151q-2 0 -6.5 5t-8.5 14t-4 19q0 19 25 48l153 157q15 17 26 22.5t32 5.5q52 0 42 -45l-37 -174h35q25 0 25 -17t-10 -29q-7 -6 -22 -6h-39l-15 -68q-5 -30 -28 -30h-8zM715 632q3 -1 8 -3t11.5 -10t4.5 -19q-4 -20 -36 -53 q-6 -6 -105 -101.5t-158 -153.5l-330 -319q-2 -2 -9 1.5t-13 12t-4 18.5q3 14 9.5 23.5t26.5 29.5q11 12 51.5 51t107 103t103.5 100zM292 395q0 -48 -36 -82.5t-111 -34.5t-111 36q-22 21 -22 45q0 17 10 27t20 11.5t11 -0.5q11 -68 93 -68q40 0 61.5 19.5t21.5 49.5 q0 24 -17.5 38t-50.5 14h-21q-24 0 -24 17t9 25q6 7 26 7h25q80 0 80 56q0 22 -19.5 35.5t-48.5 13.5q-60 0 -89 -51q-1 -1 -9.5 0.5t-16.5 8.5t-8 19q0 19 17 34q38 40 110 40q52 0 89.5 -26t37.5 -66q0 -75 -83 -93q56 -20 56 -75zM697 316l-164 -170h128z" />
<glyph unicode="&#xbf;" horiz-adv-x="463" d="M327 552q-48 0 -48 34q0 36 16 52q13 13 37 13q48 0 48 -34q0 -36 -16 -52q-13 -13 -37 -13zM206 -14q-89 0 -143 50t-54 126q0 126 158 178q58 19 81.5 34t23.5 34q0 25 -25 33q-2 1 0.5 8t11 14t22.5 7q23 0 39 -16.5t16 -43.5q0 -41 -30 -67t-96 -49q-70 -24 -102 -52 t-32 -80q0 -49 36 -82.5t98 -33.5q55 0 94 33.5t60 88.5q1 3 11.5 0t21 -12.5t10.5 -23.5q0 -40 -42 -82q-64 -64 -159 -64z" />
<glyph unicode="&#xc0;" horiz-adv-x="609" d="M35 -3q-2 1 -12.5 -0.5t-22.5 8t-12 28.5q0 16 19 49l326 549q14 23 43 23q41 0 47 -30l122 -607q1 -3 -4 -7.5t-14.5 -8.5t-19.5 -4q-29 0 -36 37l-33 177h-280zM193 271h233l-57 305zM432 721q-3 -3 -28 5.5t-61 27.5t-64 42q-30 25 -30 49q0 12 10 20.5t22 8.5 q20 0 45 -21q27 -22 53.5 -53.5t41 -53.5t11.5 -25z" />
<glyph unicode="&#xc1;" horiz-adv-x="609" d="M35 -3q-2 1 -12.5 -0.5t-22.5 8t-12 28.5q0 16 19 49l326 549q14 23 43 23q41 0 47 -30l122 -607q1 -3 -4 -7.5t-14.5 -8.5t-19.5 -4q-29 0 -36 37l-33 177h-280zM193 271h233l-57 305zM340 721q-2 3 19.5 25t57.5 52.5t67 48.5q24 15 46 15q12 0 20.5 -8t8.5 -20 q0 -24 -41 -48q-34 -20 -77 -37t-71 -24t-30 -4z" />
<glyph unicode="&#xc2;" horiz-adv-x="609" d="M35 -3q-2 1 -12.5 -0.5t-22.5 8t-12 28.5q0 16 19 49l326 549q14 23 43 23q41 0 47 -30l122 -607q1 -3 -4 -7.5t-14.5 -8.5t-19.5 -4q-29 0 -36 37l-33 177h-280zM193 271h233l-57 305zM274 719q-19 0 -19 17q0 30 67 86q20 17 42.5 33.5t35.5 25t15 8.5t11.5 -9 t24 -24.5t26.5 -30.5q39 -51 39 -77q0 -29 -24 -29q-12 0 -24 13.5t-32 47.5l-29 51l-51 -53q-57 -59 -82 -59z" />
<glyph unicode="&#xc3;" horiz-adv-x="609" d="M35 -3q-2 1 -12.5 -0.5t-22.5 8t-12 28.5q0 16 19 49l326 549q14 23 43 23q41 0 47 -30l122 -607q1 -3 -4 -7.5t-14.5 -8.5t-19.5 -4q-29 0 -36 37l-33 177h-280zM193 271h233l-57 305zM461 718q-25 0 -63 21.5t-76 58.5q-31 -73 -54 -73t-23 20q0 34 25 65t55 31 q25 0 63 -21.5t76 -58.5q31 73 54 73t23 -20q0 -34 -25 -65t-55 -31z" />
<glyph unicode="&#xc4;" horiz-adv-x="609" d="M35 -3q-2 1 -12.5 -0.5t-22.5 8t-12 28.5q0 16 19 49l326 549q14 23 43 23q41 0 47 -30l122 -607q1 -3 -4 -7.5t-14.5 -8.5t-19.5 -4q-29 0 -36 37l-33 177h-280zM193 271h233l-57 305zM473 718q-49 0 -49 38q0 24 13.5 41t37.5 17q49 0 49 -38q0 -24 -13.5 -41 t-37.5 -17zM305 718q-49 0 -49 38q0 24 13.5 41t37.5 17q49 0 49 -38q0 -24 -13.5 -41t-37.5 -17z" />
<glyph unicode="&#xc5;" horiz-adv-x="609" d="M35 -3q-2 1 -12.5 -0.5t-22.5 8t-12 28.5q0 16 19 49l309 520l9 13q-51 27 -51 87q0 54 37 94t93 40q48 0 78.5 -28.5t30.5 -72.5q0 -42 -24.5 -78t-63.5 -49q3 -6 4 -15l116 -576q1 -3 -4 -7.5t-14.5 -8.5t-19.5 -4q-29 0 -36 37l-33 177h-280zM193 271h233l-57 305z M385 646q34 0 55.5 26t21.5 59q0 25 -17 42.5t-43 17.5q-34 0 -55.5 -26t-21.5 -59q0 -25 17 -42.5t43 -17.5z" />
<glyph unicode="&#xc6;" horiz-adv-x="846" d="M35 -3l-5 -1q-5 0 -11.5 1.5t-13.5 4.5t-12 11t-5 20q0 16 19 49l315 530q21 35 57 35h469q31 0 31 -17q0 -23 -13 -38q-6 -7 -26 -7h-409l45 -223h246q30 0 30 -16q0 -25 -12 -37q-7 -7 -25 -7h-227l48 -240h203q31 0 31 -17q0 -23 -13 -38q-6 -7 -26 -7h-207 q-26 0 -38.5 9.5t-16.5 34.5l-31 167h-280zM193 271h233l-57 305z" />
<glyph unicode="&#xc7;" horiz-adv-x="650" d="M353 -12q-133 0 -212.5 75.5t-79.5 203.5q0 161 104 276.5t256 115.5q122 0 193 -71q42 -42 42 -80q0 -16 -10 -26.5t-20.5 -13t-14.5 0.5q-48 131 -193 131q-121 0 -203 -95t-82 -228q0 -105 60.5 -167t158.5 -62q138 0 207 105q1 2 9.5 -1.5t16.5 -12.5t8 -22 q0 -24 -29 -53q-32 -32 -89 -54t-122 -22zM255 -234q-6 -6 -20 4t-10 16l107 167q1 2 15.5 -0.5t28.5 -12t14 -23.5q0 -22 -22 -45z" />
<glyph unicode="&#xc8;" horiz-adv-x="576" d="M73 0q-22 0 -32 12t-5 33l119 561q8 41 47 41h383q31 0 31 -17q0 -23 -13 -38q-6 -7 -26 -7h-358l-48 -223h283q30 0 30 -16q0 -25 -12 -37q-7 -7 -25 -7h-289l-51 -240h359q31 0 31 -17q0 -23 -13 -38q-6 -7 -26 -7h-385zM466 721q-3 -3 -28 5.5t-61 27.5t-64 42 q-30 25 -30 49q0 12 10 20.5t22 8.5q21 0 45 -21q27 -22 53.5 -53.5t41 -53.5t11.5 -25z" />
<glyph unicode="&#xc9;" horiz-adv-x="576" d="M73 0q-22 0 -32 12t-5 33l119 561q8 41 47 41h383q31 0 31 -17q0 -23 -13 -38q-6 -7 -26 -7h-358l-48 -223h283q30 0 30 -16q0 -25 -12 -37q-7 -7 -25 -7h-289l-51 -240h359q31 0 31 -17q0 -23 -13 -38q-6 -7 -26 -7h-385zM344 721q-2 3 19.5 25t57.5 52.5t67 48.5 q24 15 46 15q12 0 20.5 -8t8.5 -20q0 -24 -41 -48q-34 -20 -77 -37t-71 -24t-30 -4z" />
<glyph unicode="&#xca;" horiz-adv-x="576" d="M73 0q-22 0 -32 12t-5 33l119 561q8 41 47 41h383q31 0 31 -17q0 -23 -13 -38q-6 -7 -26 -7h-358l-48 -223h283q30 0 30 -16q0 -25 -12 -37q-7 -7 -25 -7h-289l-51 -240h359q31 0 31 -17q0 -23 -13 -38q-6 -7 -26 -7h-385zM298 719q-19 0 -19 17q0 30 67 86 q20 17 42.5 33.5t35.5 25t15 8.5t11.5 -9t24 -24.5t26.5 -30.5q39 -51 39 -77q0 -29 -24 -29q-12 0 -24 13.5t-32 47.5l-29 51l-51 -53q-57 -59 -82 -59z" />
<glyph unicode="&#xcb;" horiz-adv-x="576" d="M73 0q-22 0 -32 12t-5 33l119 561q8 41 47 41h383q31 0 31 -17q0 -23 -13 -38q-6 -7 -26 -7h-358l-48 -223h283q30 0 30 -16q0 -25 -12 -37q-7 -7 -25 -7h-289l-51 -240h359q31 0 31 -17q0 -23 -13 -38q-6 -7 -26 -7h-385zM487 718q-49 0 -49 38q0 24 13.5 41t37.5 17 q49 0 49 -38q0 -24 -13.5 -41t-37.5 -17zM319 718q-49 0 -49 38q0 24 13.5 41t37.5 17q49 0 49 -38q0 -24 -13.5 -41t-37.5 -17z" />
<glyph unicode="&#xcc;" horiz-adv-x="242" d="M68 -4q-32 0 -24 35l125 589q7 31 34 31h9q32 0 24 -35l-125 -589q-7 -31 -34 -31h-9zM259 721q-3 -3 -28 5.5t-61 27.5t-64 42q-30 25 -30 49q0 12 10 20.5t22 8.5q20 0 45 -21q27 -22 53.5 -53.5t41 -53.5t11.5 -25z" />
<glyph unicode="&#xcd;" horiz-adv-x="242" d="M68 -4q-32 0 -24 35l125 589q7 31 34 31h9q32 0 24 -35l-125 -589q-7 -31 -34 -31h-9zM177 721q-2 3 19.5 25t57.5 52.5t67 48.5q24 15 46 15q13 0 21 -8t8 -20q0 -24 -41 -48q-34 -20 -77 -37t-71 -24t-30 -4z" />
<glyph unicode="&#xce;" horiz-adv-x="242" d="M68 -4q-32 0 -24 35l125 589q7 31 34 31h9q32 0 24 -35l-125 -589q-7 -31 -34 -31h-9zM111 719q-19 0 -19 17q0 30 67 86q20 17 42.5 33.5t35.5 25t15 8.5t11.5 -9t24 -24.5t26.5 -30.5q39 -51 39 -77q0 -29 -24 -29q-12 0 -24 13.5t-32 47.5l-29 51l-51 -53 q-57 -59 -82 -59z" />
<glyph unicode="&#xcf;" horiz-adv-x="242" d="M68 -4q-32 0 -24 35l125 589q7 31 34 31h9q32 0 24 -35l-125 -589q-7 -31 -34 -31h-9zM310 718q-49 0 -49 38q0 24 13.5 41t37.5 17q49 0 49 -38q0 -24 -13.5 -41t-37.5 -17zM142 718q-49 0 -49 38q0 24 13.5 41t37.5 17q49 0 49 -38q0 -24 -13.5 -41t-37.5 -17z" />
<glyph unicode="&#xd0;" horiz-adv-x="697" d="M110 0q-22 0 -32 12t-5 33l53 250h-64q-29 0 -29 16q0 23 12 35q7 7 24 7h69l54 253q6 41 47 41h110q151 0 235.5 -70.5t84.5 -198.5q0 -165 -104.5 -271.5t-298.5 -106.5h-156zM144 60h132q158 0 239.5 87.5t81.5 220.5q0 103 -66.5 161t-186.5 58h-88l-50 -234h211 q29 0 29 -16q0 -23 -12 -35q-7 -7 -24 -7h-216z" />
<glyph unicode="&#xd1;" horiz-adv-x="675" d="M56 -4q-31 0 -23 35l122 574q10 46 48 46h17q16 0 24.5 -8t18.5 -28l242 -514l110 519q7 31 33 31h7q31 0 23 -35l-123 -579q-9 -41 -44 -41h-7q-24 0 -42 36l-252 534l-114 -539q-7 -31 -33 -31h-7zM524 718q-25 0 -63 21.5t-76 58.5q-31 -73 -54 -73t-23 20q0 34 25 65 t55 31q25 0 63 -21.5t76 -58.5q31 73 54 73t23 -20q0 -34 -25 -65t-55 -31z" />
<glyph unicode="&#xd2;" horiz-adv-x="732" d="M349 -11q-131 0 -209.5 79t-78.5 201q0 166 109 278t249 112q131 0 209.5 -79t78.5 -201q0 -166 -109 -278t-249 -112zM356 48q108 0 193.5 93.5t85.5 232.5q0 97 -59.5 161.5t-163.5 64.5q-108 0 -193.5 -93.5t-85.5 -232.5q0 -97 59.5 -161.5t163.5 -64.5zM504 721 q-3 -3 -28 5.5t-61 27.5t-64 42q-30 25 -30 49q0 12 10 20.5t22 8.5q21 0 45 -21q27 -22 53.5 -53.5t41 -53.5t11.5 -25z" />
<glyph unicode="&#xd3;" horiz-adv-x="732" d="M349 -11q-131 0 -209.5 79t-78.5 201q0 166 109 278t249 112q131 0 209.5 -79t78.5 -201q0 -166 -109 -278t-249 -112zM356 48q108 0 193.5 93.5t85.5 232.5q0 97 -59.5 161.5t-163.5 64.5q-108 0 -193.5 -93.5t-85.5 -232.5q0 -97 59.5 -161.5t163.5 -64.5zM362 721 q-2 3 19.5 25t57.5 52.5t67 48.5q24 15 46 15q12 0 20.5 -8t8.5 -20q0 -24 -41 -48q-34 -20 -77 -37t-71 -24t-30 -4z" />
<glyph unicode="&#xd4;" horiz-adv-x="732" d="M349 -11q-131 0 -209.5 79t-78.5 201q0 166 109 278t249 112q131 0 209.5 -79t78.5 -201q0 -166 -109 -278t-249 -112zM356 48q108 0 193.5 93.5t85.5 232.5q0 97 -59.5 161.5t-163.5 64.5q-108 0 -193.5 -93.5t-85.5 -232.5q0 -97 59.5 -161.5t163.5 -64.5zM336 719 q-19 0 -19 17q0 30 67 86q20 17 42.5 33.5t35.5 25t15 8.5t11.5 -9t24 -24.5t26.5 -30.5q39 -51 39 -77q0 -29 -24 -29q-12 0 -24 13.5t-32 47.5l-29 51l-51 -53q-57 -59 -82 -59z" />
<glyph unicode="&#xd5;" horiz-adv-x="732" d="M349 -11q-131 0 -209.5 79t-78.5 201q0 166 109 278t249 112q131 0 209.5 -79t78.5 -201q0 -166 -109 -278t-249 -112zM356 48q108 0 193.5 93.5t85.5 232.5q0 97 -59.5 161.5t-163.5 64.5q-108 0 -193.5 -93.5t-85.5 -232.5q0 -97 59.5 -161.5t163.5 -64.5zM513 718 q-25 0 -63 21.5t-76 58.5q-31 -73 -54 -73t-23 20q0 34 25 65t55 31q25 0 63 -21.5t76 -58.5q31 73 54 73t23 -20q0 -34 -25 -65t-55 -31z" />
<glyph unicode="&#xd6;" horiz-adv-x="732" d="M349 -11q-131 0 -209.5 79t-78.5 201q0 166 109 278t249 112q131 0 209.5 -79t78.5 -201q0 -166 -109 -278t-249 -112zM356 48q108 0 193.5 93.5t85.5 232.5q0 97 -59.5 161.5t-163.5 64.5q-108 0 -193.5 -93.5t-85.5 -232.5q0 -97 59.5 -161.5t163.5 -64.5zM535 718 q-49 0 -49 38q0 24 13.5 41t37.5 17q49 0 49 -38q0 -24 -13.5 -41t-37.5 -17zM367 718q-49 0 -49 38q0 24 13.5 41t37.5 17q49 0 49 -38q0 -24 -13.5 -41t-37.5 -17z" />
<glyph unicode="&#xd7;" horiz-adv-x="539" d="M396 79q-15 0 -26 15l-96 128l-151 -128q-12 -11 -24 -11q-9 0 -19.5 11.5t-10.5 19.5q0 15 14 26l154 131l-96 129q-10 13 -10 22q0 10 9.5 19.5t21.5 9.5q15 0 26 -15l95 -127l150 127q12 11 24 11q9 0 19.5 -11.5t10.5 -19.5q0 -15 -14 -26l-153 -130l97 -130 q10 -13 10 -22q0 -10 -9.5 -19.5t-21.5 -9.5z" />
<glyph unicode="&#xd8;" horiz-adv-x="732" d="M25 -32q-2 -2 -9 2.5t-13 13.5t-6 18q0 26 29 52l75 66q-40 68 -40 149q0 166 109 278t249 112q123 0 204 -78l103 92q2 2 9 -2.5t13 -13.5t6 -18q0 -26 -29 -52l-62 -55q44 -71 44 -153q0 -166 -109 -278t-249 -112q-127 0 -209 82zM356 48q108 0 193.5 93.5t85.5 232.5 q0 65 -26 115l-420 -375q61 -66 167 -66zM133 274q0 -59 23 -110l418 374q-59 62 -162 62q-108 0 -193.5 -93.5t-85.5 -232.5z" />
<glyph unicode="&#xd9;" horiz-adv-x="639" d="M304 -12q-134 0 -195.5 76.5t-30.5 220.5l71 335q7 31 34 31h9q32 0 24 -35l-71 -336q-24 -115 18 -173t145 -58q158 0 200 198l79 373q7 31 34 31h8q32 0 24 -35l-81 -383q-52 -245 -268 -245zM477 711q-3 -3 -28 5.5t-61 27.5t-64 42q-30 25 -30 49q0 12 10 20.5 t22 8.5q20 0 45 -21q27 -22 53.5 -53.5t41 -53.5t11.5 -25z" />
<glyph unicode="&#xda;" horiz-adv-x="639" d="M304 -12q-134 0 -195.5 76.5t-30.5 220.5l71 335q7 31 34 31h9q32 0 24 -35l-71 -336q-24 -115 18 -173t145 -58q158 0 200 198l79 373q7 31 34 31h8q32 0 24 -35l-81 -383q-52 -245 -268 -245zM335 711q-2 3 19.5 25t57.5 52.5t67 48.5q24 15 46 15q13 0 21 -8t8 -20 q0 -24 -41 -48q-34 -20 -77 -37t-71 -24t-30 -4z" />
<glyph unicode="&#xdb;" horiz-adv-x="639" d="M304 -12q-134 0 -195.5 76.5t-30.5 220.5l71 335q7 31 34 31h9q32 0 24 -35l-71 -336q-24 -115 18 -173t145 -58q158 0 200 198l79 373q7 31 34 31h8q32 0 24 -35l-81 -383q-52 -245 -268 -245zM306 709q-19 0 -19 17q0 30 67 86q20 17 42.5 33.5t35.5 25t15 8.5t11.5 -9 t24 -24.5t26.5 -30.5q39 -51 39 -77q0 -29 -24 -29q-12 0 -24 13.5t-32 47.5l-29 51l-51 -53q-57 -59 -82 -59z" />
<glyph unicode="&#xdc;" horiz-adv-x="639" d="M304 -12q-134 0 -195.5 76.5t-30.5 220.5l71 335q7 31 34 31h9q32 0 24 -35l-71 -336q-24 -115 18 -173t145 -58q158 0 200 198l79 373q7 31 34 31h8q32 0 24 -35l-81 -383q-52 -245 -268 -245zM507 708q-49 0 -49 38q0 24 13.5 41t37.5 17q49 0 49 -38q0 -24 -13.5 -41 t-37.5 -17zM339 708q-49 0 -49 38q0 24 13.5 41t37.5 17q49 0 49 -38q0 -24 -13.5 -41t-37.5 -17z" />
<glyph unicode="&#xdd;" horiz-adv-x="549" d="M218 -4q-29 0 -22 31l52 245l-157 353q-1 3 3.5 9t15 11.5t21.5 5.5q23 0 33 -26l127 -294l273 322q1 1 11 -1.5t20 -11.5t10 -24q0 -19 -29 -52l-262 -299l-50 -238q-7 -31 -37 -31h-9zM308 711q-2 3 19.5 25t57.5 52.5t67 48.5q24 15 46 15q12 0 20.5 -8t8.5 -20 q0 -24 -41 -48q-34 -20 -77 -37t-71 -24t-30 -4z" />
<glyph unicode="&#xde;" horiz-adv-x="558" d="M57 -4q-32 0 -24 35l125 589q7 31 34 31h9q32 0 24 -35l-20 -92h119q103 0 159 -43.5t56 -123.5q0 -109 -67 -168.5t-191 -59.5h-160l-21 -102q-4 -17 -11.5 -24t-22.5 -7h-9zM134 189h160q82 0 128.5 42t46.5 117q0 115 -149 115h-128z" />
<glyph unicode="&#xdf;" horiz-adv-x="526" d="M279 -12q-78 0 -115 37q-19 19 -19 38q0 13 8 24t16.5 15.5t9.5 2.5q35 -60 104 -60q56 0 94.5 42.5t38.5 108.5q0 89 -118 128q-45 15 -45 44q0 21 8.5 35t16.5 19q92 0 135.5 26t43.5 88q0 43 -34 68.5t-89 25.5q-119 0 -155 -168l-91 -435q-7 -31 -30 -31h-8 q-13 0 -21 9.5t-6 21.5l94 441q23 111 80 166t138 55q86 0 136.5 -40.5t50.5 -108.5q0 -75 -49.5 -119t-149.5 -50q70 -16 114.5 -61t44.5 -108q0 -91 -59.5 -152.5t-143.5 -61.5z" />
<glyph unicode="&#xe0;" horiz-adv-x="569" d="M472 -8q-82 0 -65 98q-68 -102 -184 -102q-81 0 -136 53.5t-55 148.5q0 115 78 206.5t192 91.5q58 0 103 -28t65 -73l6 26q7 36 19.5 51.5t32.5 15.5q6 0 12 -2t9.5 -3.5t3.5 -2.5l-79 -371q-8 -36 1 -49.5t42 -14.5q2 0 0.5 -11t-12.5 -22.5t-33 -11.5zM231 45 q73 0 132 54t74 129l17 79q-36 124 -156 124q-89 0 -144.5 -74t-55.5 -166q0 -67 38.5 -106.5t94.5 -39.5zM392 551q-3 -3 -28 5.5t-61 27.5t-64 42q-30 25 -30 49q0 12 10 20.5t22 8.5q21 0 45 -21q27 -22 53.5 -53.5t41 -53.5t11.5 -25z" />
<glyph unicode="&#xe1;" horiz-adv-x="569" d="M472 -8q-82 0 -65 98q-68 -102 -184 -102q-81 0 -136 53.5t-55 148.5q0 115 78 206.5t192 91.5q58 0 103 -28t65 -73l6 26q7 36 19.5 51.5t32.5 15.5q6 0 12 -2t9.5 -3.5t3.5 -2.5l-79 -371q-8 -36 1 -49.5t42 -14.5q2 0 0.5 -11t-12.5 -22.5t-33 -11.5zM231 45 q73 0 132 54t74 129l17 79q-36 124 -156 124q-89 0 -144.5 -74t-55.5 -166q0 -67 38.5 -106.5t94.5 -39.5zM280 551q-2 3 19.5 25t57.5 52.5t67 48.5q24 15 46 15q12 0 20.5 -8t8.5 -20q0 -24 -41 -48q-34 -20 -77 -37t-71 -24t-30 -4z" />
<glyph unicode="&#xe2;" horiz-adv-x="569" d="M472 -8q-82 0 -65 98q-68 -102 -184 -102q-81 0 -136 53.5t-55 148.5q0 115 78 206.5t192 91.5q58 0 103 -28t65 -73l6 26q7 36 19.5 51.5t32.5 15.5q6 0 12 -2t9.5 -3.5t3.5 -2.5l-79 -371q-8 -36 1 -49.5t42 -14.5q2 0 0.5 -11t-12.5 -22.5t-33 -11.5zM231 45 q73 0 132 54t74 129l17 79q-36 124 -156 124q-89 0 -144.5 -74t-55.5 -166q0 -67 38.5 -106.5t94.5 -39.5zM234 549q-19 0 -19 17q0 30 67 86q20 17 42.5 33.5t35.5 25t15 8.5t11.5 -9t24 -24.5t26.5 -30.5q39 -51 39 -77q0 -29 -24 -29q-12 0 -24 13.5t-32 47.5l-29 51 l-51 -53q-57 -59 -82 -59z" />
<glyph unicode="&#xe3;" horiz-adv-x="569" d="M472 -8q-82 0 -65 98q-68 -102 -184 -102q-81 0 -136 53.5t-55 148.5q0 115 78 206.5t192 91.5q58 0 103 -28t65 -73l6 26q7 36 19.5 51.5t32.5 15.5q6 0 12 -2t9.5 -3.5t3.5 -2.5l-79 -371q-8 -36 1 -49.5t42 -14.5q2 0 0.5 -11t-12.5 -22.5t-33 -11.5zM231 45 q73 0 132 54t74 129l17 79q-36 124 -156 124q-89 0 -144.5 -74t-55.5 -166q0 -67 38.5 -106.5t94.5 -39.5zM421 548q-25 0 -63 21.5t-76 58.5q-31 -73 -54 -73t-23 20q0 34 25 65t55 31q25 0 63 -21.5t76 -58.5q31 73 54 73t23 -20q0 -34 -25 -65t-55 -31z" />
<glyph unicode="&#xe4;" horiz-adv-x="569" d="M472 -8q-82 0 -65 98q-68 -102 -184 -102q-81 0 -136 53.5t-55 148.5q0 115 78 206.5t192 91.5q58 0 103 -28t65 -73l6 26q7 36 19.5 51.5t32.5 15.5q6 0 12 -2t9.5 -3.5t3.5 -2.5l-79 -371q-8 -36 1 -49.5t42 -14.5q2 0 0.5 -11t-12.5 -22.5t-33 -11.5zM231 45 q73 0 132 54t74 129l17 79q-36 124 -156 124q-89 0 -144.5 -74t-55.5 -166q0 -67 38.5 -106.5t94.5 -39.5zM433 548q-49 0 -49 38q0 24 13.5 41t37.5 17q49 0 49 -38q0 -24 -13.5 -41t-37.5 -17zM265 548q-49 0 -49 38q0 24 13.5 41t37.5 17q49 0 49 -38q0 -24 -13.5 -41 t-37.5 -17z" />
<glyph unicode="&#xe5;" horiz-adv-x="569" d="M472 -8q-82 0 -65 98q-68 -102 -184 -102q-81 0 -136 53.5t-55 148.5q0 115 78 206.5t192 91.5q58 0 103 -28t65 -73l6 26q7 36 19.5 51.5t32.5 15.5q6 0 12 -2t9.5 -3.5t3.5 -2.5l-79 -371q-8 -36 1 -49.5t42 -14.5q2 0 0.5 -11t-12.5 -22.5t-33 -11.5zM231 45 q73 0 132 54t74 129l17 79q-36 124 -156 124q-89 0 -144.5 -74t-55.5 -166q0 -67 38.5 -106.5t94.5 -39.5zM355 550q-48 0 -78.5 28.5t-30.5 72.5q0 54 37 94t93 40q48 0 78.5 -28.5t30.5 -72.5q0 -54 -37 -94t-93 -40zM357 595q34 0 55.5 26t21.5 59q0 25 -17 42.5 t-43 17.5q-34 0 -55.5 -26t-21.5 -59q0 -25 17 -42.5t43 -17.5z" />
<glyph unicode="&#xe6;" horiz-adv-x="848" d="M179 -12q-76 0 -121 32t-45 87q0 91 82 132t283 45h10l1 4q14 67 -19.5 104t-108.5 37q-105 0 -155 -74q-1 -1 -7.5 2.5t-13.5 12.5t-7 20q0 31 50.5 64.5t139.5 33.5q73 0 120.5 -31t58.5 -88q79 119 224 119q79 0 124.5 -34.5t45.5 -91.5q0 -76 -62 -114t-215 -38 q-52 0 -126 6q-1 -10 -1 -30q0 -65 37 -103.5t106 -38.5q102 0 161 79q1 2 9.5 -1t16.5 -11t8 -19q0 -20 -22 -42q-62 -62 -175 -62q-75 0 -122 31t-65 85q-31 -55 -85 -85.5t-127 -30.5zM188 43q65 0 114.5 39t63.5 98l12 53l-29 -1q-107 -3 -166.5 -17.5t-81.5 -38.5 t-22 -64q0 -30 30.5 -49.5t78.5 -19.5zM668 431q-73 0 -132 -45t-84 -115q48 -6 106 -6q217 0 217 96q0 29 -28 49.5t-79 20.5z" />
<glyph unicode="&#xe7;" horiz-adv-x="518" d="M257 -12q-97 0 -161.5 60t-64.5 161q0 111 79 194.5t191 83.5q105 0 165 -60q40 -40 40 -82q0 -19 -12 -29.5t-23 -9.5t-13 2q-10 54 -50.5 87.5t-104.5 33.5q-88 0 -146.5 -65.5t-58.5 -150.5q0 -74 45 -120t120 -46q98 0 155 90q1 2 10 -0.5t18 -10.5t9 -20 q0 -23 -31 -54q-27 -27 -71.5 -45.5t-95.5 -18.5zM159 -234q-6 -6 -20 4t-10 16l107 167q1 2 15.5 -0.5t28.5 -12t14 -23.5q0 -22 -22 -45z" />
<glyph unicode="&#xe8;" horiz-adv-x="505" d="M235 -12q-99 0 -153 53.5t-54 140.5q0 129 86.5 217.5t213.5 88.5q79 0 124.5 -34.5t45.5 -91.5q0 -76 -62 -114t-215 -38q-53 0 -126 6q-1 -10 -1 -30q0 -65 37 -103.5t106 -38.5q102 0 161 79q1 2 9.5 -1t16.5 -11t8 -19q0 -20 -22 -42q-62 -62 -175 -62zM325 431 q-73 0 -132 -45t-84 -115q48 -6 106 -6q217 0 217 96q0 29 -28 49.5t-79 20.5zM383 551q-3 -3 -28 5.5t-61 27.5t-64 42q-30 25 -30 49q0 12 10 20.5t22 8.5q20 0 45 -21q27 -22 53.5 -53.5t41 -53.5t11.5 -25z" />
<glyph unicode="&#xe9;" horiz-adv-x="505" d="M235 -12q-99 0 -153 53.5t-54 140.5q0 129 86.5 217.5t213.5 88.5q79 0 124.5 -34.5t45.5 -91.5q0 -76 -62 -114t-215 -38q-53 0 -126 6q-1 -10 -1 -30q0 -65 37 -103.5t106 -38.5q102 0 161 79q1 2 9.5 -1t16.5 -11t8 -19q0 -20 -22 -42q-62 -62 -175 -62zM325 431 q-73 0 -132 -45t-84 -115q48 -6 106 -6q217 0 217 96q0 29 -28 49.5t-79 20.5zM271 551q-2 3 19.5 25t57.5 52.5t67 48.5q24 15 46 15q13 0 21 -8t8 -20q0 -24 -41 -48q-34 -20 -77 -37t-71 -24t-30 -4z" />
<glyph unicode="&#xea;" horiz-adv-x="505" d="M235 -12q-99 0 -153 53.5t-54 140.5q0 129 86.5 217.5t213.5 88.5q79 0 124.5 -34.5t45.5 -91.5q0 -76 -62 -114t-215 -38q-53 0 -126 6q-1 -10 -1 -30q0 -65 37 -103.5t106 -38.5q102 0 161 79q1 2 9.5 -1t16.5 -11t8 -19q0 -20 -22 -42q-62 -62 -175 -62zM325 431 q-73 0 -132 -45t-84 -115q48 -6 106 -6q217 0 217 96q0 29 -28 49.5t-79 20.5zM235 549q-19 0 -19 17q0 30 67 86q20 17 42.5 33.5t35.5 25t15 8.5t11.5 -9t24 -24.5t26.5 -30.5q39 -51 39 -77q0 -29 -24 -29q-12 0 -24 13.5t-32 47.5l-29 51l-51 -53q-57 -59 -82 -59z" />
<glyph unicode="&#xeb;" horiz-adv-x="505" d="M235 -12q-99 0 -153 53.5t-54 140.5q0 129 86.5 217.5t213.5 88.5q79 0 124.5 -34.5t45.5 -91.5q0 -76 -62 -114t-215 -38q-53 0 -126 6q-1 -10 -1 -30q0 -65 37 -103.5t106 -38.5q102 0 161 79q1 2 9.5 -1t16.5 -11t8 -19q0 -20 -22 -42q-62 -62 -175 -62zM325 431 q-73 0 -132 -45t-84 -115q48 -6 106 -6q217 0 217 96q0 29 -28 49.5t-79 20.5zM434 548q-49 0 -49 38q0 24 13.5 41t37.5 17q49 0 49 -38q0 -24 -13.5 -41t-37.5 -17zM266 548q-49 0 -49 38q0 24 13.5 41t37.5 17q49 0 49 -38q0 -24 -13.5 -41t-37.5 -17z" />
<glyph unicode="&#xec;" horiz-adv-x="209" d="M109 -8q-89 0 -66 108l74 349q7 31 30 31h8q33 0 27 -31l-74 -348q-8 -36 2 -50t46 -14q2 0 0.5 -11t-13 -22.5t-34.5 -11.5zM222 551q-3 -3 -28 5.5t-61 27.5t-64 42q-30 25 -30 49q0 12 10 20.5t22 8.5q20 0 45 -21q27 -22 53.5 -53.5t41 -53.5t11.5 -25z" />
<glyph unicode="&#xed;" horiz-adv-x="209" d="M109 -8q-89 0 -66 108l74 349q7 31 30 31h8q33 0 27 -31l-74 -348q-8 -36 2 -50t46 -14q2 0 0.5 -11t-13 -22.5t-34.5 -11.5zM100 551q-2 3 19.5 25t57.5 52.5t67 48.5q24 15 46 15q12 0 20.5 -8t8.5 -20q0 -24 -41 -48q-34 -20 -77 -37t-71 -24t-30 -4z" />
<glyph unicode="&#xee;" horiz-adv-x="209" d="M109 -8q-89 0 -66 108l74 349q7 31 30 31h8q33 0 27 -31l-74 -348q-8 -36 2 -50t46 -14q2 0 0.5 -11t-13 -22.5t-34.5 -11.5zM64 549q-19 0 -19 17q0 30 67 86q20 17 42.5 33.5t35.5 25t15 8.5t11.5 -9t24 -24.5t26.5 -30.5q39 -51 39 -77q0 -29 -24 -29q-12 0 -24 13.5 t-32 47.5l-29 51l-51 -53q-57 -59 -82 -59z" />
<glyph unicode="&#xef;" horiz-adv-x="209" d="M109 -8q-89 0 -66 108l74 349q7 31 30 31h8q33 0 27 -31l-74 -348q-8 -36 2 -50t46 -14q2 0 0.5 -11t-13 -22.5t-34.5 -11.5zM263 548q-49 0 -49 38q0 24 13.5 41t37.5 17q49 0 49 -38q0 -24 -13.5 -41t-37.5 -17zM95 548q-49 0 -49 38q0 24 13.5 41t37.5 17q49 0 49 -38 q0 -24 -13.5 -41t-37.5 -17z" />
<glyph unicode="&#xf0;" horiz-adv-x="544" d="M214 474q-2 -1 -6.5 2.5t-8.5 11t-4 17.5q0 24 34 42l88 48q-65 35 -140 40q-1 2 -2 14t12.5 26t37.5 14q74 0 156 -61l115 66q2 1 6.5 -2.5t8.5 -11t4 -17.5q0 -24 -34 -42l-57 -31q132 -132 91 -337q-25 -121 -102 -198q-67 -67 -169 -67q-98 0 -158.5 50.5 t-60.5 140.5q0 103 70 175t182 72q64 0 114 -28.5t70 -67.5q6 146 -95 232zM242 44q77 0 131 54t75 165q-13 40 -62 73t-110 33q-93 0 -139.5 -53t-46.5 -138q0 -63 42.5 -98.5t109.5 -35.5z" />
<glyph unicode="&#xf1;" horiz-adv-x="537" d="M168 411l-3 -14q27 43 68.5 67t89.5 24q77 0 122 -45t45 -116q0 -40 -29 -146q-24 -84 -24 -108q0 -19 10 -27t32 -10q2 0 0.5 -11t-12 -22t-31.5 -11q-30 0 -47 19t-17 52q0 32 26 127q25 89 25 125q0 52 -28.5 82t-80.5 30q-54 0 -93 -28t-74 -87l-60 -285 q-7 -31 -30 -31h-8q-33 0 -27 31l96 450q0 3 14 3q49 0 36 -69zM415 548q-25 0 -63 21.5t-76 58.5q-31 -73 -54 -73t-23 20q0 34 25 65t55 31q25 0 63 -21.5t76 -58.5q31 73 54 73t23 -20q0 -34 -25 -65t-55 -31z" />
<glyph unicode="&#xf2;" horiz-adv-x="550" d="M251 -12q-92 0 -155.5 62t-63.5 159q0 113 77 196t191 83q92 0 155.5 -62t63.5 -159q0 -113 -77 -196t-191 -83zM255 45q82 0 140 65.5t58 154.5q0 71 -45.5 118.5t-111.5 47.5q-82 0 -140 -65.5t-58 -154.5q0 -71 45.5 -118.5t111.5 -47.5zM375 551q-3 -3 -28 5.5 t-61 27.5t-64 42q-30 25 -30 49q0 12 10 20.5t22 8.5q20 0 45 -21q27 -22 53.5 -53.5t41 -53.5t11.5 -25z" />
<glyph unicode="&#xf3;" horiz-adv-x="550" d="M251 -12q-92 0 -155.5 62t-63.5 159q0 113 77 196t191 83q92 0 155.5 -62t63.5 -159q0 -113 -77 -196t-191 -83zM255 45q82 0 140 65.5t58 154.5q0 71 -45.5 118.5t-111.5 47.5q-82 0 -140 -65.5t-58 -154.5q0 -71 45.5 -118.5t111.5 -47.5zM261 551q-2 3 19.5 25 t57.5 52.5t67 48.5q24 15 46 15q13 0 21 -8t8 -20q0 -24 -41 -48q-34 -20 -77 -37t-71 -24t-30 -4z" />
<glyph unicode="&#xf4;" horiz-adv-x="550" d="M251 -12q-92 0 -155.5 62t-63.5 159q0 113 77 196t191 83q92 0 155.5 -62t63.5 -159q0 -113 -77 -196t-191 -83zM255 45q82 0 140 65.5t58 154.5q0 71 -45.5 118.5t-111.5 47.5q-82 0 -140 -65.5t-58 -154.5q0 -71 45.5 -118.5t111.5 -47.5zM215 549q-19 0 -19 17 q0 30 67 86q20 17 42.5 33.5t35.5 25t15 8.5t11.5 -9t24 -24.5t26.5 -30.5q39 -51 39 -77q0 -29 -24 -29q-12 0 -24 13.5t-32 47.5l-29 51l-51 -53q-57 -59 -82 -59z" />
<glyph unicode="&#xf5;" horiz-adv-x="550" d="M251 -12q-92 0 -155.5 62t-63.5 159q0 113 77 196t191 83q92 0 155.5 -62t63.5 -159q0 -113 -77 -196t-191 -83zM255 45q82 0 140 65.5t58 154.5q0 71 -45.5 118.5t-111.5 47.5q-82 0 -140 -65.5t-58 -154.5q0 -71 45.5 -118.5t111.5 -47.5zM402 548q-25 0 -63 21.5 t-76 58.5q-31 -73 -54 -73t-23 20q0 34 25 65t55 31q25 0 63 -21.5t76 -58.5q31 73 54 73t23 -20q0 -34 -25 -65t-55 -31z" />
<glyph unicode="&#xf6;" horiz-adv-x="550" d="M251 -12q-92 0 -155.5 62t-63.5 159q0 113 77 196t191 83q92 0 155.5 -62t63.5 -159q0 -113 -77 -196t-191 -83zM255 45q82 0 140 65.5t58 154.5q0 71 -45.5 118.5t-111.5 47.5q-82 0 -140 -65.5t-58 -154.5q0 -71 45.5 -118.5t111.5 -47.5zM414 548q-49 0 -49 38 q0 24 13.5 41t37.5 17q49 0 49 -38q0 -24 -13.5 -41t-37.5 -17zM246 548q-49 0 -49 38q0 24 13.5 41t37.5 17q49 0 49 -38q0 -24 -13.5 -41t-37.5 -17z" />
<glyph unicode="&#xf7;" horiz-adv-x="600" d="M337 379q-48 0 -48 34q0 36 16 52q13 13 37 13q48 0 48 -34q0 -36 -16 -52q-13 -13 -37 -13zM269 59q-48 0 -48 34q0 36 16 52q13 13 37 13q48 0 48 -34q0 -36 -16 -52q-13 -13 -37 -13zM118 238q-34 0 -26 27l2 7q4 14 12 20.5t25 6.5h363q32 0 25 -27l-2 -7 q-7 -27 -36 -27h-363z" />
<glyph unicode="&#xf8;" horiz-adv-x="550" d="M18 -26q-2 -2 -8.5 2t-12.5 12t-6 17q0 21 26 43l48 42q-33 52 -33 119q0 113 77 196t191 83q86 0 148 -57l78 70q2 2 8.5 -2t12.5 -12t6 -17q0 -20 -26 -43l-43 -38q35 -54 35 -122q0 -113 -77 -196t-191 -83q-90 0 -151 59zM255 45q82 0 140 65.5t58 154.5q0 44 -19 82 l-289 -257q43 -45 110 -45zM98 211q0 -45 18 -80l287 257q-45 43 -107 43q-82 0 -140 -65.5t-58 -154.5z" />
<glyph unicode="&#xf9;" horiz-adv-x="537" d="M438 -8q-76 0 -67 87q-26 -43 -68 -67t-90 -24q-94 0 -136.5 61t-21.5 158l51 242q6 31 30 31h8q33 0 27 -31l-52 -247q-15 -69 12.5 -111t90.5 -42q54 0 93 28t74 87l60 285q6 31 30 31h8q33 0 27 -31l-74 -348q-8 -36 1 -49.5t42 -14.5q2 0 0.5 -11t-12.5 -22.5 t-33 -11.5zM366 551q-3 -3 -28 5.5t-61 27.5t-64 42q-30 25 -30 49q0 12 10 20.5t22 8.5q20 0 45 -21q27 -22 53.5 -53.5t41 -53.5t11.5 -25z" />
<glyph unicode="&#xfa;" horiz-adv-x="537" d="M438 -8q-76 0 -67 87q-26 -43 -68 -67t-90 -24q-94 0 -136.5 61t-21.5 158l51 242q6 31 30 31h8q33 0 27 -31l-52 -247q-15 -69 12.5 -111t90.5 -42q54 0 93 28t74 87l60 285q6 31 30 31h8q33 0 27 -31l-74 -348q-8 -36 1 -49.5t42 -14.5q2 0 0.5 -11t-12.5 -22.5 t-33 -11.5zM264 551q-2 3 19.5 25t57.5 52.5t67 48.5q24 15 46 15q12 0 20.5 -8t8.5 -20q0 -24 -41 -48q-34 -20 -77 -37t-71 -24t-30 -4z" />
<glyph unicode="&#xfb;" horiz-adv-x="537" d="M438 -8q-76 0 -67 87q-26 -43 -68 -67t-90 -24q-94 0 -136.5 61t-21.5 158l51 242q6 31 30 31h8q33 0 27 -31l-52 -247q-15 -69 12.5 -111t90.5 -42q54 0 93 28t74 87l60 285q6 31 30 31h8q33 0 27 -31l-74 -348q-8 -36 1 -49.5t42 -14.5q2 0 0.5 -11t-12.5 -22.5 t-33 -11.5zM218 549q-19 0 -19 17q0 30 67 86q20 17 42.5 33.5t35.5 25t15 8.5t11.5 -9t24 -24.5t26.5 -30.5q39 -51 39 -77q0 -29 -24 -29q-12 0 -24 13.5t-32 47.5l-29 51l-51 -53q-57 -59 -82 -59z" />
<glyph unicode="&#xfc;" horiz-adv-x="537" d="M438 -8q-76 0 -67 87q-26 -43 -68 -67t-90 -24q-94 0 -136.5 61t-21.5 158l51 242q6 31 30 31h8q33 0 27 -31l-52 -247q-15 -69 12.5 -111t90.5 -42q54 0 93 28t74 87l60 285q6 31 30 31h8q33 0 27 -31l-74 -348q-8 -36 1 -49.5t42 -14.5q2 0 0.5 -11t-12.5 -22.5 t-33 -11.5zM249 548q-49 0 -49 38q0 24 13.5 41t37.5 17q49 0 49 -38q0 -24 -13.5 -41t-37.5 -17zM417 548q-49 0 -49 38q0 24 13.5 41t37.5 17q49 0 49 -38q0 -24 -13.5 -41t-37.5 -17z" />
<glyph unicode="&#xfd;" horiz-adv-x="464" d="M-8 -204q-51 0 -74 23q-12 12 -12 28q0 10 6 18.5t12.5 13t8.5 2.5q9 -11 26 -18.5t29 -7.5q31 0 65 30.5t92 115.5l16 23q-30 4 -35 43l-28 263q-5 52 -23 75t-52 23q-1 0 -1 5.5t1.5 13t6 15t15.5 13t28 5.5q75 0 89 -156l24 -265l256 420q2 -1 11.5 0t20.5 -7.5 t11 -24.5q0 -15 -19 -46l-258 -413q-71 -113 -116.5 -152.5t-99.5 -39.5zM238 541q-2 3 19.5 25t57.5 52.5t67 48.5q24 15 46 15q12 0 20.5 -8t8.5 -20q0 -24 -41 -48q-34 -20 -77 -37t-71 -24t-30 -4z" />
<glyph unicode="&#xfe;" horiz-adv-x="566" d="M275 -12q-62 0 -106.5 30t-67.5 77l-55 -261q-7 -31 -30 -31h-8q-33 0 -27 31l173 816q4 17 10.5 24t19.5 7h8q33 0 27 -31l-55 -256q69 94 175 94q81 0 138.5 -56t57.5 -155q0 -114 -74 -201.5t-186 -87.5zM331 431q-57 0 -106.5 -33t-77.5 -87l-19 -90 q-13 -70 29.5 -123t121.5 -53q87 0 138.5 70t51.5 162q0 71 -40.5 112.5t-97.5 41.5z" />
<glyph unicode="&#xff;" horiz-adv-x="464" d="M-8 -204q-51 0 -74 23q-12 12 -12 28q0 10 6 18.5t12.5 13t8.5 2.5q9 -11 26 -18.5t29 -7.5q31 0 65 30.5t92 115.5l16 23q-30 4 -35 43l-28 263q-5 52 -23 75t-52 23q-1 0 -1 5.5t1.5 13t6 15t15.5 13t28 5.5q75 0 89 -156l24 -265l256 420q2 -1 11.5 0t20.5 -7.5 t11 -24.5q0 -15 -19 -46l-258 -413q-71 -113 -116.5 -152.5t-99.5 -39.5zM376 548q-49 0 -49 38q0 24 13.5 41t37.5 17q49 0 49 -38q0 -24 -13.5 -41t-37.5 -17zM208 548q-49 0 -49 38q0 24 13.5 41t37.5 17q49 0 49 -38q0 -24 -13.5 -41t-37.5 -17z" />
<glyph unicode="&#x100;" horiz-adv-x="609" d="M35 -3q-2 1 -12.5 -0.5t-22.5 8t-12 28.5q0 16 19 49l326 549q14 23 43 23q41 0 47 -30l122 -607q1 -3 -4 -7.5t-14.5 -8.5t-19.5 -4q-29 0 -36 37l-33 177h-280zM193 271h233l-57 305zM289 733q-31 0 -31 18q0 22 12 36q7 8 26 8h220q31 0 31 -18q0 -22 -12 -36 q-7 -8 -26 -8h-220z" />
<glyph unicode="&#x101;" horiz-adv-x="569" d="M472 -8q-82 0 -65 98q-68 -102 -184 -102q-81 0 -136 53.5t-55 148.5q0 115 78 206.5t192 91.5q58 0 103 -28t65 -73l6 26q7 36 19.5 51.5t32.5 15.5q6 0 12 -2t9.5 -3.5t3.5 -2.5l-79 -371q-8 -36 1 -49.5t42 -14.5q2 0 0.5 -11t-12.5 -22.5t-33 -11.5zM231 45 q73 0 132 54t74 129l17 79q-36 124 -156 124q-89 0 -144.5 -74t-55.5 -166q0 -67 38.5 -106.5t94.5 -39.5zM248 568q-31 0 -31 18q0 22 12 36q7 8 26 8h220q31 0 31 -18q0 -22 -12 -36q-7 -8 -26 -8h-220z" />
<glyph unicode="&#x102;" horiz-adv-x="609" d="M35 -3q-2 1 -12.5 -0.5t-22.5 8t-12 28.5q0 16 19 49l326 549q14 23 43 23q41 0 47 -30l122 -607q1 -3 -4 -7.5t-14.5 -8.5t-19.5 -4q-29 0 -36 37l-33 177h-280zM193 271h233l-57 305zM403 713q-46 0 -89.5 36t-43.5 71q0 11 7 19t18 8q35 0 107 -91q87 91 125 91 q10 0 17.5 -7t7.5 -17q0 -32 -49 -71t-100 -39z" />
<glyph unicode="&#x103;" horiz-adv-x="569" d="M472 -8q-82 0 -65 98q-68 -102 -184 -102q-81 0 -136 53.5t-55 148.5q0 115 78 206.5t192 91.5q58 0 103 -28t65 -73l6 26q7 36 19.5 51.5t32.5 15.5q6 0 12 -2t9.5 -3.5t3.5 -2.5l-79 -371q-8 -36 1 -49.5t42 -14.5q2 0 0.5 -11t-12.5 -22.5t-33 -11.5zM231 45 q73 0 132 54t74 129l17 79q-36 124 -156 124q-89 0 -144.5 -74t-55.5 -166q0 -67 38.5 -106.5t94.5 -39.5zM363 548q-46 0 -89.5 36t-43.5 71q0 11 7 19t18 8q35 0 107 -91q87 91 125 91q10 0 17.5 -7t7.5 -17q0 -32 -49 -71t-100 -39z" />
<glyph unicode="&#x104;" horiz-adv-x="609" d="M35 -3q-2 1 -12.5 -0.5t-22.5 8t-12 28.5q0 16 19 49l326 549q14 23 43 23q41 0 47 -30l122 -607q0 -8 -19 -16q-104 -56 -104 -110q0 -15 9 -24t24 -9q22 0 37 18q10 -2 18 -10t8 -20q0 -20 -18.5 -33t-49.5 -13q-40 0 -65.5 22t-25.5 57q0 37 30.5 71.5t91.5 58.5 q-7 8 -10 25l-33 177h-280zM193 271h233l-57 305z" />
<glyph unicode="&#x105;" horiz-adv-x="569" d="M517 37q0 -2 0.5 -9t-6.5 -18t-19 -15q-102 -56 -102 -109q0 -15 9 -24t24 -9q22 0 37 18q10 -2 18 -10t8 -20q0 -20 -18.5 -33t-49.5 -13q-40 0 -65.5 22t-25.5 57q0 76 109 125q-41 20 -29 91q-68 -102 -184 -102q-81 0 -136 53.5t-55 148.5q0 115 78 206.5t192 91.5 q58 0 103 -28t65 -73l6 26q7 36 19.5 51.5t32.5 15.5q6 0 12 -2t9.5 -3.5t3.5 -2.5l-79 -371q-8 -36 1 -49.5t42 -14.5zM231 45q73 0 132 54t74 129l17 79q-36 124 -156 124q-89 0 -144.5 -74t-55.5 -166q0 -67 38.5 -106.5t94.5 -39.5z" />
<glyph unicode="&#x106;" horiz-adv-x="650" d="M353 -12q-133 0 -212.5 75.5t-79.5 203.5q0 161 104 276.5t256 115.5q122 0 193 -71q42 -42 42 -80q0 -16 -10 -26.5t-20.5 -13t-14.5 0.5q-48 131 -193 131q-121 0 -203 -95t-82 -228q0 -105 60.5 -167t158.5 -62q138 0 207 105q1 2 9.5 -1.5t16.5 -12.5t8 -22 q0 -24 -29 -53q-32 -32 -89 -54t-122 -22zM359 716q-2 3 19.5 25t57.5 52.5t67 48.5q24 15 46 15q13 0 21 -8.5t8 -19.5q0 -24 -41 -48q-34 -20 -77 -37t-71 -24t-30 -4z" />
<glyph unicode="&#x107;" horiz-adv-x="518" d="M257 -12q-97 0 -161.5 60t-64.5 161q0 111 79 194.5t191 83.5q105 0 165 -60q40 -40 40 -82q0 -19 -12 -29.5t-23 -9.5t-13 2q-10 54 -50.5 87.5t-104.5 33.5q-88 0 -146.5 -65.5t-58.5 -150.5q0 -74 45 -120t120 -46q98 0 155 90q1 2 10 -0.5t18 -10.5t9 -20 q0 -23 -31 -54q-27 -27 -71.5 -45.5t-95.5 -18.5zM245 551q-2 3 19.5 25t57.5 52.5t67 48.5q24 15 46 15q13 0 21 -8t8 -20q0 -24 -41 -48q-34 -20 -77 -37t-71 -24t-30 -4z" />
<glyph unicode="&#x108;" horiz-adv-x="650" d="M353 -12q-133 0 -212.5 75.5t-79.5 203.5q0 161 104 276.5t256 115.5q122 0 193 -71q42 -42 42 -80q0 -16 -10 -26.5t-20.5 -13t-14.5 0.5q-48 131 -193 131q-121 0 -203 -95t-82 -228q0 -105 60.5 -167t158.5 -62q138 0 207 105q1 2 9.5 -1.5t16.5 -12.5t8 -22 q0 -24 -29 -53q-32 -32 -89 -54t-122 -22zM325 714q-19 0 -19 17q0 30 67 86q20 17 42.5 33.5t35.5 25t15 8.5t11.5 -9t24 -24.5t26.5 -30.5q39 -51 39 -77q0 -29 -24 -29q-12 0 -24 13.5t-32 47.5l-29 51l-51 -53q-57 -59 -82 -59z" />
<glyph unicode="&#x109;" horiz-adv-x="518" d="M257 -12q-97 0 -161.5 60t-64.5 161q0 111 79 194.5t191 83.5q105 0 165 -60q40 -40 40 -82q0 -19 -12 -29.5t-23 -9.5t-13 2q-10 54 -50.5 87.5t-104.5 33.5q-88 0 -146.5 -65.5t-58.5 -150.5q0 -74 45 -120t120 -46q98 0 155 90q1 2 10 -0.5t18 -10.5t9 -20 q0 -23 -31 -54q-27 -27 -71.5 -45.5t-95.5 -18.5zM211 549q-19 0 -19 17q0 30 67 86q20 17 42.5 33.5t35.5 25t15 8.5t11.5 -9t24 -24.5t26.5 -30.5q39 -51 39 -77q0 -29 -24 -29q-12 0 -24 13.5t-32 47.5l-29 51l-51 -53q-57 -59 -82 -59z" />
<glyph unicode="&#x10a;" horiz-adv-x="650" d="M353 -12q-133 0 -212.5 75.5t-79.5 203.5q0 161 104 276.5t256 115.5q122 0 193 -71q42 -42 42 -80q0 -16 -10 -26.5t-20.5 -13t-14.5 0.5q-48 131 -193 131q-121 0 -203 -95t-82 -228q0 -105 60.5 -167t158.5 -62q138 0 207 105q1 2 9.5 -1.5t16.5 -12.5t8 -22 q0 -24 -29 -53q-32 -32 -89 -54t-122 -22zM442 714q-54 0 -54 41q0 26 14.5 44.5t41.5 18.5q54 0 54 -41q0 -26 -14.5 -44.5t-41.5 -18.5z" />
<glyph unicode="&#x10b;" horiz-adv-x="518" d="M257 -12q-97 0 -161.5 60t-64.5 161q0 111 79 194.5t191 83.5q105 0 165 -60q40 -40 40 -82q0 -19 -12 -29.5t-23 -9.5t-13 2q-10 54 -50.5 87.5t-104.5 33.5q-88 0 -146.5 -65.5t-58.5 -150.5q0 -74 45 -120t120 -46q98 0 155 90q1 2 10 -0.5t18 -10.5t9 -20 q0 -23 -31 -54q-27 -27 -71.5 -45.5t-95.5 -18.5zM336 549q-54 0 -54 41q0 26 14.5 44.5t41.5 18.5q54 0 54 -41q0 -26 -14.5 -44.5t-41.5 -18.5z" />
<glyph unicode="&#x10c;" horiz-adv-x="650" d="M353 -12q-133 0 -212.5 75.5t-79.5 203.5q0 161 104 276.5t256 115.5q122 0 193 -71q42 -42 42 -80q0 -16 -10 -26.5t-20.5 -13t-14.5 0.5q-48 131 -193 131q-121 0 -203 -95t-82 -228q0 -105 60.5 -167t158.5 -62q138 0 207 105q1 2 9.5 -1.5t16.5 -12.5t8 -22 q0 -24 -29 -53q-32 -32 -89 -54t-122 -22zM427 698q-2 0 -11.5 9t-24.5 24.5t-26 30.5q-39 51 -39 77q0 29 24 29q15 0 31.5 -22.5t53.5 -89.5l51 53q57 59 82 59q19 0 19 -17q0 -30 -67 -86q-20 -17 -42.5 -33.5t-35.5 -25t-15 -8.5z" />
<glyph unicode="&#x10d;" horiz-adv-x="518" d="M257 -12q-97 0 -161.5 60t-64.5 161q0 111 79 194.5t191 83.5q105 0 165 -60q40 -40 40 -82q0 -19 -12 -29.5t-23 -9.5t-13 2q-10 54 -50.5 87.5t-104.5 33.5q-88 0 -146.5 -65.5t-58.5 -150.5q0 -74 45 -120t120 -46q98 0 155 90q1 2 10 -0.5t18 -10.5t9 -20 q0 -23 -31 -54q-27 -27 -71.5 -45.5t-95.5 -18.5zM325 533q-2 0 -11.5 9t-24.5 24.5t-26 30.5q-39 51 -39 77q0 29 24 29q15 0 31.5 -22.5t53.5 -89.5l51 53q57 59 82 59q19 0 19 -17q0 -30 -67 -86q-20 -17 -42.5 -33.5t-35.5 -25t-15 -8.5z" />
<glyph unicode="&#x10e;" horiz-adv-x="660" d="M73 0q-22 0 -32 12t-5 33l119 561q6 41 47 41h110q151 0 235.5 -70.5t84.5 -198.5q0 -165 -104.5 -271.5t-298.5 -106.5h-156zM107 60h132q158 0 239.5 87.5t81.5 220.5q0 103 -66.5 161t-186.5 58h-88zM389 698q-2 0 -11.5 9t-24.5 24.5t-26 30.5q-39 51 -39 77 q0 29 24 29q15 0 31.5 -22.5t53.5 -89.5l51 53q57 59 82 59q19 0 19 -17q0 -30 -67 -86q-20 -17 -42.5 -33.5t-35.5 -25t-15 -8.5z" />
<glyph unicode="&#x10f;" horiz-adv-x="736" d="M472 -8q-38 0 -55 23.5t-12 65.5q-69 -93 -174 -93q-81 0 -138.5 56t-57.5 155q0 114 74 201.5t186 87.5q119 0 176 -97l55 259q7 31 30 31h8q33 0 27 -31l-117 -549q-8 -35 1 -49t42 -15q2 0 0.5 -11t-12.5 -22.5t-33 -11.5zM239 45q70 0 125 49.5t70 123.5l18 87 q-21 62 -58 94t-103 32q-87 0 -138.5 -70t-51.5 -162q0 -71 40.5 -112.5t97.5 -41.5zM630 438q-5 -6 -19.5 3t-10.5 17l116 220q3 1 17 0.5t29.5 -9.5t15.5 -24q0 -21 -19 -45z" />
<glyph unicode="&#x111;" horiz-adv-x="569" d="M630 628q31 0 31 -18q0 -22 -12 -36q-7 -8 -26 -8h-50l-99 -465q-8 -35 1 -49t42 -15q2 0 0.5 -11t-12.5 -22.5t-33 -11.5q-38 0 -55 23.5t-12 65.5q-69 -93 -174 -93q-81 0 -138.5 56t-57.5 155q0 114 74 201.5t186 87.5q119 0 176 -97l37 175h-95q-31 0 -31 18 q0 22 12 36q7 8 26 8h101l5 22q7 31 30 31h8q33 0 27 -31l-5 -22h44zM239 45q70 0 125 49.5t70 123.5l18 87q-21 62 -58 94t-103 32q-87 0 -138.5 -70t-51.5 -162q0 -71 40.5 -112.5t97.5 -41.5z" />
<glyph unicode="&#x112;" horiz-adv-x="576" d="M73 0q-22 0 -32 12t-5 33l119 561q8 41 47 41h383q31 0 31 -17q0 -23 -13 -38q-6 -7 -26 -7h-358l-48 -223h283q30 0 30 -16q0 -25 -12 -37q-7 -7 -25 -7h-289l-51 -240h359q31 0 31 -17q0 -23 -13 -38q-6 -7 -26 -7h-385zM304 733q-31 0 -31 18q0 22 12 36q7 8 26 8h220 q31 0 31 -18q0 -22 -12 -36q-7 -8 -26 -8h-220z" />
<glyph unicode="&#x113;" horiz-adv-x="505" d="M235 -12q-99 0 -153 53.5t-54 140.5q0 129 86.5 217.5t213.5 88.5q79 0 124.5 -34.5t45.5 -91.5q0 -76 -62 -114t-215 -38q-53 0 -126 6q-1 -10 -1 -30q0 -65 37 -103.5t106 -38.5q102 0 161 79q1 2 9.5 -1t16.5 -11t8 -19q0 -20 -22 -42q-62 -62 -175 -62zM325 431 q-73 0 -132 -45t-84 -115q48 -6 106 -6q217 0 217 96q0 29 -28 49.5t-79 20.5zM216 568q-31 0 -31 18q0 22 12 36q7 8 26 8h220q31 0 31 -18q0 -22 -12 -36q-7 -8 -26 -8h-220z" />
<glyph unicode="&#x114;" horiz-adv-x="576" d="M73 0q-22 0 -32 12t-5 33l119 561q8 41 47 41h383q31 0 31 -17q0 -23 -13 -38q-6 -7 -26 -7h-358l-48 -223h283q30 0 30 -16q0 -25 -12 -37q-7 -7 -25 -7h-289l-51 -240h359q31 0 31 -17q0 -23 -13 -38q-6 -7 -26 -7h-385zM409 713q-46 0 -89.5 36t-43.5 71q0 11 7 19 t18 8q35 0 107 -91q87 91 125 91q10 0 17.5 -7t7.5 -17q0 -32 -49 -71t-100 -39z" />
<glyph unicode="&#x115;" horiz-adv-x="505" d="M235 -12q-99 0 -153 53.5t-54 140.5q0 129 86.5 217.5t213.5 88.5q79 0 124.5 -34.5t45.5 -91.5q0 -76 -62 -114t-215 -38q-53 0 -126 6q-1 -10 -1 -30q0 -65 37 -103.5t106 -38.5q102 0 161 79q1 2 9.5 -1t16.5 -11t8 -19q0 -20 -22 -42q-62 -62 -175 -62zM325 431 q-73 0 -132 -45t-84 -115q48 -6 106 -6q217 0 217 96q0 29 -28 49.5t-79 20.5zM331 548q-46 0 -89.5 36t-43.5 71q0 11 7 19t18 8q35 0 107 -91q87 91 125 91q10 0 17.5 -7t7.5 -17q0 -32 -49 -71t-100 -39z" />
<glyph unicode="&#x116;" horiz-adv-x="576" d="M73 0q-22 0 -32 12t-5 33l119 561q8 41 47 41h383q31 0 31 -17q0 -23 -13 -38q-6 -7 -26 -7h-358l-48 -223h283q30 0 30 -16q0 -25 -12 -37q-7 -7 -25 -7h-289l-51 -240h359q31 0 31 -17q0 -23 -13 -38q-6 -7 -26 -7h-385zM408 714q-54 0 -54 41q0 26 14.5 44.5 t41.5 18.5q54 0 54 -41q0 -26 -14.5 -44.5t-41.5 -18.5z" />
<glyph unicode="&#x117;" horiz-adv-x="505" d="M235 -12q-99 0 -153 53.5t-54 140.5q0 129 86.5 217.5t213.5 88.5q79 0 124.5 -34.5t45.5 -91.5q0 -76 -62 -114t-215 -38q-53 0 -126 6q-1 -10 -1 -30q0 -65 37 -103.5t106 -38.5q102 0 161 79q1 2 9.5 -1t16.5 -11t8 -19q0 -20 -22 -42q-62 -62 -175 -62zM325 431 q-73 0 -132 -45t-84 -115q48 -6 106 -6q217 0 217 96q0 29 -28 49.5t-79 20.5zM341 549q-54 0 -54 41q0 26 14.5 44.5t41.5 18.5q54 0 54 -41q0 -26 -14.5 -44.5t-41.5 -18.5z" />
<glyph unicode="&#x118;" horiz-adv-x="576" d="M73 0q-22 0 -32 12t-5 33l119 561q8 41 47 41h383q31 0 31 -17q0 -23 -13 -38q-6 -7 -26 -7h-358l-48 -223h283q30 0 30 -16q0 -25 -12 -37q-7 -7 -25 -7h-289l-51 -240h359q31 0 31 -17q0 -23 -13 -38q-3 -5 -9 -6q-103 -56 -103 -109q0 -15 9 -24t24 -9q22 0 37 18 q10 -2 18 -10t8 -20q0 -20 -18.5 -33t-49.5 -13q-40 0 -65.5 22t-25.5 57q0 72 99 120h-335z" />
<glyph unicode="&#x119;" horiz-adv-x="505" d="M235 -12q-99 0 -153 53.5t-54 140.5q0 129 86.5 217.5t213.5 88.5q79 0 124.5 -34.5t45.5 -91.5q0 -76 -62 -114t-215 -38q-53 0 -126 6q-1 -10 -1 -30q0 -65 37 -103.5t106 -38.5q102 0 161 79q1 2 9.5 -1t16.5 -11t8 -19q0 -20 -22 -42q-24 -24 -55 -39 q-99 -54 -99 -107q0 -15 9 -24t24 -9q22 0 37 18q10 -2 18 -10t8 -20q0 -20 -18.5 -33t-49.5 -13q-40 0 -65.5 22t-25.5 57q0 55 60 97q-6 -1 -18 -1zM325 431q-73 0 -132 -45t-84 -115q48 -6 106 -6q217 0 217 96q0 29 -28 49.5t-79 20.5z" />
<glyph unicode="&#x11a;" horiz-adv-x="576" d="M73 0q-22 0 -32 12t-5 33l119 561q8 41 47 41h383q31 0 31 -17q0 -23 -13 -38q-6 -7 -26 -7h-358l-48 -223h283q30 0 30 -16q0 -25 -12 -37q-7 -7 -25 -7h-289l-51 -240h359q31 0 31 -17q0 -23 -13 -38q-6 -7 -26 -7h-385zM394 698q-2 0 -11.5 9t-24.5 24.5t-26 30.5 q-39 51 -39 77q0 29 24 29q15 0 31.5 -22.5t53.5 -89.5l51 53q57 59 82 59q19 0 19 -17q0 -30 -67 -86q-20 -17 -42.5 -33.5t-35.5 -25t-15 -8.5z" />
<glyph unicode="&#x11b;" horiz-adv-x="505" d="M235 -12q-99 0 -153 53.5t-54 140.5q0 129 86.5 217.5t213.5 88.5q79 0 124.5 -34.5t45.5 -91.5q0 -76 -62 -114t-215 -38q-53 0 -126 6q-1 -10 -1 -30q0 -65 37 -103.5t106 -38.5q102 0 161 79q1 2 9.5 -1t16.5 -11t8 -19q0 -20 -22 -42q-62 -62 -175 -62zM325 431 q-73 0 -132 -45t-84 -115q48 -6 106 -6q217 0 217 96q0 29 -28 49.5t-79 20.5zM318 533q-2 0 -11.5 9t-24.5 24.5t-26 30.5q-39 51 -39 77q0 29 24 29q15 0 31.5 -22.5t53.5 -89.5l51 53q57 59 82 59q19 0 19 -17q0 -30 -67 -86q-20 -17 -42.5 -33.5t-35.5 -25t-15 -8.5z " />
<glyph unicode="&#x11c;" horiz-adv-x="706" d="M578 -4q-47 0 -32 69l3 14q-26 -40 -79 -65.5t-119 -25.5q-131 0 -210.5 73.5t-79.5 202.5q0 103 46 193.5t130.5 146t188.5 55.5q131 0 206 -75q36 -36 36 -69q0 -19 -11.5 -30t-22.5 -12.5t-12 0.5q-19 55 -72.5 90.5t-124.5 35.5q-126 0 -209 -96.5t-83 -231.5 q0 -107 59.5 -165.5t159.5 -58.5q104 0 165 61q30 30 43 58t29 103h-182q-31 0 -31 16q0 25 13 38q7 7 25 7h202q22 0 32 -12t5 -33l-61 -286q0 -3 -14 -3zM313 714q-19 0 -19 17q0 30 67 86q20 17 42.5 33.5t35.5 25t15 8.5t11.5 -9t24 -24.5t26.5 -30.5q39 -51 39 -77 q0 -29 -24 -29q-12 0 -24 13.5t-32 47.5l-29 51l-51 -53q-57 -59 -82 -59z" />
<glyph unicode="&#x11d;" horiz-adv-x="569" d="M212 -200q-116 0 -178 62q-34 34 -34 64q0 20 11.5 32t23 15t12.5 0q31 -114 171 -114q139 0 172 155l17 79q-67 -92 -175 -92q-81 0 -139.5 56t-58.5 155q0 106 79 191t189 85q58 0 103 -27.5t65 -72.5l6 25q7 36 19.5 51.5t32.5 15.5q6 0 12 -2t9.5 -3.5t3.5 -2.5 l-99 -464q-21 -100 -82.5 -154t-159.5 -54zM240 58q68 0 123.5 45.5t70.5 115.5l19 89q-36 123 -155 123q-84 0 -141 -67.5t-57 -151.5q0 -70 41.5 -112t98.5 -42zM222 549q-19 0 -19 17q0 30 67 86q20 17 42.5 33.5t35.5 25t15 8.5t11.5 -9t24 -24.5t26.5 -30.5 q39 -51 39 -77q0 -29 -24 -29q-12 0 -24 13.5t-32 47.5l-29 51l-51 -53q-57 -59 -82 -59z" />
<glyph unicode="&#x11e;" horiz-adv-x="706" d="M578 -4q-47 0 -32 69l3 14q-26 -40 -79 -65.5t-119 -25.5q-131 0 -210.5 73.5t-79.5 202.5q0 103 46 193.5t130.5 146t188.5 55.5q131 0 206 -75q36 -36 36 -69q0 -19 -11.5 -30t-22.5 -12.5t-12 0.5q-19 55 -72.5 90.5t-124.5 35.5q-126 0 -209 -96.5t-83 -231.5 q0 -107 59.5 -165.5t159.5 -58.5q104 0 165 61q30 30 43 58t29 103h-182q-31 0 -31 16q0 25 13 38q7 7 25 7h202q22 0 32 -12t5 -33l-61 -286q0 -3 -14 -3zM432 713q-46 0 -89.5 36t-43.5 71q0 11 7 19t18 8q35 0 107 -91q87 91 125 91q10 0 17.5 -7t7.5 -17q0 -32 -49 -71 t-100 -39z" />
<glyph unicode="&#x11f;" horiz-adv-x="569" d="M212 -200q-116 0 -178 62q-34 34 -34 64q0 20 11.5 32t23 15t12.5 0q31 -114 171 -114q139 0 172 155l17 79q-67 -92 -175 -92q-81 0 -139.5 56t-58.5 155q0 106 79 191t189 85q58 0 103 -27.5t65 -72.5l6 25q7 36 19.5 51.5t32.5 15.5q6 0 12 -2t9.5 -3.5t3.5 -2.5 l-99 -464q-21 -100 -82.5 -154t-159.5 -54zM240 58q68 0 123.5 45.5t70.5 115.5l19 89q-36 123 -155 123q-84 0 -141 -67.5t-57 -151.5q0 -70 41.5 -112t98.5 -42zM340 548q-46 0 -89.5 36t-43.5 71q0 11 7 19t18 8q35 0 107 -91q87 91 125 91q10 0 17.5 -7t7.5 -17 q0 -32 -49 -71t-100 -39z" />
<glyph unicode="&#x120;" horiz-adv-x="706" d="M578 -4q-47 0 -32 69l3 14q-26 -40 -79 -65.5t-119 -25.5q-131 0 -210.5 73.5t-79.5 202.5q0 103 46 193.5t130.5 146t188.5 55.5q131 0 206 -75q36 -36 36 -69q0 -19 -11.5 -30t-22.5 -12.5t-12 0.5q-19 55 -72.5 90.5t-124.5 35.5q-126 0 -209 -96.5t-83 -231.5 q0 -107 59.5 -165.5t159.5 -58.5q104 0 165 61q30 30 43 58t29 103h-182q-31 0 -31 16q0 25 13 38q7 7 25 7h202q22 0 32 -12t5 -33l-61 -286q0 -3 -14 -3zM430 714q-54 0 -54 41q0 26 14.5 44.5t41.5 18.5q54 0 54 -41q0 -26 -14.5 -44.5t-41.5 -18.5z" />
<glyph unicode="&#x121;" horiz-adv-x="569" d="M212 -200q-116 0 -178 62q-34 34 -34 64q0 20 11.5 32t23 15t12.5 0q31 -114 171 -114q139 0 172 155l17 79q-67 -92 -175 -92q-81 0 -139.5 56t-58.5 155q0 106 79 191t189 85q58 0 103 -27.5t65 -72.5l6 25q7 36 19.5 51.5t32.5 15.5q6 0 12 -2t9.5 -3.5t3.5 -2.5 l-99 -464q-21 -100 -82.5 -154t-159.5 -54zM240 58q68 0 123.5 45.5t70.5 115.5l19 89q-36 123 -155 123q-84 0 -141 -67.5t-57 -151.5q0 -70 41.5 -112t98.5 -42zM338 549q-54 0 -54 41q0 26 14.5 44.5t41.5 18.5q54 0 54 -41q0 -26 -14.5 -44.5t-41.5 -18.5z" />
<glyph unicode="&#x122;" horiz-adv-x="706" d="M578 -4q-47 0 -32 69l3 14q-26 -40 -79 -65.5t-119 -25.5q-131 0 -210.5 73.5t-79.5 202.5q0 103 46 193.5t130.5 146t188.5 55.5q131 0 206 -75q36 -36 36 -69q0 -19 -11.5 -30t-22.5 -12.5t-12 0.5q-19 55 -72.5 90.5t-124.5 35.5q-126 0 -209 -96.5t-83 -231.5 q0 -107 59.5 -165.5t159.5 -58.5q104 0 165 61q30 30 43 58t29 103h-182q-31 0 -31 16q0 25 13 38q7 7 25 7h202q22 0 32 -12t5 -33l-61 -286q0 -3 -14 -3zM227 -234q-6 -6 -20 4t-10 16l107 167q1 2 15.5 -0.5t28.5 -12t14 -23.5q0 -22 -22 -45z" />
<glyph unicode="&#x123;" horiz-adv-x="569" d="M212 -200q-116 0 -178 62q-34 34 -34 64q0 20 11.5 32t23 15t12.5 0q31 -114 171 -114q139 0 172 155l17 79q-67 -92 -175 -92q-81 0 -139.5 56t-58.5 155q0 106 79 191t189 85q58 0 103 -27.5t65 -72.5l6 25q7 36 19.5 51.5t32.5 15.5q6 0 12 -2t9.5 -3.5t3.5 -2.5 l-99 -464q-21 -100 -82.5 -154t-159.5 -54zM240 58q68 0 123.5 45.5t70.5 115.5l19 89q-36 123 -155 123q-84 0 -141 -67.5t-57 -151.5q0 -70 41.5 -112t98.5 -42zM418 687q6 6 20 -4t10 -16l-107 -167q-1 -2 -15.5 0.5t-28.5 12t-14 23.5q0 22 22 45z" />
<glyph unicode="&#x124;" horiz-adv-x="667" d="M57 -4q-32 0 -24 35l125 589q7 31 34 31h9q32 0 24 -35l-55 -261h377l56 265q7 31 34 31h9q32 0 24 -35l-125 -589q-7 -31 -34 -31h-9q-32 0 -24 35l56 262h-377l-57 -266q-7 -31 -34 -31h-9zM304 714q-19 0 -19 17q0 30 67 86q20 17 42.5 33.5t35.5 25t15 8.5t11.5 -9 t24 -24.5t26.5 -30.5q39 -51 39 -77q0 -29 -24 -29q-12 0 -24 13.5t-32 47.5l-29 51l-51 -53q-57 -59 -82 -59z" />
<glyph unicode="&#x125;" horiz-adv-x="537" d="M436 -8q-30 0 -47 19t-17 52q0 32 26 127q25 89 25 125q0 52 -28.5 82t-80.5 30q-54 0 -93 -28t-74 -87l-60 -285q-7 -31 -30 -31h-8q-33 0 -27 31l132 623q7 31 30 31h8q33 0 27 -31l-54 -253q26 43 68 67t90 24q77 0 122 -45t45 -116q0 -40 -29 -146q-24 -84 -24 -108 q0 -19 10 -27t32 -10q2 0 0.5 -11t-12 -22t-31.5 -11zM84 714q-19 0 -19 17q0 30 67 86q20 17 42.5 33.5t35.5 25t15 8.5t11.5 -9t24 -24.5t26.5 -30.5q39 -51 39 -77q0 -29 -24 -29q-12 0 -24 13.5t-32 47.5l-29 51l-51 -53q-57 -59 -82 -59z" />
<glyph unicode="&#x126;" horiz-adv-x="667" d="M84 469q-31 0 -31 18q0 20 12 34q7 8 26 8h47l20 91q7 31 34 31h9q32 0 24 -35l-19 -87h377l20 91q7 31 34 31h9q32 0 24 -35l-19 -87h41q31 0 31 -18q0 -20 -12 -34q-7 -8 -26 -8h-46l-94 -442q-7 -31 -34 -31h-9q-32 0 -24 35l56 262h-377l-57 -266q-7 -31 -34 -31h-9 q-32 0 -24 35l93 438h-42zM170 355h377l24 114h-377z" />
<glyph unicode="&#x127;" horiz-adv-x="537" d="M92 566q-31 0 -31 18q0 22 12 36q7 8 26 8h50l5 22q7 31 30 31h8q33 0 27 -31l-5 -22h95q31 0 31 -18q0 -22 -12 -36q-7 -8 -26 -8h-101l-36 -169q26 43 68 67t90 24q77 0 122 -45t45 -116q0 -40 -29 -146q-24 -84 -24 -108q0 -19 10 -27t32 -10q2 0 0.5 -11t-12 -22 t-31.5 -11q-30 0 -47 19t-17 52q0 32 26 127q25 89 25 125q0 52 -28.5 82t-80.5 30q-54 0 -93 -28t-74 -87l-60 -285q-7 -31 -30 -31h-8q-33 0 -27 31l114 539h-44z" />
<glyph unicode="&#x12a;" horiz-adv-x="242" d="M68 -4q-32 0 -24 35l125 589q7 31 34 31h9q32 0 24 -35l-125 -589q-7 -31 -34 -31h-9zM124 733q-31 0 -31 18q0 22 12 36q7 8 26 8h220q31 0 31 -18q0 -22 -12 -36q-7 -8 -26 -8h-220z" />
<glyph unicode="&#x12b;" horiz-adv-x="209" d="M109 -8q-89 0 -66 108l74 349q7 31 30 31h8q33 0 27 -31l-74 -348q-8 -36 2 -50t46 -14q2 0 0.5 -11t-13 -22.5t-34.5 -11.5zM65 568q-31 0 -31 18q0 22 12 36q7 8 26 8h220q31 0 31 -18q0 -22 -12 -36q-7 -8 -26 -8h-220z" />
<glyph unicode="&#x12c;" horiz-adv-x="242" d="M68 -4q-32 0 -24 35l125 589q7 31 34 31h9q32 0 24 -35l-125 -589q-7 -31 -34 -31h-9zM228 713q-46 0 -89.5 36t-43.5 71q0 11 7 19t18 8q35 0 107 -91q87 91 125 91q10 0 17.5 -7t7.5 -17q0 -32 -49 -71t-100 -39z" />
<glyph unicode="&#x12d;" horiz-adv-x="209" d="M109 -8q-89 0 -66 108l74 349q7 31 30 31h8q33 0 27 -31l-74 -348q-8 -36 2 -50t46 -14q2 0 0.5 -11t-13 -22.5t-34.5 -11.5zM173 548q-46 0 -89.5 36t-43.5 71q0 11 7 19t18 8q35 0 107 -91q87 91 125 91q10 0 17.5 -7t7.5 -17q0 -32 -49 -71t-100 -39z" />
<glyph unicode="&#x12e;" horiz-adv-x="242" d="M111 27q-6 -25 -22 -29q-101 -56 -101 -109q0 -15 9 -24t24 -9q22 0 37 18q10 -2 18 -10t8 -20q0 -20 -18.5 -33t-49.5 -13q-40 0 -65.5 22t-25.5 57q0 37 30.5 71t89.5 59q-5 10 -1 24l125 589q7 31 34 31h9q32 0 24 -35z" />
<glyph unicode="&#x12f;" horiz-adv-x="209" d="M156 37q1 0 0 -9t-8.5 -19.5t-22.5 -14.5q-96 -54 -96 -106q0 -15 9 -24t24 -9q22 0 37 18q10 -2 18 -10t8 -20q0 -20 -18.5 -33t-49.5 -13q-40 0 -65.5 22t-25.5 57q0 74 105 123q-46 21 -28 101l74 349q7 31 30 31h8q33 0 27 -31l-74 -348q-8 -36 2 -50t46 -14z M190 596q-44 0 -44 33q0 21 12 36t34 15q44 0 44 -33q0 -21 -12 -36t-34 -15z" />
<glyph unicode="&#x130;" horiz-adv-x="242" d="M68 -4q-32 0 -24 35l125 589q7 31 34 31h9q32 0 24 -35l-125 -589q-7 -31 -34 -31h-9zM231 714q-54 0 -54 41q0 26 14.5 44.5t41.5 18.5q54 0 54 -41q0 -26 -14.5 -44.5t-41.5 -18.5z" />
<glyph unicode="&#x131;" horiz-adv-x="209" d="M109 -8q-89 0 -66 108l74 349q7 31 30 31h8q33 0 27 -31l-74 -348q-8 -36 2 -50t46 -14q2 0 0.5 -11t-13 -22.5t-34.5 -11.5z" />
<glyph unicode="&#x134;" horiz-adv-x="437" d="M158 -12q-80 0 -128 48q-24 24 -24 44q0 15 9.5 25.5t19 14.5t10.5 1q15 -33 46 -53.5t68 -20.5q55 0 86 34t48 113l91 426q7 31 34 31h9q32 0 24 -35l-92 -431q-22 -101 -70.5 -149t-130.5 -48zM328 714q-19 0 -19 17q0 30 67 86q20 17 42.5 33.5t35.5 25t15 8.5 t11.5 -9t24 -24.5t26.5 -30.5q39 -51 39 -77q0 -29 -24 -29q-12 0 -24 13.5t-32 47.5l-29 51l-51 -53q-57 -59 -82 -59z" />
<glyph unicode="&#x135;" horiz-adv-x="209" d="M-68 -203q-56 0 -83 27q-14 14 -14 28q0 11 6.5 21.5t13 15.5t7.5 4q25 -38 72 -38q30 0 48 18.5t27 64.5l108 511q7 31 30 31h8q33 0 27 -31l-111 -523q-27 -129 -139 -129zM64 549q-19 0 -19 17q0 30 67 86q20 17 42.5 33.5t35.5 25t15 8.5t11.5 -9t24 -24.5 t26.5 -30.5q39 -51 39 -77q0 -29 -24 -29q-12 0 -24 13.5t-32 47.5l-29 51l-51 -53q-57 -59 -82 -59z" />
<glyph unicode="&#x136;" horiz-adv-x="546" d="M450 -5q-25 0 -48 20.5t-65 77.5l-173 235l-64 -301q-4 -17 -11.5 -24t-22.5 -7h-9q-32 0 -24 35l125 589q7 31 34 31h9q32 0 24 -35l-57 -270l385 313q1 1 8.5 -2t15 -11t7.5 -19q0 -14 -7.5 -24.5t-28.5 -27.5l-309 -247l161 -212q34 -46 53 -60.5t45 -16.5 q1 0 1.5 -4.5t-1.5 -11t-6.5 -13t-15.5 -11t-26 -4.5zM121 -234q-6 -6 -20 4t-10 16l107 167q1 2 15.5 -0.5t28.5 -12t14 -23.5q0 -22 -22 -45z" />
<glyph unicode="&#x137;" horiz-adv-x="441" d="M347 -8q-30 0 -51 19.5t-67 88.5l-96 145l-46 -218q-7 -31 -30 -31h-8q-33 0 -27 31l132 623q7 31 30 31h8q33 0 27 -31l-83 -390l283 228q1 1 8 -1.5t14.5 -10.5t7.5 -21q0 -21 -35 -49l-207 -164l85 -125q32 -47 49.5 -58.5t53.5 -13.5q1 0 1 -5.5t-2 -13.5t-6.5 -15.5 t-15 -13t-25.5 -5.5zM76 -234q-6 -6 -20 4t-10 16l107 167q1 2 15.5 -0.5t28.5 -12t14 -23.5q0 -22 -22 -45z" />
<glyph unicode="&#x139;" horiz-adv-x="500" d="M73 0q-22 0 -32 12t-5 33l122 575q7 31 34 31h9q32 0 24 -35l-118 -554h308q31 0 31 -17q0 -23 -13 -38q-6 -7 -26 -7h-334zM187 716q-2 3 19.5 25t57.5 52.5t67 48.5q24 15 46 15q13 0 21 -8.5t8 -19.5q0 -24 -41 -48q-34 -20 -77 -37t-71 -24t-30 -4z" />
<glyph unicode="&#x13a;" horiz-adv-x="209" d="M109 -8q-89 0 -66 108l117 550q7 31 30 31h8q33 0 27 -31l-117 -549q-8 -36 2 -50t46 -14q2 0 0.5 -11t-13 -22.5t-34.5 -11.5zM177 716q-2 3 19.5 25t57.5 52.5t67 48.5q24 15 46 15q13 0 21 -8.5t8 -19.5q0 -24 -41 -48q-34 -20 -77 -37t-71 -24t-30 -4z" />
<glyph unicode="&#x13b;" horiz-adv-x="500" d="M73 0q-22 0 -32 12t-5 33l122 575q7 31 34 31h9q32 0 24 -35l-118 -554h308q31 0 31 -17q0 -23 -13 -38q-6 -7 -26 -7h-334zM124 -234q-6 -6 -20 4t-10 16l107 167q1 2 15.5 -0.5t28.5 -12t14 -23.5q0 -22 -22 -45z" />
<glyph unicode="&#x13c;" horiz-adv-x="209" d="M109 -8q-89 0 -66 108l117 550q7 31 30 31h8q33 0 27 -31l-117 -549q-8 -36 2 -50t46 -14q2 0 0.5 -11t-13 -22.5t-34.5 -11.5zM-22 -234q-6 -6 -20 4t-10 16l107 167q1 2 15.5 -0.5t28.5 -12t14 -23.5q0 -22 -22 -45z" />
<glyph unicode="&#x13d;" horiz-adv-x="601" d="M73 0q-22 0 -32 12t-5 33l122 575q7 31 34 31h9q32 0 24 -35l-118 -554h308q31 0 31 -17q0 -23 -13 -38q-6 -7 -26 -7h-334zM495 422q-5 -6 -19.5 3t-10.5 17l116 220q3 1 17 0.5t29.5 -9.5t15.5 -24q0 -21 -19 -45z" />
<glyph unicode="&#x13e;" horiz-adv-x="370" d="M109 -8q-89 0 -66 108l117 550q7 31 30 31h8q33 0 27 -31l-117 -549q-8 -36 2 -50t46 -14q2 0 0.5 -11t-13 -22.5t-34.5 -11.5zM264 437q-5 -6 -19.5 3t-10.5 17l116 220q3 1 17 0.5t29.5 -9.5t15.5 -24q0 -21 -19 -45z" />
<glyph unicode="&#x13f;" horiz-adv-x="592" d="M73 0q-22 0 -32 12t-5 33l122 575q7 31 34 31h9q32 0 24 -35l-118 -554h308q31 0 31 -17q0 -23 -13 -38q-6 -7 -26 -7h-334zM542 276q-48 0 -48 34q0 36 16 52q13 13 37 13q48 0 48 -34q0 -36 -16 -52q-13 -13 -37 -13z" />
<glyph unicode="&#x140;" horiz-adv-x="368" d="M109 -8q-89 0 -66 108l117 550q7 31 30 31h8q33 0 27 -31l-117 -549q-8 -36 2 -50t46 -14q2 0 0.5 -11t-13 -22.5t-34.5 -11.5zM293 195q-48 0 -48 34q0 36 16 52q13 13 37 13q48 0 48 -34q0 -36 -16 -52q-13 -13 -37 -13z" />
<glyph unicode="&#x141;" horiz-adv-x="556" d="M109 0q-22 0 -32 12t-5 33l40 189l-80 -23q-2 -1 -5 3t-6 12t-3 15q0 28 45 41l63 18l68 320q7 31 34 31h9q32 0 24 -35l-63 -296l210 60q2 1 5.5 -3.5t6 -12t2.5 -14.5q0 -27 -45 -41l-193 -55l-41 -192h308q31 0 31 -17q0 -23 -13 -38q-6 -7 -26 -7h-334z" />
<glyph unicode="&#x142;" horiz-adv-x="324" d="M163 -8q-89 0 -66 108l31 144l-96 -27q-2 -1 -5 4t-6 13t-3 14q0 26 44 39l80 23l72 340q7 31 30 31h8q33 0 27 -31l-68 -321l104 30q2 1 5 -4t6 -13t3 -14q0 -26 -44 -39l-88 -25l-35 -163q-8 -36 2 -50t46 -14q2 0 0.5 -11t-13 -22.5t-34.5 -11.5z" />
<glyph unicode="&#x143;" horiz-adv-x="675" d="M56 -4q-31 0 -23 35l122 574q10 46 48 46h17q16 0 24.5 -8t18.5 -28l242 -514l110 519q7 31 33 31h7q31 0 23 -35l-123 -579q-9 -41 -44 -41h-7q-24 0 -42 36l-252 534l-114 -539q-7 -31 -33 -31h-7zM382 716q-2 3 19.5 25t57.5 52.5t67 48.5q24 15 46 15q12 0 20.5 -8.5 t8.5 -19.5q0 -24 -41 -48q-34 -20 -77 -37t-71 -24t-30 -4z" />
<glyph unicode="&#x144;" horiz-adv-x="537" d="M168 411l-3 -14q27 43 68.5 67t89.5 24q77 0 122 -45t45 -116q0 -40 -29 -146q-24 -84 -24 -108q0 -19 10 -27t32 -10q2 0 0.5 -11t-12 -22t-31.5 -11q-30 0 -47 19t-17 52q0 32 26 127q25 89 25 125q0 52 -28.5 82t-80.5 30q-54 0 -93 -28t-74 -87l-60 -285 q-7 -31 -30 -31h-8q-33 0 -27 31l96 450q0 3 14 3q49 0 36 -69zM260 551q-2 3 19.5 25t57.5 52.5t67 48.5q24 15 46 15q12 0 20.5 -8t8.5 -20q0 -24 -41 -48q-34 -20 -77 -37t-71 -24t-30 -4z" />
<glyph unicode="&#x145;" horiz-adv-x="675" d="M56 -4q-31 0 -23 35l122 574q10 46 48 46h17q16 0 24.5 -8t18.5 -28l242 -514l110 519q7 31 33 31h7q31 0 23 -35l-123 -579q-9 -41 -44 -41h-7q-24 0 -42 36l-252 534l-114 -539q-7 -31 -33 -31h-7zM187 -234q-6 -6 -20 4t-10 16l107 167q1 2 15.5 -0.5t28.5 -12 t14 -23.5q0 -22 -22 -45z" />
<glyph unicode="&#x146;" horiz-adv-x="537" d="M168 411l-3 -14q27 43 68.5 67t89.5 24q77 0 122 -45t45 -116q0 -40 -29 -146q-24 -84 -24 -108q0 -19 10 -27t32 -10q2 0 0.5 -11t-12 -22t-31.5 -11q-30 0 -47 19t-17 52q0 32 26 127q25 89 25 125q0 52 -28.5 82t-80.5 30q-54 0 -93 -28t-74 -87l-60 -285 q-7 -31 -30 -31h-8q-33 0 -27 31l96 450q0 3 14 3q49 0 36 -69zM142 -234q-6 -6 -20 4t-10 16l107 167q1 2 15.5 -0.5t28.5 -12t14 -23.5q0 -22 -22 -45z" />
<glyph unicode="&#x147;" horiz-adv-x="675" d="M56 -4q-31 0 -23 35l122 574q10 46 48 46h17q16 0 24.5 -8t18.5 -28l242 -514l110 519q7 31 33 31h7q31 0 23 -35l-123 -579q-9 -41 -44 -41h-7q-24 0 -42 36l-252 534l-114 -539q-7 -31 -33 -31h-7zM433 698q-2 0 -11.5 9t-24.5 24.5t-26 30.5q-39 51 -39 77q0 29 24 29 q15 0 31.5 -22.5t53.5 -89.5l51 53q57 59 82 59q19 0 19 -17q0 -30 -67 -86q-20 -17 -42.5 -33.5t-35.5 -25t-15 -8.5z" />
<glyph unicode="&#x148;" horiz-adv-x="537" d="M168 411l-3 -14q27 43 68.5 67t89.5 24q77 0 122 -45t45 -116q0 -40 -29 -146q-24 -84 -24 -108q0 -19 10 -27t32 -10q2 0 0.5 -11t-12 -22t-31.5 -11q-30 0 -47 19t-17 52q0 32 26 127q25 89 25 125q0 52 -28.5 82t-80.5 30q-54 0 -93 -28t-74 -87l-60 -285 q-7 -31 -30 -31h-8q-33 0 -27 31l96 450q0 3 14 3q49 0 36 -69zM335 533q-2 0 -11.5 9t-24.5 24.5t-26 30.5q-39 51 -39 77q0 29 24 29q15 0 31.5 -22.5t53.5 -89.5l51 53q57 59 82 59q19 0 19 -17q0 -30 -67 -86q-20 -17 -42.5 -33.5t-35.5 -25t-15 -8.5z" />
<glyph unicode="&#x14c;" horiz-adv-x="732" d="M349 -11q-131 0 -209.5 79t-78.5 201q0 166 109 278t249 112q131 0 209.5 -79t78.5 -201q0 -166 -109 -278t-249 -112zM356 48q108 0 193.5 93.5t85.5 232.5q0 97 -59.5 161.5t-163.5 64.5q-108 0 -193.5 -93.5t-85.5 -232.5q0 -97 59.5 -161.5t163.5 -64.5zM324 733 q-31 0 -31 18q0 22 12 36q7 8 26 8h220q31 0 31 -18q0 -22 -12 -36q-7 -8 -26 -8h-220z" />
<glyph unicode="&#x14d;" horiz-adv-x="550" d="M251 -12q-92 0 -155.5 62t-63.5 159q0 113 77 196t191 83q92 0 155.5 -62t63.5 -159q0 -113 -77 -196t-191 -83zM255 45q82 0 140 65.5t58 154.5q0 71 -45.5 118.5t-111.5 47.5q-82 0 -140 -65.5t-58 -154.5q0 -71 45.5 -118.5t111.5 -47.5zM208 568q-31 0 -31 18 q0 22 12 36q7 8 26 8h220q31 0 31 -18q0 -22 -12 -36q-7 -8 -26 -8h-220z" />
<glyph unicode="&#x14e;" horiz-adv-x="732" d="M349 -11q-131 0 -209.5 79t-78.5 201q0 166 109 278t249 112q131 0 209.5 -79t78.5 -201q0 -166 -109 -278t-249 -112zM356 48q108 0 193.5 93.5t85.5 232.5q0 97 -59.5 161.5t-163.5 64.5q-108 0 -193.5 -93.5t-85.5 -232.5q0 -97 59.5 -161.5t163.5 -64.5zM449 713 q-46 0 -89.5 36t-43.5 71q0 11 7 19t18 8q35 0 107 -91q87 91 125 91q10 0 17.5 -7t7.5 -17q0 -32 -49 -71t-100 -39z" />
<glyph unicode="&#x14f;" horiz-adv-x="550" d="M251 -12q-92 0 -155.5 62t-63.5 159q0 113 77 196t191 83q92 0 155.5 -62t63.5 -159q0 -113 -77 -196t-191 -83zM255 45q82 0 140 65.5t58 154.5q0 71 -45.5 118.5t-111.5 47.5q-82 0 -140 -65.5t-58 -154.5q0 -71 45.5 -118.5t111.5 -47.5zM316 548q-46 0 -89.5 36 t-43.5 71q0 11 7 19t18 8q35 0 107 -91q87 91 125 91q10 0 17.5 -7t7.5 -17q0 -32 -49 -71t-100 -39z" />
<glyph unicode="&#x150;" horiz-adv-x="732" d="M349 -11q-131 0 -209.5 79t-78.5 201q0 166 109 278t249 112q131 0 209.5 -79t78.5 -201q0 -166 -109 -278t-249 -112zM356 48q108 0 193.5 93.5t85.5 232.5q0 97 -59.5 161.5t-163.5 64.5q-108 0 -193.5 -93.5t-85.5 -232.5q0 -97 59.5 -161.5t163.5 -64.5zM484 716 q-2 3 15.5 24.5t49 52t60.5 51.5q24 18 46 18q12 0 21 -7.5t9 -19.5q0 -25 -37 -50q-31 -21 -70 -39t-65 -25.5t-29 -4.5zM305 716q-2 3 15.5 24.5t49 52t60.5 51.5q24 18 46 18q12 0 21 -7.5t9 -19.5q0 -25 -37 -50q-31 -21 -70 -39t-65 -25.5t-29 -4.5z" />
<glyph unicode="&#x151;" horiz-adv-x="550" d="M251 -12q-92 0 -155.5 62t-63.5 159q0 113 77 196t191 83q92 0 155.5 -62t63.5 -159q0 -113 -77 -196t-191 -83zM255 45q82 0 140 65.5t58 154.5q0 71 -45.5 118.5t-111.5 47.5q-82 0 -140 -65.5t-58 -154.5q0 -71 45.5 -118.5t111.5 -47.5zM353 551q-2 3 15.5 24.5 t49 52t60.5 51.5q24 18 46 18q12 0 21 -7.5t9 -19.5q0 -25 -37 -50q-31 -21 -70 -39t-65 -25.5t-29 -4.5zM174 551q-2 3 15.5 24.5t49 52t60.5 51.5q24 18 46 18q12 0 21 -7.5t9 -19.5q0 -25 -37 -50q-31 -21 -70 -39t-65 -25.5t-29 -4.5z" />
<glyph unicode="&#x152;" horiz-adv-x="1021" d="M349 -11q-131 0 -209.5 79t-78.5 201q0 166 109 278t249 112q46 0 88 -12h523q31 0 31 -17q0 -23 -13 -38q-6 -7 -26 -7h-403q88 -82 88 -206q0 -3 -0.5 -9t-0.5 -8h193q30 0 30 -16q0 -25 -12 -37q-7 -7 -25 -7h-193q-28 -149 -149 -240h361q31 0 31 -17q0 -23 -13 -38 q-6 -7 -26 -7h-476q-41 -11 -78 -11zM356 48q108 0 193.5 93.5t85.5 232.5q0 97 -59.5 161.5t-163.5 64.5q-108 0 -193.5 -93.5t-85.5 -232.5q0 -97 59.5 -161.5t163.5 -64.5z" />
<glyph unicode="&#x153;" horiz-adv-x="924" d="M501 343q39 67 104 106t142 39q79 0 124.5 -34.5t45.5 -91.5q0 -76 -62 -114t-215 -38q-52 0 -126 6q-1 -10 -1 -30q0 -65 37 -103.5t106 -38.5q102 0 161 79q1 2 9.5 -1t16.5 -11t8 -19q0 -20 -22 -42q-62 -62 -175 -62q-71 0 -119.5 33t-67.5 89q-36 -56 -93 -89 t-125 -33q-92 0 -154.5 60.5t-62.5 160.5q0 113 76 196t189 83q73 0 127.5 -38.5t76.5 -106.5zM255 45q82 0 140 65.5t58 154.5q0 71 -45.5 118.5t-111.5 47.5q-82 0 -140 -65.5t-58 -154.5q0 -71 45.5 -118.5t111.5 -47.5zM744 431q-73 0 -132 -45t-84 -115q48 -6 106 -6 q217 0 217 96q0 29 -28 49.5t-79 20.5z" />
<glyph unicode="&#x154;" horiz-adv-x="567" d="M331 272h-11l89 -154q25 -43 43.5 -59t51.5 -16q1 0 1.5 -5t-1.5 -12t-6.5 -14t-15.5 -12t-26 -5q-28 0 -51.5 19.5t-56.5 77.5l-101 180h-95l-52 -245q-7 -31 -34 -31h-9q-32 0 -24 35l122 575q6 41 47 41h158q105 0 160 -40.5t55 -118.5q0 -101 -65.5 -158.5 t-178.5 -57.5zM164 330h169q81 0 126 40t45 111q0 52 -38 79t-110 27h-137zM300 716q-2 3 19.5 25t57.5 52.5t67 48.5q24 15 46 15q12 0 20.5 -8.5t8.5 -19.5q0 -24 -41 -48q-34 -20 -77 -37t-71 -24t-30 -4z" />
<glyph unicode="&#x155;" horiz-adv-x="338" d="M168 411l-4 -19q50 96 134 96q29 0 49 -12.5t20 -32.5q0 -14 -6 -25t-12.5 -15t-7.5 -3q-24 26 -62 26q-55 0 -95 -63t-62 -169l-35 -167q-7 -31 -30 -31h-8q-33 0 -27 31l96 450q0 3 14 3q49 0 36 -69zM169 551q-2 3 19.5 25t57.5 52.5t67 48.5q24 15 46 15q13 0 21 -8 t8 -20q0 -24 -41 -48q-34 -20 -77 -37t-71 -24t-30 -4z" />
<glyph unicode="&#x156;" horiz-adv-x="567" d="M331 272h-11l89 -154q25 -43 43.5 -59t51.5 -16q1 0 1.5 -5t-1.5 -12t-6.5 -14t-15.5 -12t-26 -5q-28 0 -51.5 19.5t-56.5 77.5l-101 180h-95l-52 -245q-7 -31 -34 -31h-9q-32 0 -24 35l122 575q6 41 47 41h158q105 0 160 -40.5t55 -118.5q0 -101 -65.5 -158.5 t-178.5 -57.5zM164 330h169q81 0 126 40t45 111q0 52 -38 79t-110 27h-137zM137 -234q-6 -6 -20 4t-10 16l107 167q1 2 15.5 -0.5t28.5 -12t14 -23.5q0 -22 -22 -45z" />
<glyph unicode="&#x157;" horiz-adv-x="338" d="M168 411l-4 -19q50 96 134 96q29 0 49 -12.5t20 -32.5q0 -14 -6 -25t-12.5 -15t-7.5 -3q-24 26 -62 26q-55 0 -95 -63t-62 -169l-35 -167q-7 -31 -30 -31h-8q-33 0 -27 31l96 450q0 3 14 3q49 0 36 -69zM-57 -234q-6 -6 -20 4t-10 16l107 167q1 2 15.5 -0.5t28.5 -12 t14 -23.5q0 -22 -22 -45z" />
<glyph unicode="&#x158;" horiz-adv-x="567" d="M331 272h-11l89 -154q25 -43 43.5 -59t51.5 -16q1 0 1.5 -5t-1.5 -12t-6.5 -14t-15.5 -12t-26 -5q-28 0 -51.5 19.5t-56.5 77.5l-101 180h-95l-52 -245q-7 -31 -34 -31h-9q-32 0 -24 35l122 575q6 41 47 41h158q105 0 160 -40.5t55 -118.5q0 -101 -65.5 -158.5 t-178.5 -57.5zM164 330h169q81 0 126 40t45 111q0 52 -38 79t-110 27h-137zM361 698q-2 0 -11.5 9t-24.5 24.5t-26 30.5q-39 51 -39 77q0 29 24 29q15 0 31.5 -22.5t53.5 -89.5l51 53q57 59 82 59q19 0 19 -17q0 -30 -67 -86q-20 -17 -42.5 -33.5t-35.5 -25t-15 -8.5z" />
<glyph unicode="&#x159;" horiz-adv-x="338" d="M168 411l-4 -19q50 96 134 96q29 0 49 -12.5t20 -32.5q0 -14 -6 -25t-12.5 -15t-7.5 -3q-24 26 -62 26q-55 0 -95 -63t-62 -169l-35 -167q-7 -31 -30 -31h-8q-33 0 -27 31l96 450q0 3 14 3q49 0 36 -69zM235 533q-2 0 -11.5 9t-24.5 24.5t-26 30.5q-39 51 -39 77 q0 29 24 29q15 0 31.5 -22.5t53.5 -89.5l51 53q57 59 82 59q19 0 19 -17q0 -30 -67 -86q-20 -17 -42.5 -33.5t-35.5 -25t-15 -8.5z" />
<glyph unicode="&#x15a;" horiz-adv-x="533" d="M252 -12q-131 0 -204 73q-37 37 -37 72q0 15 10.5 25t20.5 12.5t11 -0.5q23 -58 74.5 -90.5t128.5 -32.5q76 0 114.5 31.5t38.5 89.5q0 24 -9.5 43t-33 35t-42.5 25t-57 25q-39 16 -62 28.5t-51 34t-41.5 51.5t-13.5 70q0 77 59.5 128t157.5 51q124 0 188 -64 q32 -32 32 -66q0 -15 -10 -24.5t-20 -12t-11 0.5q-45 107 -182 107q-64 0 -104.5 -32t-40.5 -81q0 -27 9.5 -47t33 -36.5t43 -26.5t60.5 -27q32 -14 49 -21.5t42.5 -24t38.5 -32.5t23.5 -41.5t10.5 -56.5q0 -85 -59.5 -135.5t-166.5 -50.5zM294 716q-2 3 19.5 25t57.5 52.5 t67 48.5q24 15 46 15q12 0 20.5 -8.5t8.5 -19.5q0 -24 -41 -48q-34 -20 -77 -37t-71 -24t-30 -4z" />
<glyph unicode="&#x15b;" horiz-adv-x="447" d="M205 -12q-115 0 -177 62q-24 24 -24 45q0 13 8.5 23t17.5 13.5t10 1.5q54 -90 169 -90q55 0 85.5 22t30.5 59q0 30 -26 47t-88 38q-34 12 -53 20.5t-43.5 24.5t-36 39t-11.5 54q0 62 50 101.5t128 39.5q102 0 158 -56q24 -24 24 -48q0 -13 -9 -22.5t-18 -12t-11 0.5 q-19 37 -59.5 60t-89.5 23q-52 0 -81 -23t-29 -55t27.5 -50.5t90.5 -40.5q32 -11 51.5 -20t43 -24.5t34.5 -37t11 -50.5q0 -66 -49 -105t-134 -39zM219 551q-2 3 19.5 25t57.5 52.5t67 48.5q24 15 46 15q13 0 21 -8t8 -20q0 -24 -41 -48q-34 -20 -77 -37t-71 -24t-30 -4z " />
<glyph unicode="&#x15c;" horiz-adv-x="533" d="M252 -12q-131 0 -204 73q-37 37 -37 72q0 15 10.5 25t20.5 12.5t11 -0.5q23 -58 74.5 -90.5t128.5 -32.5q76 0 114.5 31.5t38.5 89.5q0 24 -9.5 43t-33 35t-42.5 25t-57 25q-39 16 -62 28.5t-51 34t-41.5 51.5t-13.5 70q0 77 59.5 128t157.5 51q124 0 188 -64 q32 -32 32 -66q0 -15 -10 -24.5t-20 -12t-11 0.5q-45 107 -182 107q-64 0 -104.5 -32t-40.5 -81q0 -27 9.5 -47t33 -36.5t43 -26.5t60.5 -27q32 -14 49 -21.5t42.5 -24t38.5 -32.5t23.5 -41.5t10.5 -56.5q0 -85 -59.5 -135.5t-166.5 -50.5zM247 714q-19 0 -19 17q0 30 67 86 q20 17 42.5 33.5t35.5 25t15 8.5t11.5 -9t24 -24.5t26.5 -30.5q39 -51 39 -77q0 -29 -24 -29q-12 0 -24 13.5t-32 47.5l-29 51l-51 -53q-57 -59 -82 -59z" />
<glyph unicode="&#x15d;" horiz-adv-x="447" d="M205 -12q-115 0 -177 62q-24 24 -24 45q0 13 8.5 23t17.5 13.5t10 1.5q54 -90 169 -90q55 0 85.5 22t30.5 59q0 30 -26 47t-88 38q-34 12 -53 20.5t-43.5 24.5t-36 39t-11.5 54q0 62 50 101.5t128 39.5q102 0 158 -56q24 -24 24 -48q0 -13 -9 -22.5t-18 -12t-11 0.5 q-19 37 -59.5 60t-89.5 23q-52 0 -81 -23t-29 -55t27.5 -50.5t90.5 -40.5q32 -11 51.5 -20t43 -24.5t34.5 -37t11 -50.5q0 -66 -49 -105t-134 -39zM165 549q-19 0 -19 17q0 30 67 86q20 17 42.5 33.5t35.5 25t15 8.5t11.5 -9t24 -24.5t26.5 -30.5q39 -51 39 -77 q0 -29 -24 -29q-12 0 -24 13.5t-32 47.5l-29 51l-51 -53q-57 -59 -82 -59z" />
<glyph unicode="&#x15e;" horiz-adv-x="533" d="M252 -12q-131 0 -204 73q-37 37 -37 72q0 15 10.5 25t20.5 12.5t11 -0.5q23 -58 74.5 -90.5t128.5 -32.5q76 0 114.5 31.5t38.5 89.5q0 24 -9.5 43t-33 35t-42.5 25t-57 25q-39 16 -62 28.5t-51 34t-41.5 51.5t-13.5 70q0 77 59.5 128t157.5 51q124 0 188 -64 q32 -32 32 -66q0 -15 -10 -24.5t-20 -12t-11 0.5q-45 107 -182 107q-64 0 -104.5 -32t-40.5 -81q0 -27 9.5 -47t33 -36.5t43 -26.5t60.5 -27q32 -14 49 -21.5t42.5 -24t38.5 -32.5t23.5 -41.5t10.5 -56.5q0 -85 -59.5 -135.5t-166.5 -50.5zM126 -234q-6 -6 -20 4t-10 16 l107 167q1 2 15.5 -0.5t28.5 -12t14 -23.5q0 -22 -22 -45z" />
<glyph unicode="&#x15f;" horiz-adv-x="447" d="M205 -12q-115 0 -177 62q-24 24 -24 45q0 13 8.5 23t17.5 13.5t10 1.5q54 -90 169 -90q55 0 85.5 22t30.5 59q0 30 -26 47t-88 38q-34 12 -53 20.5t-43.5 24.5t-36 39t-11.5 54q0 62 50 101.5t128 39.5q102 0 158 -56q24 -24 24 -48q0 -13 -9 -22.5t-18 -12t-11 0.5 q-19 37 -59.5 60t-89.5 23q-52 0 -81 -23t-29 -55t27.5 -50.5t90.5 -40.5q32 -11 51.5 -20t43 -24.5t34.5 -37t11 -50.5q0 -66 -49 -105t-134 -39zM83 -234q-6 -6 -20 4t-10 16l107 167q1 2 15.5 -0.5t28.5 -12t14 -23.5q0 -22 -22 -45z" />
<glyph unicode="&#x160;" horiz-adv-x="533" d="M252 -12q-131 0 -204 73q-37 37 -37 72q0 15 10.5 25t20.5 12.5t11 -0.5q23 -58 74.5 -90.5t128.5 -32.5q76 0 114.5 31.5t38.5 89.5q0 24 -9.5 43t-33 35t-42.5 25t-57 25q-39 16 -62 28.5t-51 34t-41.5 51.5t-13.5 70q0 77 59.5 128t157.5 51q124 0 188 -64 q32 -32 32 -66q0 -15 -10 -24.5t-20 -12t-11 0.5q-45 107 -182 107q-64 0 -104.5 -32t-40.5 -81q0 -27 9.5 -47t33 -36.5t43 -26.5t60.5 -27q32 -14 49 -21.5t42.5 -24t38.5 -32.5t23.5 -41.5t10.5 -56.5q0 -85 -59.5 -135.5t-166.5 -50.5zM346 703q-2 0 -11.5 9t-24.5 24.5 t-26 30.5q-39 51 -39 77q0 29 24 29q15 0 31.5 -22.5t53.5 -89.5l51 53q57 59 82 59q19 0 19 -17q0 -30 -67 -86q-20 -17 -42.5 -33.5t-35.5 -25t-15 -8.5z" />
<glyph unicode="&#x161;" horiz-adv-x="447" d="M205 -12q-115 0 -177 62q-24 24 -24 45q0 13 8.5 23t17.5 13.5t10 1.5q54 -90 169 -90q55 0 85.5 22t30.5 59q0 30 -26 47t-88 38q-34 12 -53 20.5t-43.5 24.5t-36 39t-11.5 54q0 62 50 101.5t128 39.5q102 0 158 -56q24 -24 24 -48q0 -13 -9 -22.5t-18 -12t-11 0.5 q-19 37 -59.5 60t-89.5 23q-52 0 -81 -23t-29 -55t27.5 -50.5t90.5 -40.5q32 -11 51.5 -20t43 -24.5t34.5 -37t11 -50.5q0 -66 -49 -105t-134 -39zM273 533q-2 0 -11.5 9t-24.5 24.5t-26 30.5q-39 51 -39 77q0 29 24 29q15 0 31.5 -22.5t53.5 -89.5l51 53q57 59 82 59 q19 0 19 -17q0 -30 -67 -86q-20 -17 -42.5 -33.5t-35.5 -25t-15 -8.5z" />
<glyph unicode="&#x162;" horiz-adv-x="584" d="M239 -4q-32 0 -24 35l118 554h-199q-31 0 -31 17q0 23 13 38q6 7 26 7h469q31 0 31 -17q0 -23 -13 -38q-6 -7 -26 -7h-202l-119 -558q-7 -31 -34 -31h-9zM126 -234q-6 -6 -20 4t-10 16l107 167q1 2 15.5 -0.5t28.5 -12t14 -23.5q0 -22 -22 -45z" />
<glyph unicode="&#x163;" horiz-adv-x="341" d="M191 -12q-69 0 -101 44.5t-14 128.5l54 257h-41q-29 0 -29 16q0 23 12 35q7 7 24 7h46l10 47q7 36 19.5 51.5t33.5 15.5q6 0 12 -2t9.5 -3.5t3.5 -2.5l-23 -106h120q29 0 29 -16q0 -23 -12 -35q-7 -7 -24 -7h-125l-55 -257q-25 -117 61 -117q41 0 66 29q1 1 4.5 -2.5 t7 -11.5t3.5 -16q0 -17 -14 -31q-24 -24 -77 -24zM44 -234q-6 -6 -20 4t-10 16l107 167q1 2 15.5 -0.5t28.5 -12t14 -23.5q0 -22 -22 -45z" />
<glyph unicode="&#x164;" horiz-adv-x="584" d="M239 -4q-32 0 -24 35l118 554h-199q-31 0 -31 17q0 23 13 38q6 7 26 7h469q31 0 31 -17q0 -23 -13 -38q-6 -7 -26 -7h-202l-119 -558q-7 -31 -34 -31h-9zM382 698q-2 0 -11.5 9t-24.5 24.5t-26 30.5q-39 51 -39 77q0 29 24 29q15 0 31.5 -22.5t53.5 -89.5l51 53 q57 59 82 59q19 0 19 -17q0 -30 -67 -86q-20 -17 -42.5 -33.5t-35.5 -25t-15 -8.5z" />
<glyph unicode="&#x165;" horiz-adv-x="341" d="M191 -12q-69 0 -101 44.5t-14 128.5l54 257h-41q-29 0 -29 16q0 23 12 35q7 7 24 7h46l10 47q7 36 19.5 51.5t33.5 15.5q6 0 12 -2t9.5 -3.5t3.5 -2.5l-23 -106h120q29 0 29 -16q0 -23 -12 -35q-7 -7 -24 -7h-125l-55 -257q-25 -117 61 -117q41 0 66 29q1 1 4.5 -2.5 t7 -11.5t3.5 -16q0 -17 -14 -31q-24 -24 -77 -24zM289 515q-5 -6 -19.5 3t-10.5 17l116 220q3 1 17 0.5t29.5 -9.5t15.5 -24q0 -21 -19 -45z" />
<glyph unicode="&#x16a;" horiz-adv-x="639" d="M304 -12q-134 0 -195.5 76.5t-30.5 220.5l71 335q7 31 34 31h9q32 0 24 -35l-71 -336q-24 -115 18 -173t145 -58q158 0 200 198l79 373q7 31 34 31h8q32 0 24 -35l-81 -383q-52 -245 -268 -245zM313 733q-31 0 -31 18q0 22 12 36q7 8 26 8h220q31 0 31 -18q0 -22 -12 -36 q-7 -8 -26 -8h-220z" />
<glyph unicode="&#x16b;" horiz-adv-x="537" d="M438 -8q-76 0 -67 87q-26 -43 -68 -67t-90 -24q-94 0 -136.5 61t-21.5 158l51 242q6 31 30 31h8q33 0 27 -31l-52 -247q-15 -69 12.5 -111t90.5 -42q54 0 93 28t74 87l60 285q6 31 30 31h8q33 0 27 -31l-74 -348q-8 -36 1 -49.5t42 -14.5q2 0 0.5 -11t-12.5 -22.5 t-33 -11.5zM231 568q-31 0 -31 18q0 22 12 36q7 8 26 8h220q31 0 31 -18q0 -22 -12 -36q-7 -8 -26 -8h-220z" />
<glyph unicode="&#x16c;" horiz-adv-x="639" d="M304 -12q-134 0 -195.5 76.5t-30.5 220.5l71 335q7 31 34 31h9q32 0 24 -35l-71 -336q-24 -115 18 -173t145 -58q158 0 200 198l79 373q7 31 34 31h8q32 0 24 -35l-81 -383q-52 -245 -268 -245zM422 713q-46 0 -89.5 36t-43.5 71q0 11 7 19t18 8q35 0 107 -91 q87 91 125 91q10 0 17.5 -7t7.5 -17q0 -32 -49 -71t-100 -39z" />
<glyph unicode="&#x16d;" horiz-adv-x="537" d="M438 -8q-76 0 -67 87q-26 -43 -68 -67t-90 -24q-94 0 -136.5 61t-21.5 158l51 242q6 31 30 31h8q33 0 27 -31l-52 -247q-15 -69 12.5 -111t90.5 -42q54 0 93 28t74 87l60 285q6 31 30 31h8q33 0 27 -31l-74 -348q-8 -36 1 -49.5t42 -14.5q2 0 0.5 -11t-12.5 -22.5 t-33 -11.5zM329 548q-46 0 -89.5 36t-43.5 71q0 11 7 19t18 8q35 0 107 -91q87 91 125 91q10 0 17.5 -7t7.5 -17q0 -32 -49 -71t-100 -39z" />
<glyph unicode="&#x16e;" horiz-adv-x="639" d="M304 -12q-134 0 -195.5 76.5t-30.5 220.5l71 335q7 31 34 31h9q32 0 24 -35l-71 -336q-24 -115 18 -173t145 -58q158 0 200 198l79 373q7 31 34 31h8q32 0 24 -35l-81 -383q-52 -245 -268 -245zM420 715q-48 0 -78.5 28.5t-30.5 72.5q0 54 37 94t93 40q48 0 78.5 -28.5 t30.5 -72.5q0 -54 -37 -94t-93 -40zM422 760q34 0 55.5 26t21.5 59q0 25 -17 42.5t-43 17.5q-34 0 -55.5 -26t-21.5 -59q0 -25 17 -42.5t43 -17.5z" />
<glyph unicode="&#x16f;" horiz-adv-x="537" d="M438 -8q-76 0 -67 87q-26 -43 -68 -67t-90 -24q-94 0 -136.5 61t-21.5 158l51 242q6 31 30 31h8q33 0 27 -31l-52 -247q-15 -69 12.5 -111t90.5 -42q54 0 93 28t74 87l60 285q6 31 30 31h8q33 0 27 -31l-74 -348q-8 -36 1 -49.5t42 -14.5q2 0 0.5 -11t-12.5 -22.5 t-33 -11.5zM329 530q-48 0 -78.5 28.5t-30.5 72.5q0 54 37 94t93 40q48 0 78.5 -28.5t30.5 -72.5q0 -54 -37 -94t-93 -40zM331 575q34 0 55.5 26t21.5 59q0 25 -17 42.5t-43 17.5q-34 0 -55.5 -26t-21.5 -59q0 -25 17 -42.5t43 -17.5z" />
<glyph unicode="&#x170;" horiz-adv-x="639" d="M304 -12q-134 0 -195.5 76.5t-30.5 220.5l71 335q7 31 34 31h9q32 0 24 -35l-71 -336q-24 -115 18 -173t145 -58q158 0 200 198l79 373q7 31 34 31h8q32 0 24 -35l-81 -383q-52 -245 -268 -245zM462 716q-2 3 15.5 24.5t49 52t60.5 51.5q24 18 46 18q12 0 21 -7.5 t9 -19.5q0 -25 -37 -50q-31 -21 -70 -39t-65 -25.5t-29 -4.5zM283 716q-2 3 15.5 24.5t49 52t60.5 51.5q24 18 46 18q12 0 21 -7.5t9 -19.5q0 -25 -37 -50q-31 -21 -70 -39t-65 -25.5t-29 -4.5z" />
<glyph unicode="&#x171;" horiz-adv-x="537" d="M438 -8q-76 0 -67 87q-26 -43 -68 -67t-90 -24q-94 0 -136.5 61t-21.5 158l51 242q6 31 30 31h8q33 0 27 -31l-52 -247q-15 -69 12.5 -111t90.5 -42q54 0 93 28t74 87l60 285q6 31 30 31h8q33 0 27 -31l-74 -348q-8 -36 1 -49.5t42 -14.5q2 0 0.5 -11t-12.5 -22.5 t-33 -11.5zM177 551q-2 3 15.5 24.5t49 52t60.5 51.5q24 18 46 18q12 0 21 -7.5t9 -19.5q0 -25 -37 -50q-31 -21 -70 -39t-65 -25.5t-29 -4.5zM356 551q-2 3 15.5 24.5t49 52t60.5 51.5q24 18 46 18q12 0 21 -7.5t9 -19.5q0 -25 -37 -50q-31 -21 -70 -39t-65 -25.5t-29 -4.5 z" />
<glyph unicode="&#x172;" horiz-adv-x="639" d="M304 -12q-134 0 -195.5 76.5t-30.5 220.5l71 335q7 31 34 31h9q32 0 24 -35l-71 -336q-24 -115 18 -173t145 -58q158 0 200 198l79 373q7 31 34 31h8q32 0 24 -35l-81 -383q-36 -168 -149 -221q-94 -53 -94 -104q0 -15 9 -24t24 -9q22 0 37 18q10 -2 18 -10t8 -20 q0 -20 -18.5 -33t-49.5 -13q-40 0 -65.5 22t-25.5 57q0 51 54 93q-3 0 -8.5 -0.5t-7.5 -0.5z" />
<glyph unicode="&#x173;" horiz-adv-x="537" d="M402 -1q-37 18 -31 80q-26 -43 -68 -67t-90 -24q-94 0 -136.5 61t-21.5 158l51 242q6 31 30 31h8q33 0 27 -31l-52 -247q-15 -69 12.5 -111t90.5 -42q54 0 93 28t74 87l60 285q6 31 30 31h8q33 0 27 -31l-74 -348q-8 -36 1 -49.5t42 -14.5q0 -2 0.5 -8.5t-6 -17.5 t-18.5 -15q-99 -56 -99 -108q0 -15 9 -24t24 -9q22 0 37 18q10 -2 18 -10t8 -20q0 -20 -18.5 -33t-49.5 -13q-40 0 -65.5 22t-25.5 57q0 75 105 123z" />
<glyph unicode="&#x174;" horiz-adv-x="904" d="M207 -7q-26 0 -36.5 8t-11.5 25l-19 611q0 4 11 9.5t22 5.5q17 0 27 -11.5t10 -31.5l8 -548l243 468q9 19 20.5 26t33.5 7q47 0 51 -44l41 -455l261 586q0 1 5 1.5t12.5 -0.5t15 -4t12.5 -11t5 -21q0 -16 -15 -47l-252 -551q-11 -23 -51 -23q-46 0 -49 34l-42 468 l-253 -477q-8 -15 -17.5 -20t-31.5 -5zM433 704q-19 0 -19 17q0 30 67 86q20 17 42.5 33.5t35.5 25t15 8.5t11.5 -9t24 -24.5t26.5 -30.5q39 -51 39 -77q0 -29 -24 -29q-12 0 -24 13.5t-32 47.5l-29 51l-51 -53q-57 -59 -82 -59z" />
<glyph unicode="&#x175;" horiz-adv-x="695" d="M156 -5q-47 0 -47 48l1 287q0 58 -16 78.5t-53 22.5q-1 0 -1.5 5t2 12.5t7.5 14.5t16 12t27 5q29 0 48 -19q35 -35 33 -137l-4 -255l151 302q11 22 24.5 29.5t34.5 7.5q46 0 50 -48l26 -292l192 411l5 1q4 0 10 -1t12.5 -4t12 -10.5t6.5 -17.5q2 -14 -13 -46l-179 -369 q-11 -22 -23.5 -29.5t-32.5 -7.5q-40 0 -46 48l-32 286l-154 -297q-12 -23 -24 -30t-33 -7zM297 539q-19 0 -19 17q0 30 67 86q20 17 42.5 33.5t35.5 25t15 8.5t11.5 -9t24 -24.5t26.5 -30.5q39 -51 39 -77q0 -29 -24 -29q-12 0 -24 13.5t-32 47.5l-29 51l-51 -53 q-57 -59 -82 -59z" />
<glyph unicode="&#x176;" horiz-adv-x="549" d="M218 -4q-29 0 -22 31l52 245l-157 353q-1 3 3.5 9t15 11.5t21.5 5.5q23 0 33 -26l127 -294l273 322q1 1 11 -1.5t20 -11.5t10 -24q0 -19 -29 -52l-262 -299l-50 -238q-7 -31 -37 -31h-9zM253 714q-19 0 -19 17q0 30 67 86q20 17 42.5 33.5t35.5 25t15 8.5t11.5 -9 t24 -24.5t26.5 -30.5q39 -51 39 -77q0 -29 -24 -29q-12 0 -24 13.5t-32 47.5l-29 51l-51 -53q-57 -59 -82 -59z" />
<glyph unicode="&#x177;" horiz-adv-x="464" d="M-8 -204q-51 0 -74 23q-12 12 -12 28q0 10 6 18.5t12.5 13t8.5 2.5q9 -11 26 -18.5t29 -7.5q31 0 65 30.5t92 115.5l16 23q-30 4 -35 43l-28 263q-5 52 -23 75t-52 23q-1 0 -1 5.5t1.5 13t6 15t15.5 13t28 5.5q75 0 89 -156l24 -265l256 420q2 -1 11.5 0t20.5 -7.5 t11 -24.5q0 -15 -19 -46l-258 -413q-71 -113 -116.5 -152.5t-99.5 -39.5zM182 549q-19 0 -19 17q0 30 67 86q20 17 42.5 33.5t35.5 25t15 8.5t11.5 -9t24 -24.5t26.5 -30.5q39 -51 39 -77q0 -29 -24 -29q-12 0 -24 13.5t-32 47.5l-29 51l-51 -53q-57 -59 -82 -59z" />
<glyph unicode="&#x178;" horiz-adv-x="549" d="M218 -4q-29 0 -22 31l52 245l-157 353q-1 3 3.5 9t15 11.5t21.5 5.5q23 0 33 -26l127 -294l273 322q1 1 11 -1.5t20 -11.5t10 -24q0 -19 -29 -52l-262 -299l-50 -238q-7 -31 -37 -31h-9zM450 708q-49 0 -49 38q0 24 13.5 41t37.5 17q49 0 49 -38q0 -24 -13.5 -41 t-37.5 -17zM282 708q-49 0 -49 38q0 24 13.5 41t37.5 17q49 0 49 -38q0 -24 -13.5 -41t-37.5 -17z" />
<glyph unicode="&#x179;" horiz-adv-x="564" d="M26 0q-2 0 -7.5 7t-10.5 19t-5 22q0 29 34 63l474 474h-358q-38 0 -38 25q0 7 3.5 16t7 15t4.5 6h433q2 0 7.5 -7t10.5 -19t5 -22q0 -29 -34 -63l-474 -474h380q38 0 38 -25q0 -7 -3.5 -16t-7 -15t-4.5 -6h-455zM278 716q-2 3 19.5 25t57.5 52.5t67 48.5q24 15 46 15 q12 0 20.5 -8.5t8.5 -19.5q0 -24 -41 -48q-34 -20 -77 -37t-71 -24t-30 -4z" />
<glyph unicode="&#x17a;" horiz-adv-x="473" d="M26 0q-2 0 -6 5.5t-8 15t-4 17.5q0 25 27 51l354 331h-268q-34 0 -34 23q0 6 3 14t6 13.5t4 5.5h340q2 0 6 -5.5t8 -15t4 -17.5q0 -25 -27 -51l-354 -331h277q34 0 34 -23q0 -6 -3 -14t-6 -13.5t-4 -5.5h-349zM207 551q-2 3 19.5 25t57.5 52.5t67 48.5q24 15 46 15 q13 0 21 -8t8 -20q0 -24 -41 -48q-34 -20 -77 -37t-71 -24t-30 -4z" />
<glyph unicode="&#x17b;" horiz-adv-x="564" d="M26 0q-2 0 -7.5 7t-10.5 19t-5 22q0 29 34 63l474 474h-358q-38 0 -38 25q0 7 3.5 16t7 15t4.5 6h433q2 0 7.5 -7t10.5 -19t5 -22q0 -29 -34 -63l-474 -474h380q38 0 38 -25q0 -7 -3.5 -16t-7 -15t-4.5 -6h-455zM368 714q-54 0 -54 41q0 26 14.5 44.5t41.5 18.5 q54 0 54 -41q0 -26 -14.5 -44.5t-41.5 -18.5z" />
<glyph unicode="&#x17c;" horiz-adv-x="473" d="M26 0q-2 0 -6 5.5t-8 15t-4 17.5q0 25 27 51l354 331h-268q-34 0 -34 23q0 6 3 14t6 13.5t4 5.5h340q2 0 6 -5.5t8 -15t4 -17.5q0 -25 -27 -51l-354 -331h277q34 0 34 -23q0 -6 -3 -14t-6 -13.5t-4 -5.5h-349zM284 549q-54 0 -54 41q0 26 14.5 44.5t41.5 18.5 q54 0 54 -41q0 -26 -14.5 -44.5t-41.5 -18.5z" />
<glyph unicode="&#x17d;" horiz-adv-x="564" d="M26 0q-2 0 -7.5 7t-10.5 19t-5 22q0 29 34 63l474 474h-358q-38 0 -38 25q0 7 3.5 16t7 15t4.5 6h433q2 0 7.5 -7t10.5 -19t5 -22q0 -29 -34 -63l-474 -474h380q38 0 38 -25q0 -7 -3.5 -16t-7 -15t-4.5 -6h-455zM363 703q-2 0 -11.5 9t-24.5 24.5t-26 30.5q-39 51 -39 77 q0 29 24 29q15 0 31.5 -22.5t53.5 -89.5l51 53q57 59 82 59q19 0 19 -17q0 -30 -67 -86q-20 -17 -42.5 -33.5t-35.5 -25t-15 -8.5z" />
<glyph unicode="&#x17e;" horiz-adv-x="473" d="M26 0q-2 0 -6 5.5t-8 15t-4 17.5q0 25 27 51l354 331h-268q-34 0 -34 23q0 6 3 14t6 13.5t4 5.5h340q2 0 6 -5.5t8 -15t4 -17.5q0 -25 -27 -51l-354 -331h277q34 0 34 -23q0 -6 -3 -14t-6 -13.5t-4 -5.5h-349zM282 533q-2 0 -11.5 9t-24.5 24.5t-26 30.5q-39 51 -39 77 q0 29 24 29q15 0 31.5 -22.5t53.5 -89.5l51 53q57 59 82 59q19 0 19 -17q0 -30 -67 -86q-20 -17 -42.5 -33.5t-35.5 -25t-15 -8.5z" />
<glyph unicode="&#x192;" horiz-adv-x="330" d="M77 -4q-6 0 -12.5 2.5t-10.5 5t-3 4.5l79 370h-64q-29 0 -29 16q0 23 12 35q7 7 24 7h69l15 69q33 154 155 154q56 0 84 -28q14 -14 14 -32q0 -10 -6 -19t-12 -13t-7 -2q-25 36 -76 36q-35 0 -57 -24.5t-34 -80.5l-13 -60h123q29 0 29 -16q0 -23 -12 -35q-7 -7 -24 -7 h-128l-68 -328q-11 -54 -48 -54z" />
<glyph unicode="&#x1fa;" horiz-adv-x="609" d="M35 -3q-2 1 -12.5 -0.5t-22.5 8t-12 28.5q0 16 19 49l309 520l9 13q-51 27 -51 87q0 54 37 94t93 40q48 0 78.5 -28.5t30.5 -72.5q0 -42 -24.5 -78t-63.5 -49q3 -6 4 -15l116 -576q1 -3 -4 -7.5t-14.5 -8.5t-19.5 -4q-29 0 -36 37l-33 177h-280zM193 271h233l-57 305z M385 646q34 0 55.5 26t21.5 59q0 25 -17 42.5t-43 17.5q-34 0 -55.5 -26t-21.5 -59q0 -25 17 -42.5t43 -17.5zM351 856q-2 3 19.5 25t57.5 52.5t67 48.5q24 15 46 15q13 0 21 -8.5t8 -19.5q0 -24 -41 -48q-34 -20 -77 -37t-71 -24t-30 -4z" />
<glyph unicode="&#x1fb;" horiz-adv-x="569" d="M300 822q-2 3 19.5 25t57.5 52.5t67 48.5q24 15 46 15q12 0 20.5 -8.5t8.5 -19.5q0 -24 -41 -48q-34 -20 -77 -37t-71 -24t-30 -4zM472 -8q-82 0 -65 98q-68 -102 -184 -102q-81 0 -136 53.5t-55 148.5q0 115 78 206.5t192 91.5q58 0 103 -28t65 -73l6 26q7 36 19.5 51.5 t32.5 15.5q6 0 12 -2t9.5 -3.5t3.5 -2.5l-79 -371q-8 -36 1 -49.5t42 -14.5q2 0 0.5 -11t-12.5 -22.5t-33 -11.5zM231 45q73 0 132 54t74 129l17 79q-36 124 -156 124q-89 0 -144.5 -74t-55.5 -166q0 -67 38.5 -106.5t94.5 -39.5zM355 550q-48 0 -78.5 28.5t-30.5 72.5 q0 54 37 94t93 40q48 0 78.5 -28.5t30.5 -72.5q0 -54 -37 -94t-93 -40zM357 595q34 0 55.5 26t21.5 59q0 25 -17 42.5t-43 17.5q-34 0 -55.5 -26t-21.5 -59q0 -25 17 -42.5t43 -17.5z" />
<glyph unicode="&#x1fc;" horiz-adv-x="846" d="M35 -3l-5 -1q-5 0 -11.5 1.5t-13.5 4.5t-12 11t-5 20q0 16 19 49l315 530q21 35 57 35h469q31 0 31 -17q0 -23 -13 -38q-6 -7 -26 -7h-409l45 -223h246q30 0 30 -16q0 -25 -12 -37q-7 -7 -25 -7h-227l48 -240h203q31 0 31 -17q0 -23 -13 -38q-6 -7 -26 -7h-207 q-26 0 -38.5 9.5t-16.5 34.5l-31 167h-280zM193 271h233l-57 305zM488 716q-2 3 19.5 25t57.5 52.5t67 48.5q24 15 46 15q12 0 20.5 -8.5t8.5 -19.5q0 -24 -41 -48q-34 -20 -77 -37t-71 -24t-30 -4z" />
<glyph unicode="&#x1fd;" horiz-adv-x="848" d="M179 -12q-76 0 -121 32t-45 87q0 91 82 132t283 45h10l1 4q14 67 -19.5 104t-108.5 37q-105 0 -155 -74q-1 -1 -7.5 2.5t-13.5 12.5t-7 20q0 31 50.5 64.5t139.5 33.5q73 0 120.5 -31t58.5 -88q79 119 224 119q79 0 124.5 -34.5t45.5 -91.5q0 -76 -62 -114t-215 -38 q-52 0 -126 6q-1 -10 -1 -30q0 -65 37 -103.5t106 -38.5q102 0 161 79q1 2 9.5 -1t16.5 -11t8 -19q0 -20 -22 -42q-62 -62 -175 -62q-75 0 -122 31t-65 85q-31 -55 -85 -85.5t-127 -30.5zM188 43q65 0 114.5 39t63.5 98l12 53l-29 -1q-107 -3 -166.5 -17.5t-81.5 -38.5 t-22 -64q0 -30 30.5 -49.5t78.5 -19.5zM668 431q-73 0 -132 -45t-84 -115q48 -6 106 -6q217 0 217 96q0 29 -28 49.5t-79 20.5zM440 551q-2 3 19.5 25t57.5 52.5t67 48.5q24 15 46 15q12 0 20.5 -8t8.5 -20q0 -24 -41 -48q-34 -20 -77 -37t-71 -24t-30 -4z" />
<glyph unicode="&#x1fe;" horiz-adv-x="732" d="M25 -32q-2 -2 -9 2.5t-13 13.5t-6 18q0 26 29 52l75 66q-40 68 -40 149q0 166 109 278t249 112q123 0 204 -78l103 92q2 2 9 -2.5t13 -13.5t6 -18q0 -26 -29 -52l-62 -55q44 -71 44 -153q0 -166 -109 -278t-249 -112q-127 0 -209 82zM356 48q108 0 193.5 93.5t85.5 232.5 q0 65 -26 115l-420 -375q61 -66 167 -66zM133 274q0 -59 23 -110l418 374q-59 62 -162 62q-108 0 -193.5 -93.5t-85.5 -232.5zM362 716q-2 3 19.5 25t57.5 52.5t67 48.5q24 15 46 15q12 0 20.5 -8.5t8.5 -19.5q0 -24 -41 -48q-34 -20 -77 -37t-71 -24t-30 -4z" />
<glyph unicode="&#x1ff;" horiz-adv-x="550" d="M18 -26q-2 -2 -8.5 2t-12.5 12t-6 17q0 21 26 43l48 42q-33 52 -33 119q0 113 77 196t191 83q86 0 148 -57l78 70q2 2 8.5 -2t12.5 -12t6 -17q0 -20 -26 -43l-43 -38q35 -54 35 -122q0 -113 -77 -196t-191 -83q-90 0 -151 59zM255 45q82 0 140 65.5t58 154.5q0 44 -19 82 l-289 -257q43 -45 110 -45zM98 211q0 -45 18 -80l287 257q-45 43 -107 43q-82 0 -140 -65.5t-58 -154.5zM271 551q-2 3 19.5 25t57.5 52.5t67 48.5q24 15 46 15q13 0 21 -8t8 -20q0 -24 -41 -48q-34 -20 -77 -37t-71 -24t-30 -4z" />
<glyph unicode="&#x218;" horiz-adv-x="533" d="M252 -12q-131 0 -204 73q-37 37 -37 72q0 15 10.5 25t20.5 12.5t11 -0.5q23 -58 74.5 -90.5t128.5 -32.5q76 0 114.5 31.5t38.5 89.5q0 24 -9.5 43t-33 35t-42.5 25t-57 25q-39 16 -62 28.5t-51 34t-41.5 51.5t-13.5 70q0 77 59.5 128t157.5 51q124 0 188 -64 q32 -32 32 -66q0 -15 -10 -24.5t-20 -12t-11 0.5q-45 107 -182 107q-64 0 -104.5 -32t-40.5 -81q0 -27 9.5 -47t33 -36.5t43 -26.5t60.5 -27q32 -14 49 -21.5t42.5 -24t38.5 -32.5t23.5 -41.5t10.5 -56.5q0 -85 -59.5 -135.5t-166.5 -50.5zM140 -234q-6 -6 -20 4t-10 16 l107 167q1 2 15.5 -0.5t28.5 -12t14 -23.5q0 -22 -22 -45z" />
<glyph unicode="&#x219;" horiz-adv-x="447" d="M205 -12q-115 0 -177 62q-24 24 -24 45q0 13 8.5 23t17.5 13.5t10 1.5q54 -90 169 -90q55 0 85.5 22t30.5 59q0 30 -26 47t-88 38q-34 12 -53 20.5t-43.5 24.5t-36 39t-11.5 54q0 62 50 101.5t128 39.5q102 0 158 -56q24 -24 24 -48q0 -13 -9 -22.5t-18 -12t-11 0.5 q-19 37 -59.5 60t-89.5 23q-52 0 -81 -23t-29 -55t27.5 -50.5t90.5 -40.5q32 -11 51.5 -20t43 -24.5t34.5 -37t11 -50.5q0 -66 -49 -105t-134 -39zM97 -234q-6 -6 -20 4t-10 16l107 167q1 2 15.5 -0.5t28.5 -12t14 -23.5q0 -22 -22 -45z" />
<glyph unicode="&#x2c6;" horiz-adv-x="500" d="M210 549q-19 0 -19 17q0 30 67 86q20 17 42.5 33.5t35.5 25t15 8.5t11.5 -9t24 -24.5t26.5 -30.5q39 -51 39 -77q0 -29 -24 -29q-12 0 -24 13.5t-32 47.5l-29 51l-51 -53q-57 -59 -82 -59z" />
<glyph unicode="&#x2c7;" horiz-adv-x="500" d="M316 533q-2 0 -11.5 9t-24.5 24.5t-26 30.5q-39 51 -39 77q0 29 24 29q15 0 31.5 -22.5t53.5 -89.5l51 53q57 59 82 59q19 0 19 -17q0 -30 -67 -86q-20 -17 -42.5 -33.5t-35.5 -25t-15 -8.5z" />
<glyph unicode="&#x2d8;" horiz-adv-x="500" d="M329 548q-46 0 -89.5 36t-43.5 71q0 11 7 19t18 8q35 0 107 -91q87 91 125 91q10 0 17.5 -7t7.5 -17q0 -32 -49 -71t-100 -39z" />
<glyph unicode="&#x2d9;" horiz-adv-x="500" d="M327 549q-54 0 -54 41q0 26 14.5 44.5t41.5 18.5q54 0 54 -41q0 -26 -14.5 -44.5t-41.5 -18.5z" />
<glyph unicode="&#x2da;" horiz-adv-x="500" d="M331 550q-48 0 -78.5 28.5t-30.5 72.5q0 54 37 94t93 40q48 0 78.5 -28.5t30.5 -72.5q0 -54 -37 -94t-93 -40zM333 595q34 0 55.5 26t21.5 59q0 25 -17 42.5t-43 17.5q-34 0 -55.5 -26t-21.5 -59q0 -25 17 -42.5t43 -17.5z" />
<glyph unicode="&#x2db;" horiz-adv-x="500" d="M263 2q-106 -57 -106 -111q0 -15 9 -24t24 -9q22 0 37 18q10 -2 18 -10t8 -20q0 -20 -18.5 -33t-49.5 -13q-40 0 -65.5 22t-25.5 57q0 43 40.5 81.5t120.5 62.5z" />
<glyph unicode="&#x2dc;" horiz-adv-x="500" d="M397 548q-25 0 -63 21.5t-76 58.5q-31 -73 -54 -73t-23 20q0 34 25 65t55 31q25 0 63 -21.5t76 -58.5q31 73 54 73t23 -20q0 -34 -25 -65t-55 -31z" />
<glyph unicode="&#x2dd;" horiz-adv-x="500" d="M348 551q-2 3 15.5 24.5t49 52t60.5 51.5q24 18 46 18q12 0 21 -7.5t9 -19.5q0 -25 -37 -50q-31 -21 -70 -39t-65 -25.5t-29 -4.5zM169 551q-2 3 15.5 24.5t49 52t60.5 51.5q24 18 46 18q12 0 21 -7.5t9 -19.5q0 -25 -37 -50q-31 -21 -70 -39t-65 -25.5t-29 -4.5z" />
<glyph unicode="&#x3c0;" horiz-adv-x="757" d="M396 -12q-144 0 -236 94t-92 240q0 145 94 241t235 96q144 0 236 -94t92 -240q0 -145 -94 -241t-235 -96zM398 36q121 0 197 80t76 207q0 124 -78.5 206t-197.5 82q-121 0 -197 -80t-76 -207q0 -124 78.5 -206t197.5 -82zM309 139q-25 0 -25 28v285q0 15 9 24.5t23 9.5 h96q66 0 101.5 -29t35.5 -84q0 -56 -35 -86t-99 -30h-71v-90q0 -28 -26 -28h-9zM343 306h73q36 0 55 17.5t19 48.5q0 65 -78 65h-69v-131z" />
<glyph unicode="&#x1e80;" horiz-adv-x="904" d="M207 -7q-26 0 -36.5 8t-11.5 25l-19 611q0 4 11 9.5t22 5.5q17 0 27 -11.5t10 -31.5l8 -548l243 468q9 19 20.5 26t33.5 7q47 0 51 -44l41 -455l261 586q0 1 5 1.5t12.5 -0.5t15 -4t12.5 -11t5 -21q0 -16 -15 -47l-252 -551q-11 -23 -51 -23q-46 0 -49 34l-42 468 l-253 -477q-8 -15 -17.5 -20t-31.5 -5zM600 706q-3 -3 -28 5.5t-61 27.5t-64 42q-30 25 -30 49q0 12 10 20.5t22 8.5q21 0 45 -21q27 -22 53.5 -53.5t41 -53.5t11.5 -25z" />
<glyph unicode="&#x1e81;" horiz-adv-x="695" d="M156 -5q-47 0 -47 48l1 287q0 58 -16 78.5t-53 22.5q-1 0 -1.5 5t2 12.5t7.5 14.5t16 12t27 5q29 0 48 -19q35 -35 33 -137l-4 -255l151 302q11 22 24.5 29.5t34.5 7.5q46 0 50 -48l26 -292l192 411l5 1q4 0 10 -1t12.5 -4t12 -10.5t6.5 -17.5q2 -14 -13 -46l-179 -369 q-11 -22 -23.5 -29.5t-32.5 -7.5q-40 0 -46 48l-32 286l-154 -297q-12 -23 -24 -30t-33 -7zM489 541q-3 -3 -28 5.5t-61 27.5t-64 42q-30 25 -30 49q0 12 10 20.5t22 8.5q20 0 45 -21q27 -22 53.5 -53.5t41 -53.5t11.5 -25z" />
<glyph unicode="&#x1e82;" horiz-adv-x="904" d="M207 -7q-26 0 -36.5 8t-11.5 25l-19 611q0 4 11 9.5t22 5.5q17 0 27 -11.5t10 -31.5l8 -548l243 468q9 19 20.5 26t33.5 7q47 0 51 -44l41 -455l261 586q0 1 5 1.5t12.5 -0.5t15 -4t12.5 -11t5 -21q0 -16 -15 -47l-252 -551q-11 -23 -51 -23q-46 0 -49 34l-42 468 l-253 -477q-8 -15 -17.5 -20t-31.5 -5zM473 706q-2 3 19.5 25t57.5 52.5t67 48.5q24 15 46 15q13 0 21 -8.5t8 -19.5q0 -24 -41 -48q-34 -20 -77 -37t-71 -24t-30 -4z" />
<glyph unicode="&#x1e83;" horiz-adv-x="695" d="M156 -5q-47 0 -47 48l1 287q0 58 -16 78.5t-53 22.5q-1 0 -1.5 5t2 12.5t7.5 14.5t16 12t27 5q29 0 48 -19q35 -35 33 -137l-4 -255l151 302q11 22 24.5 29.5t34.5 7.5q46 0 50 -48l26 -292l192 411l5 1q4 0 10 -1t12.5 -4t12 -10.5t6.5 -17.5q2 -14 -13 -46l-179 -369 q-11 -22 -23.5 -29.5t-32.5 -7.5q-40 0 -46 48l-32 286l-154 -297q-12 -23 -24 -30t-33 -7zM331 541q-2 3 19.5 25t57.5 52.5t67 48.5q24 15 46 15q13 0 21 -8t8 -20q0 -24 -41 -48q-34 -20 -77 -37t-71 -24t-30 -4z" />
<glyph unicode="&#x1e84;" horiz-adv-x="904" d="M207 -7q-26 0 -36.5 8t-11.5 25l-19 611q0 4 11 9.5t22 5.5q17 0 27 -11.5t10 -31.5l8 -548l243 468q9 19 20.5 26t33.5 7q47 0 51 -44l41 -455l261 586q0 1 5 1.5t12.5 -0.5t15 -4t12.5 -11t5 -21q0 -16 -15 -47l-252 -551q-11 -23 -51 -23q-46 0 -49 34l-42 468 l-253 -477q-8 -15 -17.5 -20t-31.5 -5zM631 713q-49 0 -49 38q0 24 13.5 41t37.5 17q49 0 49 -38q0 -24 -13.5 -41t-37.5 -17zM463 713q-49 0 -49 38q0 24 13.5 41t37.5 17q49 0 49 -38q0 -24 -13.5 -41t-37.5 -17z" />
<glyph unicode="&#x1e85;" horiz-adv-x="695" d="M156 -5q-47 0 -47 48l1 287q0 58 -16 78.5t-53 22.5q-1 0 -1.5 5t2 12.5t7.5 14.5t16 12t27 5q29 0 48 -19q35 -35 33 -137l-4 -255l151 302q11 22 24.5 29.5t34.5 7.5q46 0 50 -48l26 -292l192 411l5 1q4 0 10 -1t12.5 -4t12 -10.5t6.5 -17.5q2 -14 -13 -46l-179 -369 q-11 -22 -23.5 -29.5t-32.5 -7.5q-40 0 -46 48l-32 286l-154 -297q-12 -23 -24 -30t-33 -7zM496 548q-49 0 -49 38q0 24 13.5 41t37.5 17q49 0 49 -38q0 -24 -13.5 -41t-37.5 -17zM328 548q-49 0 -49 38q0 24 13.5 41t37.5 17q49 0 49 -38q0 -24 -13.5 -41t-37.5 -17z" />
<glyph unicode="&#x2013;" horiz-adv-x="525" d="M74 213q-29 0 -29 16q0 23 12 35q7 7 24 7h373q29 0 29 -16q0 -23 -12 -35q-7 -7 -24 -7h-373z" />
<glyph unicode="&#x2014;" horiz-adv-x="693" d="M74 213q-29 0 -29 16q0 23 12 35q7 7 24 7h541q29 0 29 -16q0 -23 -12 -35q-7 -7 -24 -7h-541z" />
<glyph unicode="&#x2018;" horiz-adv-x="202" d="M150 425q-3 -1 -17 -0.5t-29.5 9.5t-15.5 24q0 21 19 45l129 162q5 6 19.5 -3t10.5 -17z" />
<glyph unicode="&#x2019;" horiz-adv-x="202" d="M96 422q-5 -6 -19.5 3t-10.5 17l116 220q3 1 17 0.5t29.5 -9.5t15.5 -24q0 -21 -19 -45z" />
<glyph unicode="&#x201a;" horiz-adv-x="209" d="M-34 -142q-5 -6 -19.5 3t-10.5 17l116 220q3 1 17 0.5t29.5 -9.5t15.5 -24q0 -21 -19 -45z" />
<glyph unicode="&#x201c;" horiz-adv-x="355" d="M150 426q-3 -1 -17 -0.5t-29.5 9.5t-15.5 24q0 21 19 45l129 162q5 6 19.5 -3t10.5 -17zM303 425q-3 -1 -17 -0.5t-29.5 9.5t-15.5 24q0 21 19 45l129 162q5 6 19.5 -3t10.5 -17z" />
<glyph unicode="&#x201d;" horiz-adv-x="355" d="M96 422q-5 -6 -19.5 3t-10.5 17l116 220q3 1 17 0.5t29.5 -9.5t15.5 -24q0 -21 -19 -45zM249 421q-5 -6 -19.5 3t-10.5 17l116 220q3 1 17 0.5t29.5 -9.5t15.5 -24q0 -21 -19 -45z" />
<glyph unicode="&#x201e;" horiz-adv-x="362" d="M-34 -142q-5 -6 -19.5 3t-10.5 17l116 220q3 1 17 0.5t29.5 -9.5t15.5 -24q0 -21 -19 -45zM119 -143q-5 -6 -19.5 3t-10.5 17l116 220q3 1 17 0.5t29.5 -9.5t15.5 -24q0 -21 -19 -45z" />
<glyph unicode="&#x2020;" horiz-adv-x="510" d="M177 -160q-18 0 -23.5 5.5t-3.5 17.5l78 435q8 45 42 83l-167 -23q-42 -5 -42 27q0 24 11.5 38.5t37.5 11.5l167 -22l16 196q2 24 12 34t32 10q54 0 37 -49l-65 -193l167 23q42 5 42 -27q0 -24 -11.5 -38.5t-37.5 -11.5l-167 22q16 -38 6 -81l-107 -436q-5 -22 -22 -22 h-2z" />
<glyph unicode="&#x2021;" horiz-adv-x="510" d="M177 -160q-18 0 -23.5 5.5t-3.5 17.5l43 241l-148 -22q-42 -5 -42 27q0 24 11.5 38.5t37.5 11.5l147 -21l29 160q8 45 42 83l-167 -23q-42 -5 -42 27q0 24 11.5 38.5t37.5 11.5l167 -22l16 196q2 24 12 34t32 10q54 0 37 -49l-65 -193l167 23q42 5 42 -27 q0 -24 -11.5 -38.5t-37.5 -11.5l-167 22q16 -38 6 -81l-40 -162l150 22q42 5 42 -27q0 -24 -11.5 -38.5t-37.5 -11.5l-151 21l-59 -240q-5 -22 -22 -22h-2z" />
<glyph unicode="&#x2022;" horiz-adv-x="324" d="M163 139q-43 0 -72.5 30t-29.5 73t29.5 73.5t72.5 30.5t72.5 -30.5t29.5 -73.5t-29.5 -73t-72.5 -30z" />
<glyph unicode="&#x2026;" horiz-adv-x="627" d="M479 -6q-48 0 -48 34q0 36 16 52q13 13 37 13q48 0 48 -34q0 -36 -16 -52q-13 -13 -37 -13zM270 -6q-48 0 -48 34q0 36 16 52q13 13 37 13q48 0 48 -34q0 -36 -16 -52q-13 -13 -37 -13zM61 -6q-48 0 -48 34q0 36 16 52q13 13 37 13q48 0 48 -34q0 -36 -16 -52 q-13 -13 -37 -13z" />
<glyph unicode="&#x2030;" horiz-adv-x="1076" d="M215 347q-58 0 -97 37.5t-39 99.5q0 70 47.5 121.5t118.5 51.5q58 0 97 -37.5t39 -99.5q0 -70 -47.5 -121.5t-118.5 -51.5zM52 -9q-2 -2 -8.5 0.5t-12.5 9.5t-6 17q0 21 36 54l656 590q1 0 2.5 0.5t4 -0.5t5.5 -2.5t5.5 -4t4.5 -5.5t3.5 -7t1.5 -8q0 -21 -36 -54zM868 -4 q-58 0 -97 37.5t-39 99.5q0 70 47.5 121.5t118.5 51.5q58 0 97 -37.5t39 -99.5q0 -70 -47.5 -121.5t-118.5 -51.5zM524 -4q-58 0 -97 37.5t-39 99.5q0 70 47.5 121.5t118.5 51.5q58 0 97 -37.5t39 -99.5q0 -70 -47.5 -121.5t-118.5 -51.5zM219 398q45 0 76 35.5t31 83.5 q0 38 -24.5 63.5t-60.5 25.5q-45 0 -76 -35.5t-31 -83.5q0 -38 24.5 -63.5t60.5 -25.5zM872 47q45 0 76 35.5t31 83.5q0 38 -24.5 63.5t-60.5 25.5q-45 0 -76 -35.5t-31 -83.5q0 -38 24.5 -63.5t60.5 -25.5zM528 47q45 0 76 35.5t31 83.5q0 38 -24.5 63.5t-60.5 25.5 q-45 0 -76 -35.5t-31 -83.5q0 -38 24.5 -63.5t60.5 -25.5z" />
<glyph unicode="&#x2039;" horiz-adv-x="312" d="M206 78q-36 0 -93 70q-27 33 -47 65t-18 38q1 3 15.5 17.5t39.5 36t50 40.5q82 63 117 63q23 0 23 -24q0 -15 -30.5 -43t-74.5 -55q-3 -2 -33.5 -21t-47.5 -28q29 -22 62 -54q37 -35 50.5 -51.5t13.5 -30.5q0 -9 -8 -16t-19 -7z" />
<glyph unicode="&#x203a;" horiz-adv-x="312" d="M46 78q-23 0 -23 24q0 15 30.5 43t74.5 55q3 2 33.5 21t47.5 28q-29 23 -62 54q-37 35 -50.5 51.5t-13.5 30.5q0 9 8 16t19 7q36 0 93 -70q27 -33 47 -65t18 -38q-1 -3 -15.5 -17.5t-39.5 -36t-50 -40.5q-82 -63 -117 -63z" />
<glyph unicode="&#x2044;" horiz-adv-x="625" d="M6 -8q-2 -2 -8.5 0.5t-13 9.5t-6.5 16q0 25 35 57l646 586q2 2 8.5 -0.5t13 -9.5t6.5 -16q0 -25 -35 -57z" />
<glyph unicode="&#x2070;" horiz-adv-x="336" d="M164 278q-66 0 -102.5 39.5t-36.5 102.5q0 18 7 57l8 35q14 69 54 105.5t99 36.5q63 0 100 -38.5t37 -102.5q0 -26 -7 -57l-8 -35q-34 -143 -151 -143zM165 329q65 0 87 97l10 43q7 29 7 52q0 39 -20 60.5t-56 21.5q-35 0 -57.5 -23t-33.5 -74l-8 -43q-7 -37 -7 -51 q0 -83 78 -83z" />
<glyph unicode="&#x2074;" horiz-adv-x="336" d="M200 282q-30 0 -22 31l13 67h-151q-2 0 -6.5 5t-8.5 14t-4 19q0 19 25 48l153 157q15 17 26 22.5t32 5.5q52 0 42 -45l-37 -174h35q25 0 25 -17t-10 -29q-8 -6 -22 -6h-39l-15 -68q-5 -30 -28 -30h-8zM241 601l-164 -170h128z" />
<glyph unicode="&#x2075;" horiz-adv-x="336" d="M137 592l-20 -91q30 10 59 10q57 0 89.5 -27.5t32.5 -73.5q0 -59 -41 -95.5t-109 -36.5q-79 0 -114 37q-17 18 -17 39q0 11 7 20t14 12t8 1q28 -59 102 -59q39 0 63.5 21.5t24.5 55.5q0 59 -74 59q-40 0 -72 -19q-38 9 -30 49l25 119q7 34 41 34h199q5 0 5 -18 q0 -14 -9 -25.5t-28 -11.5h-156z" />
<glyph unicode="&#x2076;" horiz-adv-x="336" d="M102 475v-1q34 38 96 38q50 0 80.5 -26.5t30.5 -73.5q0 -54 -39.5 -94t-100.5 -40q-63 0 -98.5 37t-35.5 102q0 48 18 104t51 89q45 45 116 45q62 0 94 -32q16 -17 16 -37q0 -14 -9 -22.5t-17.5 -10t-10.5 0.5q-22 49 -77 49q-88 0 -114 -128zM181 471q-40 0 -86 -37 q-1 -9 -1 -20q-2 -39 17.5 -62.5t55.5 -23.5q37 0 59.5 23.5t22.5 58.5q0 28 -17.5 44.5t-50.5 16.5z" />
<glyph unicode="&#x2077;" horiz-adv-x="336" d="M101 282h-5q-4 -1 -10 0t-12 3.5t-10.5 8.5t-4.5 15q0 13 21 39l194 243h-168q-36 0 -36 23q0 7 3 15t6 13t4 5h231q2 0 7.5 -5t10.5 -15.5t5 -21.5q0 -20 -22 -47z" />
<glyph unicode="&#x2078;" horiz-adv-x="336" d="M158 278q-65 0 -102.5 26t-37.5 72q0 36 26 63t72 37q-50 20 -50 69q0 46 39 78t98 32q56 0 91 -25t35 -67q0 -35 -22.5 -60.5t-63.5 -35.5q60 -23 60 -77q0 -48 -39.5 -80t-105.5 -32zM161 326q37 0 59 19.5t22 49.5q0 25 -22 40.5t-59 15.5q-34 0 -57 -18.5t-23 -48.5 q0 -26 21.5 -42t58.5 -16zM195 491q34 0 54 17.5t20 45.5q0 24 -19.5 38t-51.5 14q-33 0 -53 -17.5t-20 -45.5q0 -24 19 -38t51 -14z" />
<glyph unicode="&#x2079;" horiz-adv-x="336" d="M137 328q45 0 73 29.5t41 93.5q-34 -36 -92 -36q-53 0 -83.5 26.5t-30.5 75.5q0 56 39.5 97t100.5 41q63 0 99 -37.5t36 -101.5q0 -49 -18 -105.5t-51 -89.5q-43 -43 -115 -43q-64 0 -95 31q-16 16 -16 35q0 15 9 23.5t16.5 8.5h9.5q22 -48 77 -48zM175 456q46 0 83 35 q3 21 3 34q0 79 -75 79q-37 0 -59.5 -24t-22.5 -61q0 -63 71 -63z" />
<glyph unicode="&#x207a;" horiz-adv-x="336" d="M63 441q-24 0 -24 16q0 18 8 26q6 6 22 6h81l18 83q6 25 25 25h6q26 0 20 -27l-18 -81h79q25 0 25 -16q0 -15 -9 -26q-8 -6 -22 -6h-83l-18 -87q-5 -26 -25 -26h-6q-26 0 -19 28l17 85h-77z" />
<glyph unicode="&#x207b;" horiz-adv-x="336" d="M64 437q-27 0 -21 24l1 4q5 24 31 24h203q27 0 22 -24l-1 -4q-6 -24 -32 -24h-203z" />
<glyph unicode="&#x207c;" horiz-adv-x="336" d="M79 504q-21 0 -21 15q0 21 9 28q6 6 21 6h200q24 0 24 -15q0 -17 -9 -28q-8 -6 -21 -6h-203zM51 371q-22 0 -22 15q0 20 10 28q6 7 21 7h200q24 0 24 -16q0 -15 -9 -28q-10 -6 -21 -6h-203z" />
<glyph unicode="&#x207d;" horiz-adv-x="336" d="M209 224q-36 0 -76 40q-64 60 -65 165q0 116 80 196q34 35 76 54t75 19q31 0 31 -27q0 -5 -2.5 -11t-5 -9.5t-3.5 -3.5q-74 -6 -123 -55q-65 -65 -65 -165q0 -76 48 -124q26 -24 56 -34q1 0 2 -2.5t2.5 -6.5t1.5 -8q0 -12 -9 -20t-23 -8z" />
<glyph unicode="&#x207e;" horiz-adv-x="336" d="M126 698q35 0 77 -40q63 -61 63 -165q0 -117 -79 -196q-34 -35 -76 -54t-75 -19q-31 0 -31 27q0 5 2.5 11t5 9.5t3.5 3.5q74 6 123 55q65 65 65 165q0 74 -48 124q-24 23 -55 34q-2 0 -4.5 5.5t-2.5 11.5q0 12 9 20t23 8z" />
<glyph unicode="&#x2080;" horiz-adv-x="336" d="M164 -7q-66 0 -102.5 39.5t-36.5 102.5q0 18 7 57l8 35q14 69 54 105.5t99 36.5q63 0 100 -38.5t37 -102.5q0 -26 -7 -57l-8 -35q-34 -143 -151 -143zM165 44q65 0 87 97l10 43q7 29 7 52q0 39 -20 60.5t-56 21.5q-35 0 -57.5 -23t-33.5 -74l-8 -43q-7 -37 -7 -51 q0 -83 78 -83z" />
<glyph unicode="&#x2081;" horiz-adv-x="336" d="M52 0q-28 0 -25 22q0 10 5 17q7 15 30 15h69l51 230q-22 -22 -53 -22q-22 0 -35 11t-13 29q0 12 6 22t11.5 14t6.5 3q15 -23 42 -23q18 0 35.5 13.5t24.5 34.5h25q28 0 22 -31l-63 -281h63q13 0 19.5 -6t5.5 -16q0 -11 -6 -17q-5 -15 -29 -15h-192z" />
<glyph unicode="&#x2082;" horiz-adv-x="336" d="M98 96q-17 -17 -21 -43h175q34 0 34 -22q0 -6 -3 -14t-6 -12.5t-4 -4.5h-229q-11 0 -18 11.5t-6 27.5q3 53 38 90q30 31 104 56q40 14 57.5 22t31.5 22.5t14 35.5q0 23 -20 37t-52 14q-59 0 -87 -61q-1 -2 -10 -0.5t-18 9.5t-9 22q0 23 23 46q40 38 108 38q58 0 92 -27.5 t34 -74.5q0 -51 -32.5 -77t-99.5 -48q-76 -26 -96 -47z" />
<glyph unicode="&#x2083;" horiz-adv-x="336" d="M292 110q0 -48 -36 -82.5t-111 -34.5t-111 36q-22 21 -22 45q0 17 10 27t20 11.5t11 -0.5q11 -68 93 -68q40 0 61.5 19.5t21.5 49.5q0 24 -17.5 38t-50.5 14h-21q-24 0 -24 17q0 18 9 25q6 7 26 7h25q80 0 80 56q0 22 -19.5 35.5t-48.5 13.5q-60 0 -89 -51 q-1 -1 -9.5 0.5t-16.5 8.5t-8 19q0 19 17 34q38 40 110 40q52 0 89.5 -26t37.5 -66q0 -75 -83 -93q56 -20 56 -75z" />
<glyph unicode="&#x2084;" horiz-adv-x="336" d="M200 -3q-30 0 -22 31l13 67h-151q-2 0 -6.5 5t-8.5 14t-4 19q0 19 25 48l153 157q15 17 26 22.5t32 5.5q52 0 42 -45l-37 -174h35q25 0 25 -17t-10 -29q-8 -6 -22 -6h-39l-15 -68q-5 -30 -28 -30h-8zM241 316l-164 -170h128z" />
<glyph unicode="&#x2085;" horiz-adv-x="336" d="M137 307l-20 -91q30 10 59 10q57 0 89.5 -27.5t32.5 -73.5q0 -59 -41 -95.5t-109 -36.5q-79 0 -114 37q-17 18 -17 39q0 11 7 20t14 12t8 1q28 -59 102 -59q39 0 63.5 21.5t24.5 55.5q0 59 -74 59q-40 0 -72 -19q-38 9 -30 49l25 119q7 34 41 34h199q5 0 5 -18 q0 -14 -9 -25.5t-28 -11.5h-156z" />
<glyph unicode="&#x2086;" horiz-adv-x="336" d="M102 190v-1q34 38 96 38q50 0 80.5 -26.5t30.5 -73.5q0 -54 -39.5 -94t-100.5 -40q-63 0 -98.5 37t-35.5 102q0 48 18 104t51 89q45 45 116 45q62 0 94 -32q16 -17 16 -37q0 -14 -9 -22.5t-17.5 -10t-10.5 0.5q-22 49 -77 49q-88 0 -114 -128zM181 186q-40 0 -86 -37 q-1 -9 -1 -20q-2 -39 17.5 -62.5t55.5 -23.5q37 0 59.5 23.5t22.5 58.5q0 28 -17.5 44.5t-50.5 16.5z" />
<glyph unicode="&#x2087;" horiz-adv-x="336" d="M101 -3l-5 -1q-4 0 -10 1t-12 3.5t-10.5 8.5t-4.5 15q0 14 21 39l194 243h-168q-36 0 -36 23q0 7 3 15t6 13t4 5h231q2 0 7.5 -5t10.5 -15.5t5 -21.5q0 -20 -22 -47z" />
<glyph unicode="&#x2088;" horiz-adv-x="336" d="M158 -7q-65 0 -102.5 26t-37.5 72q0 36 26 63t72 37q-50 20 -50 69q0 46 39 78t98 32q56 0 91 -25t35 -67q0 -35 -22.5 -60.5t-63.5 -35.5q60 -23 60 -77q0 -48 -39.5 -80t-105.5 -32zM161 41q37 0 59 19.5t22 49.5q0 25 -22 40.5t-59 15.5q-34 0 -57 -18.5t-23 -48.5 q0 -26 21.5 -42t58.5 -16zM195 206q34 0 54 17.5t20 45.5q0 24 -19.5 38t-51.5 14q-33 0 -53 -17.5t-20 -45.5q0 -24 19 -38t51 -14z" />
<glyph unicode="&#x2089;" horiz-adv-x="336" d="M137 43q45 0 73 29.5t41 93.5q-34 -36 -92 -36q-53 0 -83.5 26.5t-30.5 75.5q0 56 39.5 97t100.5 41q63 0 99 -37.5t36 -101.5q0 -49 -18 -105.5t-51 -89.5q-43 -43 -115 -43q-64 0 -95 31q-16 16 -16 35q0 15 9 23.5t16.5 8.5h9.5q22 -48 77 -48zM175 171q46 0 83 35 q3 21 3 34q0 79 -75 79q-37 0 -59.5 -24t-22.5 -61q0 -63 71 -63z" />
<glyph unicode="&#x208d;" horiz-adv-x="336" d="M209 -61q-36 0 -76 40q-64 60 -65 165q0 116 80 196q34 35 76 54t75 19q31 0 31 -27q0 -5 -2.5 -11t-5 -9.5t-3.5 -3.5q-74 -6 -123 -55q-65 -65 -65 -165q0 -76 48 -124q26 -24 56 -34q1 0 2 -2.5t2.5 -6.5t1.5 -8q0 -12 -9 -20t-23 -8z" />
<glyph unicode="&#x208e;" horiz-adv-x="336" d="M126 413q35 0 77 -40q63 -61 63 -165q0 -117 -79 -196q-34 -35 -76 -54t-75 -19q-31 0 -31 27q0 5 2.5 11t5 9.5t3.5 3.5q74 6 123 55q65 65 65 165q0 74 -48 124q-24 23 -55 34q-2 0 -4.5 5.5t-2.5 11.5q0 12 9 20t23 8z" />
<glyph unicode="&#x20ac;" horiz-adv-x="626" d="M99 376q-29 0 -29 16q0 23 12 35q7 7 24 7h71q36 93 88 145q80 80 193 80q93 0 150 -57q35 -35 35 -80q0 -18 -11.5 -30t-22 -12.5t-12.5 0.5q-29 122 -147 122q-80 0 -139 -59q-39 -39 -68 -109h216q29 0 29 -16q0 -23 -12 -35q-7 -7 -24 -7h-229q-13 -52 -18 -100h220 q29 0 29 -16q0 -23 -12 -35q-7 -7 -24 -7h-215q5 -76 48 -124t113 -48q97 0 164 98q1 2 9 -1t15.5 -12t7.5 -20q0 -25 -32 -57q-28 -28 -72.5 -47t-89.5 -19q-109 0 -168 61.5t-63 168.5h-70q-29 0 -29 16q0 23 12 35q7 7 24 7h65q7 54 20 100h-58z" />
<glyph unicode="&#x2122;" horiz-adv-x="677" d="M420 341q-21 0 -21 25v256q0 29 26 29h25q21 0 30 -22l63 -156l63 156q10 22 30 22h23q26 0 26 -29v-256q0 -25 -22 -25h-7q-21 0 -21 25v213l-65 -161q-5 -14 -28 -14q-11 0 -16.5 2t-7 4t-3.5 8l-66 160v-212q0 -25 -20 -25h-9zM210 341q-22 0 -22 25v234h-81 q-24 0 -24 22v4q0 22 24 22h214q24 0 24 -22v-4q0 -22 -24 -22h-80v-234q0 -25 -24 -25h-7z" />
<glyph unicode="&#x2212;" horiz-adv-x="600" d="M117 237q-33 0 -25 27l2 7q4 15 11.5 21t24.5 6h363q33 0 26 -27l-2 -7q-7 -27 -37 -27h-363z" />
<glyph unicode="&#x2219;" horiz-adv-x="221" d="M110 194q-48 0 -48 34q0 36 16 52q13 13 37 13q48 0 48 -34q0 -36 -16 -52q-13 -13 -37 -13z" />
<glyph unicode="&#x2260;" horiz-adv-x="600" d="M145 346q-31 0 -31 16q0 25 13 38q7 7 25 7h218l100 142q20 29 41 16l5 -3q21 -14 3 -40l-81 -115h74q31 0 31 -16q0 -25 -13 -38q-7 -7 -25 -7h-114l-117 -166h189q31 0 31 -16q0 -25 -13 -38q-7 -7 -25 -7h-219l-98 -141q-20 -29 -41 -16l-5 3q-21 14 -3 40l79 114h-73 q-31 0 -31 16q0 25 13 38q7 7 25 7h113l117 166h-188z" />
<glyph unicode="&#x2264;" horiz-adv-x="600" d="M205 434l258 -113q43 -24 39 -51q-1 -10 -6.5 -17.5t-10.5 -11t-7 -1.5l-323 152q-24 15 -24 40q0 36 42 56l389 138q2 1 6.5 -3t9.5 -12t5 -17q2 -26 -43 -47zM96 119q-31 0 -31 16q0 25 13 38q7 7 25 7h360q31 0 31 -16q0 -25 -13 -38q-7 -7 -25 -7h-360z" />
<glyph unicode="&#x2265;" horiz-adv-x="600" d="M96 273q-2 29 43 47l335 112l-258 114q-44 16 -39 51q1 10 6 17.5t10 10.5t8 2l323 -152q24 -9 24 -40q0 -39 -42 -56l-389 -138q-2 -1 -6.5 3t-9.5 12t-5 17zM96 119q-31 0 -31 16q0 25 13 38q7 7 25 7h360q31 0 31 -16q0 -25 -13 -38q-7 -7 -25 -7h-360z" />
<glyph unicode="&#x25fc;" horiz-adv-x="485" d="M0 485h485v-485h-485v485z" />
<glyph unicode="&#x2665;" horiz-adv-x="720" d="M378 -10q-26 21 -74 51.5t-85.5 56t-75.5 59t-59 74t-21 86.5v6q0 71 43 118t111 47h2q67 0 106 -39.5t53 -97.5q14 58 53 97.5t106 39.5h2q68 0 111 -47t43 -118v-6q0 -46 -21 -86.5t-59 -74t-75.5 -59t-85.5 -56t-74 -51.5z" />
<glyph unicode="&#xf6be;" horiz-adv-x="209" d="M-68 -203q-56 0 -83 27q-14 14 -14 28q0 11 6.5 21.5t13 15.5t7.5 4q25 -38 72 -38q30 0 48 18.5t27 64.5l108 511q7 31 30 31h8q33 0 27 -31l-111 -523q-27 -129 -139 -129z" />
<glyph unicode="&#xf6c3;" horiz-adv-x="500" d="M124 -234q-6 -6 -20 4t-10 16l107 167q1 2 15.5 -0.5t28.5 -12t14 -23.5q0 -22 -22 -45z" />
<glyph horiz-adv-x="758" d="M348 -109l-53 136l-134 -58q-24 -10 -39.5 5t-4.5 39l58 134l-136 53q-24 9 -24 31t24 31l136 53l-58 134q-11 24 4.5 39.5t39.5 4.5l134 -58l53 136q9 24 31 24t31 -24l53 -136l134 58q24 11 39.5 -4.5t4.5 -39.5l-58 -134l136 -53q24 -9 24 -31t-24 -31l-136 -53 l58 -134q11 -24 -4.5 -39.5t-39.5 -4.5l-134 58l-53 -136q-9 -24 -31 -24t-31 24zM379 -43l49 119q3 7 10.5 10.5t14.5 0.5l120 -50l-50 120q-3 7 0.5 14.5t10.5 10.5l119 49l-119 49q-7 3 -10.5 10.5t-0.5 14.5l50 120l-120 -50q-17 -7 -25 11l-49 119l-49 -119 q-3 -7 -10.5 -10.5t-14.5 -0.5l-120 50l50 -120q3 -7 -0.5 -14.5t-10.5 -10.5l-119 -49l119 -49q7 -3 10.5 -10.5t0.5 -14.5l-50 -120l120 50q7 3 14.5 -0.5t10.5 -10.5z" />
<glyph horiz-adv-x="400" d="M13 0q-28 0 -28 16q0 21 12 33q7 7 23 7h109l114 535h-107q-28 0 -28 16q0 21 12 33q7 7 23 7h284q28 0 28 -16q0 -21 -12 -33q-7 -7 -23 -7h-109l-114 -535h107q28 0 28 -16q0 -21 -12 -33q-7 -7 -23 -7h-284z" />
<glyph horiz-adv-x="380" d="M19 0q-29 0 -29 16q0 23 12 35q7 7 24 7h103l100 476q-30 -30 -73 -30q-40 0 -57 17q-12 12 -12 31q0 13 7.5 24.5t14.5 17t8 4.5q17 -25 57 -25q31 0 55.5 22.5t33.5 55.5h28q32 0 24 -35l-118 -558h89q29 0 29 -16q0 -23 -12 -35q-7 -7 -24 -7h-260z" />
<glyph horiz-adv-x="209" d="M190 596q-44 0 -44 33q0 21 12 36t34 15q44 0 44 -33q0 -21 -12 -36t-34 -15zM6 -200q-6 0 -12 2t-9.5 3.5t-3.5 2.5l136 641q7 31 30 31h8q33 0 27 -31l-124 -582q-7 -36 -19.5 -51.5t-32.5 -15.5z" />
<glyph horiz-adv-x="510" d="M179 -12q-76 0 -121 32t-45 87q0 91 82 132t283 45h10l1 4q14 67 -19.5 104t-108.5 37q-105 0 -155 -74q-1 -1 -7.5 2.5t-13.5 12.5t-7 20q0 31 50.5 64.5t139.5 33.5q106 0 155 -55t29 -150l-39 -182q-8 -36 1 -49.5t42 -14.5q2 0 0.5 -11t-12.5 -22.5t-33 -11.5 q-68 0 -65 74q-68 -78 -167 -78zM188 43q65 0 114.5 39t63.5 98l12 53l-29 -1q-107 -3 -166.5 -17.5t-81.5 -38.5t-22 -64q0 -30 30.5 -49.5t78.5 -19.5z" />
<glyph horiz-adv-x="496" d="M215 -212q-110 0 -188 32t-78 94q0 57 50.5 97t141.5 47q-24 20 -24 49q0 25 26 49q-76 44 -76 138q0 80 59 137t143 57q76 0 124 -43q20 43 45 65.5t48 22.5q21 0 31.5 -12t10.5 -24l-110 -82q24 -40 24 -88q0 -80 -58.5 -137.5t-141.5 -57.5q-30 0 -55 6q-4 -8 -4 -18 q0 -16 21 -29t84 -37q26 -10 42 -17t38.5 -19.5t35 -25t22 -30.5t9.5 -38q0 -63 -58 -99.5t-162 -36.5zM252 2l-48 18q-79 -3 -134.5 -28.5t-55.5 -68.5q0 -40 56.5 -61.5t141.5 -21.5q155 0 155 76q0 27 -29.5 46t-85.5 40zM241 185q63 0 99.5 41t36.5 97q0 48 -31 79.5 t-82 31.5q-60 0 -96 -41.5t-36 -97.5q0 -48 30.5 -79t78.5 -31z" />
<glyph horiz-adv-x="563" d="M336 -4q-31 0 -24 35l32 153h-295q-2 0 -7.5 7t-10.5 19t-5 22q0 27 32 65l316 362q2 2 10.5 -0.5t17.5 -11t9 -21.5q0 -20 -27 -51l-293 -330h267l38 181q6 31 34 31h7q31 0 24 -35l-37 -176h82q31 0 31 -17q0 -23 -13 -38q-6 -7 -26 -7h-88l-33 -157q-4 -18 -11 -24.5 t-23 -6.5h-7z" />
<glyph horiz-adv-x="647" d="M272 -13q-122 0 -173.5 76.5t-20.5 221.5l71 335q7 31 34 31h9q32 0 24 -35l-71 -336q-24 -114 10.5 -172.5t121.5 -58.5q71 0 129.5 47t85.5 125l86 399q7 31 34 31h8q32 0 24 -35l-102 -481q-11 -52 3.5 -73t53.5 -21q2 0 0.5 -12t-14 -24.5t-36.5 -12.5 q-35 0 -57.5 24t-21.5 75q-72 -104 -198 -104z" />
<glyph horiz-adv-x="558" d="M226 -4q-32 0 -24 35l49 233q-94 17 -130.5 89.5t-11.5 195.5l15 73q6 29 32 29h13q14 0 20 -9t3 -23l-16 -73q-50 -228 132 -228q161 0 205 212l19 92q6 29 31 29h13q28 0 22 -32l-21 -97q-27 -127 -90 -192.5t-169 -69.5l-49 -233q-7 -31 -34 -31h-9z" />
<glyph horiz-adv-x="535" d="M185 -200q-111 0 -168 57q-31 31 -31 59q0 18 11.5 29t23 14t12.5 0q27 -100 158 -100t164 155l16 71q-57 -87 -156 -87q-94 0 -136.5 61t-21.5 158l49 232q7 31 30 31h8q33 0 27 -31l-50 -237q-15 -69 12.5 -111t90.5 -42q54 0 93 28t74 87l58 275q6 31 30 31h8 q33 0 27 -31l-95 -441q-48 -208 -234 -208z" />
<glyph horiz-adv-x="706" d="M365 -11q-139 0 -221.5 80t-82.5 202q0 167 108.5 277.5t261.5 110.5q124 0 198 -74q39 -39 39 -71q0 -17 -11.5 -27.5t-22 -10.5h-12.5q-20 54 -73.5 89t-132.5 35q-111 0 -197 -93.5t-86 -235.5q0 -95 62.5 -159t171.5 -64q97 0 156.5 56.5t70.5 153.5h-225 q-31 0 -31 16q0 25 13 38q7 7 25 7h249q39 0 39 -32q0 -48 -20.5 -110t-67.5 -109q-79 -79 -211 -79z" />
<glyph horiz-adv-x="526" d="M264 -12q-108 0 -170.5 58t-62.5 159q0 116 79 199.5t189 83.5q92 0 146 -55t54 -145q0 -41 -14 -55q-13 -13 -38 -13h-352v-16q0 -71 47 -114.5t123 -43.5q90 0 151 70q2 2 9 -1.5t14 -12t7 -18.5q0 -18 -19 -37q-25 -25 -70.5 -42t-92.5 -17zM296 431q-68 0 -119 -44 t-71 -111h324q2 14 2 22q0 62 -36 97.5t-100 35.5z" />
<glyph horiz-adv-x="510" d="M179 -12q-76 0 -121 32t-45 87q0 91 82 132t283 45h10l1 4q14 67 -19.5 104t-108.5 37q-105 0 -155 -74q-1 -1 -7.5 2.5t-13.5 12.5t-7 20q0 31 50.5 64.5t139.5 33.5q106 0 155 -55t29 -150l-39 -182q-8 -36 1 -49.5t42 -14.5q2 0 0.5 -11t-12.5 -22.5t-33 -11.5 q-68 0 -65 74q-68 -78 -167 -78zM188 43q65 0 114.5 39t63.5 98l12 53l-29 -1q-107 -3 -166.5 -17.5t-81.5 -38.5t-22 -64q0 -30 30.5 -49.5t78.5 -19.5zM250 551q-2 3 19.5 25t57.5 52.5t67 48.5q24 15 46 15q12 0 20.5 -8t8.5 -20q0 -24 -41 -48q-34 -20 -77 -37t-71 -24 t-30 -4z" />
<glyph horiz-adv-x="510" d="M179 -12q-76 0 -121 32t-45 87q0 91 82 132t283 45h10l1 4q14 67 -19.5 104t-108.5 37q-105 0 -155 -74q-1 -1 -7.5 2.5t-13.5 12.5t-7 20q0 31 50.5 64.5t139.5 33.5q106 0 155 -55t29 -150l-39 -182q-8 -36 1 -49.5t42 -14.5q2 0 0.5 -11t-12.5 -22.5t-33 -11.5 q-68 0 -65 74q-68 -78 -167 -78zM188 43q65 0 114.5 39t63.5 98l12 53l-29 -1q-107 -3 -166.5 -17.5t-81.5 -38.5t-22 -64q0 -30 30.5 -49.5t78.5 -19.5zM333 548q-46 0 -89.5 36t-43.5 71q0 11 7 19t18 8q35 0 107 -91q87 91 125 91q10 0 17.5 -7t7.5 -17q0 -32 -49 -71 t-100 -39z" />
<glyph horiz-adv-x="510" d="M179 -12q-76 0 -121 32t-45 87q0 91 82 132t283 45h10l1 4q14 67 -19.5 104t-108.5 37q-105 0 -155 -74q-1 -1 -7.5 2.5t-13.5 12.5t-7 20q0 31 50.5 64.5t139.5 33.5q106 0 155 -55t29 -150l-39 -182q-8 -36 1 -49.5t42 -14.5q2 0 0.5 -11t-12.5 -22.5t-33 -11.5 q-68 0 -65 74q-68 -78 -167 -78zM188 43q65 0 114.5 39t63.5 98l12 53l-29 -1q-107 -3 -166.5 -17.5t-81.5 -38.5t-22 -64q0 -30 30.5 -49.5t78.5 -19.5zM204 549q-19 0 -19 17q0 30 67 86q20 17 42.5 33.5t35.5 25t15 8.5t11.5 -9t24 -24.5t26.5 -30.5q39 -51 39 -77 q0 -29 -24 -29q-12 0 -24 13.5t-32 47.5l-29 51l-51 -53q-57 -59 -82 -59z" />
<glyph horiz-adv-x="510" d="M179 -12q-76 0 -121 32t-45 87q0 91 82 132t283 45h10l1 4q14 67 -19.5 104t-108.5 37q-105 0 -155 -74q-1 -1 -7.5 2.5t-13.5 12.5t-7 20q0 31 50.5 64.5t139.5 33.5q106 0 155 -55t29 -150l-39 -182q-8 -36 1 -49.5t42 -14.5q2 0 0.5 -11t-12.5 -22.5t-33 -11.5 q-68 0 -65 74q-68 -78 -167 -78zM188 43q65 0 114.5 39t63.5 98l12 53l-29 -1q-107 -3 -166.5 -17.5t-81.5 -38.5t-22 -64q0 -30 30.5 -49.5t78.5 -19.5zM403 548q-49 0 -49 38q0 24 13.5 41t37.5 17q49 0 49 -38q0 -24 -13.5 -41t-37.5 -17zM235 548q-49 0 -49 38 q0 24 13.5 41t37.5 17q49 0 49 -38q0 -24 -13.5 -41t-37.5 -17z" />
<glyph horiz-adv-x="510" d="M179 -12q-76 0 -121 32t-45 87q0 91 82 132t283 45h10l1 4q14 67 -19.5 104t-108.5 37q-105 0 -155 -74q-1 -1 -7.5 2.5t-13.5 12.5t-7 20q0 31 50.5 64.5t139.5 33.5q106 0 155 -55t29 -150l-39 -182q-8 -36 1 -49.5t42 -14.5q2 0 0.5 -11t-12.5 -22.5t-33 -11.5 q-68 0 -65 74q-68 -78 -167 -78zM188 43q65 0 114.5 39t63.5 98l12 53l-29 -1q-107 -3 -166.5 -17.5t-81.5 -38.5t-22 -64q0 -30 30.5 -49.5t78.5 -19.5zM362 551q-3 -3 -28 5.5t-61 27.5t-64 42q-30 25 -30 49q0 12 10 20.5t22 8.5q21 0 45 -21q27 -22 53.5 -53.5t41 -53.5 t11.5 -25z" />
<glyph horiz-adv-x="510" d="M179 -12q-76 0 -121 32t-45 87q0 91 82 132t283 45h10l1 4q14 67 -19.5 104t-108.5 37q-105 0 -155 -74q-1 -1 -7.5 2.5t-13.5 12.5t-7 20q0 31 50.5 64.5t139.5 33.5q106 0 155 -55t29 -150l-39 -182q-8 -36 1 -49.5t42 -14.5q2 0 0.5 -11t-12.5 -22.5t-33 -11.5 q-68 0 -65 74q-68 -78 -167 -78zM188 43q65 0 114.5 39t63.5 98l12 53l-29 -1q-107 -3 -166.5 -17.5t-81.5 -38.5t-22 -64q0 -30 30.5 -49.5t78.5 -19.5zM218 568q-31 0 -31 18q0 22 12 36q7 8 26 8h220q31 0 31 -18q0 -22 -12 -36q-7 -8 -26 -8h-220z" />
<glyph horiz-adv-x="510" d="M179 -12q-76 0 -121 32t-45 87q0 91 82 132t283 45h10l1 4q14 67 -19.5 104t-108.5 37q-105 0 -155 -74q-1 -1 -7.5 2.5t-13.5 12.5t-7 20q0 31 50.5 64.5t139.5 33.5q106 0 155 -55t29 -150l-39 -182q-8 -36 1 -49.5t42 -14.5q0 -2 0.5 -8.5t-6 -17.5t-18.5 -15 q-101 -56 -101 -109q0 -15 9 -24t24 -9q22 0 37 18q10 -2 18 -10t8 -20q0 -20 -18.5 -33t-49.5 -13q-40 0 -65.5 22t-25.5 57q0 75 108 125q-33 15 -30 66q-68 -78 -167 -78zM188 43q65 0 114.5 39t63.5 98l12 53l-29 -1q-107 -3 -166.5 -17.5t-81.5 -38.5t-22 -64 q0 -30 30.5 -49.5t78.5 -19.5z" />
<glyph horiz-adv-x="510" d="M179 -12q-76 0 -121 32t-45 87q0 91 82 132t283 45h10l1 4q14 67 -19.5 104t-108.5 37q-105 0 -155 -74q-1 -1 -7.5 2.5t-13.5 12.5t-7 20q0 31 50.5 64.5t139.5 33.5q106 0 155 -55t29 -150l-39 -182q-8 -36 1 -49.5t42 -14.5q2 0 0.5 -11t-12.5 -22.5t-33 -11.5 q-68 0 -65 74q-68 -78 -167 -78zM188 43q65 0 114.5 39t63.5 98l12 53l-29 -1q-107 -3 -166.5 -17.5t-81.5 -38.5t-22 -64q0 -30 30.5 -49.5t78.5 -19.5zM331 550q-48 0 -78.5 28.5t-30.5 72.5q0 54 37 94t93 40q48 0 78.5 -28.5t30.5 -72.5q0 -54 -37 -94t-93 -40zM333 595 q34 0 55.5 26t21.5 59q0 25 -17 42.5t-43 17.5q-34 0 -55.5 -26t-21.5 -59q0 -25 17 -42.5t43 -17.5z" />
<glyph horiz-adv-x="569" d="M300 822q-2 3 19.5 25t57.5 52.5t67 48.5q24 15 46 15q12 0 20.5 -8.5t8.5 -19.5q0 -24 -41 -48q-34 -20 -77 -37t-71 -24t-30 -4zM179 -12q-76 0 -121 32t-45 87q0 91 82 132t283 45h10l1 4q14 67 -19.5 104t-108.5 37q-105 0 -155 -74q-1 -1 -7.5 2.5t-13.5 12.5t-7 20 q0 31 50.5 64.5t139.5 33.5q106 0 155 -55t29 -150l-39 -182q-8 -36 1 -49.5t42 -14.5q2 0 0.5 -11t-12.5 -22.5t-33 -11.5q-68 0 -65 74q-68 -78 -167 -78zM188 43q65 0 114.5 39t63.5 98l12 53l-29 -1q-107 -3 -166.5 -17.5t-81.5 -38.5t-22 -64q0 -30 30.5 -49.5 t78.5 -19.5zM331 550q-48 0 -78.5 28.5t-30.5 72.5q0 54 37 94t93 40q48 0 78.5 -28.5t30.5 -72.5q0 -54 -37 -94t-93 -40zM333 595q34 0 55.5 26t21.5 59q0 25 -17 42.5t-43 17.5q-34 0 -55.5 -26t-21.5 -59q0 -25 17 -42.5t43 -17.5z" />
<glyph horiz-adv-x="510" d="M179 -12q-76 0 -121 32t-45 87q0 91 82 132t283 45h10l1 4q14 67 -19.5 104t-108.5 37q-105 0 -155 -74q-1 -1 -7.5 2.5t-13.5 12.5t-7 20q0 31 50.5 64.5t139.5 33.5q106 0 155 -55t29 -150l-39 -182q-8 -36 1 -49.5t42 -14.5q2 0 0.5 -11t-12.5 -22.5t-33 -11.5 q-68 0 -65 74q-68 -78 -167 -78zM188 43q65 0 114.5 39t63.5 98l12 53l-29 -1q-107 -3 -166.5 -17.5t-81.5 -38.5t-22 -64q0 -30 30.5 -49.5t78.5 -19.5zM391 548q-25 0 -63 21.5t-76 58.5q-31 -73 -54 -73t-23 20q0 34 25 65t55 31q25 0 63 -21.5t76 -58.5q31 73 54 73 t23 -20q0 -34 -25 -65t-55 -31z" />
<glyph horiz-adv-x="558" d="M226 -4q-32 0 -24 35l49 233q-94 17 -130.5 89.5t-11.5 195.5l15 73q6 29 32 29h13q14 0 20 -9t3 -23l-16 -73q-50 -228 132 -228q161 0 205 212l19 92q6 29 31 29h13q28 0 22 -32l-21 -97q-27 -127 -90 -192.5t-169 -69.5l-49 -233q-7 -31 -34 -31h-9zM312 711 q-2 3 19.5 25t57.5 52.5t67 48.5q24 15 46 15q12 0 20.5 -8t8.5 -20q0 -24 -41 -48q-34 -20 -77 -37t-71 -24t-30 -4z" />
<glyph horiz-adv-x="558" d="M226 -4q-32 0 -24 35l49 233q-94 17 -130.5 89.5t-11.5 195.5l15 73q6 29 32 29h13q14 0 20 -9t3 -23l-16 -73q-50 -228 132 -228q161 0 205 212l19 92q6 29 31 29h13q28 0 22 -32l-21 -97q-27 -127 -90 -192.5t-169 -69.5l-49 -233q-7 -31 -34 -31h-9zM257 714 q-19 0 -19 17q0 30 67 86q20 17 42.5 33.5t35.5 25t15 8.5t11.5 -9t24 -24.5t26.5 -30.5q39 -51 39 -77q0 -29 -24 -29q-12 0 -24 13.5t-32 47.5l-29 51l-51 -53q-57 -59 -82 -59z" />
<glyph horiz-adv-x="558" d="M226 -4q-32 0 -24 35l49 233q-94 17 -130.5 89.5t-11.5 195.5l15 73q6 29 32 29h13q14 0 20 -9t3 -23l-16 -73q-50 -228 132 -228q161 0 205 212l19 92q6 29 31 29h13q28 0 22 -32l-21 -97q-27 -127 -90 -192.5t-169 -69.5l-49 -233q-7 -31 -34 -31h-9zM454 708 q-49 0 -49 38q0 24 13.5 41t37.5 17q49 0 49 -38q0 -24 -13.5 -41t-37.5 -17zM286 708q-49 0 -49 38q0 24 13.5 41t37.5 17q49 0 49 -38q0 -24 -13.5 -41t-37.5 -17z" />
<glyph horiz-adv-x="209" d="M64 549q-19 0 -19 17q0 30 67 86q20 17 42.5 33.5t35.5 25t15 8.5t11.5 -9t24 -24.5t26.5 -30.5q39 -51 39 -77q0 -29 -24 -29q-12 0 -24 13.5t-32 47.5l-29 51l-51 -53q-57 -59 -82 -59zM6 -200q-6 0 -12 2t-9.5 3.5t-3.5 2.5l136 641q7 31 30 31h8q33 0 27 -31 l-124 -582q-7 -36 -19.5 -51.5t-32.5 -15.5z" />
<glyph horiz-adv-x="706" d="M365 -11q-139 0 -221.5 80t-82.5 202q0 167 108.5 277.5t261.5 110.5q124 0 198 -74q39 -39 39 -71q0 -17 -11.5 -27.5t-22 -10.5h-12.5q-20 54 -73.5 89t-132.5 35q-111 0 -197 -93.5t-86 -235.5q0 -95 62.5 -159t171.5 -64q97 0 156.5 56.5t70.5 153.5h-225 q-31 0 -31 16q0 25 13 38q7 7 25 7h249q39 0 39 -32q0 -48 -20.5 -110t-67.5 -109q-79 -79 -211 -79zM444 713q-46 0 -89.5 36t-43.5 71q0 11 7 19t18 8q35 0 107 -91q87 91 125 91q10 0 17.5 -7t7.5 -17q0 -32 -49 -71t-100 -39z" />
<glyph horiz-adv-x="706" d="M365 -11q-139 0 -221.5 80t-82.5 202q0 167 108.5 277.5t261.5 110.5q124 0 198 -74q39 -39 39 -71q0 -17 -11.5 -27.5t-22 -10.5h-12.5q-20 54 -73.5 89t-132.5 35q-111 0 -197 -93.5t-86 -235.5q0 -95 62.5 -159t171.5 -64q97 0 156.5 56.5t70.5 153.5h-225 q-31 0 -31 16q0 25 13 38q7 7 25 7h249q39 0 39 -32q0 -48 -20.5 -110t-67.5 -109q-79 -79 -211 -79zM333 714q-19 0 -19 17q0 30 67 86q20 17 42.5 33.5t35.5 25t15 8.5t11.5 -9t24 -24.5t26.5 -30.5q39 -51 39 -77q0 -29 -24 -29q-12 0 -24 13.5t-32 47.5l-29 51l-51 -53 q-57 -59 -82 -59z" />
<glyph horiz-adv-x="706" d="M365 -11q-139 0 -221.5 80t-82.5 202q0 167 108.5 277.5t261.5 110.5q124 0 198 -74q39 -39 39 -71q0 -17 -11.5 -27.5t-22 -10.5h-12.5q-20 54 -73.5 89t-132.5 35q-111 0 -197 -93.5t-86 -235.5q0 -95 62.5 -159t171.5 -64q97 0 156.5 56.5t70.5 153.5h-225 q-31 0 -31 16q0 25 13 38q7 7 25 7h249q39 0 39 -32q0 -48 -20.5 -110t-67.5 -109q-79 -79 -211 -79zM227 -234q-6 -6 -20 4t-10 16l107 167q1 2 15.5 -0.5t28.5 -12t14 -23.5q0 -22 -22 -45z" />
<glyph horiz-adv-x="706" d="M365 -11q-139 0 -221.5 80t-82.5 202q0 167 108.5 277.5t261.5 110.5q124 0 198 -74q39 -39 39 -71q0 -17 -11.5 -27.5t-22 -10.5h-12.5q-20 54 -73.5 89t-132.5 35q-111 0 -197 -93.5t-86 -235.5q0 -95 62.5 -159t171.5 -64q97 0 156.5 56.5t70.5 153.5h-225 q-31 0 -31 16q0 25 13 38q7 7 25 7h249q39 0 39 -32q0 -48 -20.5 -110t-67.5 -109q-79 -79 -211 -79zM430 714q-54 0 -54 41q0 26 14.5 44.5t41.5 18.5q54 0 54 -41q0 -26 -14.5 -44.5t-41.5 -18.5z" />
<glyph horiz-adv-x="647" d="M272 -13q-122 0 -173.5 76.5t-20.5 221.5l71 335q7 31 34 31h9q32 0 24 -35l-71 -336q-24 -114 10.5 -172.5t121.5 -58.5q71 0 129.5 47t85.5 125l86 399q7 31 34 31h8q32 0 24 -35l-102 -481q-11 -52 3.5 -73t53.5 -21q2 0 0.5 -12t-14 -24.5t-36.5 -12.5 q-35 0 -57.5 24t-21.5 75q-72 -104 -198 -104zM356 711q-2 3 19.5 25t57.5 52.5t67 48.5q24 15 46 15q12 0 20.5 -8t8.5 -20q0 -24 -41 -48q-34 -20 -77 -37t-71 -24t-30 -4z" />
<glyph horiz-adv-x="647" d="M272 -13q-122 0 -173.5 76.5t-20.5 221.5l71 335q7 31 34 31h9q32 0 24 -35l-71 -336q-24 -114 10.5 -172.5t121.5 -58.5q71 0 129.5 47t85.5 125l86 399q7 31 34 31h8q32 0 24 -35l-102 -481q-11 -52 3.5 -73t53.5 -21q2 0 0.5 -12t-14 -24.5t-36.5 -12.5 q-35 0 -57.5 24t-21.5 75q-72 -104 -198 -104zM426 713q-46 0 -89.5 36t-43.5 71q0 11 7 19t18 8q35 0 107 -91q87 91 125 91q10 0 17.5 -7t7.5 -17q0 -32 -49 -71t-100 -39z" />
<glyph horiz-adv-x="647" d="M272 -13q-122 0 -173.5 76.5t-20.5 221.5l71 335q7 31 34 31h9q32 0 24 -35l-71 -336q-24 -114 10.5 -172.5t121.5 -58.5q71 0 129.5 47t85.5 125l86 399q7 31 34 31h8q32 0 24 -35l-102 -481q-11 -52 3.5 -73t53.5 -21q2 0 0.5 -12t-14 -24.5t-36.5 -12.5 q-35 0 -57.5 24t-21.5 75q-72 -104 -198 -104zM310 709q-19 0 -19 17q0 30 67 86q20 17 42.5 33.5t35.5 25t15 8.5t11.5 -9t24 -24.5t26.5 -30.5q39 -51 39 -77q0 -29 -24 -29q-12 0 -24 13.5t-32 47.5l-29 51l-51 -53q-57 -59 -82 -59z" />
<glyph horiz-adv-x="647" d="M272 -13q-122 0 -173.5 76.5t-20.5 221.5l71 335q7 31 34 31h9q32 0 24 -35l-71 -336q-24 -114 10.5 -172.5t121.5 -58.5q71 0 129.5 47t85.5 125l86 399q7 31 34 31h8q32 0 24 -35l-102 -481q-11 -52 3.5 -73t53.5 -21q2 0 0.5 -12t-14 -24.5t-36.5 -12.5 q-35 0 -57.5 24t-21.5 75q-72 -104 -198 -104zM511 708q-49 0 -49 38q0 24 13.5 41t37.5 17q49 0 49 -38q0 -24 -13.5 -41t-37.5 -17zM343 708q-49 0 -49 38q0 24 13.5 41t37.5 17q49 0 49 -38q0 -24 -13.5 -41t-37.5 -17z" />
<glyph horiz-adv-x="647" d="M272 -13q-122 0 -173.5 76.5t-20.5 221.5l71 335q7 31 34 31h9q32 0 24 -35l-71 -336q-24 -114 10.5 -172.5t121.5 -58.5q71 0 129.5 47t85.5 125l86 399q7 31 34 31h8q32 0 24 -35l-102 -481q-11 -52 3.5 -73t53.5 -21q2 0 0.5 -12t-14 -24.5t-36.5 -12.5 q-35 0 -57.5 24t-21.5 75q-72 -104 -198 -104zM481 711q-3 -3 -28 5.5t-61 27.5t-64 42q-30 25 -30 49q0 12 10 20.5t22 8.5q20 0 45 -21q27 -22 53.5 -53.5t41 -53.5t11.5 -25z" />
<glyph horiz-adv-x="647" d="M272 -13q-122 0 -173.5 76.5t-20.5 221.5l71 335q7 31 34 31h9q32 0 24 -35l-71 -336q-24 -114 10.5 -172.5t121.5 -58.5q71 0 129.5 47t85.5 125l86 399q7 31 34 31h8q32 0 24 -35l-102 -481q-11 -52 3.5 -73t53.5 -21q2 0 0.5 -12t-14 -24.5t-36.5 -12.5 q-35 0 -57.5 24t-21.5 75q-72 -104 -198 -104zM466 716q-2 3 15.5 24.5t49 52t60.5 51.5q24 18 46 18q12 0 21 -7.5t9 -19.5q0 -25 -37 -50q-31 -21 -70 -39t-65 -25.5t-29 -4.5zM287 716q-2 3 15.5 24.5t49 52t60.5 51.5q24 18 46 18q12 0 21 -7.5t9 -19.5q0 -25 -37 -50 q-31 -21 -70 -39t-65 -25.5t-29 -4.5z" />
<glyph horiz-adv-x="647" d="M272 -13q-122 0 -173.5 76.5t-20.5 221.5l71 335q7 31 34 31h9q32 0 24 -35l-71 -336q-24 -114 10.5 -172.5t121.5 -58.5q71 0 129.5 47t85.5 125l86 399q7 31 34 31h8q32 0 24 -35l-102 -481q-11 -52 3.5 -73t53.5 -21q2 0 0.5 -12t-14 -24.5t-36.5 -12.5 q-35 0 -57.5 24t-21.5 75q-72 -104 -198 -104zM317 733q-31 0 -31 18q0 22 12 36q7 8 26 8h220q31 0 31 -18q0 -22 -12 -36q-7 -8 -26 -8h-220z" />
<glyph horiz-adv-x="647" d="M272 -13q-122 0 -173.5 76.5t-20.5 221.5l71 335q7 31 34 31h9q32 0 24 -35l-71 -336q-24 -114 10.5 -172.5t121.5 -58.5q71 0 129.5 47t85.5 125l86 399q7 31 34 31h8q32 0 24 -35l-102 -481q-11 -52 3.5 -73t53.5 -21q0 -2 0.5 -9t-6.5 -18.5t-19 -16.5 q-101 -56 -101 -109q0 -15 9 -24t24 -9q22 0 37 18q10 -2 18 -10t8 -20q0 -20 -18.5 -33t-49.5 -13q-40 0 -65.5 22t-25.5 57q0 73 105 123q-46 19 -45 92q-72 -104 -198 -104z" />
<glyph horiz-adv-x="647" d="M272 -13q-122 0 -173.5 76.5t-20.5 221.5l71 335q7 31 34 31h9q32 0 24 -35l-71 -336q-24 -114 10.5 -172.5t121.5 -58.5q71 0 129.5 47t85.5 125l86 399q7 31 34 31h8q32 0 24 -35l-102 -481q-11 -52 3.5 -73t53.5 -21q2 0 0.5 -12t-14 -24.5t-36.5 -12.5 q-35 0 -57.5 24t-21.5 75q-72 -104 -198 -104zM424 715q-48 0 -78.5 28.5t-30.5 72.5q0 54 37 94t93 40q48 0 78.5 -28.5t30.5 -72.5q0 -54 -37 -94t-93 -40zM426 760q34 0 55.5 26t21.5 59q0 25 -17 42.5t-43 17.5q-34 0 -55.5 -26t-21.5 -59q0 -25 17 -42.5t43 -17.5z" />
<glyph horiz-adv-x="526" d="M264 -12q-108 0 -170.5 58t-62.5 159q0 116 79 199.5t189 83.5q92 0 146 -55t54 -145q0 -41 -14 -55q-13 -13 -38 -13h-352v-16q0 -71 47 -114.5t123 -43.5q90 0 151 70q2 2 9 -1.5t14 -12t7 -18.5q0 -18 -19 -37q-25 -25 -70.5 -42t-92.5 -17zM296 431q-68 0 -119 -44 t-71 -111h324q2 14 2 22q0 62 -36 97.5t-100 35.5zM205 551q-2 3 19.5 25t57.5 52.5t67 48.5q24 15 46 15q13 0 21 -8t8 -20q0 -24 -41 -48q-34 -20 -77 -37t-71 -24t-30 -4z" />
<glyph horiz-adv-x="526" d="M264 -12q-108 0 -170.5 58t-62.5 159q0 116 79 199.5t189 83.5q92 0 146 -55t54 -145q0 -41 -14 -55q-13 -13 -38 -13h-352v-16q0 -71 47 -114.5t123 -43.5q90 0 151 70q2 2 9 -1.5t14 -12t7 -18.5q0 -18 -19 -37q-25 -25 -70.5 -42t-92.5 -17zM296 431q-68 0 -119 -44 t-71 -111h324q2 14 2 22q0 62 -36 97.5t-100 35.5zM310 548q-46 0 -89.5 36t-43.5 71q0 11 7 19t18 8q35 0 107 -91q87 91 125 91q10 0 17.5 -7t7.5 -17q0 -32 -49 -71t-100 -39z" />
<glyph horiz-adv-x="526" d="M264 -12q-108 0 -170.5 58t-62.5 159q0 116 79 199.5t189 83.5q92 0 146 -55t54 -145q0 -41 -14 -55q-13 -13 -38 -13h-352v-16q0 -71 47 -114.5t123 -43.5q90 0 151 70q2 2 9 -1.5t14 -12t7 -18.5q0 -18 -19 -37q-25 -25 -70.5 -42t-92.5 -17zM296 431q-68 0 -119 -44 t-71 -111h324q2 14 2 22q0 62 -36 97.5t-100 35.5zM296 533q-2 0 -11.5 9t-24.5 24.5t-26 30.5q-39 51 -39 77q0 29 24 29q15 0 31.5 -22.5t53.5 -89.5l51 53q57 59 82 59q19 0 19 -17q0 -30 -67 -86q-20 -17 -42.5 -33.5t-35.5 -25t-15 -8.5z" />
<glyph horiz-adv-x="526" d="M264 -12q-108 0 -170.5 58t-62.5 159q0 116 79 199.5t189 83.5q92 0 146 -55t54 -145q0 -41 -14 -55q-13 -13 -38 -13h-352v-16q0 -71 47 -114.5t123 -43.5q90 0 151 70q2 2 9 -1.5t14 -12t7 -18.5q0 -18 -19 -37q-25 -25 -70.5 -42t-92.5 -17zM296 431q-68 0 -119 -44 t-71 -111h324q2 14 2 22q0 62 -36 97.5t-100 35.5zM188 549q-19 0 -19 17q0 30 67 86q20 17 42.5 33.5t35.5 25t15 8.5t11.5 -9t24 -24.5t26.5 -30.5q39 -51 39 -77q0 -29 -24 -29q-12 0 -24 13.5t-32 47.5l-29 51l-51 -53q-57 -59 -82 -59z" />
<glyph horiz-adv-x="526" d="M264 -12q-108 0 -170.5 58t-62.5 159q0 116 79 199.5t189 83.5q92 0 146 -55t54 -145q0 -41 -14 -55q-13 -13 -38 -13h-352v-16q0 -71 47 -114.5t123 -43.5q90 0 151 70q2 2 9 -1.5t14 -12t7 -18.5q0 -18 -19 -37q-25 -25 -70.5 -42t-92.5 -17zM296 431q-68 0 -119 -44 t-71 -111h324q2 14 2 22q0 62 -36 97.5t-100 35.5zM393 548q-49 0 -49 38q0 24 13.5 41t37.5 17q49 0 49 -38q0 -24 -13.5 -41t-37.5 -17zM225 548q-49 0 -49 38q0 24 13.5 41t37.5 17q49 0 49 -38q0 -24 -13.5 -41t-37.5 -17z" />
<glyph horiz-adv-x="526" d="M264 -12q-108 0 -170.5 58t-62.5 159q0 116 79 199.5t189 83.5q92 0 146 -55t54 -145q0 -41 -14 -55q-13 -13 -38 -13h-352v-16q0 -71 47 -114.5t123 -43.5q90 0 151 70q2 2 9 -1.5t14 -12t7 -18.5q0 -18 -19 -37q-25 -25 -70.5 -42t-92.5 -17zM296 431q-68 0 -119 -44 t-71 -111h324q2 14 2 22q0 62 -36 97.5t-100 35.5zM309 549q-54 0 -54 41q0 26 14.5 44.5t41.5 18.5q54 0 54 -41q0 -26 -14.5 -44.5t-41.5 -18.5z" />
<glyph horiz-adv-x="526" d="M264 -12q-108 0 -170.5 58t-62.5 159q0 116 79 199.5t189 83.5q92 0 146 -55t54 -145q0 -41 -14 -55q-13 -13 -38 -13h-352v-16q0 -71 47 -114.5t123 -43.5q90 0 151 70q2 2 9 -1.5t14 -12t7 -18.5q0 -18 -19 -37q-25 -25 -70.5 -42t-92.5 -17zM296 431q-68 0 -119 -44 t-71 -111h324q2 14 2 22q0 62 -36 97.5t-100 35.5zM362 551q-3 -3 -28 5.5t-61 27.5t-64 42q-30 25 -30 49q0 12 10 20.5t22 8.5q21 0 45 -21q27 -22 53.5 -53.5t41 -53.5t11.5 -25z" />
<glyph horiz-adv-x="526" d="M264 -12q-108 0 -170.5 58t-62.5 159q0 116 79 199.5t189 83.5q92 0 146 -55t54 -145q0 -41 -14 -55q-13 -13 -38 -13h-352v-16q0 -71 47 -114.5t123 -43.5q90 0 151 70q2 2 9 -1.5t14 -12t7 -18.5q0 -18 -19 -37q-25 -25 -70.5 -42t-92.5 -17zM296 431q-68 0 -119 -44 t-71 -111h324q2 14 2 22q0 62 -36 97.5t-100 35.5zM194 568q-31 0 -31 18q0 22 12 36q7 8 26 8h220q31 0 31 -18q0 -22 -12 -36q-7 -8 -26 -8h-220z" />
<glyph horiz-adv-x="526" d="M264 -12q-108 0 -170.5 58t-62.5 159q0 116 79 199.5t189 83.5q92 0 146 -55t54 -145q0 -41 -14 -55q-13 -13 -38 -13h-352v-16q0 -71 47 -114.5t123 -43.5q90 0 151 70q2 2 9 -1.5t14 -12t7 -18.5q0 -18 -19 -37q-21 -21 -56 -36q-98 -55 -98 -107q0 -15 9 -24t24 -9 q22 0 37 18q10 -2 18 -10t8 -20q0 -20 -18.5 -33t-49.5 -13q-40 0 -65.5 22t-25.5 57q0 53 59 96h-5zM296 431q-68 0 -119 -44t-71 -111h324q2 14 2 22q0 62 -36 97.5t-100 35.5z" />
<glyph horiz-adv-x="400" d="M13 0q-28 0 -28 16q0 21 12 33q7 7 23 7h109l114 535h-107q-28 0 -28 16q0 21 12 33q7 7 23 7h284q28 0 28 -16q0 -21 -12 -33q-7 -7 -23 -7h-109l-114 -535h107q28 0 28 -16q0 -21 -12 -33q-7 -7 -23 -7h-284zM256 721q-2 3 19.5 25t57.5 52.5t67 48.5q24 15 46 15 q12 0 20.5 -8t8.5 -20q0 -24 -41 -48q-34 -20 -77 -37t-71 -24t-30 -4z" />
<glyph horiz-adv-x="400" d="M13 0q-28 0 -28 16q0 21 12 33q7 7 23 7h109l114 535h-107q-28 0 -28 16q0 21 12 33q7 7 23 7h284q28 0 28 -16q0 -21 -12 -33q-7 -7 -23 -7h-109l-114 -535h107q28 0 28 -16q0 -21 -12 -33q-7 -7 -23 -7h-284zM307 713q-46 0 -89.5 36t-43.5 71q0 11 7 19t18 8 q35 0 107 -91q87 91 125 91q10 0 17.5 -7t7.5 -17q0 -32 -49 -71t-100 -39z" />
<glyph horiz-adv-x="400" d="M13 0q-28 0 -28 16q0 21 12 33q7 7 23 7h109l114 535h-107q-28 0 -28 16q0 21 12 33q7 7 23 7h284q28 0 28 -16q0 -21 -12 -33q-7 -7 -23 -7h-109l-114 -535h107q28 0 28 -16q0 -21 -12 -33q-7 -7 -23 -7h-284zM190 719q-19 0 -19 17q0 30 67 86q20 17 42.5 33.5t35.5 25 t15 8.5t11.5 -9t24 -24.5t26.5 -30.5q39 -51 39 -77q0 -29 -24 -29q-12 0 -24 13.5t-32 47.5l-29 51l-51 -53q-57 -59 -82 -59z" />
<glyph horiz-adv-x="400" d="M13 0q-28 0 -28 16q0 21 12 33q7 7 23 7h109l114 535h-107q-28 0 -28 16q0 21 12 33q7 7 23 7h284q28 0 28 -16q0 -21 -12 -33q-7 -7 -23 -7h-109l-114 -535h107q28 0 28 -16q0 -21 -12 -33q-7 -7 -23 -7h-284zM389 718q-49 0 -49 38q0 24 13.5 41t37.5 17q49 0 49 -38 q0 -24 -13.5 -41t-37.5 -17zM221 718q-49 0 -49 38q0 24 13.5 41t37.5 17q49 0 49 -38q0 -24 -13.5 -41t-37.5 -17z" />
<glyph horiz-adv-x="400" d="M13 0q-28 0 -28 16q0 21 12 33q7 7 23 7h109l114 535h-107q-28 0 -28 16q0 21 12 33q7 7 23 7h284q28 0 28 -16q0 -21 -12 -33q-7 -7 -23 -7h-109l-114 -535h107q28 0 28 -16q0 -21 -12 -33q-7 -7 -23 -7h-284zM310 714q-54 0 -54 41q0 26 14.5 44.5t41.5 18.5 q54 0 54 -41q0 -26 -14.5 -44.5t-41.5 -18.5z" />
<glyph horiz-adv-x="400" d="M13 0q-28 0 -28 16q0 21 12 33q7 7 23 7h109l114 535h-107q-28 0 -28 16q0 21 12 33q7 7 23 7h284q28 0 28 -16q0 -21 -12 -33q-7 -7 -23 -7h-109l-114 -535h107q28 0 28 -16q0 -21 -12 -33q-7 -7 -23 -7h-284zM338 721q-3 -3 -28 5.5t-61 27.5t-64 42q-30 25 -30 49 q0 12 10 20.5t22 8.5q20 0 45 -21q27 -22 53.5 -53.5t41 -53.5t11.5 -25z" />
<glyph horiz-adv-x="400" d="M13 0q-28 0 -28 16q0 21 12 33q7 7 23 7h109l114 535h-107q-28 0 -28 16q0 21 12 33q7 7 23 7h284q28 0 28 -16q0 -21 -12 -33q-7 -7 -23 -7h-109l-114 -535h107q28 0 28 -16q0 -21 -12 -33q-7 -7 -23 -7h-284zM181 733q-31 0 -31 18q0 22 12 36q7 8 26 8h220 q31 0 31 -18q0 -22 -12 -36q-7 -8 -26 -8h-220z" />
<glyph horiz-adv-x="400" d="M13 0q-28 0 -28 16q0 21 12 33q7 7 23 7h109l114 535h-107q-28 0 -28 16q0 21 12 33q7 7 23 7h284q28 0 28 -16q0 -21 -12 -33q-7 -7 -23 -7h-109l-114 -535h107q28 0 28 -16q0 -21 -12 -33q-4 -3 -8 -5q-102 -56 -102 -109q0 -15 9 -24t24 -9q22 0 37 18q10 -2 18 -10 t8 -20q0 -20 -18.5 -33t-49.5 -13q-40 0 -65.5 22t-25.5 57q0 71 97 119h-231z" />
<glyph horiz-adv-x="496" d="M215 -212q-110 0 -188 32t-78 94q0 57 50.5 97t141.5 47q-24 20 -24 49q0 25 26 49q-76 44 -76 138q0 80 59 137t143 57q76 0 124 -43q20 43 45 65.5t48 22.5q21 0 31.5 -12t10.5 -24l-110 -82q24 -40 24 -88q0 -80 -58.5 -137.5t-141.5 -57.5q-30 0 -55 6q-4 -8 -4 -18 q0 -16 21 -29t84 -37q26 -10 42 -17t38.5 -19.5t35 -25t22 -30.5t9.5 -38q0 -63 -58 -99.5t-162 -36.5zM252 2l-48 18q-79 -3 -134.5 -28.5t-55.5 -68.5q0 -40 56.5 -61.5t141.5 -21.5q155 0 155 76q0 27 -29.5 46t-85.5 40zM241 185q63 0 99.5 41t36.5 97q0 48 -31 79.5 t-82 31.5q-60 0 -96 -41.5t-36 -97.5q0 -48 30.5 -79t78.5 -31zM303 548q-46 0 -89.5 36t-43.5 71q0 11 7 19t18 8q35 0 107 -91q87 91 125 91q10 0 17.5 -7t7.5 -17q0 -32 -49 -71t-100 -39z" />
<glyph horiz-adv-x="496" d="M215 -212q-110 0 -188 32t-78 94q0 57 50.5 97t141.5 47q-24 20 -24 49q0 25 26 49q-76 44 -76 138q0 80 59 137t143 57q76 0 124 -43q20 43 45 65.5t48 22.5q21 0 31.5 -12t10.5 -24l-110 -82q24 -40 24 -88q0 -80 -58.5 -137.5t-141.5 -57.5q-30 0 -55 6q-4 -8 -4 -18 q0 -16 21 -29t84 -37q26 -10 42 -17t38.5 -19.5t35 -25t22 -30.5t9.5 -38q0 -63 -58 -99.5t-162 -36.5zM252 2l-48 18q-79 -3 -134.5 -28.5t-55.5 -68.5q0 -40 56.5 -61.5t141.5 -21.5q155 0 155 76q0 27 -29.5 46t-85.5 40zM241 185q63 0 99.5 41t36.5 97q0 48 -31 79.5 t-82 31.5q-60 0 -96 -41.5t-36 -97.5q0 -48 30.5 -79t78.5 -31zM185 549q-19 0 -19 17q0 30 67 86q20 17 42.5 33.5t35.5 25t15 8.5t11.5 -9t24 -24.5t26.5 -30.5q39 -51 39 -77q0 -29 -24 -29q-12 0 -24 13.5t-32 47.5l-29 51l-51 -53q-57 -59 -82 -59z" />
<glyph horiz-adv-x="496" d="M215 -212q-110 0 -188 32t-78 94q0 57 50.5 97t141.5 47q-24 20 -24 49q0 25 26 49q-76 44 -76 138q0 80 59 137t143 57q76 0 124 -43q20 43 45 65.5t48 22.5q21 0 31.5 -12t10.5 -24l-110 -82q24 -40 24 -88q0 -80 -58.5 -137.5t-141.5 -57.5q-30 0 -55 6q-4 -8 -4 -18 q0 -16 21 -29t84 -37q26 -10 42 -17t38.5 -19.5t35 -25t22 -30.5t9.5 -38q0 -63 -58 -99.5t-162 -36.5zM252 2l-48 18q-79 -3 -134.5 -28.5t-55.5 -68.5q0 -40 56.5 -61.5t141.5 -21.5q155 0 155 76q0 27 -29.5 46t-85.5 40zM241 185q63 0 99.5 41t36.5 97q0 48 -31 79.5 t-82 31.5q-60 0 -96 -41.5t-36 -97.5q0 -48 30.5 -79t78.5 -31zM381 687q6 6 20 -4t10 -16l-107 -167q-1 -2 -15.5 0.5t-28.5 12t-14 23.5q0 22 22 45z" />
<glyph horiz-adv-x="496" d="M215 -212q-110 0 -188 32t-78 94q0 57 50.5 97t141.5 47q-24 20 -24 49q0 25 26 49q-76 44 -76 138q0 80 59 137t143 57q76 0 124 -43q20 43 45 65.5t48 22.5q21 0 31.5 -12t10.5 -24l-110 -82q24 -40 24 -88q0 -80 -58.5 -137.5t-141.5 -57.5q-30 0 -55 6q-4 -8 -4 -18 q0 -16 21 -29t84 -37q26 -10 42 -17t38.5 -19.5t35 -25t22 -30.5t9.5 -38q0 -63 -58 -99.5t-162 -36.5zM252 2l-48 18q-79 -3 -134.5 -28.5t-55.5 -68.5q0 -40 56.5 -61.5t141.5 -21.5q155 0 155 76q0 27 -29.5 46t-85.5 40zM241 185q63 0 99.5 41t36.5 97q0 48 -31 79.5 t-82 31.5q-60 0 -96 -41.5t-36 -97.5q0 -48 30.5 -79t78.5 -31zM301 549q-54 0 -54 41q0 26 14.5 44.5t41.5 18.5q54 0 54 -41q0 -26 -14.5 -44.5t-41.5 -18.5z" />
<glyph horiz-adv-x="535" d="M185 -200q-111 0 -168 57q-31 31 -31 59q0 18 11.5 29t23 14t12.5 0q27 -100 158 -100t164 155l16 71q-57 -87 -156 -87q-94 0 -136.5 61t-21.5 158l49 232q7 31 30 31h8q33 0 27 -31l-50 -237q-15 -69 12.5 -111t90.5 -42q54 0 93 28t74 87l58 275q6 31 30 31h8 q33 0 27 -31l-95 -441q-48 -208 -234 -208zM273 541q-2 3 19.5 25t57.5 52.5t67 48.5q24 15 46 15q13 0 21 -8t8 -20q0 -24 -41 -48q-34 -20 -77 -37t-71 -24t-30 -4z" />
<glyph horiz-adv-x="535" d="M185 -200q-111 0 -168 57q-31 31 -31 59q0 18 11.5 29t23 14t12.5 0q27 -100 158 -100t164 155l16 71q-57 -87 -156 -87q-94 0 -136.5 61t-21.5 158l49 232q7 31 30 31h8q33 0 27 -31l-50 -237q-15 -69 12.5 -111t90.5 -42q54 0 93 28t74 87l58 275q6 31 30 31h8 q33 0 27 -31l-95 -441q-48 -208 -234 -208zM217 549q-19 0 -19 17q0 30 67 86q20 17 42.5 33.5t35.5 25t15 8.5t11.5 -9t24 -24.5t26.5 -30.5q39 -51 39 -77q0 -29 -24 -29q-12 0 -24 13.5t-32 47.5l-29 51l-51 -53q-57 -59 -82 -59z" />
<glyph horiz-adv-x="535" d="M185 -200q-111 0 -168 57q-31 31 -31 59q0 18 11.5 29t23 14t12.5 0q27 -100 158 -100t164 155l16 71q-57 -87 -156 -87q-94 0 -136.5 61t-21.5 158l49 232q7 31 30 31h8q33 0 27 -31l-50 -237q-15 -69 12.5 -111t90.5 -42q54 0 93 28t74 87l58 275q6 31 30 31h8 q33 0 27 -31l-95 -441q-48 -208 -234 -208zM411 548q-49 0 -49 38q0 24 13.5 41t37.5 17q49 0 49 -38q0 -24 -13.5 -41t-37.5 -17zM243 548q-49 0 -49 38q0 24 13.5 41t37.5 17q49 0 49 -38q0 -24 -13.5 -41t-37.5 -17z" />
<glyph horiz-adv-x="600" d="M589 632q3 -1 8 -3t11.5 -10t4.5 -19q-4 -20 -36 -53q-6 -6 -105 -101.5t-158 -153.5l-330 -319q-2 -2 -9 1.5t-13 12t-4 18.5q3 14 9.5 23.5t26.5 29.5q11 12 51.5 51t107 103t103.5 100z" />
<glyph horiz-adv-x="168" d="M82 107q-12 0 -15.5 4.5t-3.5 18.5l24 201q1 35 37 35q54 0 37 -42l-61 -199q-7 -18 -18 -18zM58 -4q-34 0 -34 25q0 26 12 38q10 9 30 9q34 0 34 -25t-13 -38q-9 -9 -29 -9z" />
<glyph horiz-adv-x="336" d="M240 206q-12 0 -16.5 4t-3.5 17l10 104q1 35 33 35q46 0 32 -42l-37 -101q-6 -17 -18 -17zM134 206q-11 0 -15.5 4t-3.5 17l7 104q1 35 33 35q47 0 33 -42l-35 -101q-7 -17 -19 -17z" />
<glyph horiz-adv-x="336" d="M29 85q-26 0 -26 17q0 6 5 18q6 12 24 12h45l40 98h-34q-26 0 -26 17q0 8 5 18q6 12 24 12h51l37 90q3 3 8 3q10 0 18 -8t6 -24q0 -4 -6 -22l-17 -39h78l38 90q3 3 8 3q10 0 18 -8t6 -24q-2 -10 -6 -22l-16 -39h29q25 0 25 -15q0 -4 -5 -19q-6 -13 -24 -13h-45l-40 -98 h35q25 0 25 -15q0 -4 -5 -19q-6 -13 -24 -13h-51l-37 -90q0 -2 -8 -2q-11 0 -18.5 7.5t-5.5 23.5q0 9 6 21l16 40h-78l-37 -90q0 -2 -8 -2q-10 0 -18 7.5t-6 23.5q0 5 6 21l16 40h-28zM163 231l-41 -99h81l40 99h-80z" />
<glyph horiz-adv-x="336" d="M295 104q0 -48 -33 -77t-97 -29l-5 -27q-7 -29 -28 -29h-5q-11 0 -18 7.5t-4 21.5l7 31q-48 9 -72 35q-21 19 -21 44q0 10 6.5 18t13 10.5t7.5 1.5q15 -28 43 -45t61 -19q40 -2 65.5 12t25.5 41q0 9 -4 16t-15 14t-18 10.5t-24 10t-23 9.5q-27 12 -43 21t-31 30.5 t-15 50.5q0 43 32 72.5t90 31.5l5 24q6 29 27 29h5q12 0 18.5 -7.5t3.5 -21.5l-6 -29q42 -9 65 -32q18 -18 18 -39q0 -12 -7 -20.5t-14 -11t-8 -0.5q-32 57 -99 58q-32 1 -54 -13.5t-22 -36.5q0 -6 1 -10.5t4.5 -9t6 -8t8.5 -7.5t9 -6.5t11.5 -6t12 -5t13.5 -6t13 -5.5 q30 -12 46.5 -21.5t32 -29.5t15.5 -47z" />
<glyph horiz-adv-x="336" d="M109 209q-34 0 -54 21t-20 53q0 38 25.5 64.5t64.5 26.5q34 0 54 -22t20 -55q0 -37 -25.5 -62.5t-64.5 -25.5zM10 -6q-2 -1 -7.5 1t-10 7.5t-4.5 12.5q0 12 20 29l339 326q1 1 6.5 -1t10.5 -7.5t4 -12.5q-1 -13 -20 -29zM111 247q20 0 33 14.5t13 36.5q0 16 -9.5 27 t-24.5 11q-19 0 -32 -15.5t-13 -37.5q0 -16 9 -26t24 -10zM232 -10q-34 0 -54 21t-20 53q0 38 25.5 64t64.5 26q34 0 54.5 -21.5t20.5 -54.5q0 -37 -26 -62.5t-65 -25.5zM234 27q19 0 32.5 15t13.5 36q0 17 -9 27.5t-25 10.5q-19 0 -32.5 -15.5t-13.5 -37.5q0 -15 9.5 -25.5 t24.5 -10.5z" />
<glyph horiz-adv-x="168" d="M104 206q-11 0 -16 4t-4 17l7 104q3 35 33 35q47 0 33 -42l-35 -101q-6 -17 -18 -17z" />
<glyph horiz-adv-x="336" d="M137 181l-3 1q-13 8 -3 25l27 47l-48 21q-16 7 -11 22v3q4 15 23 11l52 -13l5 53q2 18 18 18h2q17 0 18 -18l4 -53l52 13q20 4 23 -11l1 -3q4 -15 -11 -22l-50 -21l29 -47q9 -16 -4 -25l-2 -1q-14 -9 -25 4l-37 42l-36 -42q-12 -13 -24 -4z" />
<glyph horiz-adv-x="336" d="M63 156q-24 0 -24 16q0 18 8 26q6 6 22 6h81l18 83q6 25 25 25h6q26 0 20 -27l-18 -81h79q25 0 25 -16q0 -15 -9 -26q-8 -6 -22 -6h-83l-18 -87q-5 -26 -25 -26h-6q-26 0 -19 28l17 85h-77z" />
<glyph horiz-adv-x="168" d="M17 -70q-6 -6 -19.5 1t-9.5 17l58 122q3 0 15 0.5t25.5 -7t13.5 -20.5q0 -15 -18 -36z" />
<glyph horiz-adv-x="336" d="M99 149q-26 0 -21 24l1 9q5 24 32 24h129q24 0 21 -24l-2 -9q-5 -24 -32 -24h-128z" />
<glyph horiz-adv-x="168" d="M58 -4q-34 0 -34 25q0 26 12 38q10 9 30 9q34 0 34 -25t-13 -38q-9 -9 -29 -9z" />
<glyph horiz-adv-x="336" d="M56 -64q-9 0 -15 1.5t-10.5 8t-2.5 17.5q6 17 9 23l225 428q3 3 13 3q34 0 28 -28q-1 -3 -9 -22l-225 -429q0 -2 -13 -2z" />
<glyph horiz-adv-x="336" d="M53 0q-13 0 -19.5 5.5t-5.5 16.5q0 11 6 17q7 15 29 15h77l54 248l-66 -48q-21 -17 -37 -17q-14 0 -22 10.5t-5 26.5l154 92h23q28 0 22 -31l-63 -281h67q28 0 25 -22q0 -12 -5 -17q-7 -15 -29 -15h-205z" />
<glyph horiz-adv-x="168" d="M97 229q-34 0 -34 25t12 37q9 9 30 9q33 0 33 -25t-12 -37q-9 -9 -29 -9zM59 50q-34 0 -34 25q0 26 12 38q10 9 30 9q34 0 34 -25t-13 -38q-9 -9 -29 -9z" />
<glyph horiz-adv-x="168" d="M17 -70q-6 -6 -19.5 1t-9.5 17l58 122q3 0 15 0.5t25.5 -7t13.5 -20.5q0 -15 -18 -36zM96 175q-34 0 -34 25t12 37q9 9 30 9q33 0 33 -25t-12 -37q-9 -9 -29 -9z" />
<glyph horiz-adv-x="336" d="M119 176l120 -62q29 -13 29 -38q-1 -8 -5.5 -15.5t-8.5 -10.5t-6 -2l-170 96q-20 9 -20 32q0 26 29 38l206 95q2 1 5.5 -3t7 -11.5t3.5 -15.5q2 -23 -32 -35z" />
<glyph horiz-adv-x="336" d="M79 219q-21 0 -21 15q0 20 9 28q6 6 21 6h200q24 0 24 -15q0 -17 -9 -28q-7 -6 -21 -6h-203zM51 86q-22 0 -22 15q0 20 10 28q6 7 21 7h200q24 0 24 -16q0 -15 -9 -28q-10 -6 -21 -6h-203z" />
<glyph horiz-adv-x="336" d="M75 281q0 8 4.5 15t9 10.5t6.5 2.5l170 -96q19 -11 19 -32q0 -26 -28 -39l-207 -94q-1 -1 -5 3t-7.5 11.5t-3.5 14.5q0 23 31 36l158 67l-117 63q-32 14 -30 38z" />
<glyph horiz-adv-x="336" d="M148 93q-26 0 -41.5 18.5t-15.5 48.5q0 42 23.5 72.5t59.5 30.5q33 0 46 -33q10 30 35 30q16 0 16 -6l-23 -104q-6 -31 16 -31q20 0 36 33t16 74q0 53 -30 83.5t-83 30.5q-72 0 -116 -60.5t-44 -138.5q0 -54 32 -86.5t84 -32.5t82 27q8 6 17 6q7 0 11.5 -4.5t6 -9.5 t0.5 -6q-44 -42 -119 -42q-64 0 -104.5 39.5t-40.5 110.5q0 91 54 159t141 68q65 0 102.5 -40t37.5 -104q0 -58 -28 -98.5t-68 -40.5q-20 0 -32.5 11t-14.5 29q-19 -34 -56 -34zM164 130q28 0 41 34l1 5l6 26q-5 32 -33 32q-21 0 -33 -18t-12 -43q0 -36 30 -36z" />
<glyph horiz-adv-x="336" d="M81 -62q-38 0 -30 39l86 403q6 34 41 34h112q13 0 19 -5.5t5 -15.5q0 -12 -6 -18q-5 -14 -28 -14h-90l-79 -371h90q25 0 23 -21q0 -12 -5 -16q-6 -15 -28 -15h-110z" />
<glyph horiz-adv-x="336" d="M175 -64q-12 0 -12 2l-42 429q-2 14 0 22q6 28 40 28q12 0 12 -3l42 -428q2 -14 0 -23q-6 -27 -40 -27z" />
<glyph horiz-adv-x="336" d="M253 414q39 0 30 -39l-85 -403q-8 -34 -41 -34h-113q-13 0 -19 5.5t-4 15.5q0 12 5 17q5 14 28 14h90l79 371h-89q-26 0 -24 21q0 11 5 18q6 14 28 14h110z" />
<glyph horiz-adv-x="336" d="M27 -50q-12 0 -18 5.5t-4 14.5q0 10 5 15q6 15 26 15h204q12 0 18 -5.5t5 -15.5q0 -9 -5 -14q-6 -15 -27 -15h-204z" />
<glyph horiz-adv-x="336" d="M228 -63q-36 0 -62 26q-42 42 -45 116l-62 48q-19 15 -24.5 23.5t-2.5 25.5q2 28 14 39q9 10 36 18l75 36q19 58 62 103q43 43 101 43q31 0 31 -26q0 -5 -2.5 -11t-5 -9t-3.5 -3q-50 -2 -82 -34q-33 -33 -49 -89l-130 -65l103 -83q-1 -60 28 -91q13 -13 46 -21q5 0 5 -15 q0 -31 -33 -31z" />
<glyph horiz-adv-x="168" d="M32 -62q-26 0 -20 30l89 418q6 29 30 29h3q27 0 21 -29l-88 -418q-7 -30 -31 -30h-4z" />
<glyph horiz-adv-x="336" d="M15 -62q-31 0 -31 25q0 6 2.5 11.5t4.5 8.5t3 3q51 2 83 34q34 36 48 89l131 65l-103 83q1 60 -29 92q-13 12 -46 20q-5 0 -5 15q0 31 33 31q37 0 62 -26q43 -42 45 -116l62 -48q19 -14 24.5 -23t3.5 -26q-2 -27 -14 -39q-8 -8 -36 -18l-76 -36q-19 -59 -62 -102 t-100 -43z" />
<glyph horiz-adv-x="336" d="M204 135q-37 0 -74 42q-20 -39 -37 -39q-10 0 -15.5 6t-3.5 15q3 24 19.5 41.5t36.5 17.5q37 0 74 -42q21 39 39 39q21 0 18 -22q-2 -23 -19.5 -40.5t-37.5 -17.5z" />
<glyph horiz-adv-x="336" d="M273 48q-33 -33 -91 -33l-8 -41q-7 -30 -26 -30h-4q-12 0 -19.5 7t-4.5 23l10 47q-40 12 -63.5 43t-23.5 76q0 62 42 109t104 51l9 40q7 30 27 30h2q12 0 19.5 -7t4.5 -23l-9 -44q34 -7 56 -29q22 -21 22 -46q0 -15 -11 -23.5t-21 -7.5t-12 2q-5 26 -24.5 42t-51.5 16 q-42 0 -70 -32t-28 -73q0 -35 21.5 -57t57.5 -22q49 0 76 43q1 1 9 -1t16 -9t8 -18q0 -14 -17 -33z" />
<glyph horiz-adv-x="336" d="M50 142q-21 0 -21 15q0 18 10 28q6 6 21 6h37l17 56q19 65 48.5 94t78.5 29q47 0 76 -27q18 -19 18 -39q0 -16 -9.5 -24.5t-19.5 -10.5t-10 0q-9 49 -57 49q-25 0 -41.5 -18t-30.5 -64l-13 -45h78q24 0 24 -16q0 -17 -10 -26q-6 -7 -21 -7h-85l-26 -89h139q33 0 33 -22 q0 -6 -2.5 -14t-5.5 -12.5t-4 -4.5h-258q-26 0 -26 17q0 18 11 29q7 7 21 7h35l26 89h-33z" />
<glyph horiz-adv-x="336" d="M50 204q-22 0 -22 14t8 22q6 6 19 6h29q18 46 47 75q49 49 117 49q54 0 87 -33q19 -19 19 -44q0 -15 -9 -24t-17.5 -11t-9.5 0q-17 58 -76 58q-39 0 -67 -28q-15 -15 -27 -42h102q22 0 22 -14t-8 -22q-6 -6 -19 -6h-111q-7 -27 -8 -44h105q23 0 23 -14q0 -12 -8 -22 q-8 -6 -19 -6h-102q4 -33 23.5 -52.5t52.5 -19.5q46 0 82 48q2 1 8.5 -2t12.5 -10.5t6 -16.5q0 -19 -18 -35q-35 -37 -95 -37q-61 0 -96.5 34t-39.5 91h-29q-22 0 -22 14q0 15 7 22q7 6 19 6h26q4 28 8 44h-20z" />
<glyph horiz-adv-x="336" d="M71 179q-24 0 -24 15t8 23q7 6 21 6h59l-73 119q-1 3 3.5 8t13.5 10t20 5q20 0 31 -27l55 -102l120 130q0 1 9.5 -1.5t18.5 -11t9 -20.5q0 -17 -23 -37l-84 -73h58q24 0 24 -14q0 -16 -8 -24q-7 -6 -21 -6h-82l-9 -44h78q23 0 23 -15q0 -14 -8 -24q-6 -6 -21 -6h-81 l-13 -63q-7 -29 -34 -29h-3q-29 0 -23 29l13 63h-76q-23 0 -23 15q0 16 8 23q6 7 20 7h81l9 44h-76z" />
<glyph horiz-adv-x="336" d="M133 -96q-80 0 -116 36q-16 15 -16 34q0 10 6.5 18.5t13.5 12t8 2.5q30 -55 108 -55q64 0 64 43q0 15 -15 24.5t-48 21.5q-4 1 -6 2q-32 11 -47.5 18t-33 25t-17.5 42q0 65 76 84q-33 21 -33 60q0 43 34.5 70t91.5 27q73 0 105 -34q16 -16 16 -30q0 -11 -7.5 -20t-15 -12 t-8.5 -1q-29 50 -91 50q-30 0 -46.5 -11.5t-16.5 -29.5q0 -12 11 -22t22.5 -15t36.5 -14t35 -13.5t28 -15t25 -24t7 -30.5q0 -67 -75 -85q35 -20 35 -58q0 -44 -34.5 -72t-96.5 -28zM176 185q-6 1 -26 8q-58 -9 -58 -50q0 -14 11 -25t23.5 -16t38.5 -14q5 -2 22 -7 q26 3 43 17t17 34q0 14 -11.5 24.5t-22 14.5t-37.5 14z" />
<glyph horiz-adv-x="336" d="M189 182q-39 0 -62.5 23t-23.5 59q0 44 28.5 75.5t76.5 31.5q39 0 62 -22.5t23 -59.5q0 -44 -28.5 -75.5t-75.5 -31.5zM192 221q23 0 38.5 21.5t15.5 45.5q0 20 -10.5 32t-29.5 12q-24 0 -40 -21.5t-16 -46.5q0 -20 11.5 -31.5t30.5 -11.5z" />
<glyph horiz-adv-x="336" d="M92 223q-24 0 -24 16q0 17 9 26q7 7 21 7h73l15 69q5 26 25 26h6q26 0 20 -28l-15 -67h69q24 0 24 -17t-9 -25q-6 -7 -21 -7h-73l-15 -70q-5 -26 -25 -26h-6q-26 0 -20 28l14 68h-68zM52 49q-25 0 -25 16q0 18 9 27q7 7 22 7h199q25 0 25 -17q0 -16 -9 -27q-7 -6 -22 -6 h-199z" />
<glyph horiz-adv-x="336" d="M247 -3q-10 0 -14.5 6.5t-1.5 16.5l69 324q4 22 23 22h6q20 0 17 -24l-69 -324q-6 -21 -24 -21h-6zM170 -3q-22 0 -17 23l30 139h-12q-118 0 -118 85q0 53 35.5 86.5t107.5 33.5h47q29 0 23 -29l-67 -317q-4 -21 -23 -21h-6z" />
<glyph horiz-adv-x="168" d="M81 142q-34 0 -34 25t13 38q8 8 29 8q34 0 34 -25t-12 -37q-11 -9 -30 -9z" />
<glyph horiz-adv-x="336" d="M82 69q-10 -9 -21 -9q-7 0 -15.5 9t-8.5 16q0 13 12 23l89 73l-55 73q-8 9 -8 18q0 8 9 16.5t18 8.5q12 0 21 -12l53 -72l86 73q9 9 20 9q8 0 16 -9t8 -15q0 -14 -12 -23l-88 -74l56 -73q8 -8 8 -17q0 -8 -9 -17t-18 -9q-11 0 -20 12l-55 72z" />
<glyph horiz-adv-x="336" d="M189 243q-31 0 -31 23t11 34q9 9 26 9q31 0 31 -23q0 -24 -11 -35q-8 -8 -26 -8zM147 48q-31 0 -31 23t12 34q8 9 26 9q31 0 31 -23t-11 -34q-9 -9 -27 -9zM66 154q-14 0 -19.5 5t-3.5 15q0 10 4 14q7 15 27 15h203q14 0 19.5 -5t3.5 -16q0 -9 -5 -14q-6 -14 -26 -14 h-203z" />
<glyph horiz-adv-x="336" d="M77 158q-24 0 -24 16q0 18 9 28q7 6 22 6h50l19 65q27 95 107 95q39 0 54 -17q10 -10 10 -25q0 -10 -6.5 -17.5t-13 -10t-7.5 -1.5q-11 21 -38 21q-18 0 -29 -11.5t-19 -37.5l-19 -61h56q24 0 24 -16q0 -18 -9 -27q-7 -7 -22 -7h-61l-34 -117q-11 -46 -46 -46 q-7 0 -13.5 2t-10 4t-2.5 4l45 153h-42z" />
<glyph horiz-adv-x="336" d="M63 151q-27 0 -24 24v5q2 24 29 24h206q26 0 24 -24l-1 -5q-2 -24 -29 -24h-205z" />
<glyph horiz-adv-x="336" d="M10 151q-16 0 -13 18v17q3 18 19 18h312q16 0 13 -18v-17q-3 -18 -19 -18h-312z" />
<glyph horiz-adv-x="336" d="M174 239l6 98q0 30 34 30q40 0 27 -33l-34 -95l85 15q16 3 22.5 -4t4.5 -22q-2 -19 -10.5 -30t-25.5 -8l-84 16q12 -23 4 -55l-55 -222q-5 -17 -21 -17h-11q-18 0 -15 17l38 219q5 33 30 58l-88 -16q-16 -3 -22.5 4t-4.5 22q3 20 11.5 30.5t25.5 7.5z" />
<glyph horiz-adv-x="336" d="M116 -88q-18 0 -15 17l21 116l-76 -13q-16 -3 -22 4.5t-4 21.5q4 20 12 30.5t25 6.5l71 -13l12 69q6 35 30 57l-89 -14q-16 -4 -22.5 3.5t-4.5 21.5q3 19 11.5 30t25.5 7l83 -14l6 95q0 30 34 30q40 0 27 -33l-33 -92l85 14q16 4 22.5 -3.5t4.5 -21.5q-2 -19 -11 -30 t-26 -7l-84 14q13 -22 5 -54l-18 -71l73 12q16 4 22.5 -3.5t4.5 -22.5q-3 -19 -11.5 -29.5t-25.5 -7.5l-72 13l-29 -116q-5 -17 -21 -17h-11z" />
<glyph horiz-adv-x="336" d="M169 102q-31 0 -52.5 21.5t-21.5 53.5q0 31 21.5 53t52.5 22t52.5 -22t21.5 -53t-21.5 -53t-52.5 -22z" />
<glyph horiz-adv-x="336" d="M64 152q-27 0 -21 24l1 4q5 24 31 24h203q27 0 22 -24l-1 -4q-6 -24 -32 -24h-203z" />
<glyph horiz-adv-x="336" d="M79 219q-21 0 -21 15q0 20 9 28q6 6 21 6h116l49 77q16 29 32 19l6 -3q15 -8 0 -35l-38 -58h35q24 0 24 -15q0 -17 -9 -28q-7 -6 -21 -6h-65l-54 -83h97q24 0 24 -16q0 -15 -9 -28q-10 -6 -21 -6h-119l-48 -76q-17 -28 -33 -19l-5 3q-16 9 0 35l36 57h-34q-22 0 -22 15 q0 20 10 28q6 7 21 7h60l55 83h-96z" />
<glyph horiz-adv-x="168" d="M82 392q-12 0 -15.5 4.5t-3.5 18.5l24 201q1 35 37 35q54 0 37 -42l-61 -199q-7 -18 -18 -18zM58 281q-34 0 -34 25q0 26 12 38q10 9 30 9q34 0 34 -25t-13 -38q-9 -9 -29 -9z" />
<glyph horiz-adv-x="336" d="M240 491q-12 0 -16.5 4t-3.5 17l10 104q1 35 33 35q46 0 32 -42l-37 -101q-6 -17 -18 -17zM134 491q-11 0 -15.5 4t-3.5 17l7 104q1 35 33 35q47 0 33 -42l-35 -101q-7 -17 -19 -17z" />
<glyph horiz-adv-x="336" d="M29 370q-26 0 -26 17q0 5 5 18q6 12 24 12h45l40 98h-34q-26 0 -26 17q0 8 5 18q6 12 24 12h51l37 90q3 3 8 3q10 0 18 -8t6 -24q0 -4 -6 -22l-17 -39h78l38 90q3 3 8 3q10 0 18 -8t6 -24q-2 -10 -6 -22l-16 -39h29q25 0 25 -15q0 -4 -5 -19q-6 -13 -24 -13h-45l-40 -98 h35q25 0 25 -15q0 -4 -5 -19q-6 -13 -24 -13h-51l-37 -90q0 -2 -8 -2q-11 0 -18.5 7.5t-5.5 23.5q0 9 6 21l16 40h-78l-37 -90q0 -2 -8 -2q-10 0 -18 7.5t-6 23.5q0 5 6 21l16 40h-28zM163 516l-41 -99h81l40 99h-80z" />
<glyph horiz-adv-x="336" d="M295 389q0 -48 -33 -77t-97 -30l-5 -26q-7 -29 -28 -29h-5q-11 0 -18 7.5t-4 21.5l7 31q-48 9 -72 35q-21 20 -21 44q0 10 6.5 18t13 10.5t7.5 1.5q15 -28 43 -45t61 -19q40 -2 65.5 12t25.5 41q0 9 -4 16t-15 14t-18 10.5t-24 10t-23 9.5q-27 12 -43 21t-31 30.5 t-15 50.5q0 43 32 72.5t90 31.5l5 24q6 29 27 29h5q12 0 18.5 -7.5t3.5 -21.5l-6 -29q42 -9 65 -32q18 -18 18 -39q0 -12 -7 -20.5t-14 -11t-8 -0.5q-32 57 -99 58q-32 1 -54 -13.5t-22 -36.5q0 -6 1 -10.5t4.5 -9t6 -8t8.5 -7.5t9 -6.5t11.5 -6t12 -5t13.5 -6t13 -5.5 q30 -12 46.5 -21.5t32 -29.5t15.5 -47z" />
<glyph horiz-adv-x="336" d="M109 494q-34 0 -54 21t-20 53q0 38 25.5 64.5t64.5 26.5q34 0 54 -22t20 -55q0 -37 -25.5 -62.5t-64.5 -25.5zM10 279q-2 -1 -7.5 1t-10 7.5t-4.5 12.5q0 12 20 29l339 326h3.5t5.5 -2l6 -4t5 -6t1 -9q-1 -13 -20 -29zM111 532q20 0 33 14.5t13 36.5q0 16 -9.5 27 t-24.5 11q-19 0 -32 -15.5t-13 -37.5q0 -16 9 -26t24 -10zM232 275q-34 0 -54 21t-20 53q0 38 25.5 64t64.5 26q34 0 54.5 -21.5t20.5 -54.5q0 -37 -26 -62.5t-65 -25.5zM234 312q19 0 32.5 15t13.5 36q0 17 -9 27.5t-25 10.5q-19 0 -32.5 -15.5t-13.5 -37.5 q0 -15 9.5 -25.5t24.5 -10.5z" />
<glyph horiz-adv-x="168" d="M104 491q-11 0 -16 4t-4 17l7 104q3 35 33 35q47 0 33 -42l-35 -101q-6 -17 -18 -17z" />
<glyph horiz-adv-x="336" d="M137 466l-3 1q-13 8 -3 25l27 47l-48 21q-16 7 -11 22v3q4 15 23 11l52 -13l5 53q2 18 18 18h2q17 0 18 -18l4 -53l52 13q20 4 23 -11l1 -3q4 -15 -11 -22l-50 -21l29 -47q9 -16 -4 -25l-2 -1q-14 -9 -25 4l-37 42l-36 -42q-12 -13 -24 -4z" />
<glyph horiz-adv-x="168" d="M17 215q-6 -6 -19.5 1t-9.5 17l58 122q3 0 15 0.5t25.5 -7t13.5 -20.5q0 -15 -18 -36z" />
<glyph horiz-adv-x="336" d="M99 434q-26 0 -21 24l1 9q5 24 32 24h129q24 0 21 -24l-2 -9q-5 -24 -32 -24h-128z" />
<glyph horiz-adv-x="168" d="M58 281q-34 0 -34 25q0 26 12 38q10 9 30 9q34 0 34 -25t-13 -38q-9 -9 -29 -9z" />
<glyph horiz-adv-x="336" d="M56 221q-9 0 -15 1.5t-10.5 8t-2.5 17.5q6 17 9 23l225 428q3 3 13 3q34 0 28 -28q-1 -3 -9 -22l-225 -429q0 -2 -13 -2z" />
<glyph horiz-adv-x="336" d="M52 285q-28 0 -25 22q0 10 5 17q7 15 30 15h69l51 230q-22 -22 -53 -22q-22 0 -35 11t-13 29q0 12 6 22t11.5 14t6.5 3q15 -23 42 -23q18 0 35.5 13.5t24.5 34.5h25q28 0 22 -31l-63 -281h63q13 0 19.5 -6t5.5 -16q0 -11 -6 -17q-5 -15 -29 -15h-192z" />
<glyph horiz-adv-x="336" d="M53 285q-13 0 -19.5 5.5t-5.5 16.5q0 11 6 17q7 15 29 15h77l54 248l-66 -48q-21 -17 -37 -17q-14 0 -22 10.5t-5 26.5l154 92h23q28 0 22 -31l-63 -281h67q28 0 25 -22q0 -12 -5 -17q-7 -15 -29 -15h-205z" />
<glyph horiz-adv-x="336" d="M98 381q-17 -17 -21 -43h175q34 0 34 -22q0 -6 -3 -14t-6 -12.5t-4 -4.5h-229q-11 0 -18 11.5t-6 27.5q3 53 38 90q30 31 104 56q40 14 57.5 22t31.5 22.5t14 35.5q0 23 -20 37t-52 14q-59 0 -87 -61q-1 -2 -10 -0.5t-18 9.5t-9 22q0 23 23 46q40 38 108 38 q58 0 92 -27.5t34 -74.5q0 -51 -32.5 -77t-99.5 -48q-76 -26 -96 -47z" />
<glyph horiz-adv-x="336" d="M292 395q0 -48 -36 -82.5t-111 -34.5t-111 36q-22 21 -22 45q0 17 10 27t20 11.5t11 -0.5q11 -68 93 -68q40 0 61.5 19.5t21.5 49.5q0 24 -17.5 38t-50.5 14h-21q-24 0 -24 17t9 25q6 7 26 7h25q80 0 80 56q0 22 -19.5 35.5t-48.5 13.5q-60 0 -89 -51q-1 -1 -9.5 0.5 t-16.5 8.5t-8 19q0 19 17 34q38 40 110 40q52 0 89.5 -26t37.5 -66q0 -75 -83 -93q56 -20 56 -75z" />
<glyph horiz-adv-x="168" d="M97 514q-34 0 -34 25t12 37q9 9 30 9q33 0 33 -25t-12 -37q-9 -9 -29 -9zM59 335q-34 0 -34 25q0 26 12 38q11 9 30 9q34 0 34 -25t-13 -38q-9 -9 -29 -9z" />
<glyph horiz-adv-x="168" d="M17 215q-6 -6 -19.5 1t-9.5 17l58 122q3 0 15 0.5t25.5 -7t13.5 -20.5q0 -15 -18 -36zM96 460q-34 0 -34 25t12 37q9 9 30 9q33 0 33 -25t-12 -37q-9 -9 -29 -9z" />
<glyph horiz-adv-x="336" d="M119 461l120 -62q29 -13 29 -38q-1 -8 -5.5 -15.5t-8.5 -10.5t-6 -2l-170 96q-20 9 -20 32q0 26 29 38l206 95q2 1 5.5 -3t7 -11.5t3.5 -15.5q2 -23 -32 -35z" />
<glyph horiz-adv-x="336" d="M75 566q0 8 4.5 15t9 10.5t6.5 2.5l170 -96q19 -11 19 -32q0 -26 -28 -39l-207 -94q-1 -1 -5 3t-7.5 11.5t-3.5 14.5q0 23 31 36l158 67l-117 63q-32 14 -30 38z" />
<glyph horiz-adv-x="336" d="M148 378q-26 0 -41.5 18.5t-15.5 48.5q0 42 23.5 72.5t59.5 30.5q33 0 46 -33q10 30 35 30q16 0 16 -6l-23 -104q-6 -31 16 -31q20 0 36 33t16 74q0 53 -30 83.5t-83 30.5q-72 0 -116 -60.5t-44 -138.5q0 -54 32 -86.5t84 -32.5t82 27q8 6 17 6q7 0 11.5 -4.5t6 -9.5 t0.5 -6q-44 -42 -119 -42q-64 0 -104.5 39.5t-40.5 110.5q0 91 54 159t141 68q65 0 102.5 -40t37.5 -104q0 -58 -28 -98.5t-68 -40.5q-20 0 -32.5 11t-14.5 29q-19 -34 -56 -34zM164 415q28 0 41 34l1 5l6 26q-5 32 -33 32q-21 0 -33 -18t-12 -43q0 -36 30 -36z" />
<glyph horiz-adv-x="336" d="M81 223q-38 0 -30 39l86 403q6 34 41 34h112q13 0 19 -5.5t5 -15.5q0 -12 -6 -18q-5 -14 -28 -14h-90l-79 -371h90q25 0 23 -21q0 -12 -5 -16q-6 -15 -28 -15h-110z" />
<glyph horiz-adv-x="336" d="M175 221q-12 0 -12 2l-42 429q-2 14 0 22q6 28 40 28q12 0 12 -3l42 -428q2 -14 0 -23q-6 -27 -40 -27z" />
<glyph horiz-adv-x="336" d="M253 699q39 0 30 -39l-85 -403q-8 -34 -41 -34h-113q-13 0 -19 5.5t-4 15.5q0 12 5 17q5 14 28 14h90l79 371h-89q-26 0 -24 21q0 11 5 18q6 14 28 14h110z" />
<glyph horiz-adv-x="336" d="M27 235q-12 0 -18 5.5t-4 14.5q0 10 5 15q6 15 26 15h204q12 0 18 -5.5t5 -15.5q0 -9 -5 -14q-6 -15 -27 -15h-204z" />
<glyph horiz-adv-x="336" d="M228 222q-36 0 -62 26q-42 42 -45 116l-62 48q-19 15 -24.5 23.5t-2.5 25.5q2 28 14 39q9 10 36 18l75 36q19 58 62 103q43 43 101 43q31 0 31 -26q0 -5 -2.5 -11t-5 -9t-3.5 -3q-50 -2 -82 -34q-33 -33 -49 -89l-130 -65l103 -83q-1 -60 28 -91q13 -13 46 -21q5 0 5 -15 q0 -31 -33 -31z" />
<glyph horiz-adv-x="168" d="M32 223q-26 0 -20 30l89 418q6 29 30 29h3q27 0 21 -29l-88 -418q-7 -30 -31 -30h-4z" />
<glyph horiz-adv-x="336" d="M15 223q-31 0 -31 25q0 6 2.5 11.5t4.5 8.5t3 3q51 2 83 34q34 36 48 89l131 65l-103 83q1 60 -29 92q-13 12 -46 20q-5 0 -5 15q0 31 33 31q37 0 62 -26q43 -42 45 -116l62 -48q19 -14 24.5 -23t3.5 -26q-2 -27 -14 -39q-8 -8 -36 -18l-76 -36q-19 -59 -62 -102 t-100 -43z" />
<glyph horiz-adv-x="336" d="M204 420q-37 0 -74 42q-20 -39 -37 -39q-10 0 -15.5 6t-3.5 15q3 24 19.5 41.5t36.5 17.5q37 0 74 -42q21 39 39 39q21 0 18 -22q-2 -23 -19.5 -40.5t-37.5 -17.5z" />
<glyph horiz-adv-x="336" d="M273 333q-33 -33 -91 -33l-8 -41q-7 -30 -26 -30h-4q-12 0 -19.5 7t-4.5 23l10 47q-40 12 -63.5 43t-23.5 76q0 62 42 109t104 51l9 40q7 30 27 30h2q12 0 19.5 -7t4.5 -23l-9 -44q34 -7 56 -29q22 -21 22 -46q0 -15 -11 -23.5t-21 -7.5t-12 2q-5 26 -24.5 42t-51.5 16 q-42 0 -70 -32t-28 -73q0 -35 21.5 -57t57.5 -22q49 0 76 43q1 1 9 -1t16 -9t8 -18q0 -14 -17 -33z" />
<glyph horiz-adv-x="336" d="M50 427q-21 0 -21 15q0 18 10 28q6 6 21 6h37l17 56q19 65 48.5 94t78.5 29q47 0 76 -27q18 -20 18 -39q0 -16 -9.5 -24.5t-19.5 -10.5t-10 0q-9 49 -57 49q-25 0 -41.5 -18t-30.5 -64l-13 -45h78q24 0 24 -16q0 -17 -10 -26q-6 -7 -21 -7h-85l-26 -89h139q33 0 33 -22 q0 -6 -2.5 -14t-5.5 -12.5t-4 -4.5h-258q-26 0 -26 17q0 18 11 29q7 7 21 7h35l26 89h-33z" />
<glyph horiz-adv-x="336" d="M50 489q-22 0 -22 14t8 22q6 6 19 6h29q18 46 47 75q49 49 117 49q54 0 87 -33q19 -19 19 -44q0 -15 -9 -24t-17.5 -11t-9.5 0q-17 58 -76 58q-39 0 -67 -28q-15 -15 -27 -42h102q22 0 22 -14t-8 -22q-6 -6 -19 -6h-111q-7 -27 -8 -44h105q23 0 23 -14q0 -12 -8 -22 q-8 -6 -19 -6h-102q4 -33 23.5 -52.5t52.5 -19.5q46 0 82 48q2 1 8.5 -2t12.5 -10.5t6 -16.5q0 -18 -18 -35q-35 -37 -95 -37q-61 0 -96.5 34t-39.5 91h-29q-22 0 -22 14q0 15 7 22q8 6 19 6h26q4 28 8 44h-20z" />
<glyph horiz-adv-x="336" d="M71 464q-24 0 -24 15t8 23q7 6 21 6h59l-73 119q-1 3 3.5 8t13.5 10t20 5q20 0 31 -27l55 -102l120 130q0 1 9.5 -1.5t18.5 -11t9 -20.5q0 -17 -23 -37l-84 -73h58q24 0 24 -14q0 -16 -8 -24q-7 -6 -21 -6h-82l-9 -44h78q23 0 23 -15q0 -14 -8 -24q-6 -6 -21 -6h-81 l-13 -63q-7 -29 -34 -29h-3q-29 0 -23 29l13 63h-76q-23 0 -23 15q0 16 8 23q6 7 20 7h81l9 44h-76z" />
<glyph horiz-adv-x="336" d="M133 189q-80 0 -116 36q-16 15 -16 34q0 10 6.5 18.5t13.5 12t8 2.5q30 -55 108 -55q64 0 64 43q0 15 -15 24.5t-48 21.5q-4 1 -6 2q-32 11 -47.5 18t-33 25t-17.5 42q0 65 76 84q-33 21 -33 60q0 43 34.5 70t91.5 27q73 0 105 -34q16 -16 16 -30q0 -11 -7.5 -20t-15 -12 t-8.5 -1q-29 50 -91 50q-30 0 -46.5 -11.5t-16.5 -29.5q0 -12 11 -22t22.5 -15t36.5 -14t35 -13.5t28 -15t25 -24t7 -30.5q0 -67 -75 -85q35 -20 35 -58q0 -44 -34.5 -72t-96.5 -28zM176 470q-6 1 -26 8q-58 -9 -58 -50q0 -14 11 -25t23.5 -16t38.5 -14q5 -2 22 -7 q26 3 43 17t17 34q0 14 -11.5 24.5t-22 14.5t-37.5 14z" />
<glyph horiz-adv-x="336" d="M189 467q-39 0 -62.5 23t-23.5 59q0 44 28.5 75.5t76.5 31.5q39 0 62 -22.5t23 -59.5q0 -44 -28.5 -75.5t-75.5 -31.5zM192 506q23 0 38.5 21.5t15.5 45.5q0 20 -10.5 32t-29.5 12q-24 0 -40 -21.5t-16 -46.5q0 -20 11.5 -31.5t30.5 -11.5z" />
<glyph horiz-adv-x="336" d="M92 508q-24 0 -24 16q0 17 9 26q7 7 21 7h73l15 69q5 26 25 26h6q26 0 20 -28l-15 -67h69q24 0 24 -17q0 -18 -9 -25q-6 -7 -21 -7h-73l-15 -70q-5 -26 -25 -26h-6q-26 0 -20 28l14 68h-68zM52 334q-25 0 -25 16q0 18 9 27q7 7 22 7h199q25 0 25 -17q0 -16 -9 -27 q-7 -6 -22 -6h-199z" />
<glyph horiz-adv-x="336" d="M247 282q-10 0 -14.5 6.5t-1.5 16.5l69 324q4 22 23 22h6q20 0 17 -24l-69 -324q-6 -21 -24 -21h-6zM170 282q-22 0 -17 23l30 139h-12q-118 0 -118 85q0 53 35.5 86.5t107.5 33.5h47q29 0 23 -29l-67 -317q-4 -21 -23 -21h-6z" />
<glyph horiz-adv-x="168" d="M81 427q-34 0 -34 25t13 38q8 8 29 8q34 0 34 -25t-12 -37q-11 -9 -30 -9z" />
<glyph horiz-adv-x="336" d="M82 354q-10 -9 -21 -9q-7 0 -15.5 9t-8.5 16q0 12 12 23l89 73l-55 73q-8 9 -8 18q0 8 9 16.5t18 8.5q12 0 21 -12l53 -72l86 73q9 9 20 9q8 0 16 -9t8 -15q0 -14 -12 -23l-88 -74l56 -73q8 -8 8 -17q0 -8 -9 -17t-18 -9q-11 0 -20 12l-55 72z" />
<glyph horiz-adv-x="336" d="M189 528q-31 0 -31 23t11 34q9 9 26 9q31 0 31 -23q0 -24 -11 -35q-8 -8 -26 -8zM147 333q-31 0 -31 23q0 24 12 34q8 9 26 9q31 0 31 -23t-11 -34q-9 -9 -27 -9zM66 439q-14 0 -19.5 5t-3.5 15q0 10 4 14q7 15 27 15h203q14 0 19.5 -5t3.5 -16q0 -9 -5 -14 q-6 -14 -26 -14h-203z" />
<glyph horiz-adv-x="336" d="M77 443q-24 0 -24 16q0 17 9 28q8 6 22 6h50l19 65q27 95 107 95q39 0 54 -17q10 -10 10 -25q0 -10 -6.5 -17.5t-13 -10t-7.5 -1.5q-11 21 -38 21q-18 0 -29 -11.5t-19 -37.5l-19 -61h56q24 0 24 -16q0 -18 -9 -27q-7 -7 -22 -7h-61l-34 -117q-11 -46 -46 -46 q-7 0 -13.5 2t-10 4t-2.5 4l45 153h-42z" />
<glyph horiz-adv-x="336" d="M63 436q-27 0 -24 24v5q2 24 29 24h206q26 0 24 -24l-1 -5q-2 -24 -29 -24h-205z" />
<glyph horiz-adv-x="336" d="M10 436q-16 0 -13 18v17q3 18 19 18h312q16 0 13 -18v-17q-3 -18 -19 -18h-312z" />
<glyph horiz-adv-x="336" d="M174 524l6 98q0 30 34 30q40 0 27 -33l-34 -95l85 15q16 3 22.5 -4t4.5 -22q-2 -19 -10.5 -30t-25.5 -8l-84 16q12 -23 4 -55l-55 -222q-5 -17 -21 -17h-11q-18 0 -15 17l38 219q5 33 30 58l-88 -16q-16 -3 -22.5 4t-4.5 22q3 20 11.5 30.5t25.5 7.5z" />
<glyph horiz-adv-x="336" d="M116 197q-18 0 -15 17l21 116l-76 -13q-16 -3 -22 4.5t-4 21.5q4 20 12 30.5t25 6.5l71 -13l12 69q6 35 30 57l-89 -14q-16 -4 -22.5 3.5t-4.5 21.5q3 19 11.5 30t25.5 7l83 -14l6 95q0 30 34 30q40 0 27 -33l-33 -92l85 14q16 4 22.5 -3.5t4.5 -21.5q-2 -19 -11 -30 t-26 -7l-84 14q13 -22 5 -54l-18 -71l73 12q16 4 22.5 -3.5t4.5 -22.5q-3 -19 -11.5 -29.5t-25.5 -7.5l-72 13l-29 -116q-5 -17 -21 -17h-11z" />
<glyph horiz-adv-x="336" d="M169 387q-31 0 -52.5 21.5t-21.5 53.5q0 31 21.5 53t52.5 22t52.5 -22t21.5 -53t-21.5 -53t-52.5 -22z" />
<glyph horiz-adv-x="336" d="M79 504q-21 0 -21 15q0 21 9 28q6 6 21 6h116l49 77q16 29 32 19l6 -3q15 -8 0 -35l-38 -58h35q24 0 24 -15q0 -17 -9 -28q-8 -6 -21 -6h-65l-54 -83h97q24 0 24 -16q0 -15 -9 -28q-10 -6 -21 -6h-119l-48 -76q-17 -28 -33 -19l-5 3q-16 9 0 35l36 57h-34q-22 0 -22 15 q0 20 10 28q6 7 21 7h60l55 83h-96z" />
<glyph horiz-adv-x="600" d="M145 131q-12 -11 -24 -11q-9 0 -19.5 11.5t-10.5 19.5q0 15 14 26l173 145l-108 145q-10 13 -10 22t10 19t21 10q15 0 26 -15l107 -143l167 143q12 11 24 11q9 0 19.5 -11.5t10.5 -19.5q0 -15 -14 -26l-171 -144l108 -146q10 -13 10 -22t-10 -19t-21 -10q-15 0 -26 15 l-107 143z" />
<glyph horiz-adv-x="300" d="M143 177q-15 0 -19 6t-2 22l65 410q4 21 12.5 28.5t25.5 7.5q30 0 41.5 -9.5t3.5 -34.5l-110 -410q-5 -20 -17 -20zM105 -6q-48 0 -48 34q0 36 16 52q13 13 37 13q48 0 48 -34q0 -36 -16 -52q-13 -13 -37 -13z" />
<glyph horiz-adv-x="600" d="M513 174q0 -85 -61 -136t-179 -47l-13 -62q-7 -31 -28 -31h-7q-31 0 -25 31l14 68q-81 14 -131 64q-37 37 -37 72q0 15 10.5 25t20.5 12.5t11 -0.5q22 -56 69.5 -87t112.5 -35q87 -5 130.5 28t43.5 92q0 24 -9.5 43t-33 35t-42.5 25t-57 25q-39 16 -62 28.5t-51 34 t-41.5 51.5t-13.5 70q0 77 60 127.5t162 49.5l13 58q7 31 28 31h7q31 0 25 -31l-14 -63q80 -13 124 -57q32 -32 32 -66q0 -15 -10 -24.5t-20 -12t-11 0.5q-44 104 -178 107q-66 1 -107.5 -31.5t-41.5 -81.5q0 -27 9.5 -47t32.5 -36.5t41.5 -26t57.5 -25.5q34 -14 51.5 -22.5 t44 -25t39.5 -32.5t23.5 -41.5t10.5 -56.5z" />
<glyph horiz-adv-x="600" d="M191 370q-57 0 -91.5 37t-34.5 94q0 69 46.5 116t113.5 47q58 0 92.5 -38t34.5 -97q0 -68 -47 -113.5t-114 -45.5zM9 -9q-2 -2 -8.5 0.5t-12.5 9.5t-6 17q0 21 36 54l610 590q2 2 8.5 -0.5t12.5 -9.5t6 -17q0 -21 -36 -54zM195 428q40 0 67.5 29.5t27.5 71.5q0 33 -19 55 t-50 22q-39 0 -66.5 -31t-27.5 -74q0 -32 18.5 -52.5t49.5 -20.5zM410 -17q-57 0 -91.5 37t-34.5 94q0 69 46.5 116t113.5 47q58 0 92.5 -38t34.5 -97q0 -68 -47 -113.5t-114 -45.5zM414 41q40 0 67.5 29.5t27.5 71.5q0 33 -19 55t-50 22q-39 0 -66.5 -31t-27.5 -74 q0 -32 18.5 -52.5t49.5 -20.5z" />
<glyph horiz-adv-x="600" d="M401 -107q-23 0 -61.5 21.5t-68.5 50.5q-53 50 -85 125t-33 169q0 92 35.5 183t99.5 155q65 66 144.5 101t134.5 35q36 0 36 -30q0 -9 -6 -18.5t-9 -9.5q-145 -13 -243 -109q-59 -59 -91.5 -141.5t-32.5 -167.5q1 -151 96 -246q50 -48 111 -68q8 -3 8 -18q0 -14 -9.5 -23 t-25.5 -9z" />
<glyph horiz-adv-x="600" d="M230 733q23 0 61.5 -21.5t68.5 -50.5q53 -50 85 -125t33 -169q0 -92 -35.5 -183t-99.5 -155q-65 -66 -144.5 -101t-134.5 -35q-36 0 -36 30q0 9 6 18.5t9 9.5q145 13 243 109q59 59 91.5 141.5t32.5 167.5q-1 151 -96 246q-50 48 -111 68q-8 3 -8 18q0 14 9.5 23t25.5 9z " />
<glyph horiz-adv-x="600" d="M253 346l-3 2q-17 11 -3 33l59 92l-101 38q-23 8 -16 28v4q7 18 31 12l105 -29l6 108q1 25 20 25h4q21 0 22 -25l4 -108l106 29q25 7 30 -12l2 -4q3 -11 -0.5 -17t-16.5 -11l-103 -39l61 -91q13 -20 -3 -33l-3 -2q-18 -11 -33 8l-69 86l-68 -86q-15 -19 -31 -8z" />
<glyph horiz-adv-x="600" d="M122 294q-29 0 -29 16q0 23 12 35q7 7 24 7h164l35 163q7 31 29 31h8q30 0 24 -31l-35 -163h159q29 0 29 -16q0 -23 -12 -35q-7 -7 -24 -7h-164l-37 -174q-7 -31 -29 -31h-8q-30 0 -24 31l37 174h-159z" />
<glyph horiz-adv-x="300" d="M16 -132q-5 -6 -19.5 3t-10.5 17l110 210q3 1 17 0.5t29.5 -9.5t15.5 -24q0 -21 -19 -45z" />
<glyph horiz-adv-x="600" d="M203 285q-29 0 -25 26l1 7q4 27 37 27h214q29 0 25 -27l-1 -7q-4 -26 -37 -26h-214z" />
<glyph horiz-adv-x="300" d="M105 -6q-48 0 -48 34q0 36 16 52q13 13 37 13q48 0 48 -34q0 -36 -16 -52q-13 -13 -37 -13z" />
<glyph horiz-adv-x="600" d="M115 -111q-42 0 -34 38q3 13 16 39l399 768q0 3 12 3q43 0 35 -37q-2 -9 -17 -39l-398 -769q0 -3 -13 -3z" />
<glyph horiz-adv-x="600" d="M295 -12q-114 0 -178 69.5t-63 180.5q0 37 13 102l13 64q25 123 94 188t171 65q106 0 171 -68.5t65 -180.5q0 -45 -13 -103l-15 -64q-29 -123 -95 -188t-163 -65zM295 46q72 0 118 48.5t72 156.5l14 58q14 60 14 110q0 85 -44 132.5t-124 47.5q-77 0 -126 -48.5 t-71 -156.5l-12 -58q-14 -65 -14 -107q0 -88 45 -135.5t128 -47.5z" />
<glyph horiz-adv-x="600" d="M84 0q-31 0 -25 26l1 5q6 27 36 27h151l103 484q-39 -42 -101 -42q-37 0 -60.5 18t-23.5 45q0 13 8 24t16 16.5t8 4.5q22 -46 71 -46q35 0 67.5 25.5t44.5 63.5h29q30 0 24 -31l-120 -562h135q32 0 26 -27l-1 -5q-6 -26 -37 -26h-352z" />
<glyph horiz-adv-x="600" d="M158 167q-41 -41 -44 -105h337q38 0 38 -25q0 -7 -3.5 -16t-7 -15t-4.5 -6h-400q-2 0 -8.5 6.5t-12.5 18t-6 21.5q0 99 65 164q34 34 80 57t115 48q110 40 152 72.5t42 97.5q0 49 -39 80.5t-106 31.5q-116 0 -171 -117q-1 -3 -11 -0.5t-19.5 12.5t-9.5 27q0 34 38 72 q68 68 177 68q97 0 154.5 -47.5t57.5 -126.5q0 -88 -58.5 -135.5t-185.5 -93.5q-68 -24 -105.5 -43t-64.5 -46z" />
<glyph horiz-adv-x="600" d="M504 196q0 -37 -13.5 -72.5t-41.5 -66.5t-78 -50t-115 -19q-123 0 -186 63q-41 41 -41 81q0 21 11.5 33.5t22.5 15t12 -0.5q12 -64 59.5 -98.5t125.5 -34.5q84 0 128 42.5t44 105.5q0 54 -39.5 86t-112.5 32h-46q-29 0 -29 16q0 23 12 35q7 7 24 7h52q186 0 186 127 q0 46 -39.5 74.5t-98.5 28.5q-112 0 -175 -94q-1 -2 -9.5 1.5t-16.5 12.5t-8 19q0 24 27 51q66 68 185 68q90 0 148.5 -41t58.5 -118q0 -136 -148 -167q101 -35 101 -137z" />
<glyph horiz-adv-x="600" d="M362 -4q-31 0 -24 35l32 153h-303q-2 0 -7.5 7t-10.5 19t-5 22q0 29 34 63l327 317q40 39 73 39q57 0 47 -49l-76 -356h83q31 0 31 -17q0 -23 -13 -38q-6 -7 -26 -7h-88l-33 -157q-6 -31 -34 -31h-7zM457 585l-346 -340h274z" />
<glyph horiz-adv-x="600" d="M232 583l-44 -205q54 21 114 21q100 0 159.5 -49.5t59.5 -130.5q0 -103 -70.5 -167t-187.5 -64q-128 0 -191 67q-32 33 -32 69q0 15 10.5 25t21 13.5t11.5 0.5q16 -53 62.5 -84t119.5 -31q82 0 133.5 46.5t51.5 120.5q0 124 -153 124q-83 0 -146 -35q-42 10 -32 51 l52 251q8 41 47 41h354q1 0 2.5 -3t3 -8t1.5 -11q0 -15 -11 -28.5t-32 -13.5h-304z" />
<glyph horiz-adv-x="600" d="M385 601q-178 0 -233 -260q84 65 185 65q90 0 145.5 -48.5t55.5 -133.5q0 -94 -68 -165t-172 -71q-102 0 -163 63t-61 174q0 82 34.5 191t96.5 171q37 37 78.5 54.5t108.5 17.5q99 0 155 -56q29 -30 29 -58q0 -15 -9.5 -25.5t-19 -14t-10.5 -0.5q-44 96 -152 96zM329 350 q-102 0 -187 -71q-4 -29 -4 -56q0 -82 41.5 -128.5t119.5 -46.5q80 0 127.5 49t47.5 123q0 59 -37.5 94.5t-107.5 35.5z" />
<glyph horiz-adv-x="600" d="M166 -4q-2 1 -12.5 0t-22 7.5t-11.5 24.5q0 19 25 51l383 501h-341q-41 0 -41 27q0 7 3.5 17t7.5 16.5t5 6.5h402q3 0 10 -6.5t14.5 -20t7.5 -27.5q0 -23 -23 -53z" />
<glyph horiz-adv-x="600" d="M286 -12q-108 0 -174 47t-66 126q0 64 46.5 113t125.5 67q-87 36 -87 125q0 80 65.5 136.5t167.5 56.5q92 0 152.5 -44t60.5 -116q0 -60 -40 -108.5t-113 -65.5q105 -42 105 -139q0 -84 -66.5 -141t-176.5 -57zM288 45q80 0 126.5 39.5t46.5 101.5q0 52 -48 84.5 t-130 32.5q-72 0 -120.5 -38.5t-48.5 -99.5q0 -54 47.5 -87t126.5 -33zM351 362q75 0 116.5 35.5t41.5 95.5q0 50 -42.5 79.5t-111.5 29.5q-72 0 -114 -37t-42 -96q0 -50 41 -78.5t111 -28.5z" />
<glyph horiz-adv-x="600" d="M247 46q88 0 144.5 60.5t84.5 184.5q-77 -58 -173 -58q-98 0 -153.5 48t-55.5 137q0 98 68 169.5t173 71.5q102 0 163.5 -63.5t61.5 -174.5q0 -83 -33 -191t-95 -170q-36 -36 -80 -54t-112 -18q-99 0 -155 56q-29 29 -29 58q0 15 9.5 25.5t19 14t10.5 0.5q44 -96 152 -96 zM311 289q110 0 178 67q7 35 7 74q0 81 -42 125t-120 44q-81 0 -128.5 -50t-47.5 -127q0 -63 38 -98t115 -35z" />
<glyph horiz-adv-x="300" d="M198 433q-48 0 -48 34q0 36 16 52q13 13 37 13q48 0 48 -34q0 -36 -16 -52q-13 -13 -37 -13zM126 93q-48 0 -48 34q0 36 16 52q13 13 37 13q48 0 48 -34q0 -36 -16 -52q-13 -13 -37 -13z" />
<glyph horiz-adv-x="300" d="M16 -132q-5 -6 -19.5 3t-10.5 17l110 210q3 1 17 0.5t29.5 -9.5t15.5 -24q0 -21 -19 -45zM177 334q-48 0 -48 34q0 36 16 52q13 13 37 13q48 0 48 -34q0 -36 -16 -52q-13 -13 -37 -13z" />
<glyph horiz-adv-x="600" d="M200 315l231 -134q43 -24 39 -51q-1 -10 -6.5 -17.5t-10.5 -11t-7 -1.5l-289 172q-24 15 -24 40q0 36 42 56l349 168q2 1 6.5 -3t9.5 -12t5 -17q2 -26 -43 -47z" />
<glyph horiz-adv-x="600" d="M157 400q-31 0 -31 16q0 25 13 38q7 7 25 7h360q31 0 31 -16q0 -25 -13 -38q-7 -7 -25 -7h-360zM108 173q-31 0 -31 16q0 25 13 38q7 7 25 7h360q31 0 31 -16q0 -25 -13 -38q-7 -7 -25 -7h-360z" />
</font>
</defs>
</svg>
