<?xml version="1.0" standalone="no"?>
<!DOCTYPE svg PUBLIC "-//W3C//DTD SVG 1.1//EN" "http://www.w3.org/Graphics/SVG/1.1/DTD/svg11.dtd" >
<svg xmlns="http://www.w3.org/2000/svg" xmlns:xlink="http://www.w3.org/1999/xlink" version="1.1">
<metadata></metadata>
<defs>
<font id="omnes_regularregular" horiz-adv-x="750" >
<font-face units-per-em="1000" ascent="800" descent="-200" />
<missing-glyph horiz-adv-x="170" />
<glyph unicode="fi" horiz-adv-x="539" d="M41 418q-31 0 -31 26v6q0 26 31 26h70v44q0 82 35.5 125.5t104.5 43.5q46 0 70.5 -16.5t24.5 -39.5q0 -10 -4.5 -18t-9 -11t-5.5 -2q-29 29 -76 29q-40 0 -58.5 -27.5t-18.5 -86.5v-41h96q31 0 31 -26v-6q0 -26 -31 -26h-95v-391q0 -31 -28 -31h-7q-29 0 -29 31v391h-70z M431 -4q-29 0 -29 31v422q0 31 29 31h7q29 0 29 -31v-422q0 -31 -29 -31h-7zM434 595q-42 0 -42 43t44 43q42 0 42 -43t-44 -43z" />
<glyph unicode="fl" horiz-adv-x="539" d="M41 418q-31 0 -31 26v6q0 26 31 26h70v44q0 82 35.5 125.5t104.5 43.5q46 0 70.5 -16.5t24.5 -39.5q0 -10 -4.5 -18t-9 -11t-5.5 -2q-29 29 -76 29q-40 0 -58.5 -27.5t-18.5 -86.5v-41h96q31 0 31 -26v-6q0 -26 -31 -26h-95v-391q0 -31 -28 -31h-7q-29 0 -29 31v391h-70z M431 -4q-29 0 -29 31v647q0 1 3 2.5t8 3t11 1.5q43 0 43 -63v-591q0 -31 -29 -31h-7z" />
<glyph unicode=" "  horiz-adv-x="170" />
<glyph unicode="&#x09;" horiz-adv-x="170" />
<glyph unicode="&#xa0;" horiz-adv-x="170" />
<glyph unicode="!" horiz-adv-x="247" d="M119 178q-13 0 -15 24l-22 410q-1 39 29 39h25q30 0 29 -39l-22 -410q-2 -24 -16 -24h-8zM118 -6q-44 0 -44 44v10q0 45 44 45h10q45 0 45 -45v-10q0 -44 -45 -44h-10z" />
<glyph unicode="&#x22;" horiz-adv-x="357" d="M247 391q-14 0 -17 26l-19 179q-3 31 7 43t34 12t34 -12t7 -43l-19 -179q-3 -26 -17 -26h-10zM99 391q-14 0 -17 26l-19 179q-3 31 7 43t34 12t34 -12t7 -43l-19 -179q-3 -26 -17 -26h-10z" />
<glyph unicode="#" horiz-adv-x="651" d="M41 175q-31 0 -31 26v5q0 27 31 27h111l55 181h-92q-31 0 -31 26v5q0 27 31 27h110l54 176q0 3 12 3q14 0 24.5 -10t10.5 -33q0 -13 -8 -39l-30 -97h165l54 176q0 3 12 3q14 0 24.5 -10t10.5 -33q0 -13 -8 -39l-30 -97h94q31 0 31 -26v-5q0 -27 -31 -27h-112l-55 -181h93 q31 0 31 -26v-5q0 -27 -31 -27h-111l-53 -176q0 -3 -12 -3q-14 0 -24.5 10t-10.5 33q0 13 8 39l29 97h-164l-54 -176q0 -3 -12 -3q-14 0 -24.5 10t-10.5 33q0 13 8 39l29 97h-93zM269 416l-57 -185h170l56 185h-169z" />
<glyph unicode="$" horiz-adv-x="541" d="M263 -102q-26 0 -26 31v61q-85 8 -142.5 48.5t-57.5 76.5q0 13 9.5 23.5t19.5 15t11 2.5q52 -90 163 -104v249q-86 22 -136 61.5t-50 118.5q0 67 53 116.5t132 59.5v58q0 31 27 31h7q26 0 26 -31v-57q81 -6 134 -42t53 -69q0 -13 -9.5 -23.5t-19.5 -15t-11 -2.5 q-46 79 -150 90v-239q44 -10 75 -22.5t63 -33t48.5 -54t16.5 -77.5q0 -72 -57.5 -123t-144.5 -58v-60q0 -31 -27 -31h-7zM432 167q0 50 -36 76.5t-103 44.5v-237q62 5 100.5 37t38.5 79zM121 482q0 -47 30 -71t92 -41v226q-54 -8 -88 -39.5t-34 -74.5z" />
<glyph unicode="%" horiz-adv-x="732" d="M186 347q-63 0 -106 43.5t-43 105.5v10q0 62 44 106.5t106 44.5q63 0 106 -43.5t43 -105.5v-10q0 -62 -44 -106.5t-106 -44.5zM113 -8q-2 -2 -9.5 0.5t-15 10t-7.5 17.5q0 22 30 55l503 586q2 2 9.5 0t15 -9.5t7.5 -18.5q0 -21 -30 -55zM545 -4q-63 0 -106 43.5 t-43 105.5v10q0 62 44 106.5t106 44.5q63 0 106 -43.5t43 -105.5v-10q0 -62 -44 -106.5t-106 -44.5zM187 399q39 0 64.5 27.5t25.5 68.5v14q0 41 -26 69t-65 28t-64.5 -27.5t-25.5 -69.5v-14q0 -41 26 -68.5t65 -27.5zM546 48q39 0 64.5 27.5t25.5 68.5v14q0 41 -26 69 t-65 28t-64.5 -27.5t-25.5 -69.5v-14q0 -41 26 -68.5t65 -27.5z" />
<glyph unicode="&#x26;" horiz-adv-x="651" d="M249 -12q-101 0 -163.5 51.5t-62.5 142.5q0 140 171 189q-57 64 -57 134q0 64 46.5 109t118.5 45q67 0 112 -42t45 -105q0 -115 -158 -161l173 -160q36 63 56 152q11 48 45 48q10 0 17 -4.5t10 -9t2 -6.5q-26 -127 -85 -220l139 -127q2 -2 -0.5 -8.5t-12 -13t-24.5 -6.5 q-28 0 -50 21l-89 84q-99 -113 -233 -113zM253 46q107 0 187 95l-209 191q-138 -40 -138 -147q0 -65 44.5 -102t115.5 -37zM203 506q0 -59 57 -118q70 20 103 49t33 74q0 39 -26.5 65.5t-68.5 26.5q-46 0 -72 -27.5t-26 -69.5z" />
<glyph unicode="'" horiz-adv-x="209" d="M99 391q-14 0 -17 26l-19 179q-3 31 7 43t34 12t34 -12t7 -43l-19 -179q-3 -26 -17 -26h-10z" />
<glyph unicode="(" horiz-adv-x="351" d="M317 -198q-43 0 -89 30t-86.5 82.5t-67 135t-26.5 176.5q0 91 26.5 172.5t66.5 135t87 84.5t89 31q30 0 30 -24q0 -7 -3.5 -15.5t-5.5 -9.5q-101 -22 -161.5 -128t-60.5 -245q0 -143 60 -248.5t162 -127.5q2 -1 5.5 -10t3.5 -15q0 -24 -30 -24z" />
<glyph unicode=")" horiz-adv-x="351" d="M34 -198q-30 0 -30 24q0 6 3.5 15t5.5 10q102 22 162 127.5t60 248.5q0 139 -60.5 245t-161.5 128q-2 1 -5.5 9.5t-3.5 15.5q0 24 30 24q42 0 89 -31t87 -84.5t66.5 -135t26.5 -172.5q0 -94 -26.5 -176.5t-67 -135t-86.5 -82.5t-89 -30z" />
<glyph unicode="*" horiz-adv-x="377" d="M89 346l-3 2q-16 11 -3 33l59 91l-101 39q-23 9 -16 28l1 4q5 17 30 12l105 -29l6 108q1 25 21 25h4q20 0 21 -25l4 -108l106 29q25 5 31 -12l1 -4q6 -20 -17 -28l-103 -39l61 -91q13 -22 -3 -33l-3 -2q-16 -11 -32 8l-69 86l-68 -86q-16 -18 -32 -8z" />
<glyph unicode="+" horiz-adv-x="539" d="M78 239q-31 0 -31 26v6q0 26 31 26h161v163q0 31 28 31h5q28 0 28 -31v-163h161q31 0 31 -26v-6q0 -26 -31 -26h-161v-174q0 -31 -28 -31h-5q-28 0 -28 31v174h-161z" />
<glyph unicode="," horiz-adv-x="209" d="M48 -131q-5 -9 -22 -4.5t-11 19.5l60 179q5 14 8.5 20t11 10.5t19.5 4.5h5q13 0 21.5 -9t8.5 -26v-4q0 -23 -16 -48z" />
<glyph unicode="-" horiz-adv-x="366" d="M76 212q-31 0 -31 26v7q0 27 31 27h214q31 0 31 -27v-7q0 -26 -31 -26h-214z" />
<glyph unicode="." horiz-adv-x="209" d="M99 -6q-44 0 -44 44v10q0 45 44 45h10q45 0 45 -45v-10q0 -44 -45 -44h-10z" />
<glyph unicode="/" horiz-adv-x="323" d="M52 -197q-42 0 -42 38q0 13 8 39l235 768q0 3 12 3q42 0 42 -37q0 -13 -8 -39l-235 -769q0 -3 -12 -3z" />
<glyph unicode="0" horiz-adv-x="629" d="M313 -12q-120 0 -188.5 80.5t-68.5 220.5v67q0 140 69.5 221.5t188.5 81.5q120 0 189.5 -81t69.5 -220v-67q0 -140 -70 -221.5t-190 -81.5zM314 47q91 0 141 64t50 180v63q0 116 -51 181.5t-141 65.5q-89 0 -139 -64.5t-50 -180.5v-63q0 -116 50.5 -181t139.5 -65z" />
<glyph unicode="1" horiz-adv-x="347" d="M197 -4q-29 0 -29 31v514q-26 -37 -74 -37q-32 0 -52.5 16t-20.5 41q0 10 5 19.5t10 14t6 3.5q22 -25 57 -25q32 0 54 22.5t24 55.5h29q30 0 30 -31v-593q0 -31 -30 -31h-9z" />
<glyph unicode="2" horiz-adv-x="520" d="M108 73v-11h353q32 0 32 -28v-5q0 -29 -32 -29h-376q-43 0 -43 41v20q0 50 15.5 89.5t48 69.5t61.5 48.5t75 41.5q96 49 123 72q48 40 48 91q0 58 -40 91t-110 33q-133 0 -172 -133q-2 -1 -12.5 -1.5t-22 10t-11.5 27.5q0 51 61.5 105.5t161.5 54.5q98 0 155 -50.5 t57 -137.5q0 -40 -14.5 -72t-47 -58t-59 -41.5t-74.5 -38.5q-44 -21 -69 -35.5t-53.5 -38t-41.5 -51.5t-13 -64z" />
<glyph unicode="3" horiz-adv-x="532" d="M485 179q0 -89 -63.5 -140t-174.5 -51q-105 0 -167.5 48t-62.5 94q0 16 9.5 26.5t19 13t10.5 -0.5q21 -58 72 -90t120 -32q77 0 122.5 35.5t45.5 95.5q0 66 -44.5 100.5t-129.5 34.5h-56q-33 0 -33 27v4q0 27 31 27h69q70 0 107 30t37 85q0 54 -39.5 84.5t-109.5 30.5 q-60 0 -103.5 -27.5t-66.5 -74.5q-1 -2 -10.5 1t-19 13t-9.5 23q0 39 60.5 81t148.5 42q103 0 160.5 -45t57.5 -127q0 -109 -108 -140q62 -21 94.5 -64t32.5 -104z" />
<glyph unicode="4" horiz-adv-x="581" d="M401 -4q-12 0 -20 9.5t-8 21.5v157h-285q-22 0 -35 10.5t-13 25.5v20q0 21 28 55l257 317q19 24 29.5 31.5t31.5 7.5q29 0 41 -10.5t12 -33.5v-361h88q31 0 31 -29v-5q0 -28 -31 -28h-88v-157q0 -31 -29 -31h-9zM375 585l-274 -340h274v340z" />
<glyph unicode="5" horiz-adv-x="528" d="M124 585v-218q68 34 144 34q102 0 164.5 -55.5t62.5 -147.5q0 -97 -65 -153.5t-177 -56.5q-92 0 -157 42.5t-65 85.5q0 13 9.5 23t19.5 13t11 1q51 -104 184 -104q78 0 125 39.5t47 106.5q0 66 -43 104.5t-117 38.5q-99 0 -165 -48q-43 6 -43 47v272q0 16 11 27t27 11 h334q31 0 31 -29v-5q0 -28 -31 -28h-307z" />
<glyph unicode="6" horiz-adv-x="575" d="M123 360v-33q35 34 86.5 56t104.5 22q101 0 161 -53.5t60 -142.5v-5q0 -93 -64.5 -154.5t-162.5 -61.5q-122 0 -187 80t-65 215v73q0 141 69.5 222t187.5 81q89 0 142 -35t53 -71q0 -11 -9 -20.5t-18 -14t-10 -2.5q-57 85 -158 85q-89 0 -139.5 -63t-50.5 -178zM308 348 q-53 0 -103.5 -25.5t-80.5 -64.5q5 -100 51.5 -156t128.5 -56q73 0 119 42.5t46 109.5v6q0 69 -41.5 106.5t-119.5 37.5z" />
<glyph unicode="7" horiz-adv-x="518" d="M26 610v5q0 32 31 32h402q39 0 39 -30v-6q0 -13 -18 -47l-290 -544q-13 -24 -36 -24q-11 0 -20.5 6t-14 12.5t-2.5 9.5l302 556h-362q-31 0 -31 30z" />
<glyph unicode="8" horiz-adv-x="569" d="M284 -12q-111 0 -176.5 49.5t-65.5 131.5q0 57 34 100t98 64q-113 37 -113 148q0 79 61.5 128.5t162.5 49.5q104 0 163 -47.5t59 -128.5q0 -111 -113 -149q65 -20 98.5 -63t33.5 -101q0 -79 -67.5 -130.5t-174.5 -51.5zM285 46q85 0 129 33.5t44 93.5q0 59 -46 94.5 t-128 35.5q-83 0 -128.5 -35t-45.5 -95q0 -57 46.5 -92t128.5 -35zM285 362q74 0 114 31t40 86q0 56 -40.5 89.5t-114.5 33.5q-77 0 -116 -32.5t-39 -90.5q0 -53 41.5 -85t114.5 -32z" />
<glyph unicode="9" horiz-adv-x="575" d="M257 46q98 0 146.5 59t48.5 182v22q-35 -33 -86 -55t-105 -22q-101 0 -161 53.5t-60 142.5v5q0 94 65 160t162 66q119 0 185.5 -78t66.5 -217v-73q0 -150 -67 -226.5t-195 -76.5q-89 0 -142 35t-53 71q0 11 9 20.5t18 14t10 2.5q57 -85 158 -85zM267 289q52 0 103 25.5 t81 64.5q-4 105 -50 163.5t-130 58.5q-72 0 -118.5 -47t-46.5 -115v-6q0 -69 41.5 -106.5t119.5 -37.5z" />
<glyph unicode=":" horiz-adv-x="239" d="M114 334q-44 0 -44 44v10q0 45 44 45h10q45 0 45 -45v-10q0 -44 -45 -44h-10zM114 -6q-44 0 -44 44v10q0 45 44 45h10q45 0 45 -45v-10q0 -44 -45 -44h-10z" />
<glyph unicode=";" horiz-adv-x="239" d="M114 334q-44 0 -44 44v10q0 45 44 45h10q45 0 45 -45v-10q0 -44 -45 -44h-10zM63 -131q-5 -9 -22 -4.5t-11 19.5l60 179q5 14 8.5 20t11 10.5t19.5 4.5h5q13 0 21.5 -9t8.5 -26v-4q0 -23 -16 -48z" />
<glyph unicode="&#x3c;" horiz-adv-x="468" d="M113 268l264 -137q43 -23 41 -50q-1 -10 -5.5 -17.5t-9.5 -11t-7 -2.5l-327 175q-11 6 -15.5 14t-4.5 29q0 20 4.5 28t15.5 14l327 176q2 1 6.5 -3t9.5 -11.5t6 -16.5q3 -25 -41 -49z" />
<glyph unicode="=" horiz-adv-x="539" d="M88 346q-31 0 -31 27v7q0 27 31 27h363q31 0 31 -27v-7q0 -27 -31 -27h-363zM88 119q-31 0 -31 27v7q0 27 31 27h363q31 0 31 -27v-7q0 -27 -31 -27h-363z" />
<glyph unicode="&#x3e;" horiz-adv-x="467" d="M49 81q-2 27 41 50l263 137l-263 138q-44 24 -41 49q1 9 6 16.5t9.5 11.5t6.5 3l327 -176q11 -6 15.5 -14t4.5 -28q0 -21 -4.5 -29t-15.5 -14l-327 -175q-2 -1 -7 2.5t-9.5 11t-5.5 17.5z" />
<glyph unicode="?" horiz-adv-x="463" d="M205 177q-14 0 -21.5 5t-6.5 16q2 55 22 94.5t47.5 60.5t54.5 38.5t46 41.5t19 56q0 51 -34 80.5t-95 29.5q-71 0 -107 -39t-45 -97q-1 -3 -13 -0.5t-24 13t-12 27.5q0 21 12 46t34.5 50.5t64 42.5t92.5 17q88 0 141 -46.5t53 -117.5q0 -38 -15 -67.5t-37 -46.5 t-48 -36.5t-48 -36.5t-37 -46.5t-15 -67.5q0 -17 -28 -17zM203 -6q-44 0 -44 44v10q0 45 44 45h10q45 0 45 -45v-10q0 -44 -45 -44h-10z" />
<glyph unicode="@" horiz-adv-x="746" d="M348 165q-58 0 -96.5 42.5t-38.5 109.5t38.5 109t98.5 42q61 0 97 -49q4 47 41 47q6 0 12 -2t8.5 -4t2.5 -3v-161q0 -84 62 -84q79 0 79 145q0 116 -75 185t-200 69q-123 0 -201 -80.5t-78 -207.5q0 -125 81.5 -206t208.5 -81q93 0 159 43q19 12 34 12q8 0 15.5 -7.5 t11 -15.5t0.5 -10q-36 -29 -95 -49.5t-125 -20.5q-153 0 -246.5 92t-93.5 243q0 148 92 242t237 94q149 0 237 -81.5t88 -220.5q0 -93 -36.5 -143.5t-105.5 -50.5q-42 0 -70 17.5t-36 48.5q-35 -64 -106 -64zM363 221q35 0 59.5 23t24.5 58v52q-25 58 -83 58q-38 0 -61 -26 t-23 -69t23 -69.5t60 -26.5z" />
<glyph unicode="A" horiz-adv-x="609" d="M512 27l-71 184h-278l-70 -184q-12 -31 -39 -31q-9 0 -19 4t-15 8.5t-4 7.5l237 612q10 25 51 25t51 -25l237 -612q1 -3 -4.5 -7.5t-15 -8.5t-19.5 -4q-29 0 -41 31zM302 575l-117 -304h234z" />
<glyph unicode="B" horiz-adv-x="603" d="M115 0q-16 0 -27 11t-11 27v571q0 16 11 27t27 11h207q103 0 157 -43.5t54 -126.5q0 -104 -112 -141q70 -15 105 -57t35 -100q0 -179 -233 -179h-213zM145 61h182q87 0 125.5 28.5t38.5 92.5q0 116 -160 116h-186v-237zM145 358h180q62 0 100 32t38 84q0 112 -141 112 h-177v-228z" />
<glyph unicode="C" horiz-adv-x="660" d="M371 -12q-142 0 -231.5 93t-89.5 241q0 149 90.5 243t233.5 94q104 0 172.5 -45.5t68.5 -82.5q0 -16 -9.5 -26.5t-19.5 -13.5t-11 -1q-30 52 -86 81t-117 29q-111 0 -181.5 -77t-70.5 -199q0 -121 72 -199t182 -78q72 0 129.5 34.5t79.5 92.5q1 3 11.5 0t21.5 -13.5 t11 -26.5q0 -41 -72 -93.5t-184 -52.5z" />
<glyph unicode="D" horiz-adv-x="672" d="M115 0q-16 0 -27 11t-11 27v571q0 16 11 27t27 11h153q167 0 260.5 -85t93.5 -237q0 -153 -95 -239t-264 -86h-148zM145 60h122q136 0 210.5 69t74.5 194q0 124 -75.5 194t-208.5 70h-123v-527z" />
<glyph unicode="E" horiz-adv-x="576" d="M115 0q-16 0 -27 11t-11 27v571q0 16 11 27t27 11h387q31 0 31 -28v-6q0 -28 -31 -28h-357v-223h286q31 0 31 -28v-4q0 -28 -31 -28h-286v-240h363q31 0 31 -27v-6q0 -29 -31 -29h-393z" />
<glyph unicode="F" horiz-adv-x="533" d="M106 -4q-29 0 -29 31v582q0 16 11 27t27 11h362q31 0 31 -28v-6q0 -28 -31 -28h-332v-244h251q31 0 31 -28v-4q0 -28 -31 -28h-251v-254q0 -31 -30 -31h-9z" />
<glyph unicode="G" horiz-adv-x="706" d="M620 -4q-19 0 -28.5 13.5t-9.5 51.5v41q-31 -54 -90 -84t-137 -30q-138 0 -221.5 93.5t-83.5 240.5q0 149 90.5 243t233.5 94q104 0 172.5 -45.5t68.5 -82.5q0 -17 -10 -27t-20 -12t-11 0q-30 51 -85.5 79.5t-116.5 28.5q-112 0 -182 -77t-70 -199q0 -123 65.5 -200 t178.5 -77q87 0 147 45.5t71 119.5v57h-182q-37 0 -37 28v4q0 29 37 29h192q22 0 36 -14.5t14 -35.5v-277q0 -7 -22 -7z" />
<glyph unicode="H" horiz-adv-x="679" d="M106 -4q-29 0 -29 31v593q0 31 29 31h9q30 0 30 -31v-265h389v265q0 31 29 31h9q30 0 30 -31v-593q0 -31 -30 -31h-9q-29 0 -29 31v266h-389v-266q0 -31 -30 -31h-9z" />
<glyph unicode="I" horiz-adv-x="242" d="M116 -4q-29 0 -29 31v593q0 31 29 31h9q30 0 30 -31v-593q0 -31 -30 -31h-9z" />
<glyph unicode="J" horiz-adv-x="437" d="M182 -12q-63 0 -109.5 31.5t-46.5 62.5q0 12 9.5 23t19.5 15.5t11 2.5q16 -34 46.5 -55t69.5 -21q65 0 92.5 36t27.5 121v416q0 31 30 31h9q29 0 29 -31v-416q0 -110 -45.5 -163t-142.5 -53z" />
<glyph unicode="K" horiz-adv-x="556" d="M106 -4q-29 0 -29 31v593q0 31 29 31h9q30 0 30 -31v-281l296 291q21 21 39 21q16 0 24.5 -9t9.5 -17.5t0 -9.5l-294 -283l301 -301q2 -2 0 -10t-11.5 -16.5t-25.5 -8.5q-21 0 -37 16l-302 311v-296q0 -31 -30 -31h-9z" />
<glyph unicode="L" horiz-adv-x="520" d="M115 0q-16 0 -27 11t-11 27v582q0 31 29 31h9q30 0 30 -31v-557h312q31 0 31 -29v-5q0 -29 -31 -29h-342z" />
<glyph unicode="M" horiz-adv-x="741" d="M104 -4q-27 0 -27 31v581q0 19 13.5 31t35.5 12h16q24 0 35 -11t24 -40l170 -377l171 377q13 29 24 40t35 11h14q22 0 35.5 -12t13.5 -31v-581q0 -31 -29 -31h-8q-28 0 -28 31v546l-170 -369q-19 -43 -59 -43q-24 0 -36.5 10.5t-22.5 32.5l-169 369v-546q0 -31 -28 -31 h-10z" />
<glyph unicode="N" horiz-adv-x="675" d="M104 -4q-27 0 -27 31v578q0 20 10 33t27 13h17q17 0 27.5 -8t24.5 -28l351 -509v514q0 31 28 31h9q27 0 27 -31v-578q0 -21 -9.5 -33.5t-25.5 -12.5h-5q-17 0 -25 5.5t-19 20.5l-373 539v-534q0 -31 -28 -31h-9z" />
<glyph unicode="O" horiz-adv-x="744" d="M371 -12q-143 0 -232 93t-89 241t90.5 242.5t232.5 94.5t231.5 -93t89.5 -242q0 -148 -90 -242t-233 -94zM373 47q110 0 180.5 77t70.5 198t-71.5 199.5t-181.5 78.5t-180.5 -77.5t-70.5 -198.5t71.5 -199t181.5 -78z" />
<glyph unicode="P" horiz-adv-x="553" d="M106 -4q-29 0 -29 31v582q0 16 11 27t27 11h166q113 0 175.5 -51t62.5 -145q0 -97 -62.5 -148t-183.5 -51h-128v-225q0 -31 -30 -31h-9zM145 586v-274h134q170 0 170 137t-167 137h-137z" />
<glyph unicode="Q" horiz-adv-x="744" d="M651 -12q-17 0 -34 17l-48 48q-86 -65 -198 -65q-143 0 -232 93t-89 241t90.5 242.5t232.5 94.5t231.5 -93t89.5 -242q0 -134 -81 -228l77 -77q2 -2 -2 -9.5t-14 -14.5t-23 -7zM373 47q90 0 153 48l-133 135q-10 10 -12 22t6 21l7 7q18 18 42 -5l132 -136q56 72 56 183 q0 121 -71.5 199.5t-181.5 78.5t-180.5 -77.5t-70.5 -198.5t71.5 -199t181.5 -78z" />
<glyph unicode="R" horiz-adv-x="567" d="M477 -4q-22 0 -42 24l-210 252h-81v-245q0 -31 -30 -31h-8q-29 0 -29 31v582q0 16 11 27t27 11h178q114 0 173.5 -47.5t59.5 -139.5q0 -88 -55.5 -137.5t-159.5 -50.5l207 -244q2 -3 -2.5 -10.5t-15 -14.5t-23.5 -7zM144 586v-256h155q78 0 117.5 34t39.5 94 q0 128 -161 128h-151z" />
<glyph unicode="S" horiz-adv-x="541" d="M274 -12q-99 0 -168 43t-69 84q0 13 9.5 23.5t19.5 15t11 2.5q64 -109 196 -109q75 0 117 32t42 88q0 30 -13.5 52.5t-42.5 37t-53.5 22.5t-68.5 18q-45 11 -74 21t-61 30.5t-48 53.5t-16 79q0 76 62 127t155 51q92 0 153 -37.5t61 -74.5q0 -13 -9.5 -23.5t-19.5 -15 t-11 -2.5q-24 42 -69.5 68t-103.5 26q-68 0 -110 -32.5t-42 -84.5q0 -24 9 -42.5t20.5 -30t36.5 -21.5t44 -15t56 -14q36 -8 62 -16.5t56.5 -24t49.5 -34.5t31.5 -48.5t12.5 -66.5q0 -83 -61.5 -132.5t-163.5 -49.5z" />
<glyph unicode="T" horiz-adv-x="584" d="M55 585q-31 0 -31 28v5q0 29 31 29h474q31 0 31 -29v-5q0 -28 -31 -28h-203v-558q0 -31 -30 -31h-9q-29 0 -29 31v558h-203z" />
<glyph unicode="U" horiz-adv-x="639" d="M318 -12q-122 0 -186.5 68.5t-64.5 198.5v365q0 31 29 31h9q30 0 30 -31v-360q0 -211 185 -211t185 212v359q0 31 28 31h12q27 0 27 -31v-362q0 -131 -65.5 -200.5t-188.5 -69.5z" />
<glyph unicode="V" horiz-adv-x="600" d="M57 651q29 0 41 -31l203 -549l204 549q12 31 39 31q9 0 19 -4t15 -8.5t4 -7.5l-237 -612q-10 -25 -45 -25t-45 25l-237 612q-1 3 4.5 7.5t15 8.5t19.5 4z" />
<glyph unicode="W" horiz-adv-x="904" d="M258 -7q-28 0 -39 6t-14 22l-150 615q-1 2 3.5 5.5t13.5 6.5t20 3q32 0 42 -42l124 -548l142 463q7 20 18 29t36 9t35.5 -8.5t17.5 -29.5l140 -461l127 546q6 23 13.5 32.5t24.5 9.5q11 0 20 -3t13.5 -6.5t3.5 -5.5l-150 -615q-3 -16 -14 -22t-39 -6q-24 0 -34 6.5 t-15 22.5l-142 473l-151 -473q-5 -16 -14 -22.5t-32 -6.5z" />
<glyph unicode="X" horiz-adv-x="582" d="M70 651q24 0 38 -20l185 -257l193 259q16 21 33 21q11 0 20 -7t12.5 -14.5t1.5 -10.5l-223 -296l223 -295q2 -3 -1.5 -10.5t-13 -14.5t-21.5 -7q-23 0 -38 20l-191 261l-195 -263q-16 -21 -33 -21q-11 0 -20 7t-12.5 14.5t-1.5 10.5l225 298l-217 293q-2 3 1.5 10.5 t13 14.5t21.5 7z" />
<glyph unicode="Y" horiz-adv-x="549" d="M269 -4q-29 0 -29 31v242l-230 353q-2 3 2 9.5t14.5 13t24.5 6.5q21 0 34 -23l190 -297l189 296q16 24 34 24q13 0 23 -6.5t14.5 -13t2.5 -9.5l-230 -353v-242q0 -31 -30 -31h-9z" />
<glyph unicode="Z" horiz-adv-x="604" d="M109 0q-55 0 -55 38v9q0 26 40 75l372 463h-380q-31 0 -31 28v5q0 29 31 29h401q54 0 54 -37v-9q0 -23 -39 -72l-375 -467h401q31 0 31 -28v-5q0 -29 -31 -29h-419z" />
<glyph unicode="[" horiz-adv-x="323" d="M117 -197q-16 0 -27 11t-11 27v768q0 16 11 27t27 11h154q31 0 31 -26v-7q0 -26 -31 -26h-130v-726h130q31 0 31 -26v-7q0 -26 -31 -26h-154z" />
<glyph unicode="\" horiz-adv-x="323" d="M271 -197q-12 0 -12 3l-235 769q-8 26 -8 39q0 37 42 37q12 0 12 -3l235 -768q8 -26 8 -39q0 -38 -42 -38z" />
<glyph unicode="]" horiz-adv-x="323" d="M52 -197q-31 0 -31 26v7q0 26 31 26h130v726h-130q-31 0 -31 26v7q0 26 31 26h154q16 0 27 -11t11 -27v-768q0 -16 -11 -27t-27 -11h-154z" />
<glyph unicode="^" horiz-adv-x="500" d="M141 446q-22 0 -22 23q0 21 32 58t63.5 63t35.5 26t35 -26t63 -63t32 -58q0 -23 -21 -23q-16 0 -40 24.5t-70 87.5q-47 -64 -69.5 -88t-38.5 -24z" />
<glyph unicode="_" horiz-adv-x="465" d="M46 -62q-31 0 -31 28v5q0 29 31 29h373q31 0 31 -29v-5q0 -28 -31 -28h-373z" />
<glyph unicode="`" horiz-adv-x="500" d="M157 620q-37 25 -37 50q0 12 9 19.5t21 7.5q22 0 46 -18q29 -21 60.5 -51.5t49 -52t15.5 -24.5q-3 -3 -29 4.5t-65 25.5t-70 39z" />
<glyph unicode="a" horiz-adv-x="505" d="M201 -11q-77 0 -120.5 36t-43.5 97q0 82 81.5 120t249.5 42h10v17q0 61 -34.5 94t-99.5 33q-105 0 -152 -88q0 -1 -9 1.5t-18.5 11.5t-9.5 25q0 32 54.5 71t139.5 39q91 0 142 -49.5t51 -135.5v-300q0 -1 -3 -2.5t-8 -3t-11 -1.5q-41 0 -41 63v18q-61 -88 -178 -88z M207 43q74 0 122.5 41t48.5 105v44l-28 -1q-126 -5 -186.5 -30t-60.5 -80q0 -36 28 -57.5t76 -21.5z" />
<glyph unicode="b" horiz-adv-x="569" d="M305 -12q-61 0 -106.5 24t-67.5 61v-46q0 -31 -28 -31h-7q-29 0 -29 31v647q0 1 3 2.5t8 3t11 1.5q43 0 43 -63v-220q68 90 177 90q96 0 160.5 -69t64.5 -180q0 -112 -64.5 -181.5t-164.5 -69.5zM300 45q76 0 122 53.5t46 139.5q0 84 -47 138.5t-119 54.5 q-122 0 -171 -113v-112q0 -67 50.5 -114t118.5 -47z" />
<glyph unicode="c" horiz-adv-x="518" d="M280 -12q-105 0 -175 71.5t-70 179.5t70 178.5t175 70.5q93 0 149 -45.5t56 -86.5q0 -13 -10.5 -22t-20.5 -9.5t-12 0.5q-44 105 -162 105q-77 0 -128 -54t-51 -137t51 -138t128 -55q118 0 162 105q2 1 12 0.5t20.5 -9.5t10.5 -22q0 -41 -56 -86.5t-149 -45.5z" />
<glyph unicode="d" horiz-adv-x="569" d="M260 -12q-96 0 -160.5 69t-64.5 180q0 112 64.5 181.5t164.5 69.5q59 0 104.5 -24t68.5 -60v270q0 1 3 2.5t8 3t11 1.5q43 0 43 -63v-591q0 -31 -29 -31h-7q-28 0 -28 31v52q-67 -91 -178 -91zM267 45q67 0 117.5 44t53.5 109v121q-49 112 -169 112q-76 0 -122 -53.5 t-46 -139.5q0 -84 47 -138.5t119 -54.5z" />
<glyph unicode="e" horiz-adv-x="531" d="M281 -12q-109 0 -177.5 69t-68.5 179q0 109 68 180.5t172 71.5q101 0 161.5 -65.5t60.5 -174.5v-6q0 -13 -6 -17.5t-21 -4.5h-370q4 -77 54.5 -125.5t126.5 -48.5q110 0 163 85q1 2 10.5 -1t18.5 -12.5t9 -23.5q0 -31 -57 -68.5t-144 -37.5zM275 431q-67 0 -114.5 -43 t-58.5 -112h326q-5 71 -46 113t-107 42z" />
<glyph unicode="f" horiz-adv-x="330" d="M41 418q-31 0 -31 26v6q0 26 31 26h70v44q0 82 35.5 125.5t104.5 43.5q46 0 70.5 -16.5t24.5 -39.5q0 -10 -4.5 -18t-9 -11t-5.5 -2q-29 29 -76 29q-40 0 -58.5 -27.5t-18.5 -86.5v-41h96q31 0 31 -26v-6q0 -26 -31 -26h-95v-391q0 -31 -28 -31h-7q-29 0 -29 31v391h-70z " />
<glyph unicode="g" horiz-adv-x="471" d="M225 -211q-224 0 -224 130q0 52 43 88t111 49q-21 18 -21 46q0 24 21 47q-54 19 -86.5 62t-32.5 97q0 75 55.5 127.5t137.5 52.5q67 0 120 -37l33 53q21 30 46 30q12 0 21.5 -7t13 -14t2.5 -8l-79 -88q39 -47 39 -105q0 -74 -56 -124.5t-140 -50.5q-18 0 -26 1 q-7 -10 -7 -24q0 -7 2.5 -12.5t9 -10t13 -7.5t19.5 -6.5t23.5 -6t30 -7t34.5 -8.5q140 -35 140 -125q0 -67 -64 -104.5t-179 -37.5zM230 188q57 0 92.5 34t35.5 88t-36 89t-94 35q-56 0 -91 -34.5t-35 -89.5q0 -54 36 -88t92 -34zM403 -71q0 12 -4.5 22t-15.5 18t-21 13.5 t-28.5 11t-30 8.5t-34 8.5t-32.5 7.5q-73 -4 -123 -30t-50 -69q0 -77 163 -77q83 0 129.5 22.5t46.5 64.5z" />
<glyph unicode="h" horiz-adv-x="545" d="M132 618v-218q57 88 161 88q92 0 140.5 -56.5t48.5 -153.5v-251q0 -31 -29 -31h-7q-29 0 -29 31v247q0 72 -34 112.5t-94 40.5q-71 0 -114 -44.5t-43 -118.5v-237q0 -31 -29 -31h-7q-29 0 -29 31v647q0 1 3 2.5t8 3t11 1.5q43 0 43 -63z" />
<glyph unicode="i" horiz-adv-x="209" d="M104 595q-42 0 -42 43t44 43q42 0 42 -43t-44 -43zM101 -4q-29 0 -29 31v422q0 31 29 31h7q29 0 29 -31v-422q0 -31 -29 -31h-7z" />
<glyph unicode="j" horiz-adv-x="209" d="M104 595q-42 0 -42 43t44 43q42 0 42 -43t-44 -43zM6 -200q-40 0 -65 16t-25 36q0 10 4.5 19t9 13.5t5.5 3.5q30 -30 70 -30q36 0 51.5 21t15.5 68v502q0 31 29 31h7q29 0 29 -31v-507q0 -69 -33.5 -105.5t-97.5 -36.5z" />
<glyph unicode="k" horiz-adv-x="443" d="M96 -4q-29 0 -29 31v647q0 1 3 2.5t8 3t11 1.5q43 0 43 -63v-360l192 196q25 26 44 26q12 0 20.5 -7.5t11 -15t0.5 -9.5l-197 -196l228 -222q2 -2 -1.5 -10t-12.5 -16t-21 -8q-17 0 -42 25l-222 221v-215q0 -31 -29 -31h-7z" />
<glyph unicode="l" horiz-adv-x="209" d="M101 -4q-29 0 -29 31v647q0 1 3 2.5t8 3t11 1.5q43 0 43 -63v-591q0 -31 -29 -31h-7z" />
<glyph unicode="m" horiz-adv-x="855" d="M131 417v-12q57 83 150 83q118 0 158 -102q26 46 69.5 74t99.5 28q90 0 137 -51t47 -150v-260q0 -31 -29 -31h-7q-29 0 -29 31v256q0 144 -123 144q-44 0 -82.5 -26.5t-59.5 -69.5v-304q0 -31 -29 -31h-7q-29 0 -29 31v251q0 149 -123 149q-44 0 -82.5 -26.5t-59.5 -69.5 v-304q0 -31 -29 -31h-7q-29 0 -29 31v446q0 1 3 2.5t8 3t11 1.5q42 0 42 -63z" />
<glyph unicode="n" horiz-adv-x="545" d="M131 417v-16q56 87 162 87q92 0 140.5 -56.5t48.5 -153.5v-251q0 -31 -29 -31h-7q-29 0 -29 31v247q0 72 -34 112.5t-94 40.5q-54 0 -94.5 -27t-62.5 -74v-299q0 -31 -29 -31h-7q-29 0 -29 31v446q0 1 3 2.5t8 3t11 1.5q42 0 42 -63z" />
<glyph unicode="o" horiz-adv-x="562" d="M281 -12q-107 0 -176.5 71t-69.5 180q0 108 69.5 178.5t176.5 70.5q106 0 175.5 -71t69.5 -180q0 -108 -69.5 -178.5t-175.5 -70.5zM281 45q77 0 128 54.5t51 137.5t-51 138.5t-128 55.5t-128.5 -54.5t-51.5 -137.5t51.5 -138.5t128.5 -55.5z" />
<glyph unicode="p" horiz-adv-x="569" d="M96 -197q-29 0 -29 31v639q0 1 3 2.5t8 3t11 1.5q42 0 42 -63v-21q67 92 178 92q96 0 160.5 -69t64.5 -180q0 -112 -64.5 -181.5t-164.5 -69.5q-60 0 -105.5 26.5t-67.5 64.5v-245q0 -31 -29 -31h-7zM300 45q76 0 122 53.5t46 139.5q0 84 -47 138.5t-119 54.5 q-122 0 -171 -113v-112q0 -67 50.5 -114t118.5 -47z" />
<glyph unicode="q" horiz-adv-x="569" d="M466 -197q-29 0 -29 31v244q-67 -90 -177 -90q-96 0 -160.5 69t-64.5 180q0 112 64.5 181.5t164.5 69.5q60 0 106 -24.5t68 -60.5v14q0 63 42 63q6 0 11 -1.5t8 -3t3 -2.5v-639q0 -31 -29 -31h-7zM267 45q68 0 119.5 47.5t51.5 114.5v110q-50 114 -169 114 q-76 0 -122 -53.5t-46 -139.5q0 -84 47 -138.5t119 -54.5z" />
<glyph unicode="r" horiz-adv-x="338" d="M131 417v-28q30 99 126 99q69 0 69 -49q0 -11 -4 -19.5t-8.5 -12t-5.5 -2.5q-23 20 -58 20q-61 0 -89.5 -57t-28.5 -154v-187q0 -31 -29 -31h-7q-29 0 -29 31v446q0 1 3 2.5t8 3t11 1.5q42 0 42 -63z" />
<glyph unicode="s" horiz-adv-x="454" d="M227 -12q-87 0 -141.5 32.5t-54.5 64.5q0 12 8.5 21t17 12t9.5 2q56 -77 163 -77q58 0 90.5 21.5t32.5 58.5q0 17 -6.5 29.5t-16 20.5t-30 15.5t-37.5 11.5t-50 11q-30 6 -47 10.5t-43 15.5t-40.5 23.5t-25.5 34t-11 49.5q0 64 50 104t132 40q80 0 128 -30t48 -61 q0 -11 -8.5 -20t-17.5 -12.5t-10 -1.5q-46 70 -140 70q-57 0 -88.5 -22t-31.5 -58t29.5 -52t103.5 -32q27 -6 40.5 -9.5t38.5 -11.5t38.5 -17t28.5 -22.5t22 -32.5t7 -43q0 -66 -50.5 -105.5t-137.5 -39.5z" />
<glyph unicode="t" horiz-adv-x="346" d="M53 418q-31 0 -31 26v6q0 26 31 26h44v83q0 31 29 31h7q28 0 28 -31v-83h127q31 0 31 -26v-6q0 -26 -31 -26h-127v-271q0 -54 16 -78.5t55 -24.5q46 0 74 35q1 1 6.5 -1.5t10.5 -11t5 -19.5q0 -22 -27 -40.5t-71 -18.5q-133 0 -133 152v278h-44z" />
<glyph unicode="u" horiz-adv-x="545" d="M456 -4q-42 0 -42 63v15q-57 -86 -162 -86q-92 0 -140.5 56.5t-48.5 153.5v251q0 31 29 31h7q29 0 29 -31v-247q0 -72 35 -112.5t98 -40.5q51 0 90.5 27.5t61.5 73.5v299q0 31 29 31h7q29 0 29 -31v-446q0 -1 -3 -2.5t-8 -3t-11 -1.5z" />
<glyph unicode="v" horiz-adv-x="473" d="M236 58l143 374q11 28 21 38t26 10q10 0 18 -4t11.5 -8.5t2.5 -6.5l-175 -441q-6 -14 -15 -20t-32 -6q-24 0 -31 5t-13 19l-177 443q-1 2 2.5 6.5t11.5 8.5t18 4q18 0 28 -9.5t21 -38.5z" />
<glyph unicode="w" horiz-adv-x="674" d="M187 -6q-26 0 -35.5 5.5t-12.5 19.5l-115 442q-1 2 4 6.5t14.5 8.5t19.5 4q30 0 39 -46l87 -374l102 321q5 15 15 21t34 6t34 -6t15 -21l101 -321l86 374q8 46 39 46q9 0 18 -4t14 -8.5t4 -6.5l-114 -442q-3 -14 -12.5 -19.5t-35.5 -5.5q-23 0 -31 5.5t-13 19.5l-105 326 l-108 -326q-5 -14 -13 -19.5t-31 -5.5z" />
<glyph unicode="x" horiz-adv-x="465" d="M272 237l165 -213q1 -2 -1.5 -8.5t-11 -13t-20.5 -6.5q-16 0 -26 7.5t-23 25.5l-126 169l-122 -168q-25 -34 -49 -34q-12 0 -20.5 6.5t-11.5 13.5t-2 8l169 213l-166 215q-1 2 1.5 8.5t11 13t20.5 6.5q16 0 26 -7.5t23 -25.5l126 -170l123 169q24 34 48 34 q12 0 20.5 -6.5t11.5 -13.5t2 -8z" />
<glyph unicode="y" horiz-adv-x="472" d="M183 -197q-8 0 -16.5 3.5t-13.5 7.5t-4 6l80 204q-17 0 -25 5t-15 20l-174 412q-1 2 2.5 6.5t11.5 8.5t18 4q17 0 28 -9.5t21 -35.5l151 -373l131 371q16 47 48 47q8 0 16.5 -3.5t13 -7.5t3.5 -6l-230 -617q-16 -43 -46 -43z" />
<glyph unicode="z" horiz-adv-x="473" d="M71 0q-31 0 -31 28v9q0 12 25 43l278 340h-270q-33 0 -33 25v6q0 25 33 25h326q31 0 31 -28v-5q0 -10 -25 -41l-283 -346h282q33 0 33 -25v-6q0 -25 -33 -25h-333z" />
<glyph unicode="{" horiz-adv-x="410" d="M364 -199q-36 0 -73.5 20.5t-71.5 59t-57 103.5t-26 145l-65 35q-28 16 -36.5 26t-8.5 36t8.5 36t36.5 26l66 35q3 80 26 145t57 103.5t71.5 59t73.5 20.5q26 0 26 -28q0 -7 -3.5 -15.5t-5.5 -9.5q-96 -20 -136 -95t-44 -214l-119 -63l118 -63q4 -139 44 -214t136 -95 q2 -1 5.5 -9.5t3.5 -15.5q0 -28 -26 -28z" />
<glyph unicode="|" horiz-adv-x="243" d="M118 -197q-29 0 -29 31v786q0 31 29 31h7q29 0 29 -31v-786q0 -31 -29 -31h-7z" />
<glyph unicode="}" horiz-adv-x="410" d="M45 -199q-26 0 -26 28q0 7 3.5 15.5t5.5 9.5q96 20 136 95t44 214l118 63l-119 63q-4 139 -44 214t-136 95q-2 1 -5.5 9.5t-3.5 15.5q0 28 26 28q36 0 73.5 -20.5t71.5 -59t57 -103.5t26 -145l66 -35q28 -16 36.5 -26t8.5 -36t-8.5 -36t-36.5 -26l-65 -35 q-3 -80 -26 -145t-57 -103.5t-71.5 -59t-73.5 -20.5z" />
<glyph unicode="~" horiz-adv-x="499" d="M131 168q-25 0 -25 26q0 34 20 62t49 28q25 0 66 -21.5t82 -58.5q23 73 46 73q25 0 25 -26q0 -34 -20 -62t-49 -28q-25 0 -66 21.5t-82 58.5q-23 -73 -46 -73z" />
<glyph unicode="&#xa1;" horiz-adv-x="247" d="M119 554q-45 0 -45 45v10q0 44 45 44h10q44 0 44 -44v-10q0 -45 -44 -45h-10zM111 -4q-32 0 -29 39l22 410q2 24 16 24h8q13 0 15 -24l22 -410q3 -39 -29 -39h-25z" />
<glyph unicode="&#xa2;" horiz-adv-x="539" d="M290 -98q-27 0 -27 31v97q-101 12 -158.5 78t-57.5 173q0 101 60.5 171t155.5 82v92q0 31 27 31h5q27 0 27 -31v-90q79 -5 128.5 -43.5t49.5 -69.5q0 -13 -8.5 -23.5t-17.5 -14t-10 -1.5q-48 86 -145 94v-392q109 6 152 104q1 2 10.5 -0.5t18.5 -11.5t9 -22 q0 -38 -52 -80.5t-135 -47.5v-95q0 -31 -27 -31h-5zM113 282q0 -80 41.5 -131t111.5 -62v388q-71 -8 -112 -59t-41 -136z" />
<glyph unicode="&#xa3;" horiz-adv-x="564" d="M61 263q-31 0 -31 26v7q0 27 31 27h90l28 153q33 183 191 183q77 0 120.5 -41.5t43.5 -86.5q0 -17 -11.5 -27.5t-22 -10t-12.5 1.5q-22 106 -118 106q-56 0 -84.5 -30.5t-40.5 -98.5l-27 -149h166q31 0 31 -27v-7q0 -26 -31 -26h-177l-37 -201h320q31 0 31 -29v-5 q0 -28 -31 -28h-443q-31 0 -31 28v6q0 28 31 28h56l37 201h-79z" />
<glyph unicode="&#xa4;" horiz-adv-x="626" d="M67 376q-31 0 -31 26v6q0 26 31 26h70q20 104 85.5 164.5t161.5 60.5q86 0 143 -41.5t57 -81.5q0 -14 -9.5 -23.5t-19 -12.5t-10.5 -1q-55 103 -165 103q-66 0 -113 -45t-64 -123h216q31 0 31 -26v-6q0 -26 -31 -26h-224q-1 -9 -1 -28v-72h225q31 0 31 -26v-6 q0 -26 -31 -26h-217q17 -79 66 -125.5t118 -46.5q111 0 162 112q1 3 11 0t19.5 -13t9.5 -25q0 -42 -58 -87t-141 -45q-102 0 -168.5 60.5t-84.5 169.5h-69q-31 0 -31 26v6q0 26 31 26h62v71q0 19 1 29h-63z" />
<glyph unicode="&#xa5;" horiz-adv-x="569" d="M92 255q-31 0 -31 26v6q0 26 31 26h139l-189 309q-2 3 4 9.5t17.5 13t24.5 6.5q20 0 33 -23l163 -293l167 292q16 24 34 24q11 0 21.5 -6.5t16 -13t3.5 -9.5l-190 -309h140q31 0 31 -26v-6q0 -26 -31 -26h-161v-80h161q31 0 31 -26v-6q0 -26 -31 -26h-161v-90 q0 -31 -28 -31h-7q-27 0 -27 31v90h-161q-31 0 -31 26v6q0 26 31 26h161v80h-161z" />
<glyph unicode="&#xa7;" horiz-adv-x="520" d="M254 -160q-106 0 -165 41t-59 81q0 13 9 23t18 14.5t10 2.5q57 -102 186 -102q70 0 110 23.5t40 64.5q0 19 -7.5 33.5t-17.5 24t-33 18t-40 13t-53 12.5q-2 0 -3 0.5t-3 1t-3.5 1t-3.5 0.5q-37 9 -58.5 14.5t-52 18.5t-47.5 28t-29.5 39.5t-12.5 55.5q0 94 110 127 q-91 37 -91 126q0 69 59.5 113.5t146.5 44.5q93 0 146 -37.5t53 -73.5q0 -12 -8.5 -22t-17.5 -14.5t-10 -2.5q-58 90 -163 90q-59 0 -100 -24.5t-41 -65.5q0 -42 37.5 -64.5t121.5 -41.5q31 -7 48.5 -11.5t45 -14t43 -20t32 -25.5t24 -36t7.5 -47q0 -93 -107 -128 q93 -35 93 -128q0 -69 -59 -111t-155 -42zM254 346q-24 4 -36 7q-50 -6 -83 -35.5t-33 -62.5q0 -20 9.5 -35.5t21.5 -25.5t37.5 -19t43.5 -13.5t53 -12.5l34 -8q49 4 83.5 34.5t34.5 66.5q0 24 -11.5 41t-38.5 29t-49 18t-66 16z" />
<glyph unicode="&#xa8;" horiz-adv-x="500" d="M335 548q-23 0 -36.5 13t-13.5 36t13 36t35 13q23 0 36.5 -13t13.5 -36t-13.5 -36t-34.5 -13zM167 548q-23 0 -36.5 13t-13.5 36t13.5 36t34.5 13q23 0 36.5 -13t13.5 -36t-13 -36t-35 -13z" />
<glyph unicode="&#xa9;" horiz-adv-x="757" d="M378 -12q-144 0 -236 94t-92 240q0 145 94 241t235 96q144 0 236 -94t92 -240q0 -145 -94 -241t-235 -96zM380 36q121 0 197 80t76 207q0 124 -78.5 206t-197.5 82q-121 0 -197 -80t-76 -207q0 -124 78.5 -206t197.5 -82zM387 144q-77 0 -127 50t-50 128q0 76 51 127.5 t125 51.5q72 0 114 -42q19 -19 19 -38q0 -10 -8 -18.5t-16.5 -11.5t-9.5 -1q-30 55 -100 55q-46 0 -80 -35.5t-34 -86.5q0 -53 34 -88t84 -35q73 0 100 60q1 2 9.5 -0.5t17 -11t8.5 -19.5q0 -19 -24 -44q-39 -41 -113 -41z" />
<glyph unicode="&#xaa;" horiz-adv-x="427" d="M180 258q-68 0 -106 28t-38 77q0 61 58 93.5t213 41.5q0 107 -106 107q-74 0 -116 -68q0 -2 -8.5 0.5t-16.5 10.5t-8 19q0 28 41.5 60t112.5 32q80 0 121 -42t41 -117v-230q0 -6 -21 -6q-39 0 -39 56q-45 -62 -128 -62zM200 -6q-40 0 -40 40v8q0 41 40 41h8q41 0 41 -41 v-8q0 -40 -41 -40h-8zM188 308q49 0 84.5 28.5t35.5 64.5v54q-86 -6 -134 -19.5t-62.5 -29.5t-14.5 -40q0 -27 24 -42.5t67 -15.5z" />
<glyph unicode="&#xab;" horiz-adv-x="507" d="M432 78q-26 0 -73.5 38.5t-82.5 78.5t-35 48t35 47.5t82.5 78.5t73.5 39h1q10 0 17 -7t7 -16v-2q0 -31 -156 -141q156 -107 156 -139v-3q0 -9 -7 -15.5t-17 -6.5h-1zM218 94q-34 0 -103.5 67.5t-69.5 81.5q0 7 32 43t74.5 70.5t66.5 34.5h1q9 0 15 -6.5t6 -14.5v-1 q0 -29 -138 -127q138 -96 138 -126v-1q0 -8 -6 -14.5t-15 -6.5h-1z" />
<glyph unicode="&#xae;" horiz-adv-x="757" d="M378 -12q-144 0 -236 94t-92 240q0 145 94 241t235 96q144 0 236 -94t92 -240q0 -145 -94 -241t-235 -96zM380 36q121 0 197 80t76 207q0 124 -78.5 206t-197.5 82q-121 0 -197 -80t-76 -207q0 -124 78.5 -206t197.5 -82zM485 151q-24 0 -41 22l-88 110h-43v-104 q0 -28 -26 -28h-8q-26 0 -26 32v281q0 16 9 25t23 9h106q134 0 134 -107q0 -45 -27 -72t-77 -32l97 -111q2 -2 -2 -8t-12.5 -11.5t-18.5 -5.5zM312 447v-114h80q35 0 54 15t19 42q0 57 -76 57h-77z" />
<glyph unicode="&#xaf;" horiz-adv-x="500" d="M146 568q-39 0 -39 29v5q0 28 39 28h208q39 0 39 -28v-5q0 -29 -39 -29h-208z" />
<glyph unicode="&#xb0;" horiz-adv-x="408" d="M202 346q-65 0 -108 43.5t-43 109.5v9q0 65 45 109.5t110 44.5t108 -43.5t43 -109.5v-9q0 -65 -45 -109.5t-110 -44.5zM205 399q41 0 69 28.5t28 71.5v9q0 42 -29 71.5t-70 29.5t-69 -28.5t-28 -71.5v-9q0 -42 29 -71.5t70 -29.5z" />
<glyph unicode="&#xb1;" horiz-adv-x="600" d="M128 411q-31 0 -31 26v6q0 26 31 26h141v143q0 31 28 31h5q28 0 28 -31v-143h141q31 0 31 -26v-6q0 -26 -31 -26h-141v-154q0 -31 -28 -31h-5q-28 0 -28 31v154h-141zM118 119q-31 0 -31 27v7q0 27 31 27h363q31 0 31 -27v-7q0 -27 -31 -27h-363z" />
<glyph unicode="&#xb2;" horiz-adv-x="336" d="M194 430q-29 -13 -38.5 -18t-28.5 -17t-26 -25t-8 -31h182q30 0 30 -25v-3q0 -26 -30 -26h-197q-21 0 -30 8t-9 26v15q0 51 28 79t83 54q60 30 73 44q14 15 14 33q0 26 -18.5 41.5t-51.5 15.5q-67 0 -84 -68q-2 0 -12 -1t-21 7t-11 23q0 33 36.5 63t96.5 30 q61 0 94.5 -29t33.5 -81q0 -23 -8 -41t-25.5 -32t-32 -22t-40.5 -20z" />
<glyph unicode="&#xb3;" horiz-adv-x="336" d="M300 387q0 -51 -37.5 -80t-104.5 -29q-61 0 -98 26t-37 55q0 15 9.5 23.5t18 8.5h10.5q20 -62 96 -62q38 0 62 17t24 44q0 29 -22 44.5t-61 15.5h-24q-30 0 -30 23v4q0 22 29 22h32q31 0 49.5 14t18.5 37q0 24 -22 39t-56 15q-64 0 -86 -55q-1 -2 -10 0t-18 10t-9 22 q0 27 35 50.5t89 23.5q64 0 98.5 -26t34.5 -73q0 -59 -61 -77q70 -23 70 -92z" />
<glyph unicode="&#xb4;" horiz-adv-x="500" d="M179 551q-2 3 15.5 24.5t49 52t60.5 51.5q24 18 46 18q12 0 21 -7.5t9 -19.5q0 -25 -37 -50q-31 -21 -70 -39t-65 -25.5t-29 -4.5z" />
<glyph unicode="&#xb6;" horiz-adv-x="618" d="M502 -4q-29 0 -29 31v593q0 31 29 31h9q30 0 30 -31v-593q0 -31 -30 -31h-9zM377 -4q-30 0 -30 31v263h-79q-115 0 -175 44.5t-60 131.5q0 89 58.5 135.5t171.5 46.5h114q16 0 27 -11t11 -27v-583q0 -31 -29 -31h-9z" />
<glyph unicode="&#xb7;" horiz-adv-x="221" d="M105 193q-44 0 -44 44v10q0 45 44 45h10q45 0 45 -45v-10q0 -44 -45 -44h-10z" />
<glyph unicode="&#xb8;" horiz-adv-x="500" d="M192 -225q-7 -8 -23 -3t-10 19l60 125q7 14 10 19t10.5 10t19.5 5h5q14 0 24.5 -8t10.5 -21v-4q0 -10 -26 -41z" />
<glyph unicode="&#xb9;" horiz-adv-x="336" d="M78 285q-29 0 -29 25v2q0 27 29 27h72v228q-19 -21 -50 -21q-22 0 -38.5 12t-16.5 31q0 9 4.5 17.5t9 12t5.5 2.5q15 -17 40 -17q21 0 36.5 13t17.5 34h23q29 0 29 -31v-281h60q30 0 30 -27v-2q0 -25 -30 -25h-192z" />
<glyph unicode="&#xba;" horiz-adv-x="479" d="M240 257q-84 0 -140 57.5t-56 142.5q0 84 57 143t139 59q83 0 139 -57.5t56 -142.5t-57 -143.5t-138 -58.5zM234 -6q-40 0 -40 40v8q0 41 40 41h8q41 0 41 -41v-8q0 -40 -41 -40h-8zM240 311q58 0 96.5 42t38.5 105q0 62 -39 104.5t-96 42.5q-58 0 -97 -42t-39 -105 q0 -62 39.5 -104.5t96.5 -42.5z" />
<glyph unicode="&#xbb;" horiz-adv-x="507" d="M288 95q-9 0 -15 6.5t-6 14.5v1q0 29 138 127q-138 96 -138 126v1q0 8 6 14.5t15 6.5h1q34 0 103.5 -67.5t69.5 -81.5q0 -7 -32 -43t-74.5 -70.5t-66.5 -34.5h-1zM74 78q-10 0 -17 7t-7 16v2q0 31 156 141q-156 107 -156 139v3q0 9 7 15.5t17 6.5h1q26 0 73.5 -38.5 t82.5 -78.5t35 -48t-35 -47.5t-82.5 -78.5t-73.5 -39h-1z" />
<glyph unicode="&#xbc;" horiz-adv-x="792" d="M684 -3q-26 0 -26 30v68h-146q-18 0 -28.5 8t-10.5 21v13q1 13 17 38l124 163q11 17 21.5 22.5t33.5 5.5q25 0 35.5 -9.5t10.5 -32.5v-178h38q29 0 29 -24v-3q0 -24 -29 -24h-38v-68q0 -30 -27 -30h-4zM149 -5q0 -10 7 -16t14 -6.5t9 0.5q181 229 261 329q34 43 83 102 t83.5 101t42.5 52q25 33 25 53q0 11 -7 16.5t-15 5.5h-7q-182 -230 -263 -330q-34 -42 -83 -101.5t-83.5 -100.5t-42.5 -52q-24 -31 -24 -53zM78 285q-29 0 -29 25v2q0 27 29 27h72v228q-19 -21 -50 -21q-22 0 -38.5 12t-16.5 31q0 9 4.5 17.5t9 12t5.5 2.5q15 -17 40 -17 q21 0 36.5 13t17.5 34h23q29 0 29 -31v-281h60q30 0 30 -27v-2q0 -25 -30 -25h-192zM658 316l-129 -171h130z" />
<glyph unicode="&#xbd;" horiz-adv-x="792" d="M650 145q-29 -13 -38.5 -18t-28.5 -17t-26 -25t-8 -31h182q30 0 30 -25v-3q0 -26 -30 -26h-197q-21 0 -30 8t-9 26v15q0 51 28 79t83 54q60 30 73 44q14 15 14 33q0 26 -18.5 41.5t-51.5 15.5q-67 0 -84 -68q-2 0 -12 -1t-21 7t-11 23q0 33 36.5 63t96.5 30 q61 0 94.5 -29t33.5 -81q0 -23 -8 -41t-25.5 -32t-32 -22t-40.5 -20zM119 -5q0 -10 7 -16t14 -6.5t9 0.5q181 229 261 329q34 43 83 102t83.5 101t42.5 52q25 33 25 53q0 11 -7 16.5t-15 5.5h-7q-182 -230 -263 -330q-34 -42 -83 -101.5t-83.5 -100.5t-42.5 -52 q-24 -31 -24 -53zM78 285q-29 0 -29 25v2q0 27 29 27h72v228q-19 -21 -50 -21q-22 0 -38.5 12t-16.5 31q0 9 4.5 17.5t9 12t5.5 2.5q15 -17 40 -17q21 0 36.5 13t17.5 34h23q29 0 29 -31v-281h60q30 0 30 -27v-2q0 -25 -30 -25h-192z" />
<glyph unicode="&#xbe;" horiz-adv-x="792" d="M684 -3q-26 0 -26 30v68h-146q-18 0 -28.5 8t-10.5 21v13q1 13 17 38l124 163q11 17 21.5 22.5t33.5 5.5q25 0 35.5 -9.5t10.5 -32.5v-178h38q29 0 29 -24v-3q0 -24 -29 -24h-38v-68q0 -30 -27 -30h-4zM300 387q0 -51 -37.5 -80t-104.5 -29q-61 0 -98 26t-37 55 q0 15 9.5 23.5t18 8.5h10.5q20 -62 96 -62q38 0 62 17t24 44q0 29 -22 44.5t-61 15.5h-24q-30 0 -30 23v4q0 22 29 22h32q31 0 49.5 14t18.5 37q0 24 -22 39t-56 15q-64 0 -86 -55q-1 -2 -10 0t-18 10t-9 22q0 27 35 50.5t89 23.5q64 0 98.5 -26t34.5 -73q0 -59 -61 -77 q70 -23 70 -92zM149 -5q0 22 24 53q8 11 42.5 52t83.5 100.5t83 101.5l263 330q29 2 29 -22q0 -20 -25 -53q-8 -10 -42.5 -52t-83.5 -101t-83 -102l-261 -329q-2 -1 -9 -0.5t-14 6.5t-7 16zM658 316l-129 -171h130z" />
<glyph unicode="&#xbf;" horiz-adv-x="463" d="M250 554q-45 0 -45 45v10q0 44 45 44h10q44 0 44 -44v-10q0 -45 -44 -45h-10zM224 -12q-88 0 -141 46.5t-53 117.5q0 38 15 67.5t37 46.5t48 36.5t48 36.5t37 46.5t15 67.5q0 17 28 17q14 0 21.5 -5t6.5 -16q-2 -55 -22 -94.5t-47.5 -60.5t-54.5 -38.5t-46 -41.5t-19 -56 q0 -51 34 -80.5t95 -29.5q71 0 107 39t45 97q1 3 13 0.5t24 -13t12 -27.5q0 -21 -12 -46t-34.5 -50.5t-64 -42.5t-92.5 -17z" />
<glyph unicode="&#xc0;" horiz-adv-x="609" d="M512 27l-71 184h-278l-70 -184q-12 -31 -39 -31q-9 0 -19 4t-15 8.5t-4 7.5l237 612q10 25 51 25t51 -25l237 -612q1 -3 -4.5 -7.5t-15 -8.5t-19.5 -4q-29 0 -41 31zM302 575l-117 -304h234zM181 790q-37 25 -37 50q0 12 9 19.5t21 7.5q22 0 46 -18q29 -21 60.5 -51.5 t49 -52t15.5 -24.5q-3 -3 -29 4.5t-65 25.5t-70 39z" />
<glyph unicode="&#xc1;" horiz-adv-x="609" d="M512 27l-71 184h-278l-70 -184q-12 -31 -39 -31q-9 0 -19 4t-15 8.5t-4 7.5l237 612q10 25 51 25t51 -25l237 -612q1 -3 -4.5 -7.5t-15 -8.5t-19.5 -4q-29 0 -41 31zM302 575l-117 -304h234zM253 721q-2 3 15.5 24.5t49 52t60.5 51.5q24 18 46 18q12 0 21 -7.5t9 -19.5 q0 -25 -37 -50q-31 -21 -70 -39t-65 -25.5t-29 -4.5z" />
<glyph unicode="&#xc2;" horiz-adv-x="609" d="M512 27l-71 184h-278l-70 -184q-12 -31 -39 -31q-9 0 -19 4t-15 8.5t-4 7.5l237 612q10 25 51 25t51 -25l237 -612q1 -3 -4.5 -7.5t-15 -8.5t-19.5 -4q-29 0 -41 31zM302 575l-117 -304h234zM195 719q-22 0 -22 23q0 21 32 58t63.5 63t35.5 26t35 -26t63 -63t32 -58 q0 -23 -21 -23q-16 0 -40 24.5t-70 87.5q-47 -64 -69.5 -88t-38.5 -24z" />
<glyph unicode="&#xc3;" horiz-adv-x="609" d="M512 27l-71 184h-278l-70 -184q-12 -31 -39 -31q-9 0 -19 4t-15 8.5t-4 7.5l237 612q10 25 51 25t51 -25l237 -612q1 -3 -4.5 -7.5t-15 -8.5t-19.5 -4q-29 0 -41 31zM302 575l-117 -304h234zM191 725q-25 0 -25 26q0 34 20 62t49 28q25 0 66 -21.5t82 -58.5q23 73 46 73 q25 0 25 -26q0 -34 -20 -62t-49 -28q-25 0 -66 21.5t-82 58.5q-23 -73 -46 -73z" />
<glyph unicode="&#xc4;" horiz-adv-x="609" d="M512 27l-71 184h-278l-70 -184q-12 -31 -39 -31q-9 0 -19 4t-15 8.5t-4 7.5l237 612q10 25 51 25t51 -25l237 -612q1 -3 -4.5 -7.5t-15 -8.5t-19.5 -4q-29 0 -41 31zM302 575l-117 -304h234zM389 718q-23 0 -36.5 13t-13.5 36t13 36t35 13q23 0 36.5 -13t13.5 -36 t-13.5 -36t-34.5 -13zM221 718q-23 0 -36.5 13t-13.5 36t13.5 36t34.5 13q23 0 36.5 -13t13.5 -36t-13 -36t-35 -13z" />
<glyph unicode="&#xc5;" horiz-adv-x="609" d="M420 719q0 -34 -17 -61t-45 -41l234 -601q1 -3 -4.5 -7.5t-15 -8.5t-19.5 -4q-29 0 -41 31l-71 184h-278l-70 -184q-12 -31 -39 -31q-9 0 -19 4t-15 8.5t-4 7.5l232 600q-61 29 -61 103q0 50 33.5 83.5t83.5 33.5q51 0 83.5 -33t32.5 -84zM302 577l-117 -306h234z M303 647q29 0 48 20.5t19 51.5t-19.5 52t-47.5 21t-47.5 -21t-19.5 -52q0 -30 19.5 -51t47.5 -21z" />
<glyph unicode="&#xc6;" horiz-adv-x="844" d="M506 38l-65 173h-278l-70 -184q-13 -31 -39 -31q-9 0 -19 4t-15 8.5t-4 7.5l233 601q12 30 43 30h478q31 0 31 -28v-6q0 -28 -31 -28h-401l86 -222h244q31 0 31 -28v-6q0 -28 -31 -28h-219l92 -239h204q31 0 31 -27v-6q0 -29 -31 -29h-214q-24 0 -36 8.5t-20 29.5z M302 575l-117 -304h234z" />
<glyph unicode="&#xc7;" horiz-adv-x="660" d="M371 -12q-142 0 -231.5 93t-89.5 241q0 149 90.5 243t233.5 94q104 0 172.5 -45.5t68.5 -82.5q0 -16 -9.5 -26.5t-19.5 -13.5t-11 -1q-30 52 -86 81t-117 29q-111 0 -181.5 -77t-70.5 -199q0 -121 72 -199t182 -78q72 0 129.5 34.5t79.5 92.5q1 3 11.5 0t21.5 -13.5 t11 -26.5q0 -41 -72 -93.5t-184 -52.5zM297 -225q-7 -8 -23 -3t-10 19l60 125q7 14 10 19t10.5 10t19.5 5h5q14 0 24.5 -8t10.5 -21v-4q0 -10 -26 -41z" />
<glyph unicode="&#xc8;" horiz-adv-x="576" d="M115 0q-16 0 -27 11t-11 27v571q0 16 11 27t27 11h387q31 0 31 -28v-6q0 -28 -31 -28h-357v-223h286q31 0 31 -28v-4q0 -28 -31 -28h-286v-240h363q31 0 31 -27v-6q0 -29 -31 -29h-393zM212 790q-37 25 -37 50q0 12 9 19.5t21 7.5q22 0 46 -18q29 -21 60.5 -51.5t49 -52 t15.5 -24.5q-3 -3 -29 4.5t-65 25.5t-70 39z" />
<glyph unicode="&#xc9;" horiz-adv-x="576" d="M115 0q-16 0 -27 11t-11 27v571q0 16 11 27t27 11h387q31 0 31 -28v-6q0 -28 -31 -28h-357v-223h286q31 0 31 -28v-4q0 -28 -31 -28h-286v-240h363q31 0 31 -27v-6q0 -29 -31 -29h-393zM227 721q-2 3 15.5 24.5t49 52t60.5 51.5q24 18 46 18q12 0 21 -7.5t9 -19.5 q0 -25 -37 -50q-31 -21 -70 -39t-65 -25.5t-29 -4.5z" />
<glyph unicode="&#xca;" horiz-adv-x="576" d="M115 0q-16 0 -27 11t-11 27v571q0 16 11 27t27 11h387q31 0 31 -28v-6q0 -28 -31 -28h-357v-223h286q31 0 31 -28v-4q0 -28 -31 -28h-286v-240h363q31 0 31 -27v-6q0 -29 -31 -29h-393zM196 719q-22 0 -22 23q0 21 32 58t63.5 63t35.5 26t35 -26t63 -63t32 -58 q0 -23 -21 -23q-16 0 -40 24.5t-70 87.5q-47 -64 -69.5 -88t-38.5 -24z" />
<glyph unicode="&#xcb;" horiz-adv-x="576" d="M115 0q-16 0 -27 11t-11 27v571q0 16 11 27t27 11h387q31 0 31 -28v-6q0 -28 -31 -28h-357v-223h286q31 0 31 -28v-4q0 -28 -31 -28h-286v-240h363q31 0 31 -27v-6q0 -29 -31 -29h-393zM390 718q-23 0 -36.5 13t-13.5 36t13 36t35 13q23 0 36.5 -13t13.5 -36t-13.5 -36 t-34.5 -13zM222 718q-23 0 -36.5 13t-13.5 36t13.5 36t34.5 13q23 0 36.5 -13t13.5 -36t-13 -36t-35 -13z" />
<glyph unicode="&#xcc;" horiz-adv-x="242" d="M116 -4q-29 0 -29 31v593q0 31 29 31h9q30 0 30 -31v-593q0 -31 -30 -31h-9zM8 790q-37 25 -37 50q0 12 9 19.5t21 7.5q22 0 46 -18q29 -21 60.5 -51.5t49 -52t15.5 -24.5q-3 -3 -29 4.5t-65 25.5t-70 39z" />
<glyph unicode="&#xcd;" horiz-adv-x="242" d="M116 -4q-29 0 -29 31v593q0 31 29 31h9q30 0 30 -31v-593q0 -31 -30 -31h-9zM70 721q-2 3 15.5 24.5t49 52t60.5 51.5q24 18 46 18q12 0 21 -7.5t9 -19.5q0 -25 -37 -50q-31 -21 -70 -39t-65 -25.5t-29 -4.5z" />
<glyph unicode="&#xce;" horiz-adv-x="242" d="M116 -4q-29 0 -29 31v593q0 31 29 31h9q30 0 30 -31v-593q0 -31 -30 -31h-9zM12 719q-22 0 -22 23q0 21 32 58t63.5 63t35.5 26t35 -26t63 -63t32 -58q0 -23 -21 -23q-16 0 -40 24.5t-70 87.5q-47 -64 -69.5 -88t-38.5 -24z" />
<glyph unicode="&#xcf;" horiz-adv-x="242" d="M116 -4q-29 0 -29 31v593q0 31 29 31h9q30 0 30 -31v-593q0 -31 -30 -31h-9zM206 718q-23 0 -36.5 13t-13.5 36t13 36t35 13q23 0 36.5 -13t13.5 -36t-13.5 -36t-34.5 -13zM38 718q-23 0 -36.5 13t-13.5 36t13.5 36t34.5 13q23 0 36.5 -13t13.5 -36t-13 -36t-35 -13z" />
<glyph unicode="&#xd0;" horiz-adv-x="717" d="M47 294q-31 0 -31 27v6q0 27 31 27h65v255q0 16 11 27t27 11h158q166 0 262.5 -86t96.5 -236q0 -151 -98 -238t-266 -87h-153q-16 0 -27 11t-11 27v256h-65zM180 62h132q138 0 212 68t74 193q0 123 -75 192.5t-210 69.5h-133v-231h214q31 0 31 -27v-6q0 -27 -31 -27h-214 v-232z" />
<glyph unicode="&#xd1;" horiz-adv-x="675" d="M104 -4q-27 0 -27 31v578q0 20 10 33t27 13h17q17 0 27.5 -8t24.5 -28l351 -509v514q0 31 28 31h9q27 0 27 -31v-578q0 -21 -9.5 -33.5t-25.5 -12.5h-5q-17 0 -25 5.5t-19 20.5l-373 539v-534q0 -31 -28 -31h-9zM219 725q-25 0 -25 26q0 34 20 62t49 28q25 0 66 -21.5 t82 -58.5q23 73 46 73q25 0 25 -26q0 -34 -20 -62t-49 -28q-25 0 -66 21.5t-82 58.5q-23 -73 -46 -73z" />
<glyph unicode="&#xd2;" horiz-adv-x="744" d="M371 -12q-143 0 -232 93t-89 241t90.5 242.5t232.5 94.5t231.5 -93t89.5 -242q0 -148 -90 -242t-233 -94zM373 47q110 0 180.5 77t70.5 198t-71.5 199.5t-181.5 78.5t-180.5 -77.5t-70.5 -198.5t71.5 -199t181.5 -78zM259 790q-37 25 -37 50q0 12 9 19.5t21 7.5 q22 0 46 -18q29 -21 60.5 -51.5t49 -52t15.5 -24.5q-3 -3 -29 4.5t-65 25.5t-70 39z" />
<glyph unicode="&#xd3;" horiz-adv-x="744" d="M371 -12q-143 0 -232 93t-89 241t90.5 242.5t232.5 94.5t231.5 -93t89.5 -242q0 -148 -90 -242t-233 -94zM373 47q110 0 180.5 77t70.5 198t-71.5 199.5t-181.5 78.5t-180.5 -77.5t-70.5 -198.5t71.5 -199t181.5 -78zM321 721q-2 3 15.5 24.5t49 52t60.5 51.5 q24 18 46 18q12 0 21 -7.5t9 -19.5q0 -25 -37 -50q-31 -21 -70 -39t-65 -25.5t-29 -4.5z" />
<glyph unicode="&#xd4;" horiz-adv-x="744" d="M371 -12q-143 0 -232 93t-89 241t90.5 242.5t232.5 94.5t231.5 -93t89.5 -242q0 -148 -90 -242t-233 -94zM373 47q110 0 180.5 77t70.5 198t-71.5 199.5t-181.5 78.5t-180.5 -77.5t-70.5 -198.5t71.5 -199t181.5 -78zM263 719q-22 0 -22 23q0 21 32 58t63.5 63t35.5 26 t35 -26t63 -63t32 -58q0 -23 -21 -23q-16 0 -40 24.5t-70 87.5q-47 -64 -69.5 -88t-38.5 -24z" />
<glyph unicode="&#xd5;" horiz-adv-x="744" d="M371 -12q-143 0 -232 93t-89 241t90.5 242.5t232.5 94.5t231.5 -93t89.5 -242q0 -148 -90 -242t-233 -94zM373 47q110 0 180.5 77t70.5 198t-71.5 199.5t-181.5 78.5t-180.5 -77.5t-70.5 -198.5t71.5 -199t181.5 -78zM254 725q-25 0 -25 26q0 34 20 62t49 28 q25 0 66 -21.5t82 -58.5q23 73 46 73q25 0 25 -26q0 -34 -20 -62t-49 -28q-25 0 -66 21.5t-82 58.5q-23 -73 -46 -73z" />
<glyph unicode="&#xd6;" horiz-adv-x="744" d="M371 -12q-143 0 -232 93t-89 241t90.5 242.5t232.5 94.5t231.5 -93t89.5 -242q0 -148 -90 -242t-233 -94zM373 47q110 0 180.5 77t70.5 198t-71.5 199.5t-181.5 78.5t-180.5 -77.5t-70.5 -198.5t71.5 -199t181.5 -78zM457 718q-23 0 -36.5 13t-13.5 36t13 36t35 13 q23 0 36.5 -13t13.5 -36t-13.5 -36t-34.5 -13zM289 718q-23 0 -36.5 13t-13.5 36t13.5 36t34.5 13q23 0 36.5 -13t13.5 -36t-13 -36t-35 -13z" />
<glyph unicode="&#xd7;" horiz-adv-x="539" d="M107 90l-4 4q-20 18 2 42l126 130l-126 128q-22 24 -2 42l4 4q19 21 43 -4l122 -128l122 128q24 25 43 4l4 -4q20 -18 -2 -42l-126 -128l126 -130q22 -24 2 -42l-4 -4q-19 -21 -43 4l-122 129l-122 -129q-24 -25 -43 -4z" />
<glyph unicode="&#xd8;" horiz-adv-x="744" d="M79 -42q-2 -2 -10 2t-15.5 13.5t-7.5 20.5q0 22 24 49l53 59q-73 90 -73 220q0 144 90.5 240.5t232.5 96.5q115 0 198 -66l81 90q2 2 10 -2t15.5 -13.5t7.5 -20.5q0 -22 -24 -49l-44 -49q77 -93 77 -225q0 -144 -90.5 -240t-232.5 -96q-120 0 -203 69zM373 50 q114 0 183.5 76.5t69.5 195.5q0 106 -57 180l-357 -397q66 -55 161 -55zM118 324q0 -102 53 -175l356 396q-65 52 -156 52q-114 0 -183.5 -77t-69.5 -196z" />
<glyph unicode="&#xd9;" horiz-adv-x="639" d="M318 -12q-122 0 -186.5 68.5t-64.5 198.5v365q0 31 29 31h9q30 0 30 -31v-360q0 -211 185 -211t185 212v359q0 31 28 31h12q27 0 27 -31v-362q0 -131 -65.5 -200.5t-188.5 -69.5zM215 780q-37 25 -37 50q0 12 9 19.5t21 7.5q22 0 46 -18q29 -21 60.5 -51.5t49 -52 t15.5 -24.5q-3 -3 -29 4.5t-65 25.5t-70 39z" />
<glyph unicode="&#xda;" horiz-adv-x="639" d="M318 -12q-122 0 -186.5 68.5t-64.5 198.5v365q0 31 29 31h9q30 0 30 -31v-360q0 -211 185 -211t185 212v359q0 31 28 31h12q27 0 27 -31v-362q0 -131 -65.5 -200.5t-188.5 -69.5zM267 711q-2 3 15.5 24.5t49 52t60.5 51.5q24 18 46 18q12 0 21 -7.5t9 -19.5 q0 -25 -37 -50q-31 -21 -70 -39t-65 -25.5t-29 -4.5z" />
<glyph unicode="&#xdb;" horiz-adv-x="639" d="M318 -12q-122 0 -186.5 68.5t-64.5 198.5v365q0 31 29 31h9q30 0 30 -31v-360q0 -211 185 -211t185 212v359q0 31 28 31h12q27 0 27 -31v-362q0 -131 -65.5 -200.5t-188.5 -69.5zM209 719q-22 0 -22 23q0 21 32 58t63.5 63t35.5 26t35 -26t63 -63t32 -58q0 -23 -21 -23 q-16 0 -40 24.5t-70 87.5q-47 -64 -69.5 -88t-38.5 -24z" />
<glyph unicode="&#xdc;" horiz-adv-x="639" d="M318 -12q-122 0 -186.5 68.5t-64.5 198.5v365q0 31 29 31h9q30 0 30 -31v-360q0 -211 185 -211t185 212v359q0 31 28 31h12q27 0 27 -31v-362q0 -131 -65.5 -200.5t-188.5 -69.5zM403 718q-23 0 -36.5 13t-13.5 36t13 36t35 13q23 0 36.5 -13t13.5 -36t-13.5 -36 t-34.5 -13zM235 718q-23 0 -36.5 13t-13.5 36t13.5 36t34.5 13q23 0 36.5 -13t13.5 -36t-13 -36t-35 -13z" />
<glyph unicode="&#xdd;" horiz-adv-x="549" d="M269 -4q-29 0 -29 31v242l-230 353q-2 3 2 9.5t14.5 13t24.5 6.5q21 0 34 -23l190 -297l189 296q16 24 34 24q13 0 23 -6.5t14.5 -13t2.5 -9.5l-230 -353v-242q0 -31 -30 -31h-9zM213 711q-2 3 15.5 24.5t49 52t60.5 51.5q24 18 46 18q12 0 21 -7.5t9 -19.5 q0 -25 -37 -50q-31 -21 -70 -39t-65 -25.5t-29 -4.5z" />
<glyph unicode="&#xde;" horiz-adv-x="558" d="M106 -4q-29 0 -29 31v593q0 31 29 31h9q30 0 30 -31v-96h136q113 0 175.5 -51t62.5 -145q0 -97 -62.5 -148t-183.5 -51h-128v-102q0 -31 -30 -31h-9zM282 463h-137v-274h134q170 0 170 137t-167 137z" />
<glyph unicode="&#xdf;" horiz-adv-x="526" d="M459 531q0 -139 -162 -151q107 -26 152.5 -80t45.5 -133q0 -74 -53.5 -126.5t-129.5 -52.5q-62 0 -97.5 21.5t-35.5 46.5q0 11 6 20.5t12.5 14t7.5 3.5q44 -49 109 -49q47 0 81.5 36t34.5 86q0 57 -33 98t-120 62q-31 8 -43.5 20.5t-12.5 33.5q0 9 4.5 19t8.5 16l4 6 q79 -1 118 23.5t39 80.5q0 48 -33.5 76t-91.5 28q-138 0 -138 -163v-440q0 -31 -29 -31h-7q-29 0 -29 31v441q0 107 54.5 164t149.5 57q84 0 136 -43.5t52 -114.5z" />
<glyph unicode="&#xe0;" horiz-adv-x="505" d="M201 -11q-77 0 -120.5 36t-43.5 97q0 82 81.5 120t249.5 42h10v17q0 61 -34.5 94t-99.5 33q-105 0 -152 -88q0 -1 -9 1.5t-18.5 11.5t-9.5 25q0 32 54.5 71t139.5 39q91 0 142 -49.5t51 -135.5v-300q0 -1 -3 -2.5t-8 -3t-11 -1.5q-41 0 -41 63v18q-61 -88 -178 -88z M207 43q74 0 122.5 41t48.5 105v44l-28 -1q-126 -5 -186.5 -30t-60.5 -80q0 -36 28 -57.5t76 -21.5zM159 620q-37 25 -37 50q0 12 9 19.5t21 7.5q22 0 46 -18q29 -21 60.5 -51.5t49 -52t15.5 -24.5q-3 -3 -29 4.5t-65 25.5t-70 39z" />
<glyph unicode="&#xe1;" horiz-adv-x="505" d="M201 -11q-77 0 -120.5 36t-43.5 97q0 82 81.5 120t249.5 42h10v17q0 61 -34.5 94t-99.5 33q-105 0 -152 -88q0 -1 -9 1.5t-18.5 11.5t-9.5 25q0 32 54.5 71t139.5 39q91 0 142 -49.5t51 -135.5v-300q0 -1 -3 -2.5t-8 -3t-11 -1.5q-41 0 -41 63v18q-61 -88 -178 -88z M207 43q74 0 122.5 41t48.5 105v44l-28 -1q-126 -5 -186.5 -30t-60.5 -80q0 -36 28 -57.5t76 -21.5zM181 551q-2 3 15.5 24.5t49 52t60.5 51.5q24 18 46 18q12 0 21 -7.5t9 -19.5q0 -25 -37 -50q-31 -21 -70 -39t-65 -25.5t-29 -4.5z" />
<glyph unicode="&#xe2;" horiz-adv-x="505" d="M201 -11q-77 0 -120.5 36t-43.5 97q0 82 81.5 120t249.5 42h10v17q0 61 -34.5 94t-99.5 33q-105 0 -152 -88q0 -1 -9 1.5t-18.5 11.5t-9.5 25q0 32 54.5 71t139.5 39q91 0 142 -49.5t51 -135.5v-300q0 -1 -3 -2.5t-8 -3t-11 -1.5q-41 0 -41 63v18q-61 -88 -178 -88z M207 43q74 0 122.5 41t48.5 105v44l-28 -1q-126 -5 -186.5 -30t-60.5 -80q0 -36 28 -57.5t76 -21.5zM143 549q-22 0 -22 23q0 21 32 58t63.5 63t35.5 26t35 -26t63 -63t32 -58q0 -23 -21 -23q-16 0 -40 24.5t-70 87.5q-47 -64 -69.5 -88t-38.5 -24z" />
<glyph unicode="&#xe3;" horiz-adv-x="505" d="M201 -11q-77 0 -120.5 36t-43.5 97q0 82 81.5 120t249.5 42h10v17q0 61 -34.5 94t-99.5 33q-105 0 -152 -88q0 -1 -9 1.5t-18.5 11.5t-9.5 25q0 32 54.5 71t139.5 39q91 0 142 -49.5t51 -135.5v-300q0 -1 -3 -2.5t-8 -3t-11 -1.5q-41 0 -41 63v18q-61 -88 -178 -88z M207 43q74 0 122.5 41t48.5 105v44l-28 -1q-126 -5 -186.5 -30t-60.5 -80q0 -36 28 -57.5t76 -21.5zM134 555q-25 0 -25 26q0 34 20 62t49 28q25 0 66 -21.5t82 -58.5q23 73 46 73q25 0 25 -26q0 -34 -20 -62t-49 -28q-25 0 -66 21.5t-82 58.5q-23 -73 -46 -73z" />
<glyph unicode="&#xe4;" horiz-adv-x="505" d="M201 -11q-77 0 -120.5 36t-43.5 97q0 82 81.5 120t249.5 42h10v17q0 61 -34.5 94t-99.5 33q-105 0 -152 -88q0 -1 -9 1.5t-18.5 11.5t-9.5 25q0 32 54.5 71t139.5 39q91 0 142 -49.5t51 -135.5v-300q0 -1 -3 -2.5t-8 -3t-11 -1.5q-41 0 -41 63v18q-61 -88 -178 -88z M207 43q74 0 122.5 41t48.5 105v44l-28 -1q-126 -5 -186.5 -30t-60.5 -80q0 -36 28 -57.5t76 -21.5zM337 548q-23 0 -36.5 13t-13.5 36t13 36t35 13q23 0 36.5 -13t13.5 -36t-13.5 -36t-34.5 -13zM169 548q-23 0 -36.5 13t-13.5 36t13.5 36t34.5 13q23 0 36.5 -13t13.5 -36 t-13 -36t-35 -13z" />
<glyph unicode="&#xe5;" horiz-adv-x="505" d="M201 -11q-77 0 -120.5 36t-43.5 97q0 82 81.5 120t249.5 42h10v17q0 61 -34.5 94t-99.5 33q-105 0 -152 -88q0 -1 -9 1.5t-18.5 11.5t-9.5 25q0 32 54.5 71t139.5 39q91 0 142 -49.5t51 -135.5v-300q0 -1 -3 -2.5t-8 -3t-11 -1.5q-41 0 -41 63v18q-61 -88 -178 -88z M251 548q-51 0 -83.5 33t-32.5 84q0 50 33.5 83.5t83.5 33.5q51 0 83.5 -33t32.5 -84q0 -50 -33.5 -83.5t-83.5 -33.5zM207 43q74 0 122.5 41t48.5 105v44l-28 -1q-126 -5 -186.5 -30t-60.5 -80q0 -36 28 -57.5t76 -21.5zM251 593q29 0 48 20.5t19 51.5t-19.5 52t-47.5 21 t-47.5 -21t-19.5 -52q0 -30 19.5 -51t47.5 -21z" />
<glyph unicode="&#xe6;" horiz-adv-x="865" d="M201 -11q-77 0 -120.5 36t-43.5 97q0 82 81.5 120t249.5 42h10v17q0 61 -34.5 94t-99.5 33q-105 0 -152 -88q0 -1 -9 1.5t-18.5 11.5t-9.5 25q0 32 54.5 71t139.5 39q128 0 170 -106q63 106 190 106q101 0 161.5 -65.5t60.5 -174.5v-6q0 -13 -6 -17.5t-21 -4.5h-370 q4 -77 54.5 -125.5t126.5 -48.5q110 0 163 85q1 2 10.5 -1t18.5 -12.5t9 -23.5q0 -31 -57 -68.5t-144 -37.5q-75 0 -128.5 32t-80.5 90q-26 -55 -81 -88t-124 -33zM207 43q74 0 122.5 41t48.5 105v44l-28 -1q-126 -5 -186.5 -30t-60.5 -80q0 -36 28 -57.5t76 -21.5zM609 431 q-67 0 -114.5 -43t-58.5 -112h326q-5 71 -46 113t-107 42z" />
<glyph unicode="&#xe7;" horiz-adv-x="518" d="M280 -12q-105 0 -175 71.5t-70 179.5t70 178.5t175 70.5q93 0 149 -45.5t56 -86.5q0 -13 -10.5 -22t-20.5 -9.5t-12 0.5q-44 105 -162 105q-77 0 -128 -54t-51 -137t51 -138t128 -55q118 0 162 105q2 1 12 0.5t20.5 -9.5t10.5 -22q0 -41 -56 -86.5t-149 -45.5zM217 -225 q-7 -8 -23 -3t-10 19l60 125q7 14 10 19t10.5 10t19.5 5h5q14 0 24.5 -8t10.5 -21v-4q0 -10 -26 -41z" />
<glyph unicode="&#xe8;" horiz-adv-x="531" d="M281 -12q-109 0 -177.5 69t-68.5 179q0 109 68 180.5t172 71.5q101 0 161.5 -65.5t60.5 -174.5v-6q0 -13 -6 -17.5t-21 -4.5h-370q4 -77 54.5 -125.5t126.5 -48.5q110 0 163 85q1 2 10.5 -1t18.5 -12.5t9 -23.5q0 -31 -57 -68.5t-144 -37.5zM275 431q-67 0 -114.5 -43 t-58.5 -112h326q-5 71 -46 113t-107 42zM167 620q-37 25 -37 50q0 12 9 19.5t21 7.5q22 0 46 -18q29 -21 60.5 -51.5t49 -52t15.5 -24.5q-3 -3 -29 4.5t-65 25.5t-70 39z" />
<glyph unicode="&#xe9;" horiz-adv-x="531" d="M281 -12q-109 0 -177.5 69t-68.5 179q0 109 68 180.5t172 71.5q101 0 161.5 -65.5t60.5 -174.5v-6q0 -13 -6 -17.5t-21 -4.5h-370q4 -77 54.5 -125.5t126.5 -48.5q110 0 163 85q1 2 10.5 -1t18.5 -12.5t9 -23.5q0 -31 -57 -68.5t-144 -37.5zM275 431q-67 0 -114.5 -43 t-58.5 -112h326q-5 71 -46 113t-107 42zM204 551q-2 3 15.5 24.5t49 52t60.5 51.5q24 18 46 18q12 0 21 -7.5t9 -19.5q0 -25 -37 -50q-31 -21 -70 -39t-65 -25.5t-29 -4.5z" />
<glyph unicode="&#xea;" horiz-adv-x="531" d="M281 -12q-109 0 -177.5 69t-68.5 179q0 109 68 180.5t172 71.5q101 0 161.5 -65.5t60.5 -174.5v-6q0 -13 -6 -17.5t-21 -4.5h-370q4 -77 54.5 -125.5t126.5 -48.5q110 0 163 85q1 2 10.5 -1t18.5 -12.5t9 -23.5q0 -31 -57 -68.5t-144 -37.5zM275 431q-67 0 -114.5 -43 t-58.5 -112h326q-5 71 -46 113t-107 42zM166 549q-22 0 -22 23q0 21 32 58t63.5 63t35.5 26t35 -26t63 -63t32 -58q0 -23 -21 -23q-16 0 -40 24.5t-70 87.5q-47 -64 -69.5 -88t-38.5 -24z" />
<glyph unicode="&#xeb;" horiz-adv-x="531" d="M281 -12q-109 0 -177.5 69t-68.5 179q0 109 68 180.5t172 71.5q101 0 161.5 -65.5t60.5 -174.5v-6q0 -13 -6 -17.5t-21 -4.5h-370q4 -77 54.5 -125.5t126.5 -48.5q110 0 163 85q1 2 10.5 -1t18.5 -12.5t9 -23.5q0 -31 -57 -68.5t-144 -37.5zM275 431q-67 0 -114.5 -43 t-58.5 -112h326q-5 71 -46 113t-107 42zM360 548q-23 0 -36.5 13t-13.5 36t13 36t35 13q23 0 36.5 -13t13.5 -36t-13.5 -36t-34.5 -13zM192 548q-23 0 -36.5 13t-13.5 36t13.5 36t34.5 13q23 0 36.5 -13t13.5 -36t-13 -36t-35 -13z" />
<glyph unicode="&#xec;" horiz-adv-x="209" d="M101 -4q-29 0 -29 31v422q0 31 29 31h7q29 0 29 -31v-422q0 -31 -29 -31h-7zM-4 620q-37 25 -37 50q0 12 9 19.5t21 7.5q22 0 46 -18q29 -21 60.5 -51.5t49 -52t15.5 -24.5q-3 -3 -29 4.5t-65 25.5t-70 39z" />
<glyph unicode="&#xed;" horiz-adv-x="209" d="M101 -4q-29 0 -29 31v422q0 31 29 31h7q29 0 29 -31v-422q0 -31 -29 -31h-7zM58 551q-2 3 15.5 24.5t49 52t60.5 51.5q24 18 46 18q12 0 21 -7.5t9 -19.5q0 -25 -37 -50q-31 -21 -70 -39t-65 -25.5t-29 -4.5z" />
<glyph unicode="&#xee;" horiz-adv-x="209" d="M101 -4q-29 0 -29 31v422q0 31 29 31h7q29 0 29 -31v-422q0 -31 -29 -31h-7zM0 549q-22 0 -22 23q0 21 32 58t63.5 63t35.5 26t35 -26t63 -63t32 -58q0 -23 -21 -23q-16 0 -40 24.5t-70 87.5q-47 -64 -69.5 -88t-38.5 -24z" />
<glyph unicode="&#xef;" horiz-adv-x="209" d="M101 -4q-29 0 -29 31v422q0 31 29 31h7q29 0 29 -31v-422q0 -31 -29 -31h-7zM194 548q-23 0 -36.5 13t-13.5 36t13 36t35 13q23 0 36.5 -13t13.5 -36t-13.5 -36t-34.5 -13zM26 548q-23 0 -36.5 13t-13.5 36t13.5 36t34.5 13q23 0 36.5 -13t13.5 -36t-13 -36t-35 -13z" />
<glyph unicode="&#xf0;" horiz-adv-x="565" d="M205 491q-26 -16 -39 7l-2 4q-14 22 13 38l101 55q-82 40 -175 40q-1 2 -2 14t13 26.5t38 14.5q96 0 191 -62l106 61q28 16 40 -7l2 -3q13 -22 -14 -38l-88 -48q131 -115 131 -319q0 -134 -67 -210t-178 -76q-105 0 -168.5 60.5t-63.5 164.5q0 99 65.5 159.5t170.5 60.5 q54 0 101.5 -23.5t72.5 -56.5q-20 133 -123 210zM276 45q83 0 130 59.5t47 153.5v28q-19 35 -67.5 62.5t-101.5 27.5q-85 0 -130 -42t-45 -120q0 -81 45 -125t122 -44z" />
<glyph unicode="&#xf1;" horiz-adv-x="545" d="M131 417v-16q56 87 162 87q92 0 140.5 -56.5t48.5 -153.5v-251q0 -31 -29 -31h-7q-29 0 -29 31v247q0 72 -34 112.5t-94 40.5q-54 0 -94.5 -27t-62.5 -74v-299q0 -31 -29 -31h-7q-29 0 -29 31v446q0 1 3 2.5t8 3t11 1.5q42 0 42 -63zM148 555q-25 0 -25 26q0 34 20 62 t49 28q25 0 66 -21.5t82 -58.5q23 73 46 73q25 0 25 -26q0 -34 -20 -62t-49 -28q-25 0 -66 21.5t-82 58.5q-23 -73 -46 -73z" />
<glyph unicode="&#xf2;" horiz-adv-x="562" d="M281 -12q-107 0 -176.5 71t-69.5 180q0 108 69.5 178.5t176.5 70.5q106 0 175.5 -71t69.5 -180q0 -108 -69.5 -178.5t-175.5 -70.5zM281 45q77 0 128 54.5t51 137.5t-51 138.5t-128 55.5t-128.5 -54.5t-51.5 -137.5t51.5 -138.5t128.5 -55.5zM171 620q-37 25 -37 50 q0 12 9 19.5t21 7.5q22 0 46 -18q29 -21 60.5 -51.5t49 -52t15.5 -24.5q-3 -3 -29 4.5t-65 25.5t-70 39z" />
<glyph unicode="&#xf3;" horiz-adv-x="562" d="M281 -12q-107 0 -176.5 71t-69.5 180q0 108 69.5 178.5t176.5 70.5q106 0 175.5 -71t69.5 -180q0 -108 -69.5 -178.5t-175.5 -70.5zM281 45q77 0 128 54.5t51 137.5t-51 138.5t-128 55.5t-128.5 -54.5t-51.5 -137.5t51.5 -138.5t128.5 -55.5zM233 551q-2 3 15.5 24.5 t49 52t60.5 51.5q24 18 46 18q12 0 21 -7.5t9 -19.5q0 -25 -37 -50q-31 -21 -70 -39t-65 -25.5t-29 -4.5z" />
<glyph unicode="&#xf4;" horiz-adv-x="562" d="M281 -12q-107 0 -176.5 71t-69.5 180q0 108 69.5 178.5t176.5 70.5q106 0 175.5 -71t69.5 -180q0 -108 -69.5 -178.5t-175.5 -70.5zM281 45q77 0 128 54.5t51 137.5t-51 138.5t-128 55.5t-128.5 -54.5t-51.5 -137.5t51.5 -138.5t128.5 -55.5zM175 549q-22 0 -22 23 q0 21 32 58t63.5 63t35.5 26t35 -26t63 -63t32 -58q0 -23 -21 -23q-16 0 -40 24.5t-70 87.5q-47 -64 -69.5 -88t-38.5 -24z" />
<glyph unicode="&#xf5;" horiz-adv-x="562" d="M281 -12q-107 0 -176.5 71t-69.5 180q0 108 69.5 178.5t176.5 70.5q106 0 175.5 -71t69.5 -180q0 -108 -69.5 -178.5t-175.5 -70.5zM281 45q77 0 128 54.5t51 137.5t-51 138.5t-128 55.5t-128.5 -54.5t-51.5 -137.5t51.5 -138.5t128.5 -55.5zM166 555q-25 0 -25 26 q0 34 20 62t49 28q25 0 66 -21.5t82 -58.5q23 73 46 73q25 0 25 -26q0 -34 -20 -62t-49 -28q-25 0 -66 21.5t-82 58.5q-23 -73 -46 -73z" />
<glyph unicode="&#xf6;" horiz-adv-x="562" d="M281 -12q-107 0 -176.5 71t-69.5 180q0 108 69.5 178.5t176.5 70.5q106 0 175.5 -71t69.5 -180q0 -108 -69.5 -178.5t-175.5 -70.5zM281 45q77 0 128 54.5t51 137.5t-51 138.5t-128 55.5t-128.5 -54.5t-51.5 -137.5t51.5 -138.5t128.5 -55.5zM369 548q-23 0 -36.5 13 t-13.5 36t13 36t35 13q23 0 36.5 -13t13.5 -36t-13.5 -36t-34.5 -13zM201 548q-23 0 -36.5 13t-13.5 36t13.5 36t34.5 13q23 0 36.5 -13t13.5 -36t-13 -36t-35 -13z" />
<glyph unicode="&#xf7;" horiz-adv-x="600" d="M294 379q-44 0 -44 44v10q0 45 44 45h10q45 0 45 -45v-10q0 -44 -45 -44h-10zM294 59q-44 0 -44 44v10q0 45 44 45h10q45 0 45 -45v-10q0 -44 -45 -44h-10zM118 238q-31 0 -31 27v7q0 27 31 27h363q31 0 31 -27v-7q0 -27 -31 -27h-363z" />
<glyph unicode="&#xf8;" horiz-adv-x="562" d="M71 -36q-2 -2 -9 1.5t-14 11.5t-7 17q0 19 22 44l35 38q-55 70 -55 161q0 105 70.5 178t171.5 73q81 0 145 -48l64 71q2 2 9 -1.5t14 -11.5t7 -17q0 -19 -22 -44l-32 -35q56 -70 56 -163q0 -105 -70.5 -178t-171.5 -73q-82 0 -147 49zM144 122l245 270q-47 37 -105 37 q-76 0 -125.5 -54.5t-49.5 -136.5q0 -65 35 -116zM285 47q76 0 125.5 54.5t49.5 136.5q0 67 -36 117l-246 -270q48 -38 107 -38z" />
<glyph unicode="&#xf9;" horiz-adv-x="545" d="M456 -4q-42 0 -42 63v15q-57 -86 -162 -86q-92 0 -140.5 56.5t-48.5 153.5v251q0 31 29 31h7q29 0 29 -31v-247q0 -72 35 -112.5t98 -40.5q51 0 90.5 27.5t61.5 73.5v299q0 31 29 31h7q29 0 29 -31v-446q0 -1 -3 -2.5t-8 -3t-11 -1.5zM159 620q-37 25 -37 50q0 12 9 19.5 t21 7.5q22 0 46 -18q29 -21 60.5 -51.5t49 -52t15.5 -24.5q-3 -3 -29 4.5t-65 25.5t-70 39z" />
<glyph unicode="&#xfa;" horiz-adv-x="545" d="M456 -4q-42 0 -42 63v15q-57 -86 -162 -86q-92 0 -140.5 56.5t-48.5 153.5v251q0 31 29 31h7q29 0 29 -31v-247q0 -72 35 -112.5t98 -40.5q51 0 90.5 27.5t61.5 73.5v299q0 31 29 31h7q29 0 29 -31v-446q0 -1 -3 -2.5t-8 -3t-11 -1.5zM231 551q-2 3 15.5 24.5t49 52 t60.5 51.5q24 18 46 18q12 0 21 -7.5t9 -19.5q0 -25 -37 -50q-31 -21 -70 -39t-65 -25.5t-29 -4.5z" />
<glyph unicode="&#xfb;" horiz-adv-x="545" d="M456 -4q-42 0 -42 63v15q-57 -86 -162 -86q-92 0 -140.5 56.5t-48.5 153.5v251q0 31 29 31h7q29 0 29 -31v-247q0 -72 35 -112.5t98 -40.5q51 0 90.5 27.5t61.5 73.5v299q0 31 29 31h7q29 0 29 -31v-446q0 -1 -3 -2.5t-8 -3t-11 -1.5zM165 549q-22 0 -22 23q0 21 32 58 t63.5 63t35.5 26t35 -26t63 -63t32 -58q0 -23 -21 -23q-16 0 -40 24.5t-70 87.5q-47 -64 -69.5 -88t-38.5 -24z" />
<glyph unicode="&#xfc;" horiz-adv-x="545" d="M456 -4q-42 0 -42 63v15q-57 -86 -162 -86q-92 0 -140.5 56.5t-48.5 153.5v251q0 31 29 31h7q29 0 29 -31v-247q0 -72 35 -112.5t98 -40.5q51 0 90.5 27.5t61.5 73.5v299q0 31 29 31h7q29 0 29 -31v-446q0 -1 -3 -2.5t-8 -3t-11 -1.5zM192 548q-23 0 -36.5 13t-13.5 36 t13.5 36t34.5 13q23 0 36.5 -13t13.5 -36t-13 -36t-35 -13zM360 548q-23 0 -36.5 13t-13.5 36t13 36t35 13q23 0 36.5 -13t13.5 -36t-13.5 -36t-34.5 -13z" />
<glyph unicode="&#xfd;" horiz-adv-x="472" d="M183 -197q-8 0 -16.5 3.5t-13.5 7.5t-4 6l80 204q-17 0 -25 5t-15 20l-174 412q-1 2 2.5 6.5t11.5 8.5t18 4q17 0 28 -9.5t21 -35.5l151 -373l131 371q16 47 48 47q8 0 16.5 -3.5t13 -7.5t3.5 -6l-230 -617q-16 -43 -46 -43zM185 541q-2 3 15.5 24.5t49 52t60.5 51.5 q24 18 46 18q12 0 21 -7.5t9 -19.5q0 -25 -37 -50q-31 -21 -70 -39t-65 -25.5t-29 -4.5z" />
<glyph unicode="&#xfe;" horiz-adv-x="579" d="M305 -12q-60 0 -105.5 26.5t-67.5 64.5v-245q0 -31 -29 -31h-7q-29 0 -29 31v840q0 1 3 2.5t8 3t11 1.5q43 0 43 -63v-220q68 90 177 90q96 0 160.5 -69t64.5 -180q0 -112 -64.5 -181.5t-164.5 -69.5zM300 45q76 0 122 53.5t46 139.5q0 84 -47 138.5t-119 54.5 q-121 0 -170 -111v-131q7 -62 55.5 -103t112.5 -41z" />
<glyph unicode="&#xff;" horiz-adv-x="472" d="M183 -197q-8 0 -16.5 3.5t-13.5 7.5t-4 6l80 204q-17 0 -25 5t-15 20l-174 412q-1 2 2.5 6.5t11.5 8.5t18 4q17 0 28 -9.5t21 -35.5l151 -373l131 371q16 47 48 47q8 0 16.5 -3.5t13 -7.5t3.5 -6l-230 -617q-16 -43 -46 -43zM325 548q-23 0 -36.5 13t-13.5 36t13 36 t35 13q23 0 36.5 -13t13.5 -36t-13.5 -36t-34.5 -13zM157 548q-23 0 -36.5 13t-13.5 36t13.5 36t34.5 13q23 0 36.5 -13t13.5 -36t-13 -36t-35 -13z" />
<glyph unicode="&#x100;" horiz-adv-x="609" d="M512 27l-71 184h-278l-70 -184q-12 -31 -39 -31q-9 0 -19 4t-15 8.5t-4 7.5l237 612q10 25 51 25t51 -25l237 -612q1 -3 -4.5 -7.5t-15 -8.5t-19.5 -4q-29 0 -41 31zM302 575l-117 -304h234zM200 739q-39 0 -39 29v5q0 28 39 28h208q39 0 39 -28v-5q0 -29 -39 -29h-208z " />
<glyph unicode="&#x101;" horiz-adv-x="505" d="M201 -11q-77 0 -120.5 36t-43.5 97q0 82 81.5 120t249.5 42h10v17q0 61 -34.5 94t-99.5 33q-105 0 -152 -88q0 -1 -9 1.5t-18.5 11.5t-9.5 25q0 32 54.5 71t139.5 39q91 0 142 -49.5t51 -135.5v-300q0 -1 -3 -2.5t-8 -3t-11 -1.5q-41 0 -41 63v18q-61 -88 -178 -88z M207 43q74 0 122.5 41t48.5 105v44l-28 -1q-126 -5 -186.5 -30t-60.5 -80q0 -36 28 -57.5t76 -21.5zM158 568q-39 0 -39 29v5q0 28 39 28h208q39 0 39 -28v-5q0 -29 -39 -29h-208z" />
<glyph unicode="&#x102;" horiz-adv-x="609" d="M512 27l-71 184h-278l-70 -184q-12 -31 -39 -31q-9 0 -19 4t-15 8.5t-4 7.5l237 612q10 25 51 25t51 -25l237 -612q1 -3 -4.5 -7.5t-15 -8.5t-19.5 -4q-29 0 -41 31zM302 575l-117 -304h234zM305 719q-42 0 -91.5 38t-49.5 67t29 29q9 0 25.5 -12.5t47.5 -41t41 -37.5 q7 7 24 23.5t26.5 25.5t22.5 20.5t22 16.5t15 5q29 0 29 -29q0 -31 -50 -68t-91 -37z" />
<glyph unicode="&#x103;" horiz-adv-x="505" d="M201 -11q-77 0 -120.5 36t-43.5 97q0 82 81.5 120t249.5 42h10v17q0 61 -34.5 94t-99.5 33q-105 0 -152 -88q0 -1 -9 1.5t-18.5 11.5t-9.5 25q0 32 54.5 71t139.5 39q91 0 142 -49.5t51 -135.5v-300q0 -1 -3 -2.5t-8 -3t-11 -1.5q-41 0 -41 63v18q-61 -88 -178 -88z M207 43q74 0 122.5 41t48.5 105v44l-28 -1q-126 -5 -186.5 -30t-60.5 -80q0 -36 28 -57.5t76 -21.5zM259 548q-42 0 -91.5 38t-49.5 67t29 29q9 0 25.5 -12.5t47.5 -41t41 -37.5q7 7 24 23.5t26.5 25.5t22.5 20.5t22 16.5t15 5q29 0 29 -29q0 -31 -50 -68t-91 -37z" />
<glyph unicode="&#x104;" horiz-adv-x="609" d="M512 27l-71 184h-278l-70 -184q-12 -31 -39 -31q-9 0 -19 4t-15 8.5t-4 7.5l237 612q10 25 51 25t51 -25l237 -612q1 -3 -8 -10q-80 -58 -80 -104q0 -16 10 -27t24 -11q26 0 39 21q13 0 22.5 -9t9.5 -25q0 -20 -20 -32t-52 -12q-42 0 -67.5 22t-25.5 60q0 66 81 117 q-10 10 -13 21zM302 575l-117 -304h234z" />
<glyph unicode="&#x105;" horiz-adv-x="505" d="M201 -11q-77 0 -120.5 36t-43.5 97q0 82 81.5 120t249.5 42h10v17q0 61 -34.5 94t-99.5 33q-105 0 -152 -88q0 -1 -9 1.5t-18.5 11.5t-9.5 25q0 32 54.5 71t139.5 39q91 0 142 -49.5t51 -135.5v-300l-2 -2q-80 -58 -80 -104q0 -16 10 -27t24 -11q26 0 39 21q13 0 22.5 -9 t9.5 -25q0 -20 -20 -32t-52 -12q-42 0 -67.5 22t-25.5 60q0 70 91 123q-12 15 -12 52v18q-61 -88 -178 -88zM207 43q74 0 122.5 41t48.5 105v44l-28 -1q-126 -5 -186.5 -30t-60.5 -80q0 -36 28 -57.5t76 -21.5z" />
<glyph unicode="&#x106;" horiz-adv-x="660" d="M371 -12q-142 0 -231.5 93t-89.5 241q0 149 90.5 243t233.5 94q104 0 172.5 -45.5t68.5 -82.5q0 -16 -9.5 -26.5t-19.5 -13.5t-11 -1q-30 52 -86 81t-117 29q-111 0 -181.5 -77t-70.5 -199q0 -121 72 -199t182 -78q72 0 129.5 34.5t79.5 92.5q1 3 11.5 0t21.5 -13.5 t11 -26.5q0 -41 -72 -93.5t-184 -52.5zM324 722q-2 3 15.5 24.5t49 52t60.5 51.5q24 18 46 18q12 0 21 -7.5t9 -19.5q0 -25 -37 -50q-31 -21 -70 -39t-65 -25.5t-29 -4.5z" />
<glyph unicode="&#x107;" horiz-adv-x="518" d="M280 -12q-105 0 -175 71.5t-70 179.5t70 178.5t175 70.5q93 0 149 -45.5t56 -86.5q0 -13 -10.5 -22t-20.5 -9.5t-12 0.5q-44 105 -162 105q-77 0 -128 -54t-51 -137t51 -138t128 -55q118 0 162 105q2 1 12 0.5t20.5 -9.5t10.5 -22q0 -41 -56 -86.5t-149 -45.5zM229 551 q-2 3 15.5 24.5t49 52t60.5 51.5q24 18 46 18q12 0 21 -7.5t9 -19.5q0 -25 -37 -50q-31 -21 -70 -39t-65 -25.5t-29 -4.5z" />
<glyph unicode="&#x108;" horiz-adv-x="660" d="M371 -12q-142 0 -231.5 93t-89.5 241q0 149 90.5 243t233.5 94q104 0 172.5 -45.5t68.5 -82.5q0 -16 -9.5 -26.5t-19.5 -13.5t-11 -1q-30 52 -86 81t-117 29q-111 0 -181.5 -77t-70.5 -199q0 -121 72 -199t182 -78q72 0 129.5 34.5t79.5 92.5q1 3 11.5 0t21.5 -13.5 t11 -26.5q0 -41 -72 -93.5t-184 -52.5zM251 720q-22 0 -22 23q0 21 32 58t63.5 63t35.5 26t35 -26t63 -63t32 -58q0 -23 -21 -23q-16 0 -40 24.5t-70 87.5q-47 -64 -69.5 -88t-38.5 -24z" />
<glyph unicode="&#x109;" horiz-adv-x="518" d="M280 -12q-105 0 -175 71.5t-70 179.5t70 178.5t175 70.5q93 0 149 -45.5t56 -86.5q0 -13 -10.5 -22t-20.5 -9.5t-12 0.5q-44 105 -162 105q-77 0 -128 -54t-51 -137t51 -138t128 -55q118 0 162 105q2 1 12 0.5t20.5 -9.5t10.5 -22q0 -41 -56 -86.5t-149 -45.5zM180 549 q-22 0 -22 23q0 21 32 58t63.5 63t35.5 26t35 -26t63 -63t32 -58q0 -23 -21 -23q-16 0 -40 24.5t-70 87.5q-47 -64 -69.5 -88t-38.5 -24z" />
<glyph unicode="&#x10a;" horiz-adv-x="660" d="M371 -12q-142 0 -231.5 93t-89.5 241q0 149 90.5 243t233.5 94q104 0 172.5 -45.5t68.5 -82.5q0 -16 -9.5 -26.5t-19.5 -13.5t-11 -1q-30 52 -86 81t-117 29q-111 0 -181.5 -77t-70.5 -199q0 -121 72 -199t182 -78q72 0 129.5 34.5t79.5 92.5q1 3 11.5 0t21.5 -13.5 t11 -26.5q0 -41 -72 -93.5t-184 -52.5zM369 720q-25 0 -40 14.5t-15 37.5t15.5 37.5t40.5 14.5q24 0 39 -14.5t15 -37.5t-15 -37.5t-40 -14.5z" />
<glyph unicode="&#x10b;" horiz-adv-x="518" d="M280 -12q-105 0 -175 71.5t-70 179.5t70 178.5t175 70.5q93 0 149 -45.5t56 -86.5q0 -13 -10.5 -22t-20.5 -9.5t-12 0.5q-44 105 -162 105q-77 0 -128 -54t-51 -137t51 -138t128 -55q118 0 162 105q2 1 12 0.5t20.5 -9.5t10.5 -22q0 -41 -56 -86.5t-149 -45.5zM294 549 q-25 0 -40 14.5t-15 37.5t15.5 37.5t40.5 14.5q24 0 39 -14.5t15 -37.5t-15 -37.5t-40 -14.5z" />
<glyph unicode="&#x10c;" horiz-adv-x="660" d="M371 -12q-142 0 -231.5 93t-89.5 241q0 149 90.5 243t233.5 94q104 0 172.5 -45.5t68.5 -82.5q0 -16 -9.5 -26.5t-19.5 -13.5t-11 -1q-30 52 -86 81t-117 29q-111 0 -181.5 -77t-70.5 -199q0 -121 72 -199t182 -78q72 0 129.5 34.5t79.5 92.5q1 3 11.5 0t21.5 -13.5 t11 -26.5q0 -41 -72 -93.5t-184 -52.5zM484 874q21 0 21 -23q0 -21 -32 -58t-63 -63t-35 -26t-35 26t-63 63t-32 58q0 23 21 23q16 0 39.5 -24.5t70.5 -87.5q46 63 69 87.5t39 24.5z" />
<glyph unicode="&#x10d;" horiz-adv-x="518" d="M280 -12q-105 0 -175 71.5t-70 179.5t70 178.5t175 70.5q93 0 149 -45.5t56 -86.5q0 -13 -10.5 -22t-20.5 -9.5t-12 0.5q-44 105 -162 105q-77 0 -128 -54t-51 -137t51 -138t128 -55q118 0 162 105q2 1 12 0.5t20.5 -9.5t10.5 -22q0 -41 -56 -86.5t-149 -45.5zM398 703 q21 0 21 -23q0 -21 -32 -58t-63 -63t-35 -26t-35 26t-63 63t-32 58q0 23 21 23q16 0 39.5 -24.5t70.5 -87.5q46 63 69 87.5t39 24.5z" />
<glyph unicode="&#x10e;" horiz-adv-x="672" d="M115 0q-16 0 -27 11t-11 27v571q0 16 11 27t27 11h153q167 0 260.5 -85t93.5 -237q0 -153 -95 -239t-264 -86h-148zM145 60h122q136 0 210.5 69t74.5 194q0 124 -75.5 194t-208.5 70h-123v-527zM415 874q21 0 21 -23q0 -21 -32 -58t-63 -63t-35 -26t-35 26t-63 63t-32 58 q0 23 21 23q16 0 39.5 -24.5t70.5 -87.5q46 63 69 87.5t39 24.5z" />
<glyph unicode="&#x10f;" horiz-adv-x="742" d="M260 -12q-96 0 -160.5 69t-64.5 180q0 112 64.5 181.5t164.5 69.5q59 0 104.5 -24t68.5 -60v270q0 1 3 2.5t8 3t11 1.5q43 0 43 -63v-591q0 -31 -29 -31h-7q-28 0 -28 31v52q-67 -91 -178 -91zM267 45q67 0 117.5 44t53.5 109v121q-49 112 -169 112q-76 0 -122 -53.5 t-46 -139.5q0 -84 47 -138.5t119 -54.5zM623 459q-5 -9 -22 -4.5t-11 19.5l60 178q5 14 8.5 20.5t11 11t19.5 4.5h5q13 0 21.5 -9.5t8.5 -26.5v-3q0 -22 -16 -49z" />
<glyph unicode="&#x111;" horiz-adv-x="569" d="M260 -12q-96 0 -160.5 69t-64.5 180q0 112 64.5 181.5t164.5 69.5q59 0 104.5 -24t68.5 -60v129h-92q-39 0 -39 28v5q0 29 39 29h92v79q0 1 3 2.5t8 3t11 1.5q43 0 43 -63v-23h41q39 0 39 -29v-5q0 -28 -39 -28h-41v-506q0 -31 -29 -31h-7q-28 0 -28 31v52 q-67 -91 -178 -91zM267 45q67 0 117.5 44t53.5 109v121q-49 112 -169 112q-76 0 -122 -53.5t-46 -139.5q0 -84 47 -138.5t119 -54.5z" />
<glyph unicode="&#x112;" horiz-adv-x="576" d="M115 0q-16 0 -27 11t-11 27v571q0 16 11 27t27 11h387q31 0 31 -28v-6q0 -28 -31 -28h-357v-223h286q31 0 31 -28v-4q0 -28 -31 -28h-286v-240h363q31 0 31 -27v-6q0 -29 -31 -29h-393zM201 739q-39 0 -39 29v5q0 28 39 28h208q39 0 39 -28v-5q0 -29 -39 -29h-208z" />
<glyph unicode="&#x113;" horiz-adv-x="531" d="M281 -12q-109 0 -177.5 69t-68.5 179q0 109 68 180.5t172 71.5q101 0 161.5 -65.5t60.5 -174.5v-6q0 -13 -6 -17.5t-21 -4.5h-370q4 -77 54.5 -125.5t126.5 -48.5q110 0 163 85q1 2 10.5 -1t18.5 -12.5t9 -23.5q0 -31 -57 -68.5t-144 -37.5zM275 431q-67 0 -114.5 -43 t-58.5 -112h326q-5 71 -46 113t-107 42zM169 568q-39 0 -39 29v5q0 28 39 28h208q39 0 39 -28v-5q0 -29 -39 -29h-208z" />
<glyph unicode="&#x114;" horiz-adv-x="576" d="M115 0q-16 0 -27 11t-11 27v571q0 16 11 27t27 11h387q31 0 31 -28v-6q0 -28 -31 -28h-357v-223h286q31 0 31 -28v-4q0 -28 -31 -28h-286v-240h363q31 0 31 -27v-6q0 -29 -31 -29h-393zM305 719q-42 0 -91.5 38t-49.5 67t29 29q9 0 25.5 -12.5t47.5 -41t41 -37.5 q7 7 24 23.5t26.5 25.5t22.5 20.5t22 16.5t15 5q29 0 29 -29q0 -31 -50 -68t-91 -37z" />
<glyph unicode="&#x115;" horiz-adv-x="531" d="M281 -12q-109 0 -177.5 69t-68.5 179q0 109 68 180.5t172 71.5q101 0 161.5 -65.5t60.5 -174.5v-6q0 -13 -6 -17.5t-21 -4.5h-370q4 -77 54.5 -125.5t126.5 -48.5q110 0 163 85q1 2 10.5 -1t18.5 -12.5t9 -23.5q0 -31 -57 -68.5t-144 -37.5zM275 431q-67 0 -114.5 -43 t-58.5 -112h326q-5 71 -46 113t-107 42zM275 548q-42 0 -91.5 38t-49.5 67t29 29q9 0 25.5 -12.5t47.5 -41t41 -37.5q7 7 24 23.5t26.5 25.5t22.5 20.5t22 16.5t15 5q29 0 29 -29q0 -31 -50 -68t-91 -37z" />
<glyph unicode="&#x116;" horiz-adv-x="576" d="M115 0q-16 0 -27 11t-11 27v571q0 16 11 27t27 11h387q31 0 31 -28v-6q0 -28 -31 -28h-357v-223h286q31 0 31 -28v-4q0 -28 -31 -28h-286v-240h363q31 0 31 -27v-6q0 -29 -31 -29h-393zM312 720q-25 0 -40 14.5t-15 37.5t15.5 37.5t40.5 14.5q24 0 39 -14.5t15 -37.5 t-15 -37.5t-40 -14.5z" />
<glyph unicode="&#x117;" horiz-adv-x="531" d="M281 -12q-109 0 -177.5 69t-68.5 179q0 109 68 180.5t172 71.5q101 0 161.5 -65.5t60.5 -174.5v-6q0 -13 -6 -17.5t-21 -4.5h-370q4 -77 54.5 -125.5t126.5 -48.5q110 0 163 85q1 2 10.5 -1t18.5 -12.5t9 -23.5q0 -31 -57 -68.5t-144 -37.5zM275 431q-67 0 -114.5 -43 t-58.5 -112h326q-5 71 -46 113t-107 42zM269 549q-25 0 -40 14.5t-15 37.5t15.5 37.5t40.5 14.5q24 0 39 -14.5t15 -37.5t-15 -37.5t-40 -14.5z" />
<glyph unicode="&#x118;" horiz-adv-x="576" d="M115 0q-16 0 -27 11t-11 27v571q0 16 11 27t27 11h387q31 0 31 -28v-6q0 -28 -31 -28h-357v-223h286q31 0 31 -28v-4q0 -28 -31 -28h-286v-240h363q31 0 31 -27v-6q0 -18 -13 -26q-77 -56 -77 -101q0 -16 10 -27t24 -11q26 0 39 21q13 0 22.5 -9t9.5 -25q0 -20 -20 -32 t-52 -12q-42 0 -67.5 22t-25.5 60q0 62 72 111h-346z" />
<glyph unicode="&#x119;" horiz-adv-x="531" d="M281 -12q-109 0 -177.5 69t-68.5 179q0 109 68 180.5t172 71.5q101 0 161.5 -65.5t60.5 -174.5v-6q0 -13 -6 -17.5t-21 -4.5h-370q4 -77 54.5 -125.5t126.5 -48.5q110 0 163 85q1 2 10.5 -1t18.5 -12.5t9 -23.5q0 -16 -19.5 -38t-53.5 -39q-80 -58 -80 -104q0 -16 10 -27 t24 -11q26 0 39 21q13 0 22.5 -9t9.5 -25q0 -20 -20 -32t-52 -12q-42 0 -67.5 22t-25.5 60q0 48 45 90q-22 -2 -33 -2zM275 431q-67 0 -114.5 -43t-58.5 -112h326q-5 71 -46 113t-107 42z" />
<glyph unicode="&#x11a;" horiz-adv-x="576" d="M115 0q-16 0 -27 11t-11 27v571q0 16 11 27t27 11h387q31 0 31 -28v-6q0 -28 -31 -28h-357v-223h286q31 0 31 -28v-4q0 -28 -31 -28h-286v-240h363q31 0 31 -27v-6q0 -29 -31 -29h-393zM417 874q21 0 21 -23q0 -21 -32 -58t-63 -63t-35 -26t-35 26t-63 63t-32 58 q0 23 21 23q16 0 39.5 -24.5t70.5 -87.5q46 63 69 87.5t39 24.5z" />
<glyph unicode="&#x11b;" horiz-adv-x="531" d="M281 -12q-109 0 -177.5 69t-68.5 179q0 109 68 180.5t172 71.5q101 0 161.5 -65.5t60.5 -174.5v-6q0 -13 -6 -17.5t-21 -4.5h-370q4 -77 54.5 -125.5t126.5 -48.5q110 0 163 85q1 2 10.5 -1t18.5 -12.5t9 -23.5q0 -31 -57 -68.5t-144 -37.5zM275 431q-67 0 -114.5 -43 t-58.5 -112h326q-5 71 -46 113t-107 42zM377 703q21 0 21 -23q0 -21 -32 -58t-63 -63t-35 -26t-35 26t-63 63t-32 58q0 23 21 23q16 0 39.5 -24.5t70.5 -87.5q46 63 69 87.5t39 24.5z" />
<glyph unicode="&#x11c;" horiz-adv-x="706" d="M620 -4q-19 0 -28.5 13.5t-9.5 51.5v41q-31 -54 -90 -84t-137 -30q-138 0 -221.5 93.5t-83.5 240.5q0 149 90.5 243t233.5 94q104 0 172.5 -45.5t68.5 -82.5q0 -17 -10 -27t-20 -12t-11 0q-30 51 -85.5 79.5t-116.5 28.5q-112 0 -182 -77t-70 -199q0 -123 65.5 -200 t178.5 -77q87 0 147 45.5t71 119.5v57h-182q-37 0 -37 28v4q0 29 37 29h192q22 0 36 -14.5t14 -35.5v-277q0 -7 -22 -7zM252 720q-22 0 -22 23q0 21 32 58t63.5 63t35.5 26t35 -26t63 -63t32 -58q0 -23 -21 -23q-16 0 -40 24.5t-70 87.5q-47 -64 -69.5 -88t-38.5 -24z" />
<glyph unicode="&#x11d;" horiz-adv-x="471" d="M225 -211q-224 0 -224 130q0 52 43 88t111 49q-21 18 -21 46q0 24 21 47q-54 19 -86.5 62t-32.5 97q0 75 55.5 127.5t137.5 52.5q67 0 120 -37l33 53q21 30 46 30q12 0 21.5 -7t13 -14t2.5 -8l-79 -88q39 -47 39 -105q0 -74 -56 -124.5t-140 -50.5q-18 0 -26 1 q-7 -10 -7 -24q0 -7 2.5 -12.5t9 -10t13 -7.5t19.5 -6.5t23.5 -6t30 -7t34.5 -8.5q140 -35 140 -125q0 -67 -64 -104.5t-179 -37.5zM230 188q57 0 92.5 34t35.5 88t-36 89t-94 35q-56 0 -91 -34.5t-35 -89.5q0 -54 36 -88t92 -34zM403 -71q0 12 -4.5 22t-15.5 18t-21 13.5 t-28.5 11t-30 8.5t-34 8.5t-32.5 7.5q-73 -4 -123 -30t-50 -69q0 -77 163 -77q83 0 129.5 22.5t46.5 64.5zM115 549q-22 0 -22 23q0 21 32 58t63.5 63t35.5 26t35 -26t63 -63t32 -58q0 -23 -21 -23q-16 0 -40 24.5t-70 87.5q-47 -64 -69.5 -88t-38.5 -24z" />
<glyph unicode="&#x11e;" horiz-adv-x="706" d="M620 -4q-19 0 -28.5 13.5t-9.5 51.5v41q-31 -54 -90 -84t-137 -30q-138 0 -221.5 93.5t-83.5 240.5q0 149 90.5 243t233.5 94q104 0 172.5 -45.5t68.5 -82.5q0 -17 -10 -27t-20 -12t-11 0q-30 51 -85.5 79.5t-116.5 28.5q-112 0 -182 -77t-70 -199q0 -123 65.5 -200 t178.5 -77q87 0 147 45.5t71 119.5v57h-182q-37 0 -37 28v4q0 29 37 29h192q22 0 36 -14.5t14 -35.5v-277q0 -7 -22 -7zM363 719q-42 0 -91.5 38t-49.5 67t29 29q9 0 25.5 -12.5t47.5 -41t41 -37.5q7 7 24 23.5t26.5 25.5t22.5 20.5t22 16.5t15 5q29 0 29 -29q0 -31 -50 -68 t-91 -37z" />
<glyph unicode="&#x11f;" horiz-adv-x="471" d="M225 -211q-224 0 -224 130q0 52 43 88t111 49q-21 18 -21 46q0 24 21 47q-54 19 -86.5 62t-32.5 97q0 75 55.5 127.5t137.5 52.5q67 0 120 -37l33 53q21 30 46 30q12 0 21.5 -7t13 -14t2.5 -8l-79 -88q39 -47 39 -105q0 -74 -56 -124.5t-140 -50.5q-18 0 -26 1 q-7 -10 -7 -24q0 -7 2.5 -12.5t9 -10t13 -7.5t19.5 -6.5t23.5 -6t30 -7t34.5 -8.5q140 -35 140 -125q0 -67 -64 -104.5t-179 -37.5zM230 188q57 0 92.5 34t35.5 88t-36 89t-94 35q-56 0 -91 -34.5t-35 -89.5q0 -54 36 -88t92 -34zM403 -71q0 12 -4.5 22t-15.5 18t-21 13.5 t-28.5 11t-30 8.5t-34 8.5t-32.5 7.5q-73 -4 -123 -30t-50 -69q0 -77 163 -77q83 0 129.5 22.5t46.5 64.5zM223 548q-42 0 -91.5 38t-49.5 67t29 29q9 0 25.5 -12.5t47.5 -41t41 -37.5q7 7 24 23.5t26.5 25.5t22.5 20.5t22 16.5t15 5q29 0 29 -29q0 -31 -50 -68t-91 -37z " />
<glyph unicode="&#x120;" horiz-adv-x="706" d="M620 -4q-19 0 -28.5 13.5t-9.5 51.5v41q-31 -54 -90 -84t-137 -30q-138 0 -221.5 93.5t-83.5 240.5q0 149 90.5 243t233.5 94q104 0 172.5 -45.5t68.5 -82.5q0 -17 -10 -27t-20 -12t-11 0q-30 51 -85.5 79.5t-116.5 28.5q-112 0 -182 -77t-70 -199q0 -123 65.5 -200 t178.5 -77q87 0 147 45.5t71 119.5v57h-182q-37 0 -37 28v4q0 29 37 29h192q22 0 36 -14.5t14 -35.5v-277q0 -7 -22 -7zM367 720q-25 0 -40 14.5t-15 37.5t15.5 37.5t40.5 14.5q24 0 39 -14.5t15 -37.5t-15 -37.5t-40 -14.5z" />
<glyph unicode="&#x121;" horiz-adv-x="471" d="M225 -211q-224 0 -224 130q0 52 43 88t111 49q-21 18 -21 46q0 24 21 47q-54 19 -86.5 62t-32.5 97q0 75 55.5 127.5t137.5 52.5q67 0 120 -37l33 53q21 30 46 30q12 0 21.5 -7t13 -14t2.5 -8l-79 -88q39 -47 39 -105q0 -74 -56 -124.5t-140 -50.5q-18 0 -26 1 q-7 -10 -7 -24q0 -7 2.5 -12.5t9 -10t13 -7.5t19.5 -6.5t23.5 -6t30 -7t34.5 -8.5q140 -35 140 -125q0 -67 -64 -104.5t-179 -37.5zM230 188q57 0 92.5 34t35.5 88t-36 89t-94 35q-56 0 -91 -34.5t-35 -89.5q0 -54 36 -88t92 -34zM403 -71q0 12 -4.5 22t-15.5 18t-21 13.5 t-28.5 11t-30 8.5t-34 8.5t-32.5 7.5q-73 -4 -123 -30t-50 -69q0 -77 163 -77q83 0 129.5 22.5t46.5 64.5zM226 549q-25 0 -40 14.5t-15 37.5t15.5 37.5t40.5 14.5q24 0 39 -14.5t15 -37.5t-15 -37.5t-40 -14.5z" />
<glyph unicode="&#x122;" horiz-adv-x="706" d="M620 -4q-19 0 -28.5 13.5t-9.5 51.5v41q-31 -54 -90 -84t-137 -30q-138 0 -221.5 93.5t-83.5 240.5q0 149 90.5 243t233.5 94q104 0 172.5 -45.5t68.5 -82.5q0 -17 -10 -27t-20 -12t-11 0q-30 51 -85.5 79.5t-116.5 28.5q-112 0 -182 -77t-70 -199q0 -123 65.5 -200 t178.5 -77q87 0 147 45.5t71 119.5v57h-182q-37 0 -37 28v4q0 29 37 29h192q22 0 36 -14.5t14 -35.5v-277q0 -7 -22 -7zM306 -225q-7 -8 -23 -3t-10 19l60 125q7 14 10 19t10.5 10t19.5 5h5q14 0 24.5 -8t10.5 -21v-4q0 -10 -26 -41z" />
<glyph unicode="&#x123;" horiz-adv-x="471" d="M225 -211q-224 0 -224 130q0 52 43 88t111 49q-21 18 -21 46q0 24 21 47q-54 19 -86.5 62t-32.5 97q0 75 55.5 127.5t137.5 52.5q67 0 120 -37l33 53q21 30 46 30q12 0 21.5 -7t13 -14t2.5 -8l-79 -88q39 -47 39 -105q0 -74 -56 -124.5t-140 -50.5q-18 0 -26 1 q-7 -10 -7 -24q0 -7 2.5 -12.5t9 -10t13 -7.5t19.5 -6.5t23.5 -6t30 -7t34.5 -8.5q140 -35 140 -125q0 -67 -64 -104.5t-179 -37.5zM230 188q57 0 92.5 34t35.5 88t-36 89t-94 35q-56 0 -91 -34.5t-35 -89.5q0 -54 36 -88t92 -34zM403 -71q0 12 -4.5 22t-15.5 18t-21 13.5 t-28.5 11t-30 8.5t-34 8.5t-32.5 7.5q-73 -4 -123 -30t-50 -69q0 -77 163 -77q83 0 129.5 22.5t46.5 64.5zM283 694q7 8 23 3t10 -19l-60 -125q-7 -14 -10 -19t-10.5 -10t-19.5 -5h-5q-14 0 -24.5 8t-10.5 21v4q0 10 26 41z" />
<glyph unicode="&#x124;" horiz-adv-x="679" d="M106 -4q-29 0 -29 31v593q0 31 29 31h9q30 0 30 -31v-265h389v265q0 31 29 31h9q30 0 30 -31v-593q0 -31 -30 -31h-9q-29 0 -29 31v266h-389v-266q0 -31 -30 -31h-9zM231 720q-22 0 -22 23q0 21 32 58t63.5 63t35.5 26t35 -26t63 -63t32 -58q0 -23 -21 -23 q-16 0 -40 24.5t-70 87.5q-47 -64 -69.5 -88t-38.5 -24z" />
<glyph unicode="&#x125;" horiz-adv-x="545" d="M132 618v-218q57 88 161 88q92 0 140.5 -56.5t48.5 -153.5v-251q0 -31 -29 -31h-7q-29 0 -29 31v247q0 72 -34 112.5t-94 40.5q-71 0 -114 -44.5t-43 -118.5v-237q0 -31 -29 -31h-7q-29 0 -29 31v647q0 1 3 2.5t8 3t11 1.5q43 0 43 -63zM-13 720q-22 0 -22 23q0 21 32 58 t63.5 63t35.5 26t35 -26t63 -63t32 -58q0 -23 -21 -23q-16 0 -40 24.5t-70 87.5q-47 -64 -69.5 -88t-38.5 -24z" />
<glyph unicode="&#x126;" horiz-adv-x="679" d="M52 460q-39 0 -39 27v5q0 26 39 26h25v102q0 31 29 31h9q30 0 30 -31v-102h389v102q0 31 29 31h9q30 0 30 -31v-102h24q39 0 39 -26v-5q0 -27 -39 -27h-24v-433q0 -31 -30 -31h-9q-29 0 -29 31v266h-389v-266q0 -31 -30 -31h-9q-29 0 -29 31v433h-25zM145 355h389v105 h-389v-105z" />
<glyph unicode="&#x127;" horiz-adv-x="545" d="M132 618v-23h92q39 0 39 -28v-5q0 -29 -39 -29h-92v-133q57 88 161 88q92 0 140.5 -56.5t48.5 -153.5v-251q0 -31 -29 -31h-7q-29 0 -29 31v247q0 72 -34 112.5t-94 40.5q-71 0 -114 -44.5t-43 -118.5v-237q0 -31 -29 -31h-7q-29 0 -29 31v506h-41q-39 0 -39 29v5 q0 28 39 28h41v79q0 1 3 2.5t8 3t11 1.5q43 0 43 -63z" />
<glyph unicode="&#x12a;" horiz-adv-x="242" d="M116 -4q-29 0 -29 31v593q0 31 29 31h9q30 0 30 -31v-593q0 -31 -30 -31h-9zM17 739q-39 0 -39 29v5q0 28 39 28h208q39 0 39 -28v-5q0 -29 -39 -29h-208z" />
<glyph unicode="&#x12b;" horiz-adv-x="209" d="M101 -4q-29 0 -29 31v422q0 31 29 31h7q29 0 29 -31v-422q0 -31 -29 -31h-7zM0 568q-39 0 -39 29v5q0 28 39 28h208q39 0 39 -28v-5q0 -29 -39 -29h-208z" />
<glyph unicode="&#x12c;" horiz-adv-x="242" d="M116 -4q-29 0 -29 31v593q0 31 29 31h9q30 0 30 -31v-593q0 -31 -30 -31h-9zM121 719q-42 0 -91.5 38t-49.5 67t29 29q9 0 25.5 -12.5t47.5 -41t41 -37.5q7 7 24 23.5t26.5 25.5t22.5 20.5t22 16.5t15 5q29 0 29 -29q0 -31 -50 -68t-91 -37z" />
<glyph unicode="&#x12d;" horiz-adv-x="209" d="M101 -4q-29 0 -29 31v422q0 31 29 31h7q29 0 29 -31v-422q0 -31 -29 -31h-7zM104 548q-42 0 -91.5 38t-49.5 67t29 29q9 0 25.5 -12.5t47.5 -41t41 -37.5q7 7 24 23.5t26.5 25.5t22.5 20.5t22 16.5t15 5q29 0 29 -29q0 -31 -50 -68t-91 -37z" />
<glyph unicode="&#x12e;" horiz-adv-x="242" d="M155 27q0 -22 -15 -28q-76 -57 -76 -102q0 -16 10 -27t24 -11q26 0 39 21q13 0 22.5 -9t9.5 -25q0 -20 -20 -32t-52 -12q-42 0 -67.5 22t-25.5 60q0 70 88 121q-5 8 -5 22v593q0 31 29 31h9q30 0 30 -31v-593z" />
<glyph unicode="&#x12f;" horiz-adv-x="209" d="M127 1q-80 -58 -80 -104q0 -16 10 -27t24 -11q26 0 39 21q13 0 22.5 -9t9.5 -25q0 -20 -20 -32t-52 -12q-42 0 -67.5 22t-25.5 60q0 70 89 122q-4 7 -4 21v422q0 31 29 31h7q29 0 29 -31v-422q0 -19 -10 -26zM104 595q-42 0 -42 43t44 43q42 0 42 -43t-44 -43z" />
<glyph unicode="&#x130;" horiz-adv-x="242" d="M116 -4q-29 0 -29 31v593q0 31 29 31h9q30 0 30 -31v-593q0 -31 -30 -31h-9zM121 720q-25 0 -40 14.5t-15 37.5t15.5 37.5t40.5 14.5q24 0 39 -14.5t15 -37.5t-15 -37.5t-40 -14.5z" />
<glyph unicode="&#x131;" horiz-adv-x="209" d="M101 -4q-29 0 -29 31v422q0 31 29 31h7q29 0 29 -31v-422q0 -31 -29 -31h-7z" />
<glyph unicode="&#x134;" horiz-adv-x="437" d="M182 -12q-63 0 -109.5 31.5t-46.5 62.5q0 12 9.5 23t19.5 15.5t11 2.5q16 -34 46.5 -55t69.5 -21q65 0 92.5 36t27.5 121v416q0 31 30 31h9q29 0 29 -31v-416q0 -110 -45.5 -163t-142.5 -53zM221 720q-22 0 -22 23q0 21 32 58t63.5 63t35.5 26t35 -26t63 -63t32 -58 q0 -23 -21 -23q-16 0 -40 24.5t-70 87.5q-47 -64 -69.5 -88t-38.5 -24z" />
<glyph unicode="&#x135;" horiz-adv-x="209" d="M6 -200q-40 0 -65 16t-25 36q0 10 4.5 19t9 13.5t5.5 3.5q30 -30 70 -30q36 0 51.5 21t15.5 68v502q0 31 29 31h7q29 0 29 -31v-507q0 -69 -33.5 -105.5t-97.5 -36.5zM-5 549q-22 0 -22 23q0 21 32 58t63.5 63t35.5 26t35 -26t63 -63t32 -58q0 -23 -21 -23 q-16 0 -40 24.5t-70 87.5q-47 -64 -69.5 -88t-38.5 -24z" />
<glyph unicode="&#x136;" horiz-adv-x="556" d="M106 -4q-29 0 -29 31v593q0 31 29 31h9q30 0 30 -31v-281l296 291q21 21 39 21q16 0 24.5 -9t9.5 -17.5t0 -9.5l-294 -283l301 -301q2 -2 0 -10t-11.5 -16.5t-25.5 -8.5q-21 0 -37 16l-302 311v-296q0 -31 -30 -31h-9zM210 -225q-7 -8 -23 -3t-10 19l60 125q7 14 10 19 t10.5 10t19.5 5h5q14 0 24.5 -8t10.5 -21v-4q0 -10 -26 -41z" />
<glyph unicode="&#x137;" horiz-adv-x="443" d="M96 -4q-29 0 -29 31v647q0 1 3 2.5t8 3t11 1.5q43 0 43 -63v-360l192 196q25 26 44 26q12 0 20.5 -7.5t11 -15t0.5 -9.5l-197 -196l228 -222q2 -2 -1.5 -10t-12.5 -16t-21 -8q-17 0 -42 25l-222 221v-215q0 -31 -29 -31h-7zM169 -225q-7 -8 -23 -3t-10 19l60 125 q7 14 10 19t10.5 10t19.5 5h5q14 0 24.5 -8t10.5 -21v-4q0 -10 -26 -41z" />
<glyph unicode="&#x139;" horiz-adv-x="520" d="M115 0q-16 0 -27 11t-11 27v582q0 31 29 31h9q30 0 30 -31v-557h312q31 0 31 -29v-5q0 -29 -31 -29h-342zM100 722q-2 3 15.5 24.5t49 52t60.5 51.5q24 18 46 18q12 0 21 -7.5t9 -19.5q0 -25 -37 -50q-31 -21 -70 -39t-65 -25.5t-29 -4.5z" />
<glyph unicode="&#x13a;" horiz-adv-x="209" d="M101 -4q-29 0 -29 31v647q0 1 3 2.5t8 3t11 1.5q43 0 43 -63v-591q0 -31 -29 -31h-7zM92 722q-2 3 15.5 24.5t49 52t60.5 51.5q24 18 46 18q12 0 21 -7.5t9 -19.5q0 -25 -37 -50q-31 -21 -70 -39t-65 -25.5t-29 -4.5z" />
<glyph unicode="&#x13b;" horiz-adv-x="520" d="M115 0q-16 0 -27 11t-11 27v582q0 31 29 31h9q30 0 30 -31v-557h312q31 0 31 -29v-5q0 -29 -31 -29h-342zM227 -225q-7 -8 -23 -3t-10 19l60 125q7 14 10 19t10.5 10t19.5 5h5q14 0 24.5 -8t10.5 -21v-4q0 -10 -26 -41z" />
<glyph unicode="&#x13c;" horiz-adv-x="209" d="M101 -4q-29 0 -29 31v647q0 1 3 2.5t8 3t11 1.5q43 0 43 -63v-591q0 -31 -29 -31h-7zM40 -225q-7 -8 -23 -3t-10 19l60 125q7 14 10 19t10.5 10t19.5 5h5q14 0 24.5 -8t10.5 -21v-4q0 -10 -26 -41z" />
<glyph unicode="&#x13d;" horiz-adv-x="556" d="M115 0q-16 0 -27 11t-11 27v582q0 31 29 31h9q30 0 30 -31v-557h312q31 0 31 -29v-5q0 -29 -31 -29h-342zM458 422q-5 -9 -22 -4.5t-11 19.5l60 178q5 14 8.5 20.5t11 11t19.5 4.5h5q13 0 21.5 -9.5t8.5 -26.5v-3q0 -22 -16 -49z" />
<glyph unicode="&#x13e;" horiz-adv-x="377" d="M101 -4q-29 0 -29 31v647q0 1 3 2.5t8 3t11 1.5q43 0 43 -63v-591q0 -31 -29 -31h-7zM258 454q-5 -9 -22 -4.5t-11 19.5l60 178q5 14 8.5 20.5t11 11t19.5 4.5h5q13 0 21.5 -9.5t8.5 -26.5v-3q0 -22 -16 -49z" />
<glyph unicode="&#x13f;" horiz-adv-x="579" d="M115 0q-16 0 -27 11t-11 27v582q0 31 29 31h9q30 0 30 -31v-557h312q31 0 31 -29v-5q0 -29 -31 -29h-342zM527 276q-44 0 -44 44v10q0 45 44 45h10q45 0 45 -45v-10q0 -44 -45 -44h-10z" />
<glyph unicode="&#x140;" horiz-adv-x="307" d="M101 -4q-29 0 -29 31v647q0 1 3 2.5t8 3t11 1.5q43 0 43 -63v-591q0 -31 -29 -31h-7zM248 256q-44 0 -44 44v10q0 45 44 45h10q45 0 45 -45v-10q0 -44 -45 -44h-10z" />
<glyph unicode="&#x141;" horiz-adv-x="535" d="M31 211q-2 -1 -5 3t-6 12t-3 15q0 28 45 41l50 15v323q0 31 29 31h9q30 0 30 -31v-302l202 62q2 1 5.5 -3.5t6 -12t2.5 -14.5q0 -27 -45 -41l-171 -52v-195h302q31 0 31 -29v-5q0 -28 -31 -28h-332q-16 0 -27 11t-11 27v198z" />
<glyph unicode="&#x142;" horiz-adv-x="324" d="M30 217q-2 -1 -5 4t-6 13t-3 14q0 26 44 39l66 20v367q0 1 3 2.5t8 3t11 1.5q43 0 43 -63v-291l103 32q2 1 5 -4t6 -13t3 -14q0 -26 -44 -39l-73 -23v-239q0 -31 -29 -31h-7q-29 0 -29 31v219z" />
<glyph unicode="&#x143;" horiz-adv-x="675" d="M104 -4q-27 0 -27 31v578q0 20 10 33t27 13h17q17 0 27.5 -8t24.5 -28l351 -509v514q0 31 28 31h9q27 0 27 -31v-578q0 -21 -9.5 -33.5t-25.5 -12.5h-5q-17 0 -25 5.5t-19 20.5l-373 539v-534q0 -31 -28 -31h-9zM315 722q-2 3 15.5 24.5t49 52t60.5 51.5q24 18 46 18 q12 0 21 -7.5t9 -19.5q0 -25 -37 -50q-31 -21 -70 -39t-65 -25.5t-29 -4.5z" />
<glyph unicode="&#x144;" horiz-adv-x="545" d="M131 417v-16q56 87 162 87q92 0 140.5 -56.5t48.5 -153.5v-251q0 -31 -29 -31h-7q-29 0 -29 31v247q0 72 -34 112.5t-94 40.5q-54 0 -94.5 -27t-62.5 -74v-299q0 -31 -29 -31h-7q-29 0 -29 31v446q0 1 3 2.5t8 3t11 1.5q42 0 42 -63zM235 551q-2 3 15.5 24.5t49 52 t60.5 51.5q24 18 46 18q12 0 21 -7.5t9 -19.5q0 -25 -37 -50q-31 -21 -70 -39t-65 -25.5t-29 -4.5z" />
<glyph unicode="&#x145;" horiz-adv-x="675" d="M104 -4q-27 0 -27 31v578q0 20 10 33t27 13h17q17 0 27.5 -8t24.5 -28l351 -509v514q0 31 28 31h9q27 0 27 -31v-578q0 -21 -9.5 -33.5t-25.5 -12.5h-5q-17 0 -25 5.5t-19 20.5l-373 539v-534q0 -31 -28 -31h-9zM279 -225q-7 -8 -23 -3t-10 19l60 125q7 14 10 19t10.5 10 t19.5 5h5q14 0 24.5 -8t10.5 -21v-4q0 -10 -26 -41z" />
<glyph unicode="&#x146;" horiz-adv-x="545" d="M131 417v-16q56 87 162 87q92 0 140.5 -56.5t48.5 -153.5v-251q0 -31 -29 -31h-7q-29 0 -29 31v247q0 72 -34 112.5t-94 40.5q-54 0 -94.5 -27t-62.5 -74v-299q0 -31 -29 -31h-7q-29 0 -29 31v446q0 1 3 2.5t8 3t11 1.5q42 0 42 -63zM211 -225q-7 -8 -23 -3t-10 19 l60 125q7 14 10 19t10.5 10t19.5 5h5q14 0 24.5 -8t10.5 -21v-4q0 -10 -26 -41z" />
<glyph unicode="&#x147;" horiz-adv-x="675" d="M104 -4q-27 0 -27 31v578q0 20 10 33t27 13h17q17 0 27.5 -8t24.5 -28l351 -509v514q0 31 28 31h9q27 0 27 -31v-578q0 -21 -9.5 -33.5t-25.5 -12.5h-5q-17 0 -25 5.5t-19 20.5l-373 539v-534q0 -31 -28 -31h-9zM452 874q21 0 21 -23q0 -21 -32 -58t-63 -63t-35 -26 t-35 26t-63 63t-32 58q0 23 21 23q16 0 39.5 -24.5t70.5 -87.5q46 63 69 87.5t39 24.5z" />
<glyph unicode="&#x148;" horiz-adv-x="545" d="M131 417v-16q56 87 162 87q92 0 140.5 -56.5t48.5 -153.5v-251q0 -31 -29 -31h-7q-29 0 -29 31v247q0 72 -34 112.5t-94 40.5q-54 0 -94.5 -27t-62.5 -74v-299q0 -31 -29 -31h-7q-29 0 -29 31v446q0 1 3 2.5t8 3t11 1.5q42 0 42 -63zM387 703q21 0 21 -23q0 -21 -32 -58 t-63 -63t-35 -26t-35 26t-63 63t-32 58q0 23 21 23q16 0 39.5 -24.5t70.5 -87.5q46 63 69 87.5t39 24.5z" />
<glyph unicode="&#x14c;" horiz-adv-x="744" d="M371 -12q-143 0 -232 93t-89 241t90.5 242.5t232.5 94.5t231.5 -93t89.5 -242q0 -148 -90 -242t-233 -94zM373 47q110 0 180.5 77t70.5 198t-71.5 199.5t-181.5 78.5t-180.5 -77.5t-70.5 -198.5t71.5 -199t181.5 -78zM284 739q-39 0 -39 29v5q0 28 39 28h208q39 0 39 -28 v-5q0 -29 -39 -29h-208z" />
<glyph unicode="&#x14d;" horiz-adv-x="562" d="M281 -12q-107 0 -176.5 71t-69.5 180q0 108 69.5 178.5t176.5 70.5q106 0 175.5 -71t69.5 -180q0 -108 -69.5 -178.5t-175.5 -70.5zM281 45q77 0 128 54.5t51 137.5t-51 138.5t-128 55.5t-128.5 -54.5t-51.5 -137.5t51.5 -138.5t128.5 -55.5zM188 568q-39 0 -39 29v5 q0 28 39 28h208q39 0 39 -28v-5q0 -29 -39 -29h-208z" />
<glyph unicode="&#x14e;" horiz-adv-x="744" d="M371 -12q-143 0 -232 93t-89 241t90.5 242.5t232.5 94.5t231.5 -93t89.5 -242q0 -148 -90 -242t-233 -94zM373 47q110 0 180.5 77t70.5 198t-71.5 199.5t-181.5 78.5t-180.5 -77.5t-70.5 -198.5t71.5 -199t181.5 -78zM379 719q-42 0 -91.5 38t-49.5 67t29 29 q9 0 25.5 -12.5t47.5 -41t41 -37.5q7 7 24 23.5t26.5 25.5t22.5 20.5t22 16.5t15 5q29 0 29 -29q0 -31 -50 -68t-91 -37z" />
<glyph unicode="&#x14f;" horiz-adv-x="562" d="M281 -12q-107 0 -176.5 71t-69.5 180q0 108 69.5 178.5t176.5 70.5q106 0 175.5 -71t69.5 -180q0 -108 -69.5 -178.5t-175.5 -70.5zM281 45q77 0 128 54.5t51 137.5t-51 138.5t-128 55.5t-128.5 -54.5t-51.5 -137.5t51.5 -138.5t128.5 -55.5zM291 548q-42 0 -91.5 38 t-49.5 67t29 29q9 0 25.5 -12.5t47.5 -41t41 -37.5q7 7 24 23.5t26.5 25.5t22.5 20.5t22 16.5t15 5q29 0 29 -29q0 -31 -50 -68t-91 -37z" />
<glyph unicode="&#x150;" horiz-adv-x="744" d="M371 -12q-143 0 -232 93t-89 241t90.5 242.5t232.5 94.5t231.5 -93t89.5 -242q0 -148 -90 -242t-233 -94zM373 47q110 0 180.5 77t70.5 198t-71.5 199.5t-181.5 78.5t-180.5 -77.5t-70.5 -198.5t71.5 -199t181.5 -78zM418 722q-2 3 15.5 24.5t49 52t60.5 51.5 q24 18 46 18q12 0 21 -7.5t9 -19.5q0 -25 -37 -50q-31 -21 -70 -39t-65 -25.5t-29 -4.5zM239 722q-2 3 15.5 24.5t49 52t60.5 51.5q24 18 46 18q12 0 21 -7.5t9 -19.5q0 -25 -37 -50q-31 -21 -70 -39t-65 -25.5t-29 -4.5z" />
<glyph unicode="&#x151;" horiz-adv-x="562" d="M281 -12q-107 0 -176.5 71t-69.5 180q0 108 69.5 178.5t176.5 70.5q106 0 175.5 -71t69.5 -180q0 -108 -69.5 -178.5t-175.5 -70.5zM281 45q77 0 128 54.5t51 137.5t-51 138.5t-128 55.5t-128.5 -54.5t-51.5 -137.5t51.5 -138.5t128.5 -55.5zM299 551q-2 3 15.5 24.5 t49 52t60.5 51.5q24 18 46 18q12 0 21 -7.5t9 -19.5q0 -25 -37 -50q-31 -21 -70 -39t-65 -25.5t-29 -4.5zM120 551q-2 3 15.5 24.5t49 52t60.5 51.5q24 18 46 18q12 0 21 -7.5t9 -19.5q0 -25 -37 -50q-31 -21 -70 -39t-65 -25.5t-29 -4.5z" />
<glyph unicode="&#x152;" horiz-adv-x="1031" d="M371 -12q-143 0 -232 93t-89 241t90.5 242.5t232.5 94.5q49 0 93 -12h491q31 0 31 -28v-6q0 -28 -31 -28h-373q96 -82 108 -223h194q31 0 31 -28v-4q0 -28 -31 -28h-193q-8 -152 -110 -240h380q31 0 31 -27v-6q0 -29 -31 -29h-497q-43 -12 -95 -12zM373 47 q110 0 180.5 77t70.5 198t-71.5 199.5t-181.5 78.5t-180.5 -77.5t-70.5 -198.5t71.5 -199t181.5 -78z" />
<glyph unicode="&#x153;" horiz-adv-x="955" d="M281 -12q-107 0 -176.5 71t-69.5 180q0 108 69.5 178.5t176.5 70.5q71 0 126 -34t85 -93q29 59 83 93t124 34q101 0 161.5 -65.5t60.5 -174.5v-6q0 -13 -6 -17.5t-21 -4.5h-370q4 -77 54.5 -125.5t126.5 -48.5q110 0 163 85q1 2 10.5 -1t18.5 -12.5t9 -23.5 q0 -31 -57 -68.5t-144 -37.5q-75 0 -131 32.5t-85 91.5q-30 -58 -84 -91t-124 -33zM281 45q77 0 128 54.5t51 137.5t-51 138.5t-128 55.5t-128.5 -54.5t-51.5 -137.5t51.5 -138.5t128.5 -55.5zM699 431q-67 0 -114.5 -43t-58.5 -112h326q-5 71 -46 113t-107 42z" />
<glyph unicode="&#x154;" horiz-adv-x="567" d="M477 -4q-22 0 -42 24l-210 252h-81v-245q0 -31 -30 -31h-8q-29 0 -29 31v582q0 16 11 27t27 11h178q114 0 173.5 -47.5t59.5 -139.5q0 -88 -55.5 -137.5t-159.5 -50.5l207 -244q2 -3 -2.5 -10.5t-15 -14.5t-23.5 -7zM144 586v-256h155q78 0 117.5 34t39.5 94 q0 128 -161 128h-151zM228 722q-2 3 15.5 24.5t49 52t60.5 51.5q24 18 46 18q12 0 21 -7.5t9 -19.5q0 -25 -37 -50q-31 -21 -70 -39t-65 -25.5t-29 -4.5z" />
<glyph unicode="&#x155;" horiz-adv-x="338" d="M131 417v-28q30 99 126 99q69 0 69 -49q0 -11 -4 -19.5t-8.5 -12t-5.5 -2.5q-23 20 -58 20q-61 0 -89.5 -57t-28.5 -154v-187q0 -31 -29 -31h-7q-29 0 -29 31v446q0 1 3 2.5t8 3t11 1.5q42 0 42 -63zM134 551q-2 3 15.5 24.5t49 52t60.5 51.5q24 18 46 18q12 0 21 -7.5 t9 -19.5q0 -25 -37 -50q-31 -21 -70 -39t-65 -25.5t-29 -4.5z" />
<glyph unicode="&#x156;" horiz-adv-x="567" d="M477 -4q-22 0 -42 24l-210 252h-81v-245q0 -31 -30 -31h-8q-29 0 -29 31v582q0 16 11 27t27 11h178q114 0 173.5 -47.5t59.5 -139.5q0 -88 -55.5 -137.5t-159.5 -50.5l207 -244q2 -3 -2.5 -10.5t-15 -14.5t-23.5 -7zM144 586v-256h155q78 0 117.5 34t39.5 94 q0 128 -161 128h-151zM221 -225q-7 -8 -23 -3t-10 19l60 125q7 14 10 19t10.5 10t19.5 5h5q14 0 24.5 -8t10.5 -21v-4q0 -10 -26 -41z" />
<glyph unicode="&#x157;" horiz-adv-x="338" d="M131 417v-28q30 99 126 99q69 0 69 -49q0 -11 -4 -19.5t-8.5 -12t-5.5 -2.5q-23 20 -58 20q-61 0 -89.5 -57t-28.5 -154v-187q0 -31 -29 -31h-7q-29 0 -29 31v446q0 1 3 2.5t8 3t11 1.5q42 0 42 -63zM28 -225q-7 -8 -23 -3t-10 19l60 125q7 14 10 19t10.5 10t19.5 5h5 q14 0 24.5 -8t10.5 -21v-4q0 -10 -26 -41z" />
<glyph unicode="&#x158;" horiz-adv-x="567" d="M477 -4q-22 0 -42 24l-210 252h-81v-245q0 -31 -30 -31h-8q-29 0 -29 31v582q0 16 11 27t27 11h178q114 0 173.5 -47.5t59.5 -139.5q0 -88 -55.5 -137.5t-159.5 -50.5l207 -244q2 -3 -2.5 -10.5t-15 -14.5t-23.5 -7zM144 586v-256h155q78 0 117.5 34t39.5 94 q0 128 -161 128h-151zM383 874q21 0 21 -23q0 -21 -32 -58t-63 -63t-35 -26t-35 26t-63 63t-32 58q0 23 21 23q16 0 39.5 -24.5t70.5 -87.5q46 63 69 87.5t39 24.5z" />
<glyph unicode="&#x159;" horiz-adv-x="338" d="M131 417v-28q30 99 126 99q69 0 69 -49q0 -11 -4 -19.5t-8.5 -12t-5.5 -2.5q-23 20 -58 20q-61 0 -89.5 -57t-28.5 -154v-187q0 -31 -29 -31h-7q-29 0 -29 31v446q0 1 3 2.5t8 3t11 1.5q42 0 42 -63zM307 703q21 0 21 -23q0 -21 -32 -58t-63 -63t-35 -26t-35 26t-63 63 t-32 58q0 23 21 23q16 0 39.5 -24.5t70.5 -87.5q46 63 69 87.5t39 24.5z" />
<glyph unicode="&#x15a;" horiz-adv-x="541" d="M274 -12q-99 0 -168 43t-69 84q0 13 9.5 23.5t19.5 15t11 2.5q64 -109 196 -109q75 0 117 32t42 88q0 30 -13.5 52.5t-42.5 37t-53.5 22.5t-68.5 18q-45 11 -74 21t-61 30.5t-48 53.5t-16 79q0 76 62 127t155 51q92 0 153 -37.5t61 -74.5q0 -13 -9.5 -23.5t-19.5 -15 t-11 -2.5q-24 42 -69.5 68t-103.5 26q-68 0 -110 -32.5t-42 -84.5q0 -24 9 -42.5t20.5 -30t36.5 -21.5t44 -15t56 -14q36 -8 62 -16.5t56.5 -24t49.5 -34.5t31.5 -48.5t12.5 -66.5q0 -83 -61.5 -132.5t-163.5 -49.5zM209 722q-2 3 15.5 24.5t49 52t60.5 51.5q24 18 46 18 q12 0 21 -7.5t9 -19.5q0 -25 -37 -50q-31 -21 -70 -39t-65 -25.5t-29 -4.5z" />
<glyph unicode="&#x15b;" horiz-adv-x="454" d="M227 -12q-87 0 -141.5 32.5t-54.5 64.5q0 12 8.5 21t17 12t9.5 2q56 -77 163 -77q58 0 90.5 21.5t32.5 58.5q0 17 -6.5 29.5t-16 20.5t-30 15.5t-37.5 11.5t-50 11q-30 6 -47 10.5t-43 15.5t-40.5 23.5t-25.5 34t-11 49.5q0 64 50 104t132 40q80 0 128 -30t48 -61 q0 -11 -8.5 -20t-17.5 -12.5t-10 -1.5q-46 70 -140 70q-57 0 -88.5 -22t-31.5 -58t29.5 -52t103.5 -32q27 -6 40.5 -9.5t38.5 -11.5t38.5 -17t28.5 -22.5t22 -32.5t7 -43q0 -66 -50.5 -105.5t-137.5 -39.5zM176 551q-2 3 15.5 24.5t49 52t60.5 51.5q24 18 46 18 q12 0 21 -7.5t9 -19.5q0 -25 -37 -50q-31 -21 -70 -39t-65 -25.5t-29 -4.5z" />
<glyph unicode="&#x15c;" horiz-adv-x="541" d="M274 -12q-99 0 -168 43t-69 84q0 13 9.5 23.5t19.5 15t11 2.5q64 -109 196 -109q75 0 117 32t42 88q0 30 -13.5 52.5t-42.5 37t-53.5 22.5t-68.5 18q-45 11 -74 21t-61 30.5t-48 53.5t-16 79q0 76 62 127t155 51q92 0 153 -37.5t61 -74.5q0 -13 -9.5 -23.5t-19.5 -15 t-11 -2.5q-24 42 -69.5 68t-103.5 26q-68 0 -110 -32.5t-42 -84.5q0 -24 9 -42.5t20.5 -30t36.5 -21.5t44 -15t56 -14q36 -8 62 -16.5t56.5 -24t49.5 -34.5t31.5 -48.5t12.5 -66.5q0 -83 -61.5 -132.5t-163.5 -49.5zM171 720q-22 0 -22 23q0 21 32 58t63.5 63t35.5 26 t35 -26t63 -63t32 -58q0 -23 -21 -23q-16 0 -40 24.5t-70 87.5q-47 -64 -69.5 -88t-38.5 -24z" />
<glyph unicode="&#x15d;" horiz-adv-x="454" d="M227 -12q-87 0 -141.5 32.5t-54.5 64.5q0 12 8.5 21t17 12t9.5 2q56 -77 163 -77q58 0 90.5 21.5t32.5 58.5q0 17 -6.5 29.5t-16 20.5t-30 15.5t-37.5 11.5t-50 11q-30 6 -47 10.5t-43 15.5t-40.5 23.5t-25.5 34t-11 49.5q0 64 50 104t132 40q80 0 128 -30t48 -61 q0 -11 -8.5 -20t-17.5 -12.5t-10 -1.5q-46 70 -140 70q-57 0 -88.5 -22t-31.5 -58t29.5 -52t103.5 -32q27 -6 40.5 -9.5t38.5 -11.5t38.5 -17t28.5 -22.5t22 -32.5t7 -43q0 -66 -50.5 -105.5t-137.5 -39.5zM120 549q-22 0 -22 23q0 21 32 58t63.5 63t35.5 26t35 -26t63 -63 t32 -58q0 -23 -21 -23q-16 0 -40 24.5t-70 87.5q-47 -64 -69.5 -88t-38.5 -24z" />
<glyph unicode="&#x15e;" horiz-adv-x="541" d="M274 -12q-99 0 -168 43t-69 84q0 13 9.5 23.5t19.5 15t11 2.5q64 -109 196 -109q75 0 117 32t42 88q0 30 -13.5 52.5t-42.5 37t-53.5 22.5t-68.5 18q-45 11 -74 21t-61 30.5t-48 53.5t-16 79q0 76 62 127t155 51q92 0 153 -37.5t61 -74.5q0 -13 -9.5 -23.5t-19.5 -15 t-11 -2.5q-24 42 -69.5 68t-103.5 26q-68 0 -110 -32.5t-42 -84.5q0 -24 9 -42.5t20.5 -30t36.5 -21.5t44 -15t56 -14q36 -8 62 -16.5t56.5 -24t49.5 -34.5t31.5 -48.5t12.5 -66.5q0 -83 -61.5 -132.5t-163.5 -49.5zM195 -225q-7 -8 -23 -3t-10 19l60 125q7 14 10 19 t10.5 10t19.5 5h5q14 0 24.5 -8t10.5 -21v-4q0 -10 -26 -41z" />
<glyph unicode="&#x15f;" horiz-adv-x="454" d="M227 -12q-87 0 -141.5 32.5t-54.5 64.5q0 12 8.5 21t17 12t9.5 2q56 -77 163 -77q58 0 90.5 21.5t32.5 58.5q0 17 -6.5 29.5t-16 20.5t-30 15.5t-37.5 11.5t-50 11q-30 6 -47 10.5t-43 15.5t-40.5 23.5t-25.5 34t-11 49.5q0 64 50 104t132 40q80 0 128 -30t48 -61 q0 -11 -8.5 -20t-17.5 -12.5t-10 -1.5q-46 70 -140 70q-57 0 -88.5 -22t-31.5 -58t29.5 -52t103.5 -32q27 -6 40.5 -9.5t38.5 -11.5t38.5 -17t28.5 -22.5t22 -32.5t7 -43q0 -66 -50.5 -105.5t-137.5 -39.5zM153 -225q-7 -8 -23 -3t-10 19l60 125q7 14 10 19t10.5 10t19.5 5 h5q14 0 24.5 -8t10.5 -21v-4q0 -10 -26 -41z" />
<glyph unicode="&#x160;" horiz-adv-x="541" d="M274 -12q-99 0 -168 43t-69 84q0 13 9.5 23.5t19.5 15t11 2.5q64 -109 196 -109q75 0 117 32t42 88q0 30 -13.5 52.5t-42.5 37t-53.5 22.5t-68.5 18q-45 11 -74 21t-61 30.5t-48 53.5t-16 79q0 76 62 127t155 51q92 0 153 -37.5t61 -74.5q0 -13 -9.5 -23.5t-19.5 -15 t-11 -2.5q-24 42 -69.5 68t-103.5 26q-68 0 -110 -32.5t-42 -84.5q0 -24 9 -42.5t20.5 -30t36.5 -21.5t44 -15t56 -14q36 -8 62 -16.5t56.5 -24t49.5 -34.5t31.5 -48.5t12.5 -66.5q0 -83 -61.5 -132.5t-163.5 -49.5zM383 873q21 0 21 -23q0 -21 -32 -58t-63 -63t-35 -26 t-35 26t-63 63t-32 58q0 23 21 23q16 0 39.5 -24.5t70.5 -87.5q46 63 69 87.5t39 24.5z" />
<glyph unicode="&#x161;" horiz-adv-x="454" d="M227 -12q-87 0 -141.5 32.5t-54.5 64.5q0 12 8.5 21t17 12t9.5 2q56 -77 163 -77q58 0 90.5 21.5t32.5 58.5q0 17 -6.5 29.5t-16 20.5t-30 15.5t-37.5 11.5t-50 11q-30 6 -47 10.5t-43 15.5t-40.5 23.5t-25.5 34t-11 49.5q0 64 50 104t132 40q80 0 128 -30t48 -61 q0 -11 -8.5 -20t-17.5 -12.5t-10 -1.5q-46 70 -140 70q-57 0 -88.5 -22t-31.5 -58t29.5 -52t103.5 -32q27 -6 40.5 -9.5t38.5 -11.5t38.5 -17t28.5 -22.5t22 -32.5t7 -43q0 -66 -50.5 -105.5t-137.5 -39.5zM329 703q21 0 21 -23q0 -21 -32 -58t-63 -63t-35 -26t-35 26 t-63 63t-32 58q0 23 21 23q16 0 39.5 -24.5t70.5 -87.5q46 63 69 87.5t39 24.5z" />
<glyph unicode="&#x162;" horiz-adv-x="584" d="M55 585q-31 0 -31 28v5q0 29 31 29h474q31 0 31 -29v-5q0 -28 -31 -28h-203v-558q0 -31 -30 -31h-9q-29 0 -29 31v558h-203zM233 -225q-7 -8 -23 -3t-10 19l60 125q7 14 10 19t10.5 10t19.5 5h5q14 0 24.5 -8t10.5 -21v-4q0 -10 -26 -41z" />
<glyph unicode="&#x163;" horiz-adv-x="346" d="M53 418q-31 0 -31 26v6q0 26 31 26h44v83q0 31 29 31h7q28 0 28 -31v-83h127q31 0 31 -26v-6q0 -26 -31 -26h-127v-271q0 -54 16 -78.5t55 -24.5q46 0 74 35q1 1 6.5 -1.5t10.5 -11t5 -19.5q0 -22 -27 -40.5t-71 -18.5q-133 0 -133 152v278h-44zM134 -225q-7 -8 -23 -3 t-10 19l60 125q7 14 10 19t10.5 10t19.5 5h5q14 0 24.5 -8t10.5 -21v-4q0 -10 -26 -41z" />
<glyph unicode="&#x164;" horiz-adv-x="584" d="M55 585q-31 0 -31 28v5q0 29 31 29h474q31 0 31 -29v-5q0 -28 -31 -28h-203v-558q0 -31 -30 -31h-9q-29 0 -29 31v558h-203zM401 874q21 0 21 -23q0 -21 -32 -58t-63 -63t-35 -26t-35 26t-63 63t-32 58q0 23 21 23q16 0 39.5 -24.5t70.5 -87.5q46 63 69 87.5t39 24.5z " />
<glyph unicode="&#x165;" horiz-adv-x="370" d="M53 418q-31 0 -31 26v6q0 26 31 26h44v83q0 31 29 31h7q28 0 28 -31v-83h127q31 0 31 -26v-6q0 -26 -31 -26h-127v-271q0 -54 16 -78.5t55 -24.5q46 0 74 35q1 1 6.5 -1.5t10.5 -11t5 -19.5q0 -22 -27 -40.5t-71 -18.5q-133 0 -133 152v278h-44zM241 534q-4 -8 -18 -3.5 t-9 16.5l49 147q5 12 7.5 17t9 9t16.5 4h4q10 0 17.5 -8t7.5 -22v-2q0 -18 -13 -41z" />
<glyph unicode="&#x16a;" horiz-adv-x="639" d="M318 -12q-122 0 -186.5 68.5t-64.5 198.5v365q0 31 29 31h9q30 0 30 -31v-360q0 -211 185 -211t185 212v359q0 31 28 31h12q27 0 27 -31v-362q0 -131 -65.5 -200.5t-188.5 -69.5zM226 739q-39 0 -39 29v5q0 28 39 28h208q39 0 39 -28v-5q0 -29 -39 -29h-208z" />
<glyph unicode="&#x16b;" horiz-adv-x="545" d="M456 -4q-42 0 -42 63v15q-57 -86 -162 -86q-92 0 -140.5 56.5t-48.5 153.5v251q0 31 29 31h7q29 0 29 -31v-247q0 -72 35 -112.5t98 -40.5q51 0 90.5 27.5t61.5 73.5v299q0 31 29 31h7q29 0 29 -31v-446q0 -1 -3 -2.5t-8 -3t-11 -1.5zM172 568q-39 0 -39 29v5q0 28 39 28 h208q39 0 39 -28v-5q0 -29 -39 -29h-208z" />
<glyph unicode="&#x16c;" horiz-adv-x="639" d="M318 -12q-122 0 -186.5 68.5t-64.5 198.5v365q0 31 29 31h9q30 0 30 -31v-360q0 -211 185 -211t185 212v359q0 31 28 31h12q27 0 27 -31v-362q0 -131 -65.5 -200.5t-188.5 -69.5zM325 719q-42 0 -91.5 38t-49.5 67t29 29q9 0 25.5 -12.5t47.5 -41t41 -37.5q7 7 24 23.5 t26.5 25.5t22.5 20.5t22 16.5t15 5q29 0 29 -29q0 -31 -50 -68t-91 -37z" />
<glyph unicode="&#x16d;" horiz-adv-x="545" d="M456 -4q-42 0 -42 63v15q-57 -86 -162 -86q-92 0 -140.5 56.5t-48.5 153.5v251q0 31 29 31h7q29 0 29 -31v-247q0 -72 35 -112.5t98 -40.5q51 0 90.5 27.5t61.5 73.5v299q0 31 29 31h7q29 0 29 -31v-446q0 -1 -3 -2.5t-8 -3t-11 -1.5zM262 548q-42 0 -91.5 38t-49.5 67 t29 29q9 0 25.5 -12.5t47.5 -41t41 -37.5q7 7 24 23.5t26.5 25.5t22.5 20.5t22 16.5t15 5q29 0 29 -29q0 -31 -50 -68t-91 -37z" />
<glyph unicode="&#x16e;" horiz-adv-x="639" d="M318 -12q-122 0 -186.5 68.5t-64.5 198.5v365q0 31 29 31h9q30 0 30 -31v-360q0 -211 185 -211t185 212v359q0 31 28 31h12q27 0 27 -31v-362q0 -131 -65.5 -200.5t-188.5 -69.5zM329 719q-51 0 -83.5 33t-32.5 84q0 50 33.5 83.5t83.5 33.5q51 0 83.5 -33t32.5 -84 q0 -50 -33.5 -83.5t-83.5 -33.5zM329 764q29 0 48 20.5t19 51.5t-19.5 52t-47.5 21t-47.5 -21t-19.5 -52q0 -30 19.5 -51t47.5 -21z" />
<glyph unicode="&#x16f;" horiz-adv-x="545" d="M456 -4q-42 0 -42 63v15q-57 -86 -162 -86q-92 0 -140.5 56.5t-48.5 153.5v251q0 31 29 31h7q29 0 29 -31v-247q0 -72 35 -112.5t98 -40.5q51 0 90.5 27.5t61.5 73.5v299q0 31 29 31h7q29 0 29 -31v-446q0 -1 -3 -2.5t-8 -3t-11 -1.5zM276 535q-51 0 -83.5 33t-32.5 84 q0 50 33.5 83.5t83.5 33.5q51 0 83.5 -33t32.5 -84q0 -50 -33.5 -83.5t-83.5 -33.5zM276 580q29 0 48 20.5t19 51.5t-19.5 52t-47.5 21t-47.5 -21t-19.5 -52q0 -30 19.5 -51t47.5 -21z" />
<glyph unicode="&#x170;" horiz-adv-x="639" d="M318 -12q-122 0 -186.5 68.5t-64.5 198.5v365q0 31 29 31h9q30 0 30 -31v-360q0 -211 185 -211t185 212v359q0 31 28 31h12q27 0 27 -31v-362q0 -131 -65.5 -200.5t-188.5 -69.5zM374 722q-2 3 15.5 24.5t49 52t60.5 51.5q24 18 46 18q12 0 21 -7.5t9 -19.5 q0 -25 -37 -50q-31 -21 -70 -39t-65 -25.5t-29 -4.5zM195 722q-2 3 15.5 24.5t49 52t60.5 51.5q24 18 46 18q12 0 21 -7.5t9 -19.5q0 -25 -37 -50q-31 -21 -70 -39t-65 -25.5t-29 -4.5z" />
<glyph unicode="&#x171;" horiz-adv-x="545" d="M456 -4q-42 0 -42 63v15q-57 -86 -162 -86q-92 0 -140.5 56.5t-48.5 153.5v251q0 31 29 31h7q29 0 29 -31v-247q0 -72 35 -112.5t98 -40.5q51 0 90.5 27.5t61.5 73.5v299q0 31 29 31h7q29 0 29 -31v-446q0 -1 -3 -2.5t-8 -3t-11 -1.5zM128 551q-2 3 15.5 24.5t49 52 t60.5 51.5q24 18 46 18q12 0 21 -7.5t9 -19.5q0 -25 -37 -50q-31 -21 -70 -39t-65 -25.5t-29 -4.5zM307 551q-2 3 15.5 24.5t49 52t60.5 51.5q24 18 46 18q12 0 21 -7.5t9 -19.5q0 -25 -37 -50q-31 -21 -70 -39t-65 -25.5t-29 -4.5z" />
<glyph unicode="&#x172;" horiz-adv-x="639" d="M318 -12q-122 0 -186.5 68.5t-64.5 198.5v365q0 31 29 31h9q30 0 30 -31v-360q0 -211 185 -211t185 212v359q0 31 28 31h12q27 0 27 -31v-362q0 -164 -101 -230q-73 -55 -73 -99q0 -16 10 -27t24 -11q26 0 39 21q13 0 22.5 -9t9.5 -25q0 -20 -20 -32t-52 -12 q-42 0 -67.5 22t-25.5 60q0 39 31 76q-21 -4 -51 -4z" />
<glyph unicode="&#x173;" horiz-adv-x="545" d="M427 7q-13 15 -13 52v15q-57 -86 -162 -86q-92 0 -140.5 56.5t-48.5 153.5v251q0 31 29 31h7q29 0 29 -31v-247q0 -72 35 -112.5t98 -40.5q51 0 90.5 27.5t61.5 73.5v299q0 31 29 31h7q29 0 29 -31v-446q0 -3 -4 -3q-77 -57 -77 -102q0 -16 10 -27t24 -11q26 0 39 21 q13 0 22.5 -9t9.5 -25q0 -20 -20 -32t-52 -12q-42 0 -67.5 22t-25.5 60q0 69 90 122z" />
<glyph unicode="&#x174;" horiz-adv-x="904" d="M258 -7q-28 0 -39 6t-14 22l-150 615q-1 2 3.5 5.5t13.5 6.5t20 3q32 0 42 -42l124 -548l142 463q7 20 18 29t36 9t35.5 -8.5t17.5 -29.5l140 -461l127 546q6 23 13.5 32.5t24.5 9.5q11 0 20 -3t13.5 -6.5t3.5 -5.5l-150 -615q-3 -16 -14 -22t-39 -6q-24 0 -34 6.5 t-15 22.5l-142 473l-151 -473q-5 -16 -14 -22.5t-32 -6.5zM347 700q-22 0 -22 23q0 21 32 58t63.5 63t35.5 26t35 -26t63 -63t32 -58q0 -23 -21 -23q-16 0 -40 24.5t-70 87.5q-47 -64 -69.5 -88t-38.5 -24z" />
<glyph unicode="&#x175;" horiz-adv-x="674" d="M187 -6q-26 0 -35.5 5.5t-12.5 19.5l-115 442q-1 2 4 6.5t14.5 8.5t19.5 4q30 0 39 -46l87 -374l102 321q5 15 15 21t34 6t34 -6t15 -21l101 -321l86 374q8 46 39 46q9 0 18 -4t14 -8.5t4 -6.5l-114 -442q-3 -14 -12.5 -19.5t-35.5 -5.5q-23 0 -31 5.5t-13 19.5l-105 326 l-108 -326q-5 -14 -13 -19.5t-31 -5.5zM231 539q-22 0 -22 23q0 21 32 58t63.5 63t35.5 26t35 -26t63 -63t32 -58q0 -23 -21 -23q-16 0 -40 24.5t-70 87.5q-47 -64 -69.5 -88t-38.5 -24z" />
<glyph unicode="&#x176;" horiz-adv-x="549" d="M269 -4q-29 0 -29 31v242l-230 353q-2 3 2 9.5t14.5 13t24.5 6.5q21 0 34 -23l190 -297l189 296q16 24 34 24q13 0 23 -6.5t14.5 -13t2.5 -9.5l-230 -353v-242q0 -31 -30 -31h-9zM170 720q-22 0 -22 23q0 21 32 58t63.5 63t35.5 26t35 -26t63 -63t32 -58q0 -23 -21 -23 q-16 0 -40 24.5t-70 87.5q-47 -64 -69.5 -88t-38.5 -24z" />
<glyph unicode="&#x177;" horiz-adv-x="472" d="M183 -197q-8 0 -16.5 3.5t-13.5 7.5t-4 6l80 204q-17 0 -25 5t-15 20l-174 412q-1 2 2.5 6.5t11.5 8.5t18 4q17 0 28 -9.5t21 -35.5l151 -373l131 371q16 47 48 47q8 0 16.5 -3.5t13 -7.5t3.5 -6l-230 -617q-16 -43 -46 -43zM137 549q-22 0 -22 23q0 21 32 58t63.5 63 t35.5 26t35 -26t63 -63t32 -58q0 -23 -21 -23q-16 0 -40 24.5t-70 87.5q-47 -64 -69.5 -88t-38.5 -24z" />
<glyph unicode="&#x178;" horiz-adv-x="549" d="M269 -4q-29 0 -29 31v242l-230 353q-2 3 2 9.5t14.5 13t24.5 6.5q21 0 34 -23l190 -297l189 296q16 24 34 24q13 0 23 -6.5t14.5 -13t2.5 -9.5l-230 -353v-242q0 -31 -30 -31h-9zM191 718q-23 0 -36.5 13t-13.5 36t13.5 36t34.5 13q23 0 36.5 -13t13.5 -36t-13 -36 t-35 -13zM359 718q-23 0 -36.5 13t-13.5 36t13 36t35 13q23 0 36.5 -13t13.5 -36t-13.5 -36t-34.5 -13z" />
<glyph unicode="&#x179;" horiz-adv-x="604" d="M109 0q-55 0 -55 38v9q0 26 40 75l372 463h-380q-31 0 -31 28v5q0 29 31 29h401q54 0 54 -37v-9q0 -23 -39 -72l-375 -467h401q31 0 31 -28v-5q0 -29 -31 -29h-419zM255 722q-2 3 15.5 24.5t49 52t60.5 51.5q24 18 46 18q12 0 21 -7.5t9 -19.5q0 -25 -37 -50 q-31 -21 -70 -39t-65 -25.5t-29 -4.5z" />
<glyph unicode="&#x17a;" horiz-adv-x="473" d="M71 0q-31 0 -31 28v9q0 12 25 43l278 340h-270q-33 0 -33 25v6q0 25 33 25h326q31 0 31 -28v-5q0 -10 -25 -41l-283 -346h282q33 0 33 -25v-6q0 -25 -33 -25h-333zM195 551q-2 3 15.5 24.5t49 52t60.5 51.5q24 18 46 18q12 0 21 -7.5t9 -19.5q0 -25 -37 -50 q-31 -21 -70 -39t-65 -25.5t-29 -4.5z" />
<glyph unicode="&#x17b;" horiz-adv-x="604" d="M109 0q-55 0 -55 38v9q0 26 40 75l372 463h-380q-31 0 -31 28v5q0 29 31 29h401q54 0 54 -37v-9q0 -23 -39 -72l-375 -467h401q31 0 31 -28v-5q0 -29 -31 -29h-419zM300 720q-25 0 -40 14.5t-15 37.5t15.5 37.5t40.5 14.5q24 0 39 -14.5t15 -37.5t-15 -37.5t-40 -14.5z " />
<glyph unicode="&#x17c;" horiz-adv-x="473" d="M71 0q-31 0 -31 28v9q0 12 25 43l278 340h-270q-33 0 -33 25v6q0 25 33 25h326q31 0 31 -28v-5q0 -10 -25 -41l-283 -346h282q33 0 33 -25v-6q0 -25 -33 -25h-333zM246 549q-25 0 -40 14.5t-15 37.5t15.5 37.5t40.5 14.5q24 0 39 -14.5t15 -37.5t-15 -37.5t-40 -14.5z " />
<glyph unicode="&#x17d;" horiz-adv-x="604" d="M109 0q-55 0 -55 38v9q0 26 40 75l372 463h-380q-31 0 -31 28v5q0 29 31 29h401q54 0 54 -37v-9q0 -23 -39 -72l-375 -467h401q31 0 31 -28v-5q0 -29 -31 -29h-419zM405 873q21 0 21 -23q0 -21 -32 -58t-63 -63t-35 -26t-35 26t-63 63t-32 58q0 23 21 23q16 0 39.5 -24.5 t70.5 -87.5q46 63 69 87.5t39 24.5z" />
<glyph unicode="&#x17e;" horiz-adv-x="473" d="M71 0q-31 0 -31 28v9q0 12 25 43l278 340h-270q-33 0 -33 25v6q0 25 33 25h326q31 0 31 -28v-5q0 -10 -25 -41l-283 -346h282q33 0 33 -25v-6q0 -25 -33 -25h-333zM340 703q21 0 21 -23q0 -21 -32 -58t-63 -63t-35 -26t-35 26t-63 63t-32 58q0 23 21 23q16 0 39.5 -24.5 t70.5 -87.5q46 63 69 87.5t39 24.5z" />
<glyph unicode="&#x192;" horiz-adv-x="383" d="M58 378q-31 0 -31 26v6q0 26 31 26h71l12 64q28 159 151 159q40 0 65.5 -17t25.5 -40q0 -10 -6 -20t-12 -15t-7 -4q-26 36 -72 36q-34 0 -53 -26t-29 -84l-10 -53h120q31 0 31 -26v-6q0 -26 -31 -26h-129l-60 -328q-9 -54 -42 -54q-8 0 -16 2.5t-12 5.5t-3 5l67 369h-61z " />
<glyph unicode="&#x1fa;" horiz-adv-x="609" d="M420 719q0 -34 -17 -61t-45 -41l234 -601q1 -3 -4.5 -7.5t-15 -8.5t-19.5 -4q-29 0 -41 31l-71 184h-278l-70 -184q-12 -31 -39 -31q-9 0 -19 4t-15 8.5t-4 7.5l232 600q-61 29 -61 103q0 50 33.5 83.5t83.5 33.5q51 0 83.5 -33t32.5 -84zM302 577l-117 -306h234z M303 647q29 0 48 20.5t19 51.5t-19.5 52t-47.5 21t-47.5 -21t-19.5 -52q0 -30 19.5 -51t47.5 -21zM266 862q-2 3 15.5 24.5t49 52t60.5 51.5q24 18 46 18q12 0 21 -7.5t9 -19.5q0 -25 -37 -50q-31 -21 -70 -39t-65 -25.5t-29 -4.5z" />
<glyph unicode="&#x1fb;" horiz-adv-x="505" d="M187 813q-2 3 15.5 24.5t49 52t60.5 51.5q24 18 46 18q12 0 21 -7.5t9 -19.5q0 -25 -37 -50q-31 -21 -70 -39t-65 -25.5t-29 -4.5zM201 -11q-77 0 -120.5 36t-43.5 97q0 82 81.5 120t249.5 42h10v17q0 61 -34.5 94t-99.5 33q-105 0 -152 -88q0 -1 -9 1.5t-18.5 11.5 t-9.5 25q0 32 54.5 71t139.5 39q91 0 142 -49.5t51 -135.5v-300q0 -1 -3 -2.5t-8 -3t-11 -1.5q-41 0 -41 63v18q-61 -88 -178 -88zM207 43q74 0 122.5 41t48.5 105v44l-28 -1q-126 -5 -186.5 -30t-60.5 -80q0 -36 28 -57.5t76 -21.5zM251 548q-51 0 -83.5 33t-32.5 84 q0 50 33.5 83.5t83.5 33.5q51 0 83.5 -33t32.5 -84q0 -50 -33.5 -83.5t-83.5 -33.5zM251 593q29 0 48 20.5t19 51.5t-19.5 52t-47.5 21t-47.5 -21t-19.5 -52q0 -30 19.5 -51t47.5 -21z" />
<glyph unicode="&#x1fc;" horiz-adv-x="844" d="M506 38l-65 173h-278l-70 -184q-13 -31 -39 -31q-9 0 -19 4t-15 8.5t-4 7.5l233 601q12 30 43 30h478q31 0 31 -28v-6q0 -28 -31 -28h-401l86 -222h244q31 0 31 -28v-6q0 -28 -31 -28h-219l92 -239h204q31 0 31 -27v-6q0 -29 -31 -29h-214q-24 0 -36 8.5t-20 29.5z M302 575l-117 -304h234zM433 722q-2 3 15.5 24.5t49 52t60.5 51.5q24 18 46 18q12 0 21 -7.5t9 -19.5q0 -25 -37 -50q-31 -21 -70 -39t-65 -25.5t-29 -4.5z" />
<glyph unicode="&#x1fd;" horiz-adv-x="865" d="M201 -11q-77 0 -120.5 36t-43.5 97q0 82 81.5 120t249.5 42h10v17q0 61 -34.5 94t-99.5 33q-105 0 -152 -88q0 -1 -9 1.5t-18.5 11.5t-9.5 25q0 32 54.5 71t139.5 39q128 0 170 -106q63 106 190 106q101 0 161.5 -65.5t60.5 -174.5v-6q0 -13 -6 -17.5t-21 -4.5h-370 q4 -77 54.5 -125.5t126.5 -48.5q110 0 163 85q1 2 10.5 -1t18.5 -12.5t9 -23.5q0 -31 -57 -68.5t-144 -37.5q-75 0 -128.5 32t-80.5 90q-26 -55 -81 -88t-124 -33zM207 43q74 0 122.5 41t48.5 105v44l-28 -1q-126 -5 -186.5 -30t-60.5 -80q0 -36 28 -57.5t76 -21.5zM609 431 q-67 0 -114.5 -43t-58.5 -112h326q-5 71 -46 113t-107 42zM425 551q-2 3 15.5 24.5t49 52t60.5 51.5q24 18 46 18q12 0 21 -7.5t9 -19.5q0 -25 -37 -50q-31 -21 -70 -39t-65 -25.5t-29 -4.5z" />
<glyph unicode="&#x1fe;" horiz-adv-x="744" d="M79 -42q-2 -2 -10 2t-15.5 13.5t-7.5 20.5q0 22 24 49l53 59q-73 90 -73 220q0 144 90.5 240.5t232.5 96.5q115 0 198 -66l81 90q2 2 10 -2t15.5 -13.5t7.5 -20.5q0 -22 -24 -49l-44 -49q77 -93 77 -225q0 -144 -90.5 -240t-232.5 -96q-120 0 -203 69zM373 50 q114 0 183.5 76.5t69.5 195.5q0 106 -57 180l-357 -397q66 -55 161 -55zM118 324q0 -102 53 -175l356 396q-65 52 -156 52q-114 0 -183.5 -77t-69.5 -196zM354 722q-2 3 15.5 24.5t49 52t60.5 51.5q24 18 46 18q12 0 21 -7.5t9 -19.5q0 -25 -37 -50q-31 -21 -70 -39 t-65 -25.5t-29 -4.5z" />
<glyph unicode="&#x1ff;" horiz-adv-x="562" d="M71 -36q-2 -2 -9 1.5t-14 11.5t-7 17q0 19 22 44l35 38q-55 70 -55 161q0 105 70.5 178t171.5 73q81 0 145 -48l64 71q2 2 9 -1.5t14 -11.5t7 -17q0 -19 -22 -44l-32 -35q56 -70 56 -163q0 -105 -70.5 -178t-171.5 -73q-82 0 -147 49zM144 122l245 270q-47 37 -105 37 q-76 0 -125.5 -54.5t-49.5 -136.5q0 -65 35 -116zM285 47q76 0 125.5 54.5t49.5 136.5q0 67 -36 117l-246 -270q48 -38 107 -38zM269 551q-2 3 15.5 24.5t49 52t60.5 51.5q24 18 46 18q12 0 21 -7.5t9 -19.5q0 -25 -37 -50q-31 -21 -70 -39t-65 -25.5t-29 -4.5z" />
<glyph unicode="&#x218;" horiz-adv-x="541" d="M274 -12q-99 0 -168 43t-69 84q0 13 9.5 23.5t19.5 15t11 2.5q64 -109 196 -109q75 0 117 32t42 88q0 30 -13.5 52.5t-42.5 37t-53.5 22.5t-68.5 18q-45 11 -74 21t-61 30.5t-48 53.5t-16 79q0 76 62 127t155 51q92 0 153 -37.5t61 -74.5q0 -13 -9.5 -23.5t-19.5 -15 t-11 -2.5q-24 42 -69.5 68t-103.5 26q-68 0 -110 -32.5t-42 -84.5q0 -24 9 -42.5t20.5 -30t36.5 -21.5t44 -15t56 -14q36 -8 62 -16.5t56.5 -24t49.5 -34.5t31.5 -48.5t12.5 -66.5q0 -83 -61.5 -132.5t-163.5 -49.5zM209 -225q-7 -8 -23 -3t-10 19l60 125q7 14 10 19 t10.5 10t19.5 5h5q14 0 24.5 -8t10.5 -21v-4q0 -10 -26 -41z" />
<glyph unicode="&#x219;" horiz-adv-x="454" d="M227 -12q-87 0 -141.5 32.5t-54.5 64.5q0 12 8.5 21t17 12t9.5 2q56 -77 163 -77q58 0 90.5 21.5t32.5 58.5q0 17 -6.5 29.5t-16 20.5t-30 15.5t-37.5 11.5t-50 11q-30 6 -47 10.5t-43 15.5t-40.5 23.5t-25.5 34t-11 49.5q0 64 50 104t132 40q80 0 128 -30t48 -61 q0 -11 -8.5 -20t-17.5 -12.5t-10 -1.5q-46 70 -140 70q-57 0 -88.5 -22t-31.5 -58t29.5 -52t103.5 -32q27 -6 40.5 -9.5t38.5 -11.5t38.5 -17t28.5 -22.5t22 -32.5t7 -43q0 -66 -50.5 -105.5t-137.5 -39.5zM143 -225q-7 -8 -23 -3t-10 19l60 125q7 14 10 19t10.5 10t19.5 5 h5q14 0 24.5 -8t10.5 -21v-4q0 -10 -26 -41z" />
<glyph unicode="&#x2c6;" horiz-adv-x="500" d="M141 549q-22 0 -22 23q0 21 32 58t63.5 63t35.5 26t35 -26t63 -63t32 -58q0 -23 -21 -23q-16 0 -40 24.5t-70 87.5q-47 -64 -69.5 -88t-38.5 -24z" />
<glyph unicode="&#x2c7;" horiz-adv-x="500" d="M359 703q21 0 21 -23q0 -21 -32 -58t-63 -63t-35 -26t-35 26t-63 63t-32 58q0 23 21 23q16 0 39.5 -24.5t70.5 -87.5q46 63 69 87.5t39 24.5z" />
<glyph unicode="&#x2d8;" horiz-adv-x="500" d="M250 548q-42 0 -91.5 38t-49.5 67t29 29q9 0 25.5 -12.5t47.5 -41t41 -37.5q7 7 24 23.5t26.5 25.5t22.5 20.5t22 16.5t15 5q29 0 29 -29q0 -31 -50 -68t-91 -37z" />
<glyph unicode="&#x2d9;" horiz-adv-x="500" d="M250 549q-25 0 -40 14.5t-15 37.5t15.5 37.5t40.5 14.5q24 0 39 -14.5t15 -37.5t-15 -37.5t-40 -14.5z" />
<glyph unicode="&#x2da;" horiz-adv-x="500" d="M249 548q-51 0 -83.5 33t-32.5 84q0 50 33.5 83.5t83.5 33.5q51 0 83.5 -33t32.5 -84q0 -50 -33.5 -83.5t-83.5 -33.5zM249 593q29 0 48 20.5t19 51.5t-19.5 52t-47.5 21t-47.5 -21t-19.5 -52q0 -30 19.5 -51t47.5 -21z" />
<glyph unicode="&#x2db;" horiz-adv-x="500" d="M312 0q-80 -58 -80 -104q0 -16 10 -27t24 -11q26 0 39 21q13 0 22.5 -9t9.5 -25q0 -20 -20 -32t-52 -12q-42 0 -67.5 22t-25.5 60q0 85 130 143z" />
<glyph unicode="&#x2dc;" horiz-adv-x="500" d="M131 555q-25 0 -25 26q0 34 20 62t49 28q25 0 66 -21.5t82 -58.5q23 73 46 73q25 0 25 -26q0 -34 -20 -62t-49 -28q-25 0 -66 21.5t-82 58.5q-23 -73 -46 -73z" />
<glyph unicode="&#x2dd;" horiz-adv-x="500" d="M279 551q-2 3 15.5 24.5t49 52t60.5 51.5q24 18 46 18q12 0 21 -7.5t9 -19.5q0 -25 -37 -50q-31 -21 -70 -39t-65 -25.5t-29 -4.5zM100 551q-2 3 15.5 24.5t49 52t60.5 51.5q24 18 46 18q12 0 21 -7.5t9 -19.5q0 -25 -37 -50q-31 -21 -70 -39t-65 -25.5t-29 -4.5z" />
<glyph unicode="&#x3c0;" horiz-adv-x="757" d="M378 -12q-144 0 -236 94t-92 240q0 145 94 241t235 96q144 0 236 -94t92 -240q0 -145 -94 -241t-235 -96zM380 36q121 0 197 80t76 207q0 124 -78.5 206t-197.5 82q-121 0 -197 -80t-76 -207q0 -124 78.5 -206t197.5 -82zM291 139q-25 0 -25 28v285q0 15 9 24.5t23 9.5 h96q66 0 101.5 -29t35.5 -84q0 -56 -35 -86t-99 -30h-71v-90q0 -28 -26 -28h-9zM325 437v-131h73q36 0 55 17.5t19 48.5q0 65 -78 65h-69z" />
<glyph unicode="&#x1e80;" horiz-adv-x="904" d="M258 -7q-28 0 -39 6t-14 22l-150 615q-1 2 3.5 5.5t13.5 6.5t20 3q32 0 42 -42l124 -548l142 463q7 20 18 29t36 9t35.5 -8.5t17.5 -29.5l140 -461l127 546q6 23 13.5 32.5t24.5 9.5q11 0 20 -3t13.5 -6.5t3.5 -5.5l-150 -615q-3 -16 -14 -22t-39 -6q-24 0 -34 6.5 t-15 22.5l-142 473l-151 -473q-5 -16 -14 -22.5t-32 -6.5zM362 771q-37 25 -37 50q0 12 9 19.5t21 7.5q22 0 46 -18q29 -21 60.5 -51.5t49 -52t15.5 -24.5q-3 -3 -29 4.5t-65 25.5t-70 39z" />
<glyph unicode="&#x1e81;" horiz-adv-x="674" d="M187 -6q-26 0 -35.5 5.5t-12.5 19.5l-115 442q-1 2 4 6.5t14.5 8.5t19.5 4q30 0 39 -46l87 -374l102 321q5 15 15 21t34 6t34 -6t15 -21l101 -321l86 374q8 46 39 46q9 0 18 -4t14 -8.5t4 -6.5l-114 -442q-3 -14 -12.5 -19.5t-35.5 -5.5q-23 0 -31 5.5t-13 19.5l-105 326 l-108 -326q-5 -14 -13 -19.5t-31 -5.5zM234 610q-37 25 -37 50q0 12 9 19.5t21 7.5q22 0 46 -18q29 -21 60.5 -51.5t49 -52t15.5 -24.5q-3 -3 -29 4.5t-65 25.5t-70 39z" />
<glyph unicode="&#x1e82;" horiz-adv-x="904" d="M258 -7q-28 0 -39 6t-14 22l-150 615q-1 2 3.5 5.5t13.5 6.5t20 3q32 0 42 -42l124 -548l142 463q7 20 18 29t36 9t35.5 -8.5t17.5 -29.5l140 -461l127 546q6 23 13.5 32.5t24.5 9.5q11 0 20 -3t13.5 -6.5t3.5 -5.5l-150 -615q-3 -16 -14 -22t-39 -6q-24 0 -34 6.5 t-15 22.5l-142 473l-151 -473q-5 -16 -14 -22.5t-32 -6.5zM388 702q-2 3 15.5 24.5t49 52t60.5 51.5q24 18 46 18q12 0 21 -7.5t9 -19.5q0 -25 -37 -50q-31 -21 -70 -39t-65 -25.5t-29 -4.5z" />
<glyph unicode="&#x1e83;" horiz-adv-x="674" d="M187 -6q-26 0 -35.5 5.5t-12.5 19.5l-115 442q-1 2 4 6.5t14.5 8.5t19.5 4q30 0 39 -46l87 -374l102 321q5 15 15 21t34 6t34 -6t15 -21l101 -321l86 374q8 46 39 46q9 0 18 -4t14 -8.5t4 -6.5l-114 -442q-3 -14 -12.5 -19.5t-35.5 -5.5q-23 0 -31 5.5t-13 19.5l-105 326 l-108 -326q-5 -14 -13 -19.5t-31 -5.5zM274 541q-2 3 15.5 24.5t49 52t60.5 51.5q24 18 46 18q12 0 21 -7.5t9 -19.5q0 -25 -37 -50q-31 -21 -70 -39t-65 -25.5t-29 -4.5z" />
<glyph unicode="&#x1e84;" horiz-adv-x="904" d="M258 -7q-28 0 -39 6t-14 22l-150 615q-1 2 3.5 5.5t13.5 6.5t20 3q32 0 42 -42l124 -548l142 463q7 20 18 29t36 9t35.5 -8.5t17.5 -29.5l140 -461l127 546q6 23 13.5 32.5t24.5 9.5q11 0 20 -3t13.5 -6.5t3.5 -5.5l-150 -615q-3 -16 -14 -22t-39 -6q-24 0 -34 6.5 t-15 22.5l-142 473l-151 -473q-5 -16 -14 -22.5t-32 -6.5zM538 699q-23 0 -36.5 13t-13.5 36t13 36t35 13q23 0 36.5 -13t13.5 -36t-13.5 -36t-34.5 -13zM370 699q-23 0 -36.5 13t-13.5 36t13.5 36t34.5 13q23 0 36.5 -13t13.5 -36t-13 -36t-35 -13z" />
<glyph unicode="&#x1e85;" horiz-adv-x="674" d="M187 -6q-26 0 -35.5 5.5t-12.5 19.5l-115 442q-1 2 4 6.5t14.5 8.5t19.5 4q30 0 39 -46l87 -374l102 321q5 15 15 21t34 6t34 -6t15 -21l101 -321l86 374q8 46 39 46q9 0 18 -4t14 -8.5t4 -6.5l-114 -442q-3 -14 -12.5 -19.5t-35.5 -5.5q-23 0 -31 5.5t-13 19.5l-105 326 l-108 -326q-5 -14 -13 -19.5t-31 -5.5zM424 548q-23 0 -36.5 13t-13.5 36t13 36t35 13q23 0 36.5 -13t13.5 -36t-13.5 -36t-34.5 -13zM256 548q-23 0 -36.5 13t-13.5 36t13.5 36t34.5 13q23 0 36.5 -13t13.5 -36t-13 -36t-35 -13z" />
<glyph unicode="&#x2013;" horiz-adv-x="525" d="M76 213q-31 0 -31 26v6q0 26 31 26h373q31 0 31 -26v-6q0 -26 -31 -26h-373z" />
<glyph unicode="&#x2014;" horiz-adv-x="693" d="M76 213q-31 0 -31 26v6q0 26 31 26h541q31 0 31 -26v-6q0 -26 -31 -26h-541z" />
<glyph unicode="&#x2018;" horiz-adv-x="202" d="M73 426q-13 0 -22 9.5t-9 26.5v3q0 22 17 49l84 141q5 10 22 5t11 -20l-59 -178q-5 -14 -9 -20t-11.5 -11t-19.5 -5h-4z" />
<glyph unicode="&#x2019;" horiz-adv-x="202" d="M59 432q-5 -9 -22 -4.5t-11 19.5l60 178q5 14 8.5 20.5t11 11t19.5 4.5h5q13 0 21.5 -9.5t8.5 -26.5v-3q0 -22 -16 -49z" />
<glyph unicode="&#x201a;" horiz-adv-x="202" d="M49 -129q-5 -9 -22 -4.5t-11 19.5l60 178q5 14 8.5 20.5t11 11t19.5 4.5h5q13 0 21.5 -9.5t8.5 -26.5v-3q0 -22 -16 -49z" />
<glyph unicode="&#x201c;" horiz-adv-x="355" d="M226 426q-13 0 -21.5 9.5t-8.5 26.5v3q0 22 16 49l85 141q6 9 22 4.5t11 -19.5l-60 -178q-7 -21 -14 -28.5t-25 -7.5h-5zM72 426q-13 0 -21.5 9.5t-8.5 26.5v3q0 22 16 49l85 141q6 9 22 4.5t11 -19.5l-60 -178q-7 -21 -14 -28.5t-25 -7.5h-5z" />
<glyph unicode="&#x201d;" horiz-adv-x="355" d="M212 432q-5 -9 -22 -4.5t-11 19.5l60 178q5 14 8.5 20.5t11 11t19.5 4.5h5q13 0 21.5 -9.5t8.5 -26.5v-3q0 -22 -16 -49zM58 432q-5 -9 -22 -4.5t-11 19.5l60 178q5 14 8.5 20.5t11 11t19.5 4.5h5q13 0 21.5 -9.5t8.5 -26.5v-3q0 -22 -16 -49z" />
<glyph unicode="&#x201e;" horiz-adv-x="355" d="M202 -129q-5 -9 -22 -4.5t-11 19.5l60 178q5 14 8.5 20.5t11 11t19.5 4.5h5q13 0 21.5 -9.5t8.5 -26.5v-3q0 -22 -16 -49zM48 -129q-5 -9 -22 -4.5t-11 19.5l60 178q5 14 8.5 20.5t11 11t19.5 4.5h5q13 0 21.5 -9.5t8.5 -26.5v-3q0 -22 -16 -49z" />
<glyph unicode="&#x2020;" horiz-adv-x="510" d="M250 -160q-12 0 -15.5 5.5t-4.5 17.5l-15 435q-2 42 24 82l-164 -22q-26 -4 -36.5 5.5t-10.5 32.5t10.5 32.5t36.5 5.5l164 -22l-24 194q-4 26 6 36.5t34 10.5t34 -10.5t6 -36.5l-24 -194l164 22q26 4 36.5 -5.5t10.5 -32.5t-10.5 -32.5t-36.5 -5.5l-164 22 q26 -40 24 -82l-15 -435q-1 -12 -4.5 -17.5t-15.5 -5.5h-10z" />
<glyph unicode="&#x2021;" horiz-adv-x="510" d="M250 -160q-12 0 -15.5 5.5t-4.5 17.5l-8 240l-147 -21q-26 -4 -36.5 5.5t-10.5 32.5t10.5 32.5t36.5 5.5l146 -21l-6 161q-2 43 26 82l-166 -22q-26 -4 -36.5 5.5t-10.5 32.5t10.5 32.5t36.5 5.5l164 -22l-24 194q-4 26 6 36.5t34 10.5t34 -10.5t6 -36.5l-24 -194l164 22 q26 4 36.5 -5.5t10.5 -32.5t-10.5 -32.5t-36.5 -5.5l-166 22q28 -39 26 -82l-6 -161l146 21q26 4 36.5 -5.5t10.5 -32.5t-10.5 -32.5t-36.5 -5.5l-147 21l-8 -240q-1 -12 -4.5 -17.5t-15.5 -5.5h-10z" />
<glyph unicode="&#x2022;" horiz-adv-x="324" d="M162 139q-43 0 -72.5 30t-29.5 73t29.5 73.5t72.5 30.5t72.5 -30.5t29.5 -73.5t-29.5 -73t-72.5 -30z" />
<glyph unicode="&#x2026;" horiz-adv-x="627" d="M517 -6q-44 0 -44 44v10q0 45 44 45h10q45 0 45 -45v-10q0 -44 -45 -44h-10zM308 -6q-44 0 -44 44v10q0 45 44 45h10q45 0 45 -45v-10q0 -44 -45 -44h-10zM99 -6q-44 0 -44 44v10q0 45 44 45h10q45 0 45 -45v-10q0 -44 -45 -44h-10z" />
<glyph unicode="&#x2030;" horiz-adv-x="1086" d="M186 347q-63 0 -106 43.5t-43 105.5v10q0 62 44 106.5t106 44.5q63 0 106 -43.5t43 -105.5v-10q0 -62 -44 -106.5t-106 -44.5zM113 -8q-2 -2 -9.5 0.5t-15 10t-7.5 17.5q0 22 30 55l503 586q2 2 9.5 0t15 -9.5t7.5 -18.5q0 -21 -30 -55zM899 -4q-63 0 -106 43.5 t-43 105.5v10q0 62 44 106.5t106 44.5q63 0 106 -43.5t43 -105.5v-10q0 -62 -44 -106.5t-106 -44.5zM545 -4q-63 0 -106 43.5t-43 105.5v10q0 62 44 106.5t106 44.5q63 0 106 -43.5t43 -105.5v-10q0 -62 -44 -106.5t-106 -44.5zM187 399q39 0 64.5 27.5t25.5 68.5v14 q0 41 -26 69t-65 28t-64.5 -27.5t-25.5 -69.5v-14q0 -41 26 -68.5t65 -27.5zM900 48q39 0 64.5 27.5t25.5 68.5v14q0 41 -26 69t-65 28t-64.5 -27.5t-25.5 -69.5v-14q0 -41 26 -68.5t65 -27.5zM546 48q39 0 64.5 27.5t25.5 68.5v14q0 41 -26 69t-65 28t-64.5 -27.5 t-25.5 -69.5v-14q0 -41 26 -68.5t65 -27.5z" />
<glyph unicode="&#x2039;" horiz-adv-x="312" d="M262 103v-3q0 -9 -7 -15.5t-17 -6.5h-1q-26 0 -73.5 38.5t-83 78.5t-35.5 48t35.5 47.5t83 78.5t73.5 39h1q10 0 17 -7t7 -16v-2q0 -31 -156 -141q156 -108 156 -139z" />
<glyph unicode="&#x203a;" horiz-adv-x="312" d="M51 103q0 32 156 139q-156 108 -156 141v2q0 9 7 16t16 7h1q26 0 73.5 -39t83 -78.5t35.5 -47.5t-35.5 -48t-83 -78.5t-73.5 -38.5h-1q-10 0 -16.5 7t-6.5 15v3z" />
<glyph unicode="&#x2044;" horiz-adv-x="625" d="M52 -8q-2 -2 -9.5 0.5t-15 10t-7.5 17.5q0 22 30 55l523 586q2 2 9.5 0t15 -9.5t7.5 -18.5q0 -21 -30 -55z" />
<glyph unicode="&#x2070;" horiz-adv-x="336" d="M167 278q-70 0 -109.5 45t-39.5 124v37q0 80 40 125.5t110 45.5t109.5 -45t39.5 -125v-36q0 -80 -40 -125.5t-110 -45.5zM168 331q41 0 63.5 29.5t22.5 84.5v43q0 55 -23 84.5t-64 29.5t-63 -29.5t-22 -84.5v-43q0 -55 22.5 -84.5t63.5 -29.5z" />
<glyph unicode="&#x2074;" horiz-adv-x="336" d="M228 282q-26 0 -26 30v68h-146q-18 0 -28.5 8t-10.5 21v13q1 13 17 38l124 163q11 17 21.5 22.5t33.5 5.5q25 0 35.5 -9.5t10.5 -32.5v-178h38q29 0 29 -24v-3q0 -24 -29 -24h-38v-68q0 -30 -27 -30h-4zM202 601l-129 -171h130z" />
<glyph unicode="&#x2075;" horiz-adv-x="336" d="M100 593v-96q37 14 73 14q59 0 95 -31t36 -83q0 -55 -38.5 -87t-104.5 -32q-57 0 -94 22.5t-37 48.5q0 9 7 17.5t14 12t8 2.5q34 -53 102 -53q38 0 61 18.5t23 49.5t-21.5 49t-58.5 18q-49 0 -82 -24q-39 3 -39 40v132q0 36 33 36h180q30 0 30 -25v-3q0 -26 -30 -26h-157 z" />
<glyph unicode="&#x2076;" horiz-adv-x="336" d="M186 603q-45 0 -69.5 -31t-24.5 -89v-14q36 43 100 43q55 0 87.5 -29t32.5 -78v-3q0 -54 -37 -89t-97 -35q-71 0 -109.5 45.5t-38.5 122.5v36q0 81 41 127t112 46q53 0 84.5 -20.5t31.5 -45.5q0 -11 -8 -18.5t-15.5 -10t-8.5 -1.5q-28 44 -81 44zM178 469q-45 0 -85 -44 q6 -98 83 -98q34 0 55.5 20t21.5 51v3q0 68 -75 68z" />
<glyph unicode="&#x2077;" horiz-adv-x="336" d="M31 616v5q0 26 29 26h206q41 0 41 -31v-5q0 -13 -19 -47l-140 -259q-12 -23 -33 -23q-10 0 -17.5 5t-11 10.5t-1.5 8.5l157 284h-182q-29 0 -29 26z" />
<glyph unicode="&#x2078;" horiz-adv-x="336" d="M167 278q-66 0 -104 28t-38 76q0 67 73 89q-62 19 -62 82q0 46 36 74t97 28t95.5 -27t34.5 -74q0 -61 -62 -82q73 -20 73 -90q0 -47 -38.5 -75.5t-104.5 -28.5zM168 327q39 0 60 16.5t21 44.5q0 29 -22 46t-60 17t-59.5 -17t-21.5 -46q0 -27 22 -44t60 -17zM168 491 q34 0 53 15t19 41q0 27 -19 43t-54 16t-53.5 -16t-18.5 -43q0 -26 19.5 -41t53.5 -15z" />
<glyph unicode="&#x2079;" horiz-adv-x="336" d="M149 329q95 0 95 119v10q-36 -44 -99 -44q-55 0 -88 29.5t-33 78.5v3q0 55 37.5 92.5t96.5 37.5q70 0 109 -45t39 -124v-36q0 -84 -39.5 -128t-115.5 -44q-54 0 -85 19.5t-31 44.5q0 11 8 18.5t15.5 10t8.5 1.5q28 -43 82 -43zM158 458q48 0 86 44q-2 48 -24 75.5 t-60 27.5q-33 0 -54.5 -22t-21.5 -53v-4q0 -32 19 -50t55 -18z" />
<glyph unicode="&#x207a;" horiz-adv-x="336" d="M63 441q-26 0 -26 22v4q0 22 26 22h80v82q0 26 23 26h5q23 0 23 -26v-82h80q27 0 27 -22v-4q0 -22 -27 -22h-80v-86q0 -27 -23 -27h-5q-23 0 -23 27v86h-80z" />
<glyph unicode="&#x207b;" horiz-adv-x="336" d="M67 437q-26 0 -26 24v4q0 24 26 24h203q27 0 27 -24v-4q0 -24 -27 -24h-203z" />
<glyph unicode="&#x207c;" horiz-adv-x="336" d="M67 503q-26 0 -26 23v5q0 22 26 22h203q27 0 27 -22v-5q0 -23 -27 -23h-203zM67 371q-26 0 -26 23v5q0 22 26 22h203q27 0 27 -22v-5q0 -23 -27 -23h-203z" />
<glyph unicode="&#x207d;" horiz-adv-x="336" d="M256 223q-60 0 -121.5 70t-61.5 169q0 96 62 167t121 71q29 0 29 -26q0 -7 -3.5 -13.5t-6.5 -7.5q-57 -13 -98.5 -68t-41.5 -123q0 -70 41.5 -124.5t98.5 -67.5q3 -1 6.5 -8t3.5 -14q0 -25 -29 -25z" />
<glyph unicode="&#x207e;" horiz-adv-x="336" d="M81 223q-29 0 -29 25q0 17 10 22q56 13 94 67t38 125q0 69 -38 123.5t-94 67.5q-10 5 -10 21q0 26 29 26q59 0 117.5 -70.5t58.5 -167.5q0 -100 -58 -169.5t-118 -69.5z" />
<glyph unicode="&#x2080;" horiz-adv-x="336" d="M167 -7q-70 0 -109.5 45t-39.5 124v37q0 80 40 125.5t110 45.5t109.5 -45t39.5 -125v-36q0 -80 -40 -125.5t-110 -45.5zM168 46q41 0 63.5 29.5t22.5 84.5v43q0 55 -23 84.5t-64 29.5t-63 -29.5t-22 -84.5v-43q0 -55 22.5 -84.5t63.5 -29.5z" />
<glyph unicode="&#x2081;" horiz-adv-x="336" d="M78 0q-29 0 -29 25v2q0 27 29 27h72v228q-19 -21 -50 -21q-22 0 -38.5 12t-16.5 31q0 9 4.5 17.5t9 12t5.5 2.5q15 -17 40 -17q21 0 36.5 13t17.5 34h23q29 0 29 -31v-281h60q30 0 30 -27v-2q0 -25 -30 -25h-192z" />
<glyph unicode="&#x2082;" horiz-adv-x="336" d="M194 145q-29 -13 -38.5 -18t-28.5 -17t-26 -25t-8 -31h182q30 0 30 -25v-3q0 -26 -30 -26h-197q-21 0 -30 8t-9 26v15q0 51 28 79t83 54q60 30 73 44q14 15 14 33q0 26 -18.5 41.5t-51.5 15.5q-67 0 -84 -68q-2 0 -12 -1t-21 7t-11 23q0 33 36.5 63t96.5 30 q61 0 94.5 -29t33.5 -81q0 -23 -8 -41t-25.5 -32t-32 -22t-40.5 -20z" />
<glyph unicode="&#x2083;" horiz-adv-x="336" d="M300 102q0 -51 -37.5 -80t-104.5 -29q-61 0 -98 26t-37 55q0 15 9.5 23.5t18 8.5h10.5q20 -62 96 -62q38 0 62 17t24 44q0 29 -22 44.5t-61 15.5h-24q-30 0 -30 23v4q0 22 29 22h32q31 0 49.5 14t18.5 37q0 24 -22 39t-56 15q-64 0 -86 -55q-1 -2 -10 0t-18 10t-9 22 q0 27 35 50.5t89 23.5q64 0 98.5 -26t34.5 -73q0 -59 -61 -77q70 -23 70 -92z" />
<glyph unicode="&#x2084;" horiz-adv-x="336" d="M228 -3q-26 0 -26 30v68h-146q-18 0 -28.5 8t-10.5 21v13q1 13 17 38l124 163q11 17 21.5 22.5t33.5 5.5q25 0 35.5 -9.5t10.5 -32.5v-178h38q29 0 29 -24v-3q0 -24 -29 -24h-38v-68q0 -30 -27 -30h-4zM202 316l-129 -171h130z" />
<glyph unicode="&#x2085;" horiz-adv-x="336" d="M100 308v-96q37 14 73 14q59 0 95 -31t36 -83q0 -55 -38.5 -87t-104.5 -32q-57 0 -94 22.5t-37 48.5q0 9 7 17.5t14 12t8 2.5q34 -53 102 -53q38 0 61 18.5t23 49.5t-21.5 49t-58.5 18q-49 0 -82 -24q-39 3 -39 40v132q0 36 33 36h180q30 0 30 -25v-3q0 -26 -30 -26h-157 z" />
<glyph unicode="&#x2086;" horiz-adv-x="336" d="M186 318q-45 0 -69.5 -31t-24.5 -89v-14q36 43 100 43q55 0 87.5 -29t32.5 -78v-3q0 -54 -37 -89t-97 -35q-71 0 -109.5 45.5t-38.5 122.5v36q0 81 41 127t112 46q53 0 84.5 -20.5t31.5 -45.5q0 -11 -8 -18.5t-15.5 -10t-8.5 -1.5q-28 44 -81 44zM178 184q-45 0 -85 -44 q6 -98 83 -98q34 0 55.5 20t21.5 51v3q0 68 -75 68z" />
<glyph unicode="&#x2087;" horiz-adv-x="336" d="M31 331v5q0 26 29 26h206q41 0 41 -31v-5q0 -13 -19 -47l-140 -259q-12 -23 -33 -23q-10 0 -17.5 5t-11 10.5t-1.5 8.5l157 284h-182q-29 0 -29 26z" />
<glyph unicode="&#x2088;" horiz-adv-x="336" d="M167 -7q-66 0 -104 28t-38 76q0 67 73 89q-62 19 -62 82q0 46 36 74t97 28t95.5 -27t34.5 -74q0 -61 -62 -82q73 -20 73 -90q0 -47 -38.5 -75.5t-104.5 -28.5zM168 42q39 0 60 16.5t21 44.5q0 29 -22 46t-60 17t-59.5 -17t-21.5 -46q0 -27 22 -44t60 -17zM168 206 q34 0 53 15t19 41q0 27 -19 43t-54 16t-53.5 -16t-18.5 -43q0 -26 19.5 -41t53.5 -15z" />
<glyph unicode="&#x2089;" horiz-adv-x="336" d="M149 44q95 0 95 119v10q-36 -44 -99 -44q-55 0 -88 29.5t-33 78.5v3q0 55 37.5 92.5t96.5 37.5q70 0 109 -45t39 -124v-36q0 -84 -39.5 -128t-115.5 -44q-54 0 -85 19.5t-31 44.5q0 11 8 18.5t15.5 10t8.5 1.5q28 -43 82 -43zM158 173q48 0 86 44q-2 48 -24 75.5 t-60 27.5q-33 0 -54.5 -22t-21.5 -53v-4q0 -32 19 -50t55 -18z" />
<glyph unicode="&#x208d;" horiz-adv-x="336" d="M256 -62q-60 0 -121.5 70t-61.5 169q0 96 62 167t121 71q29 0 29 -26q0 -7 -3.5 -13.5t-6.5 -7.5q-57 -13 -98.5 -68t-41.5 -123q0 -70 41.5 -124.5t98.5 -67.5q3 -1 6.5 -8t3.5 -14q0 -25 -29 -25z" />
<glyph unicode="&#x208e;" horiz-adv-x="336" d="M81 -62q-29 0 -29 25q0 17 10 22q56 13 94 67t38 125q0 69 -38 123.5t-94 67.5q-10 5 -10 21q0 26 29 26q59 0 117.5 -70.5t58.5 -167.5q0 -100 -58 -169.5t-118 -69.5z" />
<glyph unicode="&#x20ac;" horiz-adv-x="626" d="M67 376q-31 0 -31 26v6q0 26 31 26h70q20 104 85.5 164.5t161.5 60.5q86 0 143 -41.5t57 -81.5q0 -14 -9.5 -23.5t-19 -12.5t-10.5 -1q-55 103 -165 103q-66 0 -113 -45t-64 -123h216q31 0 31 -26v-6q0 -26 -31 -26h-224q-1 -9 -1 -28v-72h225q31 0 31 -26v-6 q0 -26 -31 -26h-217q17 -79 66 -125.5t118 -46.5q111 0 162 112q1 3 11 0t19.5 -13t9.5 -25q0 -42 -58 -87t-141 -45q-102 0 -168.5 60.5t-84.5 169.5h-69q-31 0 -31 26v6q0 26 31 26h62v71q0 19 1 29h-63z" />
<glyph unicode="&#x2122;" horiz-adv-x="677" d="M358 341q-21 0 -21 25v256q0 29 26 29h25q21 0 30 -22l63 -156l63 156q10 22 30 22h23q26 0 26 -29v-256q0 -25 -22 -25h-7q-21 0 -21 25v213l-65 -161q-5 -14 -28 -14q-11 0 -16.5 2t-7 4t-3.5 8l-66 160v-212q0 -25 -20 -25h-9zM45 600q-24 0 -24 22v4q0 22 24 22h214 q24 0 24 -22v-4q0 -22 -24 -22h-80v-234q0 -25 -24 -25h-7q-22 0 -22 25v234h-81z" />
<glyph unicode="&#x2212;" horiz-adv-x="600" d="M118 237q-31 0 -31 27v7q0 27 31 27h363q31 0 31 -27v-7q0 -27 -31 -27h-363z" />
<glyph unicode="&#x2219;" horiz-adv-x="221" d="M105 193q-44 0 -44 44v10q0 45 44 45h10q45 0 45 -45v-10q0 -44 -45 -44h-10z" />
<glyph unicode="&#x2260;" horiz-adv-x="600" d="M118 346q-31 0 -31 27v7q0 27 31 27h217l69 142q14 27 38 16l6 -3q25 -12 11 -40l-56 -115h78q31 0 31 -27v-7q0 -27 -31 -27h-112l-81 -166h193q31 0 31 -27v-7q0 -27 -31 -27h-218l-68 -141q-14 -29 -38 -16l-6 3q-25 11 -11 40l55 114h-77q-31 0 -31 27v7q0 27 31 27 h112l81 166h-193z" />
<glyph unicode="&#x2264;" horiz-adv-x="600" d="M94 423q0 20 4.5 28t15.5 14l367 161q2 1 6.5 -3t9.5 -11.5t6 -16.5q4 -11 -8.5 -25.5t-32.5 -23.5l-304 -123l304 -122q20 -8 31 -22t10 -28q-1 -10 -5.5 -17.5t-9.5 -11t-7 -2.5l-367 160q-11 6 -15.5 14t-4.5 29zM118 117q-31 0 -31 27v7q0 27 31 27h363q31 0 31 -27 v-7q0 -27 -31 -27h-363z" />
<glyph unicode="&#x2265;" horiz-adv-x="600" d="M96 598q1 9 6 16.5t9.5 11.5t6.5 3l367 -161q11 -6 15.5 -14t4.5 -28q0 -21 -4.5 -29t-15.5 -14l-367 -160q-2 -1 -7 2.5t-9.5 11t-5.5 17.5q-1 13 11.5 28t29.5 22l303 122l-303 123q-20 9 -32.5 23.5t-8.5 25.5zM118 120q-31 0 -31 27v7q0 27 31 27h363q31 0 31 -27v-7 q0 -27 -31 -27h-363z" />
<glyph unicode="&#x25fc;" horiz-adv-x="480" d="M0 480h480v-480h-480v480z" />
<glyph unicode="&#x2665;" horiz-adv-x="720" d="M519 488h2q68 0 111 -47t43 -118v-6q0 -46 -21 -86.5t-59 -74t-75.5 -59t-85.5 -56t-74 -51.5q-26 21 -74 51.5t-85.5 56t-75.5 59t-59 74t-21 86.5v6q0 71 43 118t111 47h2q67 0 105.5 -39.5t53.5 -97.5q14 58 53 97.5t106 39.5z" />
<glyph unicode="&#xf6be;" horiz-adv-x="209" d="M6 -200q-40 0 -65 16t-25 36q0 10 4.5 19t9 13.5t5.5 3.5q30 -30 70 -30q36 0 51.5 21t15.5 68v502q0 31 29 31h7q29 0 29 -31v-507q0 -69 -33.5 -105.5t-97.5 -36.5z" />
<glyph unicode="&#xf6c3;" horiz-adv-x="500" d="M192 -225q-7 -8 -23 -3t-10 19l60 125q7 14 10 19t10.5 10t19.5 5h5q14 0 24.5 -8t10.5 -21v-4q0 -10 -26 -41z" />
<glyph horiz-adv-x="758" d="M348 -109l-53 136l-134 -58q-24 -10 -39.5 5t-4.5 39l58 134l-136 53q-24 9 -24 31t24 31l136 53l-58 134q-11 24 4.5 39.5t39.5 4.5l134 -58l53 136q9 24 31 24t31 -24l53 -136l134 58q24 11 39.5 -4.5t4.5 -39.5l-58 -134l136 -53q24 -9 24 -31t-24 -31l-136 -53 l58 -134q11 -24 -4.5 -39.5t-39.5 -4.5l-134 58l-53 -136q-9 -24 -31 -24t-31 24zM379 -43l49 119q3 7 10.5 10.5t14.5 0.5l120 -50l-50 120q-3 7 0.5 14.5t10.5 10.5l119 49l-119 49q-7 3 -10.5 10.5t-0.5 14.5l50 120l-120 -50q-17 -7 -25 11l-49 119l-49 -119 q-3 -7 -10.5 -10.5t-14.5 -0.5l-120 50l50 -120q3 -7 -0.5 -14.5t-10.5 -10.5l-119 -49l119 -49q7 -3 10.5 -10.5t0.5 -14.5l-50 -120l120 50q7 3 14.5 -0.5t10.5 -10.5z" />
<glyph horiz-adv-x="400" d="M59 591q-31 0 -31 25v5q0 26 31 26h282q31 0 31 -26v-5q0 -25 -31 -25h-106v-535h106q31 0 31 -26v-5q0 -25 -31 -25h-282q-31 0 -31 25v5q0 26 31 26h108v535h-108z" />
<glyph horiz-adv-x="380" d="M66 0q-31 0 -31 26v5q0 27 31 27h101v486q-27 -40 -76 -40q-32 0 -52.5 16t-20.5 41q0 10 5 19.5t10 14t6 3.5q22 -25 57 -25q32 0 54 22.5t24 55.5h29q30 0 30 -31v-562h95q31 0 31 -27v-5q0 -26 -31 -26h-262z" />
<glyph horiz-adv-x="209" d="M104 595q-42 0 -42 43t44 43q42 0 42 -43t-44 -43zM101 -197q-29 0 -29 31v615q0 31 29 31h7q29 0 29 -31v-615q0 -31 -29 -31h-7z" />
<glyph horiz-adv-x="569" d="M260 -12q-96 0 -160.5 69t-64.5 180q0 112 64.5 181.5t164.5 69.5q60 0 106 -24t68 -60v13q0 63 42 63q6 0 11 -1.5t8 -3t3 -2.5v-446q0 -31 -29 -31h-7q-29 0 -29 31v51q-67 -90 -177 -90zM267 45q68 0 119.5 46.5t51.5 113.5v114q-49 112 -169 112q-76 0 -122 -53.5 t-46 -139.5q0 -84 47 -138.5t119 -54.5z" />
<glyph horiz-adv-x="569" d="M276 -200q-92 0 -151 38t-59 74q0 15 9 26t18.5 14.5t10.5 0.5q51 -95 173 -95q160 0 160 166v64q-66 -86 -177 -86q-100 0 -162.5 66t-62.5 175q0 106 66 175.5t163 69.5q59 0 105.5 -24t68.5 -59v12q0 63 41 63q6 0 11.5 -1.5t8.5 -3t3 -2.5v-449q0 -111 -58.5 -167.5 t-167.5 -56.5zM267 58q67 0 117.5 42.5t53.5 107.5v111q-49 112 -169 112q-75 0 -121.5 -52.5t-46.5 -134.5q0 -85 45 -135.5t121 -50.5z" />
<glyph horiz-adv-x="574" d="M394 -4q-28 0 -28 31v157h-275q-51 0 -51 38v9q0 6 0.5 11t3 11t4 10t6 12t7.5 12.5t10.5 16t11.5 18.5l185 295q21 34 47 34q10 0 18 -5.5t12 -11t3 -7.5l-241 -383h259v182q0 31 28 31h8q30 0 30 -31v-180h88q31 0 31 -29v-4q0 -29 -31 -29h-88v-157q0 -31 -30 -31h-8z " />
<glyph horiz-adv-x="640" d="M540 -5q-44 0 -44 75v27q-31 -49 -85 -79t-124 -30q-113 0 -166.5 58t-53.5 181v393q0 31 29 31h9q30 0 30 -31v-389q0 -98 36.5 -140t119.5 -42q67 0 125 43t79 104v424q0 31 29 31h9q30 0 30 -31v-618q0 -7 -23 -7z" />
<glyph horiz-adv-x="578" d="M284 -4q-29 0 -29 31v233q-203 21 -203 279v81q0 31 29 31h9q30 0 30 -31v-80q0 -222 170 -222q86 0 128 55t42 168v79q0 31 29 31h9q28 0 28 -31v-78q0 -262 -203 -282v-233q0 -31 -30 -31h-9z" />
<glyph horiz-adv-x="545" d="M259 -200q-91 0 -145.5 38.5t-54.5 73.5q0 13 9 24t18 15t10 2q26 -48 61.5 -71t100.5 -23q81 0 118 36.5t37 120.5v66q-58 -84 -161 -84q-92 0 -140.5 56.5t-48.5 153.5v241q0 31 29 31h7q29 0 29 -31v-232q0 -75 33.5 -117.5t99.5 -42.5q49 0 89 27.5t63 72.5v260 q0 63 42 63q6 0 11.5 -1.5t8.5 -3t3 -2.5v-466q0 -103 -56 -155t-163 -52z" />
<glyph horiz-adv-x="712" d="M371 47q92 0 154.5 56t66.5 155h-229q-31 0 -31 28v4q0 29 31 29h273q15 0 20.5 -7t5.5 -23v-13q0 -126 -81 -207t-208 -81q-145 0 -234 93t-89 241q0 149 90.5 243t233.5 94q104 0 172.5 -45.5t68.5 -82.5q0 -13 -9.5 -23.5t-19.5 -15t-11 -2.5q-30 52 -86 81t-117 29 q-111 0 -181.5 -77t-70.5 -199q0 -121 70.5 -199t180.5 -78z" />
<glyph horiz-adv-x="531" d="M281 -12q-109 0 -177.5 69t-68.5 179q0 109 68 180.5t172 71.5q101 0 161.5 -65.5t60.5 -174.5v-6q0 -13 -6 -17.5t-21 -4.5h-370q4 -77 54.5 -125.5t126.5 -48.5q110 0 163 85q1 2 10.5 -1t18.5 -12.5t9 -23.5q0 -31 -57 -68.5t-144 -37.5zM275 431q-67 0 -114.5 -43 t-58.5 -112h326q-5 71 -46 113t-107 42z" />
<glyph horiz-adv-x="569" d="M260 -12q-96 0 -160.5 69t-64.5 180q0 112 64.5 181.5t164.5 69.5q60 0 106 -24t68 -60v13q0 63 42 63q6 0 11 -1.5t8 -3t3 -2.5v-446q0 -31 -29 -31h-7q-29 0 -29 31v51q-67 -90 -177 -90zM267 45q68 0 119.5 46.5t51.5 113.5v114q-49 112 -169 112q-76 0 -122 -53.5 t-46 -139.5q0 -84 47 -138.5t119 -54.5zM213 551q-2 3 15.5 24.5t49 52t60.5 51.5q24 18 46 18q12 0 21 -7.5t9 -19.5q0 -25 -37 -50q-31 -21 -70 -39t-65 -25.5t-29 -4.5z" />
<glyph horiz-adv-x="569" d="M260 -12q-96 0 -160.5 69t-64.5 180q0 112 64.5 181.5t164.5 69.5q60 0 106 -24t68 -60v13q0 63 42 63q6 0 11 -1.5t8 -3t3 -2.5v-446q0 -31 -29 -31h-7q-29 0 -29 31v51q-67 -90 -177 -90zM267 45q68 0 119.5 46.5t51.5 113.5v114q-49 112 -169 112q-76 0 -122 -53.5 t-46 -139.5q0 -84 47 -138.5t119 -54.5zM291 548q-42 0 -91.5 38t-49.5 67t29 29q9 0 25.5 -12.5t47.5 -41t41 -37.5q7 7 24 23.5t26.5 25.5t22.5 20.5t22 16.5t15 5q29 0 29 -29q0 -31 -50 -68t-91 -37z" />
<glyph horiz-adv-x="569" d="M260 -12q-96 0 -160.5 69t-64.5 180q0 112 64.5 181.5t164.5 69.5q60 0 106 -24t68 -60v13q0 63 42 63q6 0 11 -1.5t8 -3t3 -2.5v-446q0 -31 -29 -31h-7q-29 0 -29 31v51q-67 -90 -177 -90zM267 45q68 0 119.5 46.5t51.5 113.5v114q-49 112 -169 112q-76 0 -122 -53.5 t-46 -139.5q0 -84 47 -138.5t119 -54.5zM175 549q-22 0 -22 23q0 21 32 58t63.5 63t35.5 26t35 -26t63 -63t32 -58q0 -23 -21 -23q-16 0 -40 24.5t-70 87.5q-47 -64 -69.5 -88t-38.5 -24z" />
<glyph horiz-adv-x="569" d="M260 -12q-96 0 -160.5 69t-64.5 180q0 112 64.5 181.5t164.5 69.5q60 0 106 -24t68 -60v13q0 63 42 63q6 0 11 -1.5t8 -3t3 -2.5v-446q0 -31 -29 -31h-7q-29 0 -29 31v51q-67 -90 -177 -90zM267 45q68 0 119.5 46.5t51.5 113.5v114q-49 112 -169 112q-76 0 -122 -53.5 t-46 -139.5q0 -84 47 -138.5t119 -54.5zM369 548q-23 0 -36.5 13t-13.5 36t13 36t35 13q23 0 36.5 -13t13.5 -36t-13.5 -36t-34.5 -13zM201 548q-23 0 -36.5 13t-13.5 36t13.5 36t34.5 13q23 0 36.5 -13t13.5 -36t-13 -36t-35 -13z" />
<glyph horiz-adv-x="569" d="M260 -12q-96 0 -160.5 69t-64.5 180q0 112 64.5 181.5t164.5 69.5q60 0 106 -24t68 -60v13q0 63 42 63q6 0 11 -1.5t8 -3t3 -2.5v-446q0 -31 -29 -31h-7q-29 0 -29 31v51q-67 -90 -177 -90zM267 45q68 0 119.5 46.5t51.5 113.5v114q-49 112 -169 112q-76 0 -122 -53.5 t-46 -139.5q0 -84 47 -138.5t119 -54.5zM191 620q-37 25 -37 50q0 12 9 19.5t21 7.5q22 0 46 -18q29 -21 60.5 -51.5t49 -52t15.5 -24.5q-3 -3 -29 4.5t-65 25.5t-70 39z" />
<glyph horiz-adv-x="569" d="M260 -12q-96 0 -160.5 69t-64.5 180q0 112 64.5 181.5t164.5 69.5q60 0 106 -24t68 -60v13q0 63 42 63q6 0 11 -1.5t8 -3t3 -2.5v-446q0 -31 -29 -31h-7q-29 0 -29 31v51q-67 -90 -177 -90zM267 45q68 0 119.5 46.5t51.5 113.5v114q-49 112 -169 112q-76 0 -122 -53.5 t-46 -139.5q0 -84 47 -138.5t119 -54.5zM190 568q-39 0 -39 29v5q0 28 39 28h208q39 0 39 -28v-5q0 -29 -39 -29h-208z" />
<glyph horiz-adv-x="569" d="M260 -12q-96 0 -160.5 69t-64.5 180q0 112 64.5 181.5t164.5 69.5q60 0 106 -24t68 -60v13q0 63 42 63q6 0 11 -1.5t8 -3t3 -2.5v-446q0 -24 -16 -29q-78 -57 -78 -103q0 -16 10 -27t24 -11q26 0 39 21q13 0 22.5 -9t9.5 -25q0 -20 -20 -32t-52 -12q-42 0 -67.5 22 t-25.5 60q0 71 93 124q-4 7 -4 21v51q-67 -90 -177 -90zM267 45q68 0 119.5 46.5t51.5 113.5v114q-49 112 -169 112q-76 0 -122 -53.5t-46 -139.5q0 -84 47 -138.5t119 -54.5z" />
<glyph horiz-adv-x="569" d="M260 -12q-96 0 -160.5 69t-64.5 180q0 112 64.5 181.5t164.5 69.5q60 0 106 -24t68 -60v13q0 63 42 63q6 0 11 -1.5t8 -3t3 -2.5v-446q0 -31 -29 -31h-7q-29 0 -29 31v51q-67 -90 -177 -90zM267 45q68 0 119.5 46.5t51.5 113.5v114q-49 112 -169 112q-76 0 -122 -53.5 t-46 -139.5q0 -84 47 -138.5t119 -54.5zM289 548q-51 0 -83.5 33t-32.5 84q0 50 33.5 83.5t83.5 33.5q51 0 83.5 -33t32.5 -84q0 -50 -33.5 -83.5t-83.5 -33.5zM289 593q29 0 48 20.5t19 51.5t-19.5 52t-47.5 21t-47.5 -21t-19.5 -52q0 -30 19.5 -51t47.5 -21z" />
<glyph horiz-adv-x="569" d="M202 811q-2 3 15.5 24.5t49 52t60.5 51.5q24 18 46 18q12 0 21 -7.5t9 -19.5q0 -25 -37 -50q-31 -21 -70 -39t-65 -25.5t-29 -4.5zM260 -12q-96 0 -160.5 69t-64.5 180q0 112 64.5 181.5t164.5 69.5q60 0 106 -24t68 -60v13q0 63 42 63q6 0 11 -1.5t8 -3t3 -2.5v-446 q0 -31 -29 -31h-7q-29 0 -29 31v51q-67 -90 -177 -90zM267 45q68 0 119.5 46.5t51.5 113.5v114q-49 112 -169 112q-76 0 -122 -53.5t-46 -139.5q0 -84 47 -138.5t119 -54.5zM289 548q-51 0 -83.5 33t-32.5 84q0 50 33.5 83.5t83.5 33.5q51 0 83.5 -33t32.5 -84 q0 -50 -33.5 -83.5t-83.5 -33.5zM289 593q29 0 48 20.5t19 51.5t-19.5 52t-47.5 21t-47.5 -21t-19.5 -52q0 -30 19.5 -51t47.5 -21z" />
<glyph horiz-adv-x="569" d="M260 -12q-96 0 -160.5 69t-64.5 180q0 112 64.5 181.5t164.5 69.5q60 0 106 -24t68 -60v13q0 63 42 63q6 0 11 -1.5t8 -3t3 -2.5v-446q0 -31 -29 -31h-7q-29 0 -29 31v51q-67 -90 -177 -90zM267 45q68 0 119.5 46.5t51.5 113.5v114q-49 112 -169 112q-76 0 -122 -53.5 t-46 -139.5q0 -84 47 -138.5t119 -54.5zM166 555q-25 0 -25 26q0 34 20 62t49 28q25 0 66 -21.5t82 -58.5q23 73 46 73q25 0 25 -26q0 -34 -20 -62t-49 -28q-25 0 -66 21.5t-82 58.5q-23 -73 -46 -73z" />
<glyph horiz-adv-x="578" d="M284 -4q-29 0 -29 31v233q-203 21 -203 279v81q0 31 29 31h9q30 0 30 -31v-80q0 -222 170 -222q86 0 128 55t42 168v79q0 31 29 31h9q28 0 28 -31v-78q0 -262 -203 -282v-233q0 -31 -30 -31h-9zM227 711q-2 3 15.5 24.5t49 52t60.5 51.5q24 18 46 18q12 0 21 -7.5 t9 -19.5q0 -25 -37 -50q-31 -21 -70 -39t-65 -25.5t-29 -4.5z" />
<glyph horiz-adv-x="578" d="M284 -4q-29 0 -29 31v233q-203 21 -203 279v81q0 31 29 31h9q30 0 30 -31v-80q0 -222 170 -222q86 0 128 55t42 168v79q0 31 29 31h9q28 0 28 -31v-78q0 -262 -203 -282v-233q0 -31 -30 -31h-9zM184 720q-22 0 -22 23q0 21 32 58t63.5 63t35.5 26t35 -26t63 -63t32 -58 q0 -23 -21 -23q-16 0 -40 24.5t-70 87.5q-47 -64 -69.5 -88t-38.5 -24z" />
<glyph horiz-adv-x="578" d="M284 -4q-29 0 -29 31v233q-203 21 -203 279v81q0 31 29 31h9q30 0 30 -31v-80q0 -222 170 -222q86 0 128 55t42 168v79q0 31 29 31h9q28 0 28 -31v-78q0 -262 -203 -282v-233q0 -31 -30 -31h-9zM373 718q-23 0 -36.5 13t-13.5 36t13 36t35 13q23 0 36.5 -13t13.5 -36 t-13.5 -36t-34.5 -13zM205 718q-23 0 -36.5 13t-13.5 36t13.5 36t34.5 13q23 0 36.5 -13t13.5 -36t-13 -36t-35 -13z" />
<glyph horiz-adv-x="209" d="M-5 549q-22 0 -22 23q0 21 32 58t63.5 63t35.5 26t35 -26t63 -63t32 -58q0 -23 -21 -23q-16 0 -40 24.5t-70 87.5q-47 -64 -69.5 -88t-38.5 -24zM101 -197q-29 0 -29 31v615q0 31 29 31h7q29 0 29 -31v-615q0 -31 -29 -31h-7z" />
<glyph horiz-adv-x="712" d="M371 47q92 0 154.5 56t66.5 155h-229q-31 0 -31 28v4q0 29 31 29h273q15 0 20.5 -7t5.5 -23v-13q0 -126 -81 -207t-208 -81q-145 0 -234 93t-89 241q0 149 90.5 243t233.5 94q104 0 172.5 -45.5t68.5 -82.5q0 -13 -9.5 -23.5t-19.5 -15t-11 -2.5q-30 52 -86 81t-117 29 q-111 0 -181.5 -77t-70.5 -199q0 -121 70.5 -199t180.5 -78zM366 719q-42 0 -91.5 38t-49.5 67t29 29q9 0 25.5 -12.5t47.5 -41t41 -37.5q7 7 24 23.5t26.5 25.5t22.5 20.5t22 16.5t15 5q29 0 29 -29q0 -31 -50 -68t-91 -37z" />
<glyph horiz-adv-x="712" d="M371 47q92 0 154.5 56t66.5 155h-229q-31 0 -31 28v4q0 29 31 29h273q15 0 20.5 -7t5.5 -23v-13q0 -126 -81 -207t-208 -81q-145 0 -234 93t-89 241q0 149 90.5 243t233.5 94q104 0 172.5 -45.5t68.5 -82.5q0 -13 -9.5 -23.5t-19.5 -15t-11 -2.5q-30 52 -86 81t-117 29 q-111 0 -181.5 -77t-70.5 -199q0 -121 70.5 -199t180.5 -78zM255 720q-22 0 -22 23q0 21 32 58t63.5 63t35.5 26t35 -26t63 -63t32 -58q0 -23 -21 -23q-16 0 -40 24.5t-70 87.5q-47 -64 -69.5 -88t-38.5 -24z" />
<glyph horiz-adv-x="712" d="M371 47q92 0 154.5 56t66.5 155h-229q-31 0 -31 28v4q0 29 31 29h273q15 0 20.5 -7t5.5 -23v-13q0 -126 -81 -207t-208 -81q-145 0 -234 93t-89 241q0 149 90.5 243t233.5 94q104 0 172.5 -45.5t68.5 -82.5q0 -13 -9.5 -23.5t-19.5 -15t-11 -2.5q-30 52 -86 81t-117 29 q-111 0 -181.5 -77t-70.5 -199q0 -121 70.5 -199t180.5 -78zM309 -225q-7 -8 -23 -3t-10 19l60 125q7 14 10 19t10.5 10t19.5 5h5q14 0 24.5 -8t10.5 -21v-4q0 -10 -26 -41z" />
<glyph horiz-adv-x="712" d="M371 47q92 0 154.5 56t66.5 155h-229q-31 0 -31 28v4q0 29 31 29h273q15 0 20.5 -7t5.5 -23v-13q0 -126 -81 -207t-208 -81q-145 0 -234 93t-89 241q0 149 90.5 243t233.5 94q104 0 172.5 -45.5t68.5 -82.5q0 -13 -9.5 -23.5t-19.5 -15t-11 -2.5q-30 52 -86 81t-117 29 q-111 0 -181.5 -77t-70.5 -199q0 -121 70.5 -199t180.5 -78zM370 720q-25 0 -40 14.5t-15 37.5t15.5 37.5t40.5 14.5q24 0 39 -14.5t15 -37.5t-15 -37.5t-40 -14.5z" />
<glyph horiz-adv-x="640" d="M540 -5q-44 0 -44 75v27q-31 -49 -85 -79t-124 -30q-113 0 -166.5 58t-53.5 181v393q0 31 29 31h9q30 0 30 -31v-389q0 -98 36.5 -140t119.5 -42q67 0 125 43t79 104v424q0 31 29 31h9q30 0 30 -31v-618q0 -7 -23 -7zM267 711q-2 3 15.5 24.5t49 52t60.5 51.5 q24 18 46 18q12 0 21 -7.5t9 -19.5q0 -25 -37 -50q-31 -21 -70 -39t-65 -25.5t-29 -4.5z" />
<glyph horiz-adv-x="640" d="M540 -5q-44 0 -44 75v27q-31 -49 -85 -79t-124 -30q-113 0 -166.5 58t-53.5 181v393q0 31 29 31h9q30 0 30 -31v-389q0 -98 36.5 -140t119.5 -42q67 0 125 43t79 104v424q0 31 29 31h9q30 0 30 -31v-618q0 -7 -23 -7zM325 719q-42 0 -91.5 38t-49.5 67t29 29 q9 0 25.5 -12.5t47.5 -41t41 -37.5q7 7 24 23.5t26.5 25.5t22.5 20.5t22 16.5t15 5q29 0 29 -29q0 -31 -50 -68t-91 -37z" />
<glyph horiz-adv-x="640" d="M540 -5q-44 0 -44 75v27q-31 -49 -85 -79t-124 -30q-113 0 -166.5 58t-53.5 181v393q0 31 29 31h9q30 0 30 -31v-389q0 -98 36.5 -140t119.5 -42q67 0 125 43t79 104v424q0 31 29 31h9q30 0 30 -31v-618q0 -7 -23 -7zM209 719q-22 0 -22 23q0 21 32 58t63.5 63t35.5 26 t35 -26t63 -63t32 -58q0 -23 -21 -23q-16 0 -40 24.5t-70 87.5q-47 -64 -69.5 -88t-38.5 -24z" />
<glyph horiz-adv-x="640" d="M540 -5q-44 0 -44 75v27q-31 -49 -85 -79t-124 -30q-113 0 -166.5 58t-53.5 181v393q0 31 29 31h9q30 0 30 -31v-389q0 -98 36.5 -140t119.5 -42q67 0 125 43t79 104v424q0 31 29 31h9q30 0 30 -31v-618q0 -7 -23 -7zM403 718q-23 0 -36.5 13t-13.5 36t13 36t35 13 q23 0 36.5 -13t13.5 -36t-13.5 -36t-34.5 -13zM235 718q-23 0 -36.5 13t-13.5 36t13.5 36t34.5 13q23 0 36.5 -13t13.5 -36t-13 -36t-35 -13z" />
<glyph horiz-adv-x="640" d="M540 -5q-44 0 -44 75v27q-31 -49 -85 -79t-124 -30q-113 0 -166.5 58t-53.5 181v393q0 31 29 31h9q30 0 30 -31v-389q0 -98 36.5 -140t119.5 -42q67 0 125 43t79 104v424q0 31 29 31h9q30 0 30 -31v-618q0 -7 -23 -7zM215 780q-37 25 -37 50q0 12 9 19.5t21 7.5 q22 0 46 -18q29 -21 60.5 -51.5t49 -52t15.5 -24.5q-3 -3 -29 4.5t-65 25.5t-70 39z" />
<glyph horiz-adv-x="640" d="M540 -5q-44 0 -44 75v27q-31 -49 -85 -79t-124 -30q-113 0 -166.5 58t-53.5 181v393q0 31 29 31h9q30 0 30 -31v-389q0 -98 36.5 -140t119.5 -42q67 0 125 43t79 104v424q0 31 29 31h9q30 0 30 -31v-618q0 -7 -23 -7zM170 722q-2 3 15.5 24.5t49 52t60.5 51.5 q24 18 46 18q12 0 21 -7.5t9 -19.5q0 -25 -37 -50q-31 -21 -70 -39t-65 -25.5t-29 -4.5zM349 722q-2 3 15.5 24.5t49 52t60.5 51.5q24 18 46 18q12 0 21 -7.5t9 -19.5q0 -25 -37 -50q-31 -21 -70 -39t-65 -25.5t-29 -4.5z" />
<glyph horiz-adv-x="640" d="M540 -5q-44 0 -44 75v27q-31 -49 -85 -79t-124 -30q-113 0 -166.5 58t-53.5 181v393q0 31 29 31h9q30 0 30 -31v-389q0 -98 36.5 -140t119.5 -42q67 0 125 43t79 104v424q0 31 29 31h9q30 0 30 -31v-618q0 -7 -23 -7zM226 739q-39 0 -39 29v5q0 28 39 28h208q39 0 39 -28 v-5q0 -29 -39 -29h-208z" />
<glyph horiz-adv-x="640" d="M511 7q-15 17 -15 63v27q-31 -49 -85 -79t-124 -30q-113 0 -166.5 58t-53.5 181v393q0 31 29 31h9q30 0 30 -31v-389q0 -98 36.5 -140t119.5 -42q67 0 125 43t79 104v424q0 31 29 31h9q30 0 30 -31v-618q0 -1 -6 -4q-74 -56 -74 -100q0 -16 10 -27t24 -11q26 0 39 21 q13 0 22.5 -9t9.5 -25q0 -20 -20 -32t-52 -12q-42 0 -67.5 22t-25.5 60q0 69 88 122z" />
<glyph horiz-adv-x="640" d="M540 -5q-44 0 -44 75v27q-31 -49 -85 -79t-124 -30q-113 0 -166.5 58t-53.5 181v393q0 31 29 31h9q30 0 30 -31v-389q0 -98 36.5 -140t119.5 -42q67 0 125 43t79 104v424q0 31 29 31h9q30 0 30 -31v-618q0 -7 -23 -7zM329 719q-51 0 -83.5 33t-32.5 84q0 50 33.5 83.5 t83.5 33.5q51 0 83.5 -33t32.5 -84q0 -50 -33.5 -83.5t-83.5 -33.5zM329 764q29 0 48 20.5t19 51.5t-19.5 52t-47.5 21t-47.5 -21t-19.5 -52q0 -30 19.5 -51t47.5 -21z" />
<glyph horiz-adv-x="531" d="M281 -12q-109 0 -177.5 69t-68.5 179q0 109 68 180.5t172 71.5q101 0 161.5 -65.5t60.5 -174.5v-6q0 -13 -6 -17.5t-21 -4.5h-370q4 -77 54.5 -125.5t126.5 -48.5q110 0 163 85q1 2 10.5 -1t18.5 -12.5t9 -23.5q0 -31 -57 -68.5t-144 -37.5zM275 431q-67 0 -114.5 -43 t-58.5 -112h326q-5 71 -46 113t-107 42zM204 551q-2 3 15.5 24.5t49 52t60.5 51.5q24 18 46 18q12 0 21 -7.5t9 -19.5q0 -25 -37 -50q-31 -21 -70 -39t-65 -25.5t-29 -4.5z" />
<glyph horiz-adv-x="531" d="M281 -12q-109 0 -177.5 69t-68.5 179q0 109 68 180.5t172 71.5q101 0 161.5 -65.5t60.5 -174.5v-6q0 -13 -6 -17.5t-21 -4.5h-370q4 -77 54.5 -125.5t126.5 -48.5q110 0 163 85q1 2 10.5 -1t18.5 -12.5t9 -23.5q0 -31 -57 -68.5t-144 -37.5zM275 431q-67 0 -114.5 -43 t-58.5 -112h326q-5 71 -46 113t-107 42zM275 548q-42 0 -91.5 38t-49.5 67t29 29q9 0 25.5 -12.5t47.5 -41t41 -37.5q7 7 24 23.5t26.5 25.5t22.5 20.5t22 16.5t15 5q29 0 29 -29q0 -31 -50 -68t-91 -37z" />
<glyph horiz-adv-x="531" d="M281 -12q-109 0 -177.5 69t-68.5 179q0 109 68 180.5t172 71.5q101 0 161.5 -65.5t60.5 -174.5v-6q0 -13 -6 -17.5t-21 -4.5h-370q4 -77 54.5 -125.5t126.5 -48.5q110 0 163 85q1 2 10.5 -1t18.5 -12.5t9 -23.5q0 -31 -57 -68.5t-144 -37.5zM275 431q-67 0 -114.5 -43 t-58.5 -112h326q-5 71 -46 113t-107 42zM377 703q21 0 21 -23q0 -21 -32 -58t-63 -63t-35 -26t-35 26t-63 63t-32 58q0 23 21 23q16 0 39.5 -24.5t70.5 -87.5q46 63 69 87.5t39 24.5z" />
<glyph horiz-adv-x="531" d="M281 -12q-109 0 -177.5 69t-68.5 179q0 109 68 180.5t172 71.5q101 0 161.5 -65.5t60.5 -174.5v-6q0 -13 -6 -17.5t-21 -4.5h-370q4 -77 54.5 -125.5t126.5 -48.5q110 0 163 85q1 2 10.5 -1t18.5 -12.5t9 -23.5q0 -31 -57 -68.5t-144 -37.5zM275 431q-67 0 -114.5 -43 t-58.5 -112h326q-5 71 -46 113t-107 42zM166 549q-22 0 -22 23q0 21 32 58t63.5 63t35.5 26t35 -26t63 -63t32 -58q0 -23 -21 -23q-16 0 -40 24.5t-70 87.5q-47 -64 -69.5 -88t-38.5 -24z" />
<glyph horiz-adv-x="531" d="M281 -12q-109 0 -177.5 69t-68.5 179q0 109 68 180.5t172 71.5q101 0 161.5 -65.5t60.5 -174.5v-6q0 -13 -6 -17.5t-21 -4.5h-370q4 -77 54.5 -125.5t126.5 -48.5q110 0 163 85q1 2 10.5 -1t18.5 -12.5t9 -23.5q0 -31 -57 -68.5t-144 -37.5zM275 431q-67 0 -114.5 -43 t-58.5 -112h326q-5 71 -46 113t-107 42zM360 548q-23 0 -36.5 13t-13.5 36t13 36t35 13q23 0 36.5 -13t13.5 -36t-13.5 -36t-34.5 -13zM192 548q-23 0 -36.5 13t-13.5 36t13.5 36t34.5 13q23 0 36.5 -13t13.5 -36t-13 -36t-35 -13z" />
<glyph horiz-adv-x="531" d="M281 -12q-109 0 -177.5 69t-68.5 179q0 109 68 180.5t172 71.5q101 0 161.5 -65.5t60.5 -174.5v-6q0 -13 -6 -17.5t-21 -4.5h-370q4 -77 54.5 -125.5t126.5 -48.5q110 0 163 85q1 2 10.5 -1t18.5 -12.5t9 -23.5q0 -31 -57 -68.5t-144 -37.5zM275 431q-67 0 -114.5 -43 t-58.5 -112h326q-5 71 -46 113t-107 42zM269 549q-25 0 -40 14.5t-15 37.5t15.5 37.5t40.5 14.5q24 0 39 -14.5t15 -37.5t-15 -37.5t-40 -14.5z" />
<glyph horiz-adv-x="531" d="M281 -12q-109 0 -177.5 69t-68.5 179q0 109 68 180.5t172 71.5q101 0 161.5 -65.5t60.5 -174.5v-6q0 -13 -6 -17.5t-21 -4.5h-370q4 -77 54.5 -125.5t126.5 -48.5q110 0 163 85q1 2 10.5 -1t18.5 -12.5t9 -23.5q0 -31 -57 -68.5t-144 -37.5zM275 431q-67 0 -114.5 -43 t-58.5 -112h326q-5 71 -46 113t-107 42zM167 620q-37 25 -37 50q0 12 9 19.5t21 7.5q22 0 46 -18q29 -21 60.5 -51.5t49 -52t15.5 -24.5q-3 -3 -29 4.5t-65 25.5t-70 39z" />
<glyph horiz-adv-x="531" d="M281 -12q-109 0 -177.5 69t-68.5 179q0 109 68 180.5t172 71.5q101 0 161.5 -65.5t60.5 -174.5v-6q0 -13 -6 -17.5t-21 -4.5h-370q4 -77 54.5 -125.5t126.5 -48.5q110 0 163 85q1 2 10.5 -1t18.5 -12.5t9 -23.5q0 -31 -57 -68.5t-144 -37.5zM275 431q-67 0 -114.5 -43 t-58.5 -112h326q-5 71 -46 113t-107 42zM169 568q-39 0 -39 29v5q0 28 39 28h208q39 0 39 -28v-5q0 -29 -39 -29h-208z" />
<glyph horiz-adv-x="531" d="M281 -12q-109 0 -177.5 69t-68.5 179q0 109 68 180.5t172 71.5q101 0 161.5 -65.5t60.5 -174.5v-6q0 -13 -6 -17.5t-21 -4.5h-370q4 -77 54.5 -125.5t126.5 -48.5q110 0 163 85q1 2 10.5 -1t18.5 -12.5t9 -23.5q0 -15 -18 -36t-49 -38q-80 -58 -80 -104q0 -16 10 -27 t24 -11q26 0 39 21q13 0 22.5 -9t9.5 -25q0 -20 -20 -32t-52 -12q-42 0 -67.5 22t-25.5 60q0 46 42 87q-24 -2 -36 -2zM275 431q-67 0 -114.5 -43t-58.5 -112h326q-5 71 -46 113t-107 42z" />
<glyph horiz-adv-x="400" d="M59 591q-31 0 -31 25v5q0 26 31 26h282q31 0 31 -26v-5q0 -25 -31 -25h-106v-535h106q31 0 31 -26v-5q0 -25 -31 -25h-282q-31 0 -31 25v5q0 26 31 26h108v535h-108zM149 721q-2 3 15.5 24.5t49 52t60.5 51.5q24 18 46 18q12 0 21 -7.5t9 -19.5q0 -25 -37 -50 q-31 -21 -70 -39t-65 -25.5t-29 -4.5z" />
<glyph horiz-adv-x="400" d="M59 591q-31 0 -31 25v5q0 26 31 26h282q31 0 31 -26v-5q0 -25 -31 -25h-106v-535h106q31 0 31 -26v-5q0 -25 -31 -25h-282q-31 0 -31 25v5q0 26 31 26h108v535h-108zM200 719q-42 0 -91.5 38t-49.5 67t29 29q9 0 25.5 -12.5t47.5 -41t41 -37.5q7 7 24 23.5t26.5 25.5 t22.5 20.5t22 16.5t15 5q29 0 29 -29q0 -31 -50 -68t-91 -37z" />
<glyph horiz-adv-x="400" d="M59 591q-31 0 -31 25v5q0 26 31 26h282q31 0 31 -26v-5q0 -25 -31 -25h-106v-535h106q31 0 31 -26v-5q0 -25 -31 -25h-282q-31 0 -31 25v5q0 26 31 26h108v535h-108zM91 719q-22 0 -22 23q0 21 32 58t63.5 63t35.5 26t35 -26t63 -63t32 -58q0 -23 -21 -23q-16 0 -40 24.5 t-70 87.5q-47 -64 -69.5 -88t-38.5 -24z" />
<glyph horiz-adv-x="400" d="M59 591q-31 0 -31 25v5q0 26 31 26h282q31 0 31 -26v-5q0 -25 -31 -25h-106v-535h106q31 0 31 -26v-5q0 -25 -31 -25h-282q-31 0 -31 25v5q0 26 31 26h108v535h-108zM285 718q-23 0 -36.5 13t-13.5 36t13 36t35 13q23 0 36.5 -13t13.5 -36t-13.5 -36t-34.5 -13zM117 718 q-23 0 -36.5 13t-13.5 36t13.5 36t34.5 13q23 0 36.5 -13t13.5 -36t-13 -36t-35 -13z" />
<glyph horiz-adv-x="400" d="M59 591q-31 0 -31 25v5q0 26 31 26h282q31 0 31 -26v-5q0 -25 -31 -25h-106v-535h106q31 0 31 -26v-5q0 -25 -31 -25h-282q-31 0 -31 25v5q0 26 31 26h108v535h-108zM200 720q-25 0 -40 14.5t-15 37.5t15.5 37.5t40.5 14.5q24 0 39 -14.5t15 -37.5t-15 -37.5t-40 -14.5z " />
<glyph horiz-adv-x="400" d="M59 591q-31 0 -31 25v5q0 26 31 26h282q31 0 31 -26v-5q0 -25 -31 -25h-106v-535h106q31 0 31 -26v-5q0 -25 -31 -25h-282q-31 0 -31 25v5q0 26 31 26h108v535h-108zM87 790q-37 25 -37 50q0 12 9 19.5t21 7.5q22 0 46 -18q29 -21 60.5 -51.5t49 -52t15.5 -24.5 q-3 -3 -29 4.5t-65 25.5t-70 39z" />
<glyph horiz-adv-x="400" d="M59 591q-31 0 -31 25v5q0 26 31 26h282q31 0 31 -26v-5q0 -25 -31 -25h-106v-535h106q31 0 31 -26v-5q0 -25 -31 -25h-282q-31 0 -31 25v5q0 26 31 26h108v535h-108zM96 739q-39 0 -39 29v5q0 28 39 28h208q39 0 39 -28v-5q0 -29 -39 -29h-208z" />
<glyph horiz-adv-x="400" d="M59 591q-31 0 -31 25v5q0 26 31 26h282q31 0 31 -26v-5q0 -25 -31 -25h-106v-535h106q31 0 31 -26v-5q0 -15 -11 -21q-80 -58 -80 -104q0 -16 10 -27t24 -11q26 0 39 21q13 0 22.5 -9t9.5 -25q0 -20 -20 -32t-52 -12q-42 0 -67.5 22t-25.5 60q0 63 75 113h-237 q-31 0 -31 25v5q0 26 31 26h108v535h-108z" />
<glyph horiz-adv-x="569" d="M276 -200q-92 0 -151 38t-59 74q0 15 9 26t18.5 14.5t10.5 0.5q51 -95 173 -95q160 0 160 166v64q-66 -86 -177 -86q-100 0 -162.5 66t-62.5 175q0 106 66 175.5t163 69.5q59 0 105.5 -24t68.5 -59v12q0 63 41 63q6 0 11.5 -1.5t8.5 -3t3 -2.5v-449q0 -111 -58.5 -167.5 t-167.5 -56.5zM267 58q69 0 120 45t51 112v104q-49 112 -169 112q-75 0 -121.5 -52.5t-46.5 -134.5q0 -85 45 -135.5t121 -50.5zM272 548q-42 0 -91.5 38t-49.5 67t29 29q9 0 25.5 -12.5t47.5 -41t41 -37.5q7 7 24 23.5t26.5 25.5t22.5 20.5t22 16.5t15 5q29 0 29 -29 q0 -31 -50 -68t-91 -37z" />
<glyph horiz-adv-x="569" d="M276 -200q-92 0 -151 38t-59 74q0 15 9 26t18.5 14.5t10.5 0.5q51 -95 173 -95q160 0 160 166v64q-66 -86 -177 -86q-100 0 -162.5 66t-62.5 175q0 106 66 175.5t163 69.5q59 0 105.5 -24t68.5 -59v12q0 63 41 63q6 0 11.5 -1.5t8.5 -3t3 -2.5v-449q0 -111 -58.5 -167.5 t-167.5 -56.5zM267 58q67 0 117.5 42.5t53.5 107.5v111q-49 112 -169 112q-75 0 -121.5 -52.5t-46.5 -134.5q0 -85 45 -135.5t121 -50.5zM164 549q-22 0 -22 23q0 21 32 58t63.5 63t35.5 26t35 -26t63 -63t32 -58q0 -23 -21 -23q-16 0 -40 24.5t-70 87.5q-47 -64 -69.5 -88 t-38.5 -24z" />
<glyph horiz-adv-x="569" d="M276 -200q-92 0 -151 38t-59 74q0 15 9 26t18.5 14.5t10.5 0.5q51 -95 173 -95q160 0 160 166v64q-66 -86 -177 -86q-100 0 -162.5 66t-62.5 175q0 106 66 175.5t163 69.5q59 0 105.5 -24t68.5 -59v12q0 63 41 63q6 0 11.5 -1.5t8.5 -3t3 -2.5v-449q0 -111 -58.5 -167.5 t-167.5 -56.5zM267 58q67 0 117.5 42.5t53.5 107.5v111q-49 112 -169 112q-75 0 -121.5 -52.5t-46.5 -134.5q0 -85 45 -135.5t121 -50.5zM332 694q7 8 23 3t10 -19l-60 -125q-7 -14 -10 -19t-10.5 -10t-19.5 -5h-5q-14 0 -24.5 8t-10.5 21v4q0 10 26 41z" />
<glyph horiz-adv-x="569" d="M276 -200q-92 0 -151 38t-59 74q0 15 9 26t18.5 14.5t10.5 0.5q51 -95 173 -95q160 0 160 166v64q-66 -86 -177 -86q-100 0 -162.5 66t-62.5 175q0 106 66 175.5t163 69.5q59 0 105.5 -24t68.5 -59v12q0 63 41 63q6 0 11.5 -1.5t8.5 -3t3 -2.5v-449q0 -111 -58.5 -167.5 t-167.5 -56.5zM267 58q69 0 120 45t51 112v104q-49 112 -169 112q-75 0 -121.5 -52.5t-46.5 -134.5q0 -85 45 -135.5t121 -50.5zM275 549q-25 0 -40 14.5t-15 37.5t15.5 37.5t40.5 14.5q24 0 39 -14.5t15 -37.5t-15 -37.5t-40 -14.5z" />
<glyph horiz-adv-x="545" d="M259 -200q-91 0 -145.5 38.5t-54.5 73.5q0 13 9 24t18 15t10 2q26 -48 61.5 -71t100.5 -23q81 0 118 36.5t37 120.5v66q-58 -84 -161 -84q-92 0 -140.5 56.5t-48.5 153.5v241q0 31 29 31h7q29 0 29 -31v-232q0 -75 33.5 -117.5t99.5 -42.5q49 0 89 27.5t63 72.5v260 q0 63 42 63q6 0 11.5 -1.5t8.5 -3t3 -2.5v-466q0 -103 -56 -155t-163 -52zM221 541q-2 3 15.5 24.5t49 52t60.5 51.5q24 18 46 18q12 0 21 -7.5t9 -19.5q0 -25 -37 -50q-31 -21 -70 -39t-65 -25.5t-29 -4.5z" />
<glyph horiz-adv-x="545" d="M259 -200q-91 0 -145.5 38.5t-54.5 73.5q0 13 9 24t18 15t10 2q26 -48 61.5 -71t100.5 -23q81 0 118 36.5t37 120.5v66q-58 -84 -161 -84q-92 0 -140.5 56.5t-48.5 153.5v241q0 31 29 31h7q29 0 29 -31v-232q0 -75 33.5 -117.5t99.5 -42.5q49 0 89 27.5t63 72.5v260 q0 63 42 63q6 0 11.5 -1.5t8.5 -3t3 -2.5v-466q0 -103 -56 -155t-163 -52zM173 549q-22 0 -22 23q0 21 32 58t63.5 63t35.5 26t35 -26t63 -63t32 -58q0 -23 -21 -23q-16 0 -40 24.5t-70 87.5q-47 -64 -69.5 -88t-38.5 -24z" />
<glyph horiz-adv-x="545" d="M259 -200q-91 0 -145.5 38.5t-54.5 73.5q0 13 9 24t18 15t10 2q26 -48 61.5 -71t100.5 -23q81 0 118 36.5t37 120.5v66q-58 -84 -161 -84q-92 0 -140.5 56.5t-48.5 153.5v241q0 31 29 31h7q29 0 29 -31v-232q0 -75 33.5 -117.5t99.5 -42.5q49 0 89 27.5t63 72.5v260 q0 63 42 63q6 0 11.5 -1.5t8.5 -3t3 -2.5v-466q0 -103 -56 -155t-163 -52zM193 548q-23 0 -36.5 13t-13.5 36t13.5 36t34.5 13q23 0 36.5 -13t13.5 -36t-13 -36t-35 -13zM361 548q-23 0 -36.5 13t-13.5 36t13 36t35 13q23 0 36.5 -13t13.5 -36t-13.5 -36t-34.5 -13z" />
<glyph horiz-adv-x="600" d="M23 -5q0 22 24 53q8 11 42.5 52t83.5 100.5t83 101.5l263 330q29 2 29 -22q0 -20 -25 -53q-8 -10 -42.5 -52t-83.5 -101t-83 -102l-261 -329q-2 -1 -9 -0.5t-14 6.5t-7 16z" />
<glyph horiz-adv-x="168" d="M80 108q-12 0 -15 21l-19 199q-5 38 30 38h14q37 0 31 -38l-19 -199q-3 -21 -15 -21h-7zM80 -4q-33 0 -33 32v7q0 33 33 33h7q33 0 33 -33v-7q0 -32 -33 -32h-7z" />
<glyph horiz-adv-x="336" d="M218 207q-12 0 -15 18l-15 103q-4 38 32 38q38 0 34 -38l-13 -103q-1 -18 -15 -18h-8zM109 207q-13 0 -15 18l-13 103q-4 38 33 38t33 -38l-15 -103q-3 -18 -16 -18h-7z" />
<glyph horiz-adv-x="336" d="M293 316l-12 -39h35q26 0 26 -19v-7q0 -21 -26 -21h-50l-30 -98h34q27 0 27 -20v-6q0 -21 -27 -21h-48l-28 -90q0 -2 -8 -2q-10 0 -18.5 7.5t-8.5 23.5q0 10 4 21l12 40h-74l-28 -90q0 -2 -7 -2q-11 0 -19.5 7.5t-8.5 23.5q0 5 4 21l12 40h-33q-28 0 -28 20v6q0 21 27 21 h49l30 98h-35q-26 0 -26 21v6q0 20 26 20h50l28 90q0 3 8 3q10 0 18.5 -8t8.5 -24q0 -7 -5 -22l-12 -39h74l28 90q3 3 8 3q10 0 18.5 -8t8.5 -24q0 -10 -4 -22zM144 231l-30 -99h76l30 99h-76z" />
<glyph horiz-adv-x="334" d="M301 103q0 -42 -29 -70t-79 -34v-27q0 -30 -25 -30h-3q-26 0 -26 30v26q-49 5 -78.5 26t-29.5 44q0 9 6 17.5t12.5 12t7.5 2.5q38 -51 109 -51q33 0 52.5 14t19.5 37q0 18 -13.5 30t-28.5 17t-43 11q-33 8 -54 16.5t-40 31t-19 56.5q0 39 27.5 66t72.5 35v26q0 30 26 30 h3q25 0 25 -30v-24q46 -4 73 -22.5t27 -40.5q0 -10 -6.5 -18.5t-13 -12.5t-7.5 -3q-35 47 -97 47q-31 0 -50 -14.5t-19 -37.5q0 -24 19 -34.5t63 -20.5q33 -8 55.5 -16.5t42.5 -32t20 -56.5z" />
<glyph horiz-adv-x="336" d="M89 207q-37 0 -61 22.5t-24 57.5v5q0 34 24.5 57t60.5 23q37 0 61 -22.5t24 -57.5v-4q0 -34 -24.5 -57.5t-60.5 -23.5zM36 -7q-2 -2 -8.5 0t-13 8t-6.5 14q0 10 9 21l281 332q2 2 8.5 0t13 -7.5t6.5 -13.5q0 -12 -10 -22zM247 -9q-36 0 -60.5 23t-24.5 57v5q0 34 24.5 57 t61.5 23q36 0 60 -23t24 -57v-5q0 -34 -24.5 -57t-60.5 -23zM89 244q18 0 29 11.5t11 30.5v8q0 19 -11.5 31t-28.5 12t-28.5 -12t-11.5 -31v-8q0 -19 11.5 -30.5t28.5 -11.5zM248 27q17 0 28.5 12t11.5 30v8q0 19 -12 31t-29 12q-18 0 -29 -12t-11 -31v-8q0 -19 11.5 -30.5 t29.5 -11.5z" />
<glyph horiz-adv-x="168" d="M80 207q-12 0 -15 18l-14 103q-6 38 33 38t33 -38l-14 -103q-3 -18 -15 -18h-8z" />
<glyph horiz-adv-x="336" d="M107 181l-2 1q-13 8 -4 25l28 47l-48 21q-16 7 -12 22l1 3q3 15 23 11l52 -12l5 52q2 18 18 18h2q16 0 18 -18l4 -52l52 12q19 4 24 -11v-3q4 -15 -12 -22l-49 -21l29 -47q8 -17 -5 -25l-1 -1q-14 -8 -26 4l-36 41l-36 -41q-11 -12 -25 -4z" />
<glyph horiz-adv-x="336" d="M63 156q-26 0 -26 22v4q0 22 26 22h80v82q0 26 23 26h5q23 0 23 -26v-82h80q27 0 27 -22v-4q0 -22 -27 -22h-80v-86q0 -27 -23 -27h-5q-23 0 -23 27v86h-80z" />
<glyph horiz-adv-x="168" d="M59 -67q-7 -8 -21.5 -3t-10.5 18l29 93q5 16 10.5 22t20.5 6h7q25 0 25 -28v-3q0 -17 -14 -35z" />
<glyph horiz-adv-x="336" d="M105 149q-27 0 -27 24v9q0 24 27 24h128q27 0 27 -24v-9q0 -24 -27 -24h-128z" />
<glyph horiz-adv-x="168" d="M80 -4q-33 0 -33 32v7q0 33 33 33h7q33 0 33 -33v-7q0 -32 -33 -32h-7z" />
<glyph horiz-adv-x="336" d="M109 -64q-34 0 -34 27q0 8 5 23l133 428q0 3 13 3q34 0 34 -28q0 -7 -5 -22l-133 -429q0 -2 -13 -2z" />
<glyph horiz-adv-x="336" d="M78 0q-29 0 -29 25v2q0 27 29 27h80v247l-53 -47q-18 -17 -39 -17q-13 0 -23.5 10.5t-10.5 26.5l133 92h25q28 0 28 -31v-281h68q30 0 30 -27v-2q0 -25 -30 -25h-208z" />
<glyph horiz-adv-x="168" d="M81 229q-33 0 -33 32v7q0 32 33 32h7q33 0 33 -32v-7q0 -32 -33 -32h-7zM81 50q-33 0 -33 32v7q0 33 33 33h7q33 0 33 -33v-7q0 -32 -33 -32h-7z" />
<glyph horiz-adv-x="168" d="M80 175q-33 0 -33 32v7q0 32 33 32h7q33 0 33 -32v-7q0 -32 -33 -32h-7zM59 -67q-7 -8 -21.5 -3t-10.5 18l29 93q5 16 10.5 22t20.5 6h7q25 0 25 -28v-3q0 -17 -14 -35z" />
<glyph horiz-adv-x="336" d="M119 178l137 -65q31 -14 29 -37q0 -8 -3.5 -15.5t-7 -11t-5.5 -2.5l-198 98q-18 9 -18 33t18 33l198 99q1 0 5 -3.5t7.5 -10.5t3.5 -15q2 -23 -29 -37z" />
<glyph horiz-adv-x="336" d="M67 218q-26 0 -26 23v5q0 22 26 22h203q27 0 27 -22v-5q0 -23 -27 -23h-203zM67 86q-26 0 -26 23v5q0 22 26 22h203q27 0 27 -22v-5q0 -23 -27 -23h-203z" />
<glyph horiz-adv-x="336" d="M52 76q-2 22 29 37l137 65l-137 66q-31 15 -29 37q0 8 4 15t8 10.5t5 3.5l198 -99q18 -9 18 -33t-18 -33l-198 -98q-2 -1 -5.5 2.5t-7.5 11t-4 15.5z" />
<glyph horiz-adv-x="336" d="M150 92q-32 0 -53 24t-21 61q0 38 21 61.5t54 23.5q34 0 51 -28q5 26 29 26q17 0 17 -5v-88q0 -42 28 -42q39 0 39 77q0 62 -38.5 100t-106.5 38q-65 0 -107 -45.5t-42 -113.5q0 -73 40.5 -116t113.5 -43q54 0 89 28q10 8 18 8q5 0 9.5 -4.5t6.5 -9t0 -5.5 q-45 -47 -123 -47q-85 0 -135 52t-50 137q0 82 51.5 135.5t128.5 53.5q83 0 130 -46t47 -122q0 -53 -21.5 -81.5t-61.5 -28.5q-48 0 -58 36q-18 -36 -56 -36zM162 131q16 0 27.5 9.5t12.5 24.5v32q-14 26 -40 26q-18 0 -29 -12.5t-11 -33.5q0 -20 11 -33t29 -13z" />
<glyph horiz-adv-x="336" d="M129 -62q-15 0 -24.5 10t-9.5 26v404q0 16 9.5 26t24.5 10h111q30 0 30 -25v-3q0 -25 -30 -25h-87v-371h88q29 0 29 -24v-3q0 -25 -29 -25h-112z" />
<glyph horiz-adv-x="336" d="M228 -64q-12 0 -12 2l-134 429q-4 12 -4 22q0 28 33 28q13 0 13 -3l133 -428q5 -11 5 -23q0 -27 -34 -27z" />
<glyph horiz-adv-x="336" d="M97 -62q-30 0 -30 25v3q0 24 30 24h88v371h-88q-29 0 -29 25v3q0 25 29 25h111q16 0 25.5 -10t9.5 -26v-404q0 -16 -9.5 -26t-25.5 -10h-111z" />
<glyph horiz-adv-x="336" d="M66 -50q-27 0 -27 23v3q0 24 27 24h204q26 0 26 -24v-3q0 -23 -26 -23h-204z" />
<glyph horiz-adv-x="336" d="M278 -62q-50 0 -93 38t-49 106l-65 40q-23 13 -30.5 23.5t-7.5 30.5t8 31t30 23l66 43q5 66 48.5 104t92.5 38q30 0 30 -27q0 -11 -10 -21q-53 -6 -77 -35.5t-26 -80.5l-115 -75l114 -72q3 -53 26.5 -82.5t77.5 -35.5q10 -5 10 -22q0 -12 -8.5 -19t-21.5 -7z" />
<glyph horiz-adv-x="168" d="M79 -62q-21 0 -21 28v422q0 27 21 27h11q22 0 22 -27v-422q0 -28 -22 -28h-11z" />
<glyph horiz-adv-x="336" d="M60 -62q-30 0 -30 26q0 12 10 22q53 6 77 35.5t26 82.5l116 72l-116 73q-2 53 -26 82.5t-77 35.5q-10 3 -10 21q0 27 29 27q49 0 92.5 -38.5t49.5 -105.5l67 -41q22 -12 30 -23t8 -31t-7.5 -30.5t-30.5 -23.5l-67 -40q-5 -67 -48.5 -105.5t-92.5 -38.5z" />
<glyph horiz-adv-x="336" d="M100 138q-10 0 -16 6.5t-6 16.5q0 23 14 40t33 17q35 0 82 -42q12 39 30 39q23 0 23 -24q0 -23 -14 -39.5t-33 -16.5q-37 0 -82 42q-14 -39 -31 -39z" />
<glyph horiz-adv-x="324" d="M298 85q0 -23 -26 -45t-70 -26v-40q0 -30 -25 -30h-3q-25 0 -25 30v41q-55 9 -86.5 46.5t-31.5 96.5q0 56 32.5 94.5t84.5 47.5v40q0 30 26 30h2q26 0 26 -30v-38q43 -5 68 -25t25 -40q0 -11 -8 -19t-16 -10.5t-9 -0.5q-28 46 -83 46q-39 0 -63 -25.5t-24 -69.5t25 -69 t67 -25q57 0 81 50q1 1 9 -1t16 -9.5t8 -18.5z" />
<glyph horiz-adv-x="336" d="M49 142q-24 0 -24 22v6q0 21 24 21h40l13 71q21 108 114 108q46 0 72.5 -22.5t26.5 -51.5q0 -15 -9.5 -23t-18.5 -9t-9 0q-11 54 -58 54q-27 0 -41.5 -15t-20.5 -48l-12 -64h80q24 0 24 -21v-6q0 -22 -24 -22h-89l-16 -89h160q28 0 28 -25v-3q0 -25 -28 -25h-238 q-28 0 -28 25v4q0 24 28 24h21l16 89h-31z" />
<glyph horiz-adv-x="336" d="M34 204q-24 0 -24 19v5q0 19 24 19h29q12 57 50.5 90t93.5 33t90 -29q27 -21 26 -43q0 -11 -7.5 -19t-15.5 -11t-9 -1q-30 49 -84 49q-29 0 -50.5 -18.5t-30.5 -50.5h99q24 0 24 -19v-5q0 -19 -24 -19h-105v-44h105q24 0 24 -19v-5q0 -19 -24 -19h-99q9 -33 31 -52 t52 -19q54 0 83 54q2 1 10 -1.5t15.5 -11t7.5 -19.5q0 -24 -27 -46q-35 -29 -90 -29q-57 0 -95.5 32.5t-50.5 91.5h-28q-24 0 -24 19v5q0 19 24 19h24v44h-24z" />
<glyph horiz-adv-x="336" d="M58 180q-25 0 -25 20v6q0 19 25 19h53l-84 113q-2 2 1.5 8.5t13.5 12.5t24 6q21 0 31 -22l70 -109l74 108q11 23 32 23q11 0 20.5 -6t13 -12.5t2.5 -8.5l-85 -113h53q25 0 25 -19v-6q0 -20 -25 -20h-79v-45h79q25 0 25 -20v-5q0 -20 -25 -20h-79v-63q0 -30 -27 -30h-8 q-25 0 -25 30v63h-80q-25 0 -25 20v5q0 20 25 20h80v45h-80z" />
<glyph horiz-adv-x="336" d="M162 -97q-62 0 -96 21.5t-34 47.5q0 9 6 16.5t12 11t7 2.5q34 -50 105 -50q69 0 69 40q0 11 -4.5 18t-18.5 13t-22.5 8.5t-34.5 8.5t-42 11t-36 15t-29.5 26.5t-9.5 38.5q0 53 60 72q-49 22 -49 71q0 48 34.5 72t90.5 24q58 0 88 -21t30 -43q0 -9 -6 -17t-12 -11t-7 -2 q-35 45 -90 45q-29 0 -47.5 -10.5t-18.5 -29.5q0 -20 20 -30.5t63 -19.5q26 -6 41 -11t34.5 -15.5t28.5 -26t9 -37.5q0 -52 -60 -73q50 -21 50 -71q0 -42 -35.5 -68t-95.5 -26zM157 185l-13 3q-25 -4 -40 -18t-15 -31q0 -13 6.5 -21.5t22.5 -14.5t27.5 -9t36.5 -8l14 -3 q23 4 37.5 18t14.5 31q0 23 -22 33.5t-69 19.5z" />
<glyph horiz-adv-x="336" d="M167 188q-39 0 -64.5 24.5t-25.5 64.5v4q0 40 26 65t66 25q39 0 64.5 -25t25.5 -64v-5q0 -39 -26 -64t-66 -25zM169 226q20 0 33.5 14t13.5 36v6q0 21 -14 35.5t-34 14.5t-34 -14t-14 -35v-7q0 -22 14 -36t35 -14z" />
<glyph horiz-adv-x="336" d="M142 150v73h-70q-27 0 -27 22v4q0 23 27 23h70v68q0 27 23 27h5q23 0 23 -27v-68h71q26 0 26 -23v-4q0 -22 -26 -22h-71v-73q0 -27 -23 -27h-5q-23 0 -23 27zM66 49q-26 0 -26 23v4q0 23 26 23h203q27 0 27 -23v-4q0 -23 -27 -23h-203z" />
<glyph horiz-adv-x="336" d="M278 -3q-20 0 -20 21v326q0 22 20 22h6q20 0 20 -22v-326q0 -21 -20 -21h-6zM201 -3q-21 0 -21 21v141h-19q-132 0 -132 101q0 104 129 104h42q27 0 27 -26v-320q0 -21 -20 -21h-6z" />
<glyph horiz-adv-x="168" d="M81 142q-32 0 -32 32v7q0 32 32 32h8q33 0 33 -32v-7q0 -32 -33 -32h-8z" />
<glyph horiz-adv-x="336" d="M65 67l-4 4q-16 16 3 35l72 72l-72 72q-20 18 -3 35l4 3q16 19 36 -3l69 -73l69 73q19 22 35 3l4 -3q16 -17 -2 -35l-73 -72l73 -72q19 -20 2 -35l-4 -4q-17 -17 -35 3l-69 73l-69 -73q-19 -20 -36 -3z" />
<glyph horiz-adv-x="336" d="M165 243q-30 0 -30 29v7q0 30 30 30h7q30 0 30 -30v-7q0 -29 -30 -29h-7zM165 48q-30 0 -30 30v6q0 30 30 30h7q30 0 30 -30v-6q0 -30 -30 -30h-7zM67 153q-26 0 -26 23v5q0 22 26 22h203q27 0 27 -22v-5q0 -23 -27 -23h-203z" />
<glyph horiz-adv-x="336" d="M67 159q-26 0 -26 23v4q0 23 26 23h49l12 70q16 90 94 90q30 0 46.5 -12t16.5 -28q0 -9 -4.5 -17t-9.5 -12t-6 -3q-12 20 -37 20q-14 0 -25 -12.5t-15 -34.5l-11 -61h53q26 0 26 -24v-4q0 -22 -26 -22h-60l-21 -118q-8 -46 -41 -46q-8 0 -14.5 2t-10 4.5t-3.5 4.5l27 153 h-40z" />
<glyph horiz-adv-x="336" d="M65 151q-26 0 -26 24v5q0 24 26 24h206q26 0 26 -24v-5q0 -24 -26 -24h-206z" />
<glyph horiz-adv-x="336" d="M26 151q-27 0 -27 24v5q0 24 27 24h286q26 0 26 -24v-5q0 -24 -26 -24h-286z" />
<glyph horiz-adv-x="336" d="M162 -88q-16 0 -18 17l-7 222q-2 33 15 55l-85 -16q-16 -3 -23.5 5.5t-7.5 26.5q0 19 7 27t24 5l85 -15l-15 97q-3 17 4.5 24t26.5 7q38 0 31 -31l-15 -97l85 15q16 3 23.5 -6t7.5 -26q0 -18 -7.5 -26.5t-23.5 -5.5l-85 16q16 -21 16 -55l-8 -222q-2 -17 -18 -17h-12z " />
<glyph horiz-adv-x="336" d="M162 -88q-16 0 -18 17l-3 116l-74 -13q-31 -7 -31 32q0 18 7.5 26.5t23.5 4.5l72 -12l-2 71q-2 34 16 54l-86 -14q-16 -4 -23.5 4.5t-7.5 26.5q0 19 7 27t24 4l85 -14l-15 94q-3 17 4.5 24t26.5 7q38 0 31 -31l-15 -94l85 14q16 4 23.5 -5t7.5 -26q0 -18 -7.5 -26.5 t-23.5 -4.5l-86 14q17 -20 17 -54l-3 -71l72 12q16 4 23.5 -4.5t7.5 -26.5q0 -17 -7.5 -26t-23.5 -6l-74 13l-3 -116q-2 -17 -18 -17h-12z" />
<glyph horiz-adv-x="336" d="M169 102q-31 0 -52.5 21.5t-21.5 53.5q0 31 21.5 53t52.5 22t52.5 -22t21.5 -53t-21.5 -53t-52.5 -22z" />
<glyph horiz-adv-x="336" d="M67 152q-26 0 -26 24v4q0 24 26 24h203q27 0 27 -24v-4q0 -24 -27 -24h-203z" />
<glyph horiz-adv-x="336" d="M67 218q-26 0 -26 23v5q0 22 26 22h115l32 75q12 28 28 21l8 -3q17 -7 6 -35l-25 -58h39q27 0 27 -22v-5q0 -23 -27 -23h-64l-36 -82h100q27 0 27 -22v-5q0 -23 -27 -23h-118l-32 -75q-10 -29 -28 -20l-7 2q-18 6 -7 36l24 57h-35q-26 0 -26 23v5q0 22 26 22h60l36 82 h-96z" />
<glyph horiz-adv-x="168" d="M80 393q-12 0 -15 21l-19 199q-5 38 30 38h14q37 0 31 -38l-19 -199q-3 -21 -15 -21h-7zM80 281q-33 0 -33 32v7q0 33 33 33h7q33 0 33 -33v-7q0 -32 -33 -32h-7z" />
<glyph horiz-adv-x="336" d="M218 492q-12 0 -15 18l-15 103q-4 38 32 38q38 0 34 -38l-13 -103q-1 -18 -15 -18h-8zM109 492q-13 0 -15 18l-13 103q-4 38 33 38t33 -38l-15 -103q-3 -18 -16 -18h-7z" />
<glyph horiz-adv-x="336" d="M293 601l-12 -39h35q26 0 26 -19v-7q0 -21 -26 -21h-50l-30 -98h34q27 0 27 -20v-6q0 -21 -27 -21h-48l-28 -90q0 -2 -8 -2q-10 0 -18.5 7.5t-8.5 23.5q0 10 4 21l12 40h-74l-28 -90q0 -2 -7 -2q-11 0 -19.5 7.5t-8.5 23.5q0 5 4 21l12 40h-33q-28 0 -28 20v6q0 21 27 21 h49l30 98h-35q-26 0 -26 21v6q0 20 26 20h50l28 90q0 3 8 3q10 0 18.5 -8t8.5 -24q0 -7 -5 -22l-12 -39h74l28 90q3 3 8 3q10 0 18.5 -8t8.5 -24q0 -10 -4 -22zM144 516l-30 -99h76l30 99h-76z" />
<glyph horiz-adv-x="334" d="M301 388q0 -42 -29 -70t-79 -35v-26q0 -30 -25 -30h-3q-26 0 -26 30v26q-49 5 -78.5 26t-29.5 44q0 9 6 17.5t12.5 12t7.5 2.5q38 -51 109 -51q33 0 52.5 14t19.5 37q0 18 -13.5 30t-28.5 17t-43 11q-33 8 -54 16.5t-40 31t-19 56.5q0 39 27.5 66t72.5 35v26q0 30 26 30 h3q25 0 25 -30v-24q46 -4 73 -22.5t27 -40.5q0 -10 -6.5 -18.5t-13 -12.5t-7.5 -3q-35 47 -97 47q-31 0 -50 -14.5t-19 -37.5q0 -24 19 -34.5t63 -20.5q33 -8 55.5 -16.5t42.5 -32t20 -56.5z" />
<glyph horiz-adv-x="336" d="M89 492q-37 0 -61 22.5t-24 57.5v5q0 34 24.5 57t60.5 23q37 0 61 -22.5t24 -57.5v-4q0 -34 -24.5 -57.5t-60.5 -23.5zM36 278q-2 -2 -8.5 0t-13 8t-6.5 14q0 10 9 21l281 332q2 2 8.5 0t13 -7.5t6.5 -13.5q0 -12 -10 -22zM247 276q-36 0 -60.5 23t-24.5 57v5 q0 34 24.5 57t61.5 23q36 0 60 -23t24 -57v-5q0 -34 -24.5 -57t-60.5 -23zM89 529q18 0 29 11.5t11 30.5v8q0 19 -11.5 31t-28.5 12t-28.5 -12t-11.5 -31v-8q0 -19 11.5 -30.5t28.5 -11.5zM248 312q17 0 28.5 12t11.5 30v8q0 19 -12 31t-29 12q-18 0 -29 -12t-11 -31v-8 q0 -19 11.5 -30.5t29.5 -11.5z" />
<glyph horiz-adv-x="168" d="M80 492q-12 0 -15 18l-14 103q-6 38 33 38t33 -38l-14 -103q-3 -18 -15 -18h-8z" />
<glyph horiz-adv-x="336" d="M107 466l-2 1q-13 8 -4 25l28 47l-48 21q-16 7 -12 22l1 3q3 15 23 11l52 -12l5 52q2 18 18 18h2q16 0 18 -18l4 -52l52 12q19 4 24 -11v-3q4 -15 -12 -22l-49 -21l29 -47q8 -17 -5 -25l-1 -1q-14 -8 -26 4l-36 41l-36 -41q-11 -12 -25 -4z" />
<glyph horiz-adv-x="168" d="M59 218q-7 -8 -21.5 -3t-10.5 18l29 93q5 16 10.5 22t20.5 6h7q25 0 25 -28v-3q0 -17 -14 -35z" />
<glyph horiz-adv-x="336" d="M105 434q-27 0 -27 24v9q0 24 27 24h128q27 0 27 -24v-9q0 -24 -27 -24h-128z" />
<glyph horiz-adv-x="168" d="M80 281q-33 0 -33 32v7q0 33 33 33h7q33 0 33 -33v-7q0 -32 -33 -32h-7z" />
<glyph horiz-adv-x="336" d="M109 221q-34 0 -34 27q0 8 5 23l133 428q0 3 13 3q34 0 34 -28q0 -7 -5 -22l-133 -429q0 -2 -13 -2z" />
<glyph horiz-adv-x="336" d="M78 285q-29 0 -29 25v2q0 27 29 27h72v228q-19 -21 -50 -21q-22 0 -38.5 12t-16.5 31q0 9 4.5 17.5t9 12t5.5 2.5q15 -17 40 -17q21 0 36.5 13t17.5 34h23q29 0 29 -31v-281h60q30 0 30 -27v-2q0 -25 -30 -25h-192z" />
<glyph horiz-adv-x="336" d="M78 285q-29 0 -29 25v2q0 27 29 27h80v247l-53 -47q-18 -17 -39 -17q-13 0 -23.5 10.5t-10.5 26.5l133 92h25q28 0 28 -31v-281h68q30 0 30 -27v-2q0 -25 -30 -25h-208z" />
<glyph horiz-adv-x="336" d="M194 430q-29 -13 -38.5 -18t-28.5 -17t-26 -25t-8 -31h182q30 0 30 -25v-3q0 -26 -30 -26h-197q-21 0 -30 8t-9 26v15q0 51 28 79t83 54q60 30 73 44q14 15 14 33q0 26 -18.5 41.5t-51.5 15.5q-67 0 -84 -68q-2 0 -12 -1t-21 7t-11 23q0 33 36.5 63t96.5 30 q61 0 94.5 -29t33.5 -81q0 -23 -8 -41t-25.5 -32t-32 -22t-40.5 -20z" />
<glyph horiz-adv-x="336" d="M300 387q0 -51 -37.5 -80t-104.5 -29q-61 0 -98 26t-37 55q0 15 9.5 23.5t18 8.5h10.5q20 -62 96 -62q38 0 62 17t24 44q0 29 -22 44.5t-61 15.5h-24q-30 0 -30 23v4q0 22 29 22h32q31 0 49.5 14t18.5 37q0 24 -22 39t-56 15q-64 0 -86 -55q-1 -2 -10 0t-18 10t-9 22 q0 27 35 50.5t89 23.5q64 0 98.5 -26t34.5 -73q0 -59 -61 -77q70 -23 70 -92z" />
<glyph horiz-adv-x="168" d="M81 514q-33 0 -33 32v7q0 32 33 32h7q33 0 33 -32v-7q0 -32 -33 -32h-7zM81 335q-33 0 -33 32v7q0 33 33 33h7q33 0 33 -33v-7q0 -32 -33 -32h-7z" />
<glyph horiz-adv-x="168" d="M80 460q-33 0 -33 32v7q0 32 33 32h7q33 0 33 -32v-7q0 -32 -33 -32h-7zM59 218q-7 -8 -21.5 -3t-10.5 18l29 93q5 16 10.5 22t20.5 6h7q25 0 25 -28v-3q0 -17 -14 -35z" />
<glyph horiz-adv-x="336" d="M119 463l137 -65q31 -14 29 -37q0 -8 -3.5 -15.5t-7 -11t-5.5 -2.5l-198 98q-18 9 -18 33t18 33l198 99q1 0 5 -3.5t7.5 -10.5t3.5 -15q2 -23 -29 -37z" />
<glyph horiz-adv-x="336" d="M52 361q-2 22 29 37l137 65l-137 66q-31 15 -29 37q0 8 4 15t8 10.5t5 3.5l198 -99q18 -9 18 -33t-18 -33l-198 -98q-2 -1 -5.5 2.5t-7.5 11t-4 15.5z" />
<glyph horiz-adv-x="336" d="M150 377q-32 0 -53 24t-21 61q0 38 21 61.5t54 23.5q34 0 51 -28q5 26 29 26q17 0 17 -5v-88q0 -42 28 -42q39 0 39 77q0 62 -38.5 100t-106.5 38q-65 0 -107 -45.5t-42 -113.5q0 -73 40.5 -116t113.5 -43q54 0 89 28q10 8 18 8q5 0 9.5 -4.5t6.5 -9t0 -5.5 q-45 -47 -123 -47q-85 0 -135 52t-50 137q0 82 51.5 135.5t128.5 53.5q83 0 130 -46t47 -122q0 -53 -21.5 -81.5t-61.5 -28.5q-48 0 -58 36q-18 -36 -56 -36zM162 416q16 0 27.5 9.5t12.5 24.5v32q-14 26 -40 26q-18 0 -29 -12.5t-11 -33.5q0 -20 11 -33t29 -13z" />
<glyph horiz-adv-x="336" d="M129 223q-15 0 -24.5 10t-9.5 26v404q0 16 9.5 26t24.5 10h111q30 0 30 -25v-3q0 -25 -30 -25h-87v-371h88q29 0 29 -24v-3q0 -25 -29 -25h-112z" />
<glyph horiz-adv-x="336" d="M228 221q-12 0 -12 2l-134 429q-4 12 -4 22q0 28 33 28q13 0 13 -3l133 -428q5 -11 5 -23q0 -27 -34 -27z" />
<glyph horiz-adv-x="336" d="M97 223q-30 0 -30 25v3q0 24 30 24h88v371h-88q-29 0 -29 25v3q0 25 29 25h111q16 0 25.5 -10t9.5 -26v-404q0 -16 -9.5 -26t-25.5 -10h-111z" />
<glyph horiz-adv-x="336" d="M66 235q-27 0 -27 23v3q0 24 27 24h204q26 0 26 -24v-3q0 -23 -26 -23h-204z" />
<glyph horiz-adv-x="336" d="M278 223q-50 0 -93 38t-49 106l-65 40q-23 13 -30.5 23.5t-7.5 30.5t8 31t30 23l66 43q5 66 48.5 104t92.5 38q30 0 30 -27q0 -11 -10 -21q-53 -6 -77 -35.5t-26 -80.5l-115 -75l114 -72q3 -53 26.5 -82.5t77.5 -35.5q10 -5 10 -22q0 -12 -8.5 -19t-21.5 -7z" />
<glyph horiz-adv-x="168" d="M79 223q-21 0 -21 28v422q0 27 21 27h11q22 0 22 -27v-422q0 -28 -22 -28h-11z" />
<glyph horiz-adv-x="336" d="M60 223q-30 0 -30 26q0 12 10 22q53 6 77 35.5t26 82.5l116 72l-116 73q-2 53 -26 82.5t-77 35.5q-10 3 -10 21q0 27 29 27q49 0 92.5 -38.5t49.5 -105.5l67 -41q22 -12 30 -23t8 -31t-7.5 -30.5t-30.5 -23.5l-67 -40q-5 -67 -48.5 -105.5t-92.5 -38.5z" />
<glyph horiz-adv-x="336" d="M100 423q-10 0 -16 6.5t-6 16.5q0 23 14 40t33 17q35 0 82 -42q12 39 30 39q23 0 23 -24q0 -23 -14 -39.5t-33 -16.5q-37 0 -82 42q-14 -39 -31 -39z" />
<glyph horiz-adv-x="324" d="M298 370q0 -23 -26 -45t-70 -26v-40q0 -30 -25 -30h-3q-25 0 -25 30v41q-55 9 -86.5 46.5t-31.5 96.5q0 56 32.5 94.5t84.5 47.5v40q0 30 26 30h2q26 0 26 -30v-38q43 -5 68 -25t25 -40q0 -11 -8 -19t-16 -10.5t-9 -0.5q-28 46 -83 46q-39 0 -63 -25.5t-24 -69.5t25 -69 t67 -25q57 0 81 50q1 1 9 -1t16 -9.5t8 -18.5z" />
<glyph horiz-adv-x="336" d="M49 427q-24 0 -24 22v6q0 21 24 21h40l13 71q21 108 114 108q46 0 72.5 -22.5t26.5 -51.5q0 -15 -9.5 -23t-18.5 -9t-9 0q-11 54 -58 54q-27 0 -41.5 -15t-20.5 -48l-12 -64h80q24 0 24 -21v-6q0 -22 -24 -22h-89l-16 -89h160q28 0 28 -25v-3q0 -25 -28 -25h-238 q-28 0 -28 25v4q0 24 28 24h21l16 89h-31z" />
<glyph horiz-adv-x="336" d="M34 489q-24 0 -24 19v5q0 19 24 19h29q12 57 50.5 90t93.5 33t90 -29q27 -21 26 -43q0 -11 -7.5 -19t-15.5 -11t-9 -1q-30 49 -84 49q-29 0 -50.5 -18.5t-30.5 -50.5h99q24 0 24 -19v-5q0 -19 -24 -19h-105v-44h105q24 0 24 -19v-5q0 -19 -24 -19h-99q9 -33 31 -52 t52 -19q54 0 83 54q2 1 10 -1.5t15.5 -11t7.5 -19.5q0 -24 -27 -46q-35 -29 -90 -29q-57 0 -95.5 32.5t-50.5 91.5h-28q-24 0 -24 19v5q0 19 24 19h24v44h-24z" />
<glyph horiz-adv-x="336" d="M58 465q-25 0 -25 20v6q0 19 25 19h53l-84 113q-2 2 1.5 8.5t13.5 12.5t24 6q21 0 31 -22l70 -109l74 108q11 23 32 23q11 0 20.5 -6t13 -12.5t2.5 -8.5l-85 -113h53q25 0 25 -19v-6q0 -20 -25 -20h-79v-45h79q25 0 25 -20v-5q0 -20 -25 -20h-79v-63q0 -30 -27 -30h-8 q-25 0 -25 30v63h-80q-25 0 -25 20v5q0 20 25 20h80v45h-80z" />
<glyph horiz-adv-x="336" d="M162 188q-62 0 -96 21.5t-34 47.5q0 9 6 16.5t12 11t7 2.5q34 -50 105 -50q69 0 69 40q0 11 -4.5 18t-18.5 13t-22.5 8.5t-34.5 8.5t-42 11t-36 15t-29.5 26.5t-9.5 38.5q0 53 60 72q-49 22 -49 71q0 48 34.5 72t90.5 24q58 0 88 -21t30 -43q0 -9 -6 -17t-12 -11t-7 -2 q-35 45 -90 45q-29 0 -47.5 -10.5t-18.5 -29.5q0 -20 20 -30.5t63 -19.5q26 -6 41 -11t34.5 -15.5t28.5 -26t9 -37.5q0 -52 -60 -73q50 -21 50 -71q0 -42 -35.5 -68t-95.5 -26zM157 470l-13 3q-25 -4 -40 -18t-15 -31q0 -13 6.5 -21.5t22.5 -14.5t27.5 -9t36.5 -8l14 -3 q23 4 37.5 18t14.5 31q0 23 -22 33.5t-69 19.5z" />
<glyph horiz-adv-x="336" d="M167 473q-39 0 -64.5 24.5t-25.5 64.5v4q0 40 26 65t66 25q39 0 64.5 -25t25.5 -64v-5q0 -39 -26 -64t-66 -25zM169 511q20 0 33.5 14t13.5 36v6q0 21 -14 35.5t-34 14.5t-34 -13.5t-14 -35.5v-7q0 -22 14 -36t35 -14z" />
<glyph horiz-adv-x="336" d="M142 435v73h-70q-27 0 -27 22v4q0 23 27 23h70v68q0 27 23 27h5q23 0 23 -27v-68h71q26 0 26 -23v-4q0 -22 -26 -22h-71v-73q0 -27 -23 -27h-5q-23 0 -23 27zM66 334q-26 0 -26 23v4q0 23 26 23h203q27 0 27 -23v-4q0 -23 -27 -23h-203z" />
<glyph horiz-adv-x="336" d="M278 282q-20 0 -20 21v326q0 22 20 22h6q20 0 20 -22v-326q0 -21 -20 -21h-6zM201 282q-21 0 -21 21v141h-19q-132 0 -132 101q0 104 129 104h42q27 0 27 -26v-320q0 -21 -20 -21h-6z" />
<glyph horiz-adv-x="168" d="M81 427q-32 0 -32 32v7q0 32 32 32h8q33 0 33 -32v-7q0 -32 -33 -32h-8z" />
<glyph horiz-adv-x="336" d="M65 352l-4 4q-16 16 3 35l72 72l-72 72q-20 18 -3 35l4 3q16 19 36 -3l69 -73l69 73q19 22 35 3l4 -3q16 -16 -2 -35l-73 -72l73 -72q19 -20 2 -35l-4 -4q-17 -17 -35 3l-69 73l-69 -73q-19 -19 -36 -3z" />
<glyph horiz-adv-x="336" d="M165 528q-30 0 -30 29v7q0 30 30 30h7q30 0 30 -30v-7q0 -29 -30 -29h-7zM165 333q-30 0 -30 30v6q0 30 30 30h7q30 0 30 -30v-6q0 -30 -30 -30h-7zM67 438q-26 0 -26 23v5q0 22 26 22h203q27 0 27 -22v-5q0 -23 -27 -23h-203z" />
<glyph horiz-adv-x="336" d="M67 444q-26 0 -26 23v4q0 23 26 23h48l13 70q16 90 94 90q30 0 46.5 -12t16.5 -28q0 -9 -4.5 -17t-9.5 -12t-6 -3q-12 20 -37 20q-14 0 -25 -12.5t-15 -34.5l-11 -61h53q26 0 26 -24v-4q0 -22 -26 -22h-60l-21 -118q-8 -46 -41 -46q-8 0 -14.5 2t-10 4.5t-3.5 4.5l27 153 h-40z" />
<glyph horiz-adv-x="336" d="M65 436q-26 0 -26 24v5q0 24 26 24h206q26 0 26 -24v-5q0 -24 -26 -24h-206z" />
<glyph horiz-adv-x="336" d="M26 436q-27 0 -27 24v5q0 24 27 24h286q26 0 26 -24v-5q0 -24 -26 -24h-286z" />
<glyph horiz-adv-x="336" d="M162 197q-16 0 -18 17l-7 222q-2 33 15 55l-85 -16q-16 -3 -23.5 5.5t-7.5 26.5q0 19 7 27t24 5l85 -15l-15 97q-3 17 4.5 24t26.5 7q38 0 31 -31l-15 -97l85 15q16 3 23.5 -6t7.5 -26q0 -18 -7.5 -26.5t-23.5 -5.5l-85 16q16 -21 16 -55l-8 -222q-2 -17 -18 -17h-12z " />
<glyph horiz-adv-x="336" d="M162 197q-16 0 -18 17l-3 116l-74 -13q-31 -7 -31 32q0 18 7.5 26.5t23.5 4.5l72 -12l-2 71q-2 34 16 54l-86 -14q-16 -4 -23.5 4.5t-7.5 26.5q0 19 7 27t24 4l85 -14l-15 94q-3 17 4.5 24t26.5 7q38 0 31 -31l-15 -94l85 14q16 4 23.5 -5t7.5 -26q0 -18 -7.5 -26.5 t-23.5 -4.5l-86 14q17 -20 17 -54l-3 -71l72 12q16 4 23.5 -4.5t7.5 -26.5q0 -17 -7.5 -26t-23.5 -6l-74 13l-3 -116q-2 -17 -18 -17h-12z" />
<glyph horiz-adv-x="336" d="M169 387q-31 0 -52.5 21.5t-21.5 53.5q0 31 21.5 53t52.5 22t52.5 -22t21.5 -53t-21.5 -53t-52.5 -22z" />
<glyph horiz-adv-x="336" d="M67 503q-26 0 -26 23v5q0 22 26 22h115l32 75q12 28 28 21l8 -3q17 -7 6 -35l-25 -58h39q27 0 27 -22v-5q0 -23 -27 -23h-64l-36 -82h100q27 0 27 -22v-5q0 -23 -27 -23h-118l-32 -75q-10 -29 -28 -20l-7 2q-18 6 -7 36l24 57h-35q-26 0 -26 23v5q0 22 26 22h60l36 82 h-96z" />
<glyph horiz-adv-x="600" d="M124 128l-4 4q-19 18 2 42l140 144l-140 142q-21 24 -2 42l4 4q19 21 43 -4l136 -143l136 143q24 25 43 4l4 -4q19 -18 -2 -42l-140 -142l140 -144q21 -24 2 -42l-4 -4q-19 -21 -43 4l-136 143l-136 -143q-24 -25 -43 -4z" />
<glyph horiz-adv-x="300" d="M145 178q-13 0 -15 24l-22 410q-1 39 29 39h25q30 0 29 -39l-22 -410q-2 -24 -16 -24h-8zM144 -6q-44 0 -44 44v10q0 45 44 45h10q45 0 45 -45v-10q0 -44 -45 -44h-10z" />
<glyph horiz-adv-x="600" d="M292 -102q-26 0 -26 31v61q-85 8 -142.5 48.5t-57.5 76.5q0 13 9.5 23.5t19.5 15t11 2.5q28 -48 79 -77t120 -29q68 0 112 33.5t44 83.5q0 30 -13.5 52.5t-42 37t-54 23t-68.5 18.5t-73.5 21.5t-62 32t-48 53t-16.5 76.5q0 67 53 116.5t132 59.5v58q0 31 27 31h7 q26 0 26 -31v-57q81 -6 134 -42t53 -69q0 -13 -9.5 -23.5t-19.5 -15t-11 -2.5q-23 41 -70.5 66.5t-105.5 25.5q-63 0 -106 -33.5t-43 -82.5q0 -54 39.5 -78.5t126.5 -44.5q46 -11 78 -22.5t65.5 -32.5t51 -54.5t17.5 -79.5q0 -72 -57.5 -123t-144.5 -58v-60q0 -31 -27 -31 h-7z" />
<glyph horiz-adv-x="600" d="M160 370q-63 0 -106 41t-43 100v10q0 59 44 101t106 42q63 0 106 -41t43 -100v-10q0 -59 -44 -101t-106 -42zM57 -11q-2 -2 -10 0.5t-16 10t-8 17.5q0 19 15 36l500 605q2 2 10 -0.5t16 -10t8 -17.5q0 -19 -15 -36zM439 -17q-63 0 -106 41t-43 100v10q0 59 44 101t106 42 q63 0 106 -41t43 -100v-10q0 -59 -44 -101t-106 -42zM161 424q37 0 61 24.5t24 61.5v14q0 37 -24.5 62t-61.5 25t-61 -24.5t-24 -62.5v-14q0 -36 24.5 -61t61.5 -25zM440 37q37 0 61 24.5t24 61.5v14q0 37 -24.5 62t-61.5 25t-61 -24.5t-24 -62.5v-14q0 -36 24.5 -61 t61.5 -25z" />
<glyph horiz-adv-x="600" d="M472 -110q-43 0 -98.5 30t-107.5 82t-87.5 135.5t-35.5 176.5q0 73 23.5 141t60.5 118t81 88t87 57t77 19q30 0 30 -24q0 -7 -3.5 -15.5t-5.5 -9.5q-108 -23 -195 -133t-87 -240q0 -134 86.5 -243t195.5 -133q2 -1 5.5 -10t3.5 -15q0 -24 -30 -24z" />
<glyph horiz-adv-x="600" d="M129 -110q-30 0 -30 24q0 6 3.5 15t5.5 10q107 23 184.5 131t77.5 245q0 132 -78 241t-184 132q-2 1 -5.5 9.5t-3.5 15.5q0 24 30 24q43 0 95.5 -31t100.5 -84t80.5 -135.5t32.5 -172.5q0 -94 -32.5 -177t-80.5 -135t-100.5 -82t-95.5 -30z" />
<glyph horiz-adv-x="600" d="M200 346l-3 2q-16 11 -3 33l59 91l-101 39q-23 9 -16 28l1 4q5 17 30 12l105 -29l6 108q1 25 21 25h4q20 0 21 -25l4 -108l106 29q25 5 31 -12l1 -4q6 -20 -17 -28l-103 -39l61 -91q13 -22 -3 -33l-3 -2q-16 -11 -32 8l-69 86l-68 -86q-16 -18 -32 -8z" />
<glyph horiz-adv-x="600" d="M109 294q-31 0 -31 26v6q0 26 31 26h161v163q0 31 28 31h5q28 0 28 -31v-163h161q31 0 31 -26v-6q0 -26 -31 -26h-161v-174q0 -31 -28 -31h-5q-28 0 -28 31v174h-161z" />
<glyph horiz-adv-x="300" d="M93 -131q-5 -9 -22 -4.5t-11 19.5l60 179q5 14 8.5 20t11 10.5t19.5 4.5h5q13 0 21.5 -9t8.5 -26v-4q0 -23 -16 -48z" />
<glyph horiz-adv-x="600" d="M194 285q-31 0 -31 26v7q0 27 31 27h214q31 0 31 -27v-7q0 -26 -31 -26h-214z" />
<glyph horiz-adv-x="300" d="M144 -6q-44 0 -44 44v10q0 45 44 45h10q45 0 45 -45v-10q0 -44 -45 -44h-10z" />
<glyph horiz-adv-x="600" d="M191 -111q-42 0 -42 38q0 13 8 39l235 768q0 3 12 3q42 0 42 -37q0 -13 -8 -39l-235 -769q0 -3 -12 -3z" />
<glyph horiz-adv-x="600" d="M298 -12q-120 0 -188.5 80.5t-68.5 220.5v67q0 140 69.5 221.5t188.5 81.5q120 0 189.5 -81t69.5 -220v-67q0 -140 -70 -221.5t-190 -81.5zM299 47q91 0 141 64t50 180v63q0 116 -51 181.5t-141 65.5q-89 0 -139 -64.5t-50 -180.5v-63q0 -116 50.5 -181t139.5 -65z" />
<glyph horiz-adv-x="600" d="M135 0q-31 0 -31 26v5q0 27 31 27h151v487q-33 -46 -96 -46q-37 0 -65 17t-28 45q0 10 5 19.5t10 14t6 3.5q30 -35 77 -35q38 0 67 25t31 63h29q30 0 30 -31v-562h135q31 0 31 -27v-5q0 -26 -31 -26h-352z" />
<glyph horiz-adv-x="600" d="M148 73v-11h353q32 0 32 -28v-5q0 -29 -32 -29h-376q-43 0 -43 41v20q0 50 15.5 89.5t48 69.5t61.5 48.5t75 41.5q96 49 123 72q48 40 48 91q0 58 -40 91t-110 33q-133 0 -172 -133q-2 -1 -13 -2.5t-23 8t-12 26.5q0 52 62.5 108t162.5 56q98 0 155 -50.5t57 -137.5 q0 -40 -14.5 -72t-47 -58t-59 -41.5t-74.5 -38.5q-44 -21 -69 -35.5t-53.5 -38t-41.5 -51.5t-13 -64z" />
<glyph horiz-adv-x="600" d="M519 179q0 -89 -63.5 -140t-174.5 -51q-105 0 -167.5 48t-62.5 94q0 16 9.5 26.5t19 13t10.5 -0.5q21 -58 72 -90t120 -32q77 0 122.5 35.5t45.5 95.5q0 66 -44.5 100.5t-129.5 34.5h-56q-33 0 -33 27v4q0 27 31 27h69q70 0 107 30t37 85q0 54 -39.5 84.5t-109.5 30.5 q-60 0 -103.5 -27.5t-66.5 -74.5q-1 -2 -10.5 1t-19 13t-9.5 23q0 39 60.5 81t148.5 42q103 0 160.5 -45t57.5 -127q0 -109 -108 -140q62 -21 94.5 -64t32.5 -104z" />
<glyph horiz-adv-x="600" d="M410 -4q-12 0 -20 9.5t-8 21.5v157h-285q-22 0 -35 10.5t-13 25.5v20q0 21 28 55l257 317q19 24 29.5 31.5t31.5 7.5q29 0 41 -10.5t12 -33.5v-361h88q31 0 31 -29v-5q0 -28 -31 -28h-88v-157q0 -31 -29 -31h-9zM384 585l-274 -340h274v340z" />
<glyph horiz-adv-x="600" d="M160 585v-218q68 34 144 34q102 0 164.5 -55.5t62.5 -147.5q0 -97 -65 -153.5t-177 -56.5q-92 0 -157 42.5t-65 85.5q0 13 9.5 23t19.5 13t11 1q51 -104 184 -104q78 0 125 39.5t47 106.5q0 66 -43 104.5t-117 38.5q-99 0 -165 -48q-43 6 -43 47v272q0 16 11 27t27 11 h334q31 0 31 -29v-5q0 -28 -31 -28h-307z" />
<glyph horiz-adv-x="600" d="M135 360v-33q35 34 86.5 56t104.5 22q101 0 161 -53.5t60 -142.5v-5q0 -93 -64.5 -154.5t-162.5 -61.5q-122 0 -187 80t-65 215v73q0 141 69.5 222t187.5 81q89 0 142 -35t53 -71q0 -11 -9 -20.5t-18 -14t-10 -2.5q-57 85 -158 85q-89 0 -139.5 -63t-50.5 -178zM320 348 q-53 0 -103.5 -25.5t-80.5 -64.5q5 -100 51.5 -156t128.5 -56q73 0 119 42.5t46 109.5v6q0 69 -41.5 106.5t-119.5 37.5z" />
<glyph horiz-adv-x="600" d="M67 610v5q0 32 31 32h402q39 0 39 -30v-6q0 -13 -18 -47l-290 -544q-13 -24 -36 -24q-11 0 -20.5 6t-14 12.5t-2.5 9.5l302 556h-362q-31 0 -31 30z" />
<glyph horiz-adv-x="600" d="M299 -12q-111 0 -176.5 49.5t-65.5 131.5q0 57 34 100t98 64q-113 37 -113 148q0 79 61.5 128.5t162.5 49.5q104 0 163 -47.5t59 -128.5q0 -111 -113 -149q65 -20 98.5 -63t33.5 -101q0 -79 -67.5 -130.5t-174.5 -51.5zM300 46q85 0 129 33.5t44 93.5q0 59 -46.5 94.5 t-127.5 35.5q-83 0 -128.5 -35t-45.5 -95q0 -57 46.5 -92t128.5 -35zM300 362q74 0 114 31t40 86q0 56 -40.5 89.5t-114.5 33.5q-77 0 -116 -32.5t-39 -90.5q0 -53 41.5 -85t114.5 -32z" />
<glyph horiz-adv-x="600" d="M269 46q98 0 146.5 59t48.5 182v22q-35 -33 -86 -55t-105 -22q-101 0 -161 53.5t-60 142.5v5q0 94 65 160t162 66q119 0 185.5 -78t66.5 -217v-73q0 -150 -67 -226.5t-195 -76.5q-89 0 -142 35t-53 71q0 11 9 20.5t18 14t10 2.5q57 -85 158 -85zM279 289q52 0 103 25.5 t81 64.5q-4 105 -50 163.5t-130 58.5q-72 0 -118.5 -47t-46.5 -115v-6q0 -69 41.5 -106.5t119.5 -37.5z" />
<glyph horiz-adv-x="300" d="M145 433q-44 0 -44 44v10q0 45 44 45h10q45 0 45 -45v-10q0 -44 -45 -44h-10zM145 93q-44 0 -44 44v10q0 45 44 45h10q45 0 45 -45v-10q0 -44 -45 -44h-10z" />
<glyph horiz-adv-x="300" d="M144 334q-44 0 -44 44v10q0 45 44 45h10q45 0 45 -45v-10q0 -44 -45 -44h-10zM93 -131q-5 -9 -22 -4.5t-11 19.5l60 179q5 14 8.5 20t11 10.5t19.5 4.5h5q13 0 21.5 -9t8.5 -26v-4q0 -23 -16 -48z" />
<glyph horiz-adv-x="600" d="M180 318l264 -137q43 -23 41 -50q-1 -10 -5.5 -17.5t-9.5 -11t-7 -2.5l-327 175q-11 6 -15.5 14t-4.5 29q0 20 4.5 28t15.5 14l327 176q2 1 6.5 -3t9.5 -11.5t6 -16.5q3 -25 -41 -49z" />
<glyph horiz-adv-x="600" d="M119 400q-31 0 -31 27v7q0 27 31 27h363q31 0 31 -27v-7q0 -27 -31 -27h-363zM119 173q-31 0 -31 27v7q0 27 31 27h363q31 0 31 -27v-7q0 -27 -31 -27h-363z" />
<glyph horiz-adv-x="600" d="M116 505q1 9 6 16.5t9.5 11.5t6.5 3l327 -176q11 -6 15.5 -14t4.5 -28q0 -21 -4.5 -29t-15.5 -14l-327 -175q-2 -1 -7 2.5t-9.5 11t-5.5 17.5q-2 27 41 50l263 137l-263 138q-44 24 -41 49z" />
<glyph horiz-adv-x="600" d="M276 165q-58 0 -94 42t-36 110t36 109.5t96 41.5q61 0 92 -48q5 46 41 46q6 0 12 -2t8.5 -4t2.5 -3v-196q0 -49 45 -49q27 0 43 38.5t16 106.5q0 121 -62.5 187.5t-170.5 66.5q-106 0 -173 -78t-67 -209q0 -136 61 -212t185 -76q88 0 149 52q15 12 32 12q8 0 15.5 -6.5 t11 -13t1.5 -8.5q-30 -37 -85 -60.5t-124 -23.5q-143 0 -219.5 90.5t-76.5 245.5q0 152 81 243.5t209 91.5q130 0 206.5 -81.5t76.5 -220.5q0 -94 -31.5 -144t-90.5 -50q-77 0 -89 65q-33 -63 -101 -63zM291 221q33 0 55.5 21.5t23.5 55.5v56q-22 58 -78 58 q-38 0 -58.5 -25.5t-20.5 -69.5q0 -43 21 -69.5t57 -26.5z" />
<glyph horiz-adv-x="600" d="M226 -109q-16 0 -27 11t-11 27v768q0 16 11 27t27 11h214q31 0 31 -26v-7q0 -26 -31 -26h-190v-726h190q31 0 31 -26v-7q0 -26 -31 -26h-214z" />
<glyph horiz-adv-x="600" d="M410 -111q-12 0 -12 3l-235 769q-8 26 -8 39q0 37 42 37q12 0 12 -3l235 -768q8 -26 8 -39q0 -38 -42 -38z" />
<glyph horiz-adv-x="600" d="M161 -109q-31 0 -31 26v7q0 26 31 26h190v726h-190q-31 0 -31 26v7q0 26 31 26h214q16 0 27 -11t11 -27v-768q0 -16 -11 -27t-27 -11h-214z" />
<glyph horiz-adv-x="600" d="M520 -112q-53 0 -108.5 29.5t-98.5 93t-47 145.5l-154 95q-28 16 -36.5 26t-8.5 36t8.5 36t36.5 26l155 100q3 61 29 112.5t63.5 83.5t80 49.5t81.5 17.5q26 0 26 -28q0 -4 -2.5 -10t-4.5 -10l-2 -5q-106 -17 -153.5 -76t-51.5 -158l-209 -138l208 -133 q4 -103 51.5 -162.5t153.5 -76.5q2 -1 5.5 -10t3.5 -15q0 -28 -26 -28z" />
<glyph horiz-adv-x="300" d="M147 -111q-29 0 -29 31v786q0 31 29 31h7q29 0 29 -31v-786q0 -31 -29 -31h-7z" />
<glyph horiz-adv-x="600" d="M81 -112q-26 0 -26 28q0 4 2.5 10t4.5 10l2 5q106 17 153.5 76.5t51.5 162.5l210 133l-211 133q-4 103 -51.5 162.5t-153.5 76.5q-2 1 -5.5 10t-3.5 15q0 28 26 28q53 0 108.5 -29.5t98.5 -93t47 -145.5l157 -95q28 -16 36.5 -26t8.5 -36t-8.5 -36t-36.5 -26l-156 -95 q-4 -82 -47 -145.5t-98.5 -93t-108.5 -29.5z" />
<glyph horiz-adv-x="600" d="M120 358q-26 -4 -36.5 5.5t-10.5 32.5t10.5 32.5t36.5 5.5l164 -22l-24 194q-4 26 6 36.5t34 10.5t34 -10.5t6 -36.5l-24 -194l164 22q26 4 36.5 -5.5t10.5 -32.5t-10.5 -32.5t-36.5 -5.5l-164 22q26 -40 24 -82l-15 -435q-1 -12 -4.5 -17.5t-15.5 -5.5h-10 q-12 0 -15.5 5.5t-4.5 17.5l-15 435q-2 42 24 82z" />
<glyph horiz-adv-x="600" d="M298 346q-65 0 -108 43.5t-43 109.5v9q0 65 45 109.5t110 44.5t108 -43.5t43 -109.5v-9q0 -65 -45 -109.5t-110 -44.5zM301 399q41 0 69 28.5t28 71.5v9q0 42 -29 71.5t-70 29.5t-69 -28.5t-28 -71.5v-9q0 -42 29 -71.5t70 -29.5z" />
<glyph horiz-adv-x="600" d="M320 -98q-27 0 -27 31v97q-101 12 -158.5 78t-57.5 173q0 101 60.5 171t155.5 82v92q0 31 27 31h5q27 0 27 -31v-90q56 -4 104 -28q34 -18 54 -43t20 -42q0 -13 -8.5 -23.5t-17.5 -14t-10 -1.5q-26 49 -66 72t-104 23q-82 0 -131.5 -52t-49.5 -145q0 -92 53 -144t140 -52 q120 0 165 104q1 2 10.5 -0.5t18.5 -11.5t9 -22q0 -25 -26 -55.5t-70 -50.5q-46 -19 -91 -22v-95q0 -31 -27 -31h-5z" />
<glyph horiz-adv-x="600" d="M79 263q-31 0 -31 26v7q0 27 31 27h90l28 153q33 183 191 183q77 0 120.5 -41.5t43.5 -86.5q0 -17 -11.5 -27.5t-22 -10t-12.5 1.5q-22 106 -118 106q-56 0 -84.5 -30.5t-40.5 -98.5l-27 -149h166q31 0 31 -27v-7q0 -26 -31 -26h-177l-37 -201h320q31 0 31 -29v-5 q0 -28 -31 -28h-443q-31 0 -31 28v6q0 28 31 28h56l37 201h-79z" />
<glyph horiz-adv-x="600" d="M294 -160q-106 0 -165 41t-59 81q0 13 9 23t18 14.5t10 2.5q57 -102 186 -102q70 0 110 23.5t40 64.5q0 19 -7.5 33.5t-17.5 24t-33 18t-40 13t-53 12.5q-2 0 -3 0.5t-3 1t-3.5 1t-3.5 0.5q-37 9 -58.5 14.5t-52 18.5t-47.5 28t-29.5 39.5t-12.5 55.5q0 94 110 127 q-91 37 -91 126q0 84 58 121t148 37q93 0 146 -37.5t53 -73.5q0 -12 -8.5 -22t-17.5 -14.5t-10 -2.5q-58 90 -163 90q-59 0 -100 -24.5t-41 -65.5q0 -42 37.5 -64.5t121.5 -41.5q31 -7 48.5 -11.5t45 -14t43 -20t32 -25.5t24 -36t7.5 -47q0 -93 -107 -128q93 -35 93 -128 q0 -69 -59 -111t-155 -42zM294 346q-24 4 -36 7q-50 -6 -83 -35.5t-33 -62.5q0 -20 9.5 -35.5t21.5 -25.5t37.5 -19t43.5 -13.5t53 -12.5l34 -8q49 4 83.5 34.5t34.5 66.5q0 24 -11.5 41t-38.5 29t-49 18t-66 16z" />
<glyph horiz-adv-x="600" d="M301 191q-51 0 -86.5 36t-35.5 88q0 51 35.5 88t86.5 37t86.5 -37t35.5 -88q0 -52 -35.5 -88t-86.5 -36z" />
<glyph horiz-adv-x="600" d="M493 -4q-29 0 -29 31v593q0 31 29 31h9q30 0 30 -31v-593q0 -31 -30 -31h-9zM368 -4q-30 0 -30 31v263h-41q-115 0 -175 44.5t-60 131.5q0 89 58.5 135.5t171.5 46.5h76q16 0 27 -11t11 -27v-583q0 -31 -29 -31h-9z" />
<glyph horiz-adv-x="600" d="M107 343q-31 0 -31 26v6q0 26 31 26h121l-171 221q-2 3 4 9.5t17.5 13t24.5 6.5q20 0 33 -23l163 -220l167 219q16 24 34 24q11 0 21.5 -6.5t16 -13t3.5 -9.5l-171 -221h121q31 0 31 -26v-6q0 -26 -31 -26h-161v-100h161q31 0 31 -26v-6q0 -26 -31 -26h-161v-158 q0 -31 -28 -31h-7q-27 0 -27 31v158h-161q-31 0 -31 26v6q0 26 31 26h161v100h-161z" />
<glyph horiz-adv-x="600" d="M113 299q-31 0 -31 26v6q0 26 31 26h109l27 153q26 149 151 149q40 0 65.5 -17t25.5 -40q0 -10 -6 -20t-12 -15t-7 -4q-26 36 -72 36q-27 0 -50 -26t-32 -74l-24 -142h121q31 0 31 -26v-6q0 -26 -31 -26h-130l-46 -249q-9 -54 -42 -54q-8 0 -16 2.5t-12 5.5t-3 5l51 290 h-98z" />
<glyph horiz-adv-x="600" d="M114 286q-31 0 -31 26v6q0 26 31 26h373q31 0 31 -26v-6q0 -26 -31 -26h-373z" />
<glyph horiz-adv-x="600" d="M30 286q-31 0 -31 26v6q0 26 31 26h541q31 0 31 -26v-6q0 -26 -31 -26h-541z" />
<glyph horiz-adv-x="600" d="M119 287q-31 0 -31 27v7q0 27 31 27h363q31 0 31 -27v-7q0 -27 -31 -27h-363z" />
<glyph horiz-adv-x="600" d="M373 391q-14 0 -17 26l-24 179q-3 31 7 43t34 12t34 -12t7 -43l-14 -179q-3 -26 -17 -26h-10zM215 391q-14 0 -17 26l-14 179q-3 31 7 43t34 12t34 -12t7 -43l-24 -179q-3 -26 -17 -26h-10z" />
<glyph horiz-adv-x="300" d="M145 391q-14 0 -17 26l-19 179q-3 31 7 43t34 12t34 -12t7 -43l-19 -179q-3 -26 -17 -26h-10z" />
<glyph horiz-adv-x="600" d="M15 175q-31 0 -31 26v5q0 27 31 27h116q9 28 56 181h-98q-31 0 -31 26v5q0 27 31 27h115l54 176q0 3 12 3q14 0 24.5 -10t10.5 -33q0 -13 -8 -39l-30 -97h155l54 176q0 3 12 3q14 0 24.5 -10t10.5 -33q0 -13 -8 -39l-30 -97h99q31 0 31 -26v-5q0 -27 -31 -27h-117 l-55 -181h98q31 0 31 -26v-5q0 -27 -31 -27h-116l-53 -176q0 -3 -12 -3q-14 0 -24.5 10t-10.5 33q0 13 8 39l30 97h-155l-54 -176q0 -3 -12 -3q-14 0 -24.5 10t-10.5 33q0 13 8 39l30 97h-99zM248 416l-57 -185h160l56 185h-159z" />
<glyph horiz-adv-x="600" d="M94 423q0 20 4.5 28t15.5 14l367 161q2 1 6.5 -3t9.5 -11.5t6 -16.5q4 -11 -8.5 -25.5t-32.5 -23.5l-304 -123l304 -122q20 -8 31 -22t10 -28q-1 -10 -5.5 -17.5t-9.5 -11t-7 -2.5l-367 160q-11 6 -15.5 14t-4.5 29zM118 117q-31 0 -31 27v7q0 27 31 27h363q31 0 31 -27 v-7q0 -27 -31 -27h-363z" />
<glyph horiz-adv-x="600" d="M96 598q1 9 6 16.5t9.5 11.5t6.5 3l367 -161q11 -6 15.5 -14t4.5 -28q0 -21 -4.5 -29t-15.5 -14l-367 -160q-2 -1 -7 2.5t-9.5 11t-5.5 17.5q-1 13 11.5 28t29.5 22l303 122l-303 123q-20 9 -32.5 23.5t-8.5 25.5zM118 120q-31 0 -31 27v7q0 27 31 27h363q31 0 31 -27v-7 q0 -27 -31 -27h-363z" />
<glyph horiz-adv-x="600" d="M128 411q-31 0 -31 26v6q0 26 31 26h141v143q0 31 28 31h5q28 0 28 -31v-143h141q31 0 31 -26v-6q0 -26 -31 -26h-141v-154q0 -31 -28 -31h-5q-28 0 -28 31v154h-141zM118 119q-31 0 -31 27v7q0 27 31 27h363q31 0 31 -27v-7q0 -27 -31 -27h-363z" />
<glyph horiz-adv-x="600" d="M119 400q-31 0 -31 27v7q0 27 31 27h217l69 142q14 27 38 16l6 -3q25 -12 11 -40l-56 -115h78q31 0 31 -27v-7q0 -27 -31 -27h-112l-81 -166h193q31 0 31 -27v-7q0 -27 -31 -27h-218l-68 -141q-14 -29 -38 -16l-6 3q-25 11 -11 40l55 114h-77q-31 0 -31 27v7q0 27 31 27 h112l81 166h-193z" />
<glyph horiz-adv-x="600" d="M182 259q-25 0 -25 26q0 34 20 62t49 28q25 0 66 -21.5t82 -58.5q23 73 46 73q25 0 25 -26q0 -34 -20 -62t-49 -28q-25 0 -66 21.5t-82 58.5q-23 -73 -46 -73z" />
<glyph horiz-adv-x="600" d="M295 429q-44 0 -44 44v10q0 45 44 45h10q45 0 45 -45v-10q0 -44 -45 -44h-10zM295 109q-44 0 -44 44v10q0 45 44 45h10q45 0 45 -45v-10q0 -44 -45 -44h-10zM119 288q-31 0 -31 27v7q0 27 31 27h363q31 0 31 -27v-7q0 -27 -31 -27h-363z" />
<glyph horiz-adv-x="600" d="M113 -62q-31 0 -31 28v5q0 29 31 29h373q31 0 31 -29v-5q0 -28 -31 -28h-373z" />
<glyph horiz-adv-x="300" d="M146 266q-44 0 -44 44v10q0 45 44 45h10q45 0 45 -45v-10q0 -44 -45 -44h-10z" />
<glyph horiz-adv-x="600" d="M120 358q-26 -4 -36.5 5.5t-10.5 32.5t10.5 32.5t36.5 5.5l164 -22l-24 194q-4 26 6 36.5t34 10.5t34 -10.5t6 -36.5l-24 -194l164 22q26 4 36.5 -5.5t10.5 -32.5t-10.5 -32.5t-36.5 -5.5l-166 22q28 -39 26 -82l-6 -161l146 21q26 4 36.5 -5.5t10.5 -32.5t-10.5 -32.5 t-36.5 -5.5l-147 21l-8 -240q-1 -12 -4.5 -17.5t-15.5 -5.5h-10q-12 0 -15.5 5.5t-4.5 17.5l-8 240l-147 -21q-26 -4 -36.5 5.5t-10.5 32.5t10.5 32.5t36.5 5.5l146 -21l-6 161q-2 43 26 82z" />
<glyph horiz-adv-x="600" d="M57 -11q-2 -2 -9.5 0.5t-15 10t-7.5 17.5q0 14 4.5 22.5t21.5 28.5l487 590q2 2 9.5 0t15 -9.5t7.5 -18.5q0 -17 -28 -51z" />
<glyph d="M16 323q0 150 103 253t253 103q149 0 252.5 -103.5t103.5 -252.5q0 -150 -103.5 -252.5t-253.5 -102.5q-149 0 -252 103t-103 252zM673 323q0 128 -87 216.5t-214 88.5t-214 -88.5t-87 -216.5t86.5 -215.5t213.5 -87.5t214.5 87.5t87.5 215.5z" />
<glyph d="M374 -32q-149 0 -252 103t-103 252q0 150 103 253t253 103q149 0 252.5 -103.5t103.5 -252.5q0 -150 -103.5 -252.5t-253.5 -102.5z" />
<glyph d="M668 -5h-586q-35 0 -35 37v583q0 37 35 37h586q35 0 35 -37v-583q0 -37 -35 -37z" />
<glyph d="M668 -5h-586q-35 0 -35 37v583q0 37 35 37h586q35 0 35 -37v-583q0 -37 -35 -37zM650 599h-550v-551h550v551z" />
<glyph horiz-adv-x="749" d="M399 763l415 -415q24 -24 -2 -50l-412 -413q-25 -25 -51 -1l-414 414q-24 26 1 51l413 412q26 26 50 2z" />
<glyph horiz-adv-x="749" d="M814 348q24 -24 -2 -50l-412 -413q-25 -25 -51 -1l-414 414q-24 26 1 51l413 412q26 26 50 2zM374 -66l390 390l-389 389l-390 -390z" />
<glyph d="M703 454v-253q0 -42 -22 -61l-281 -254q-26 -24 -51 -1l-281 255q-21 19 -21 61v253q0 40 17 56l284 251q26 23 51 1l286 -252q18 -16 18 -56z" />
<glyph d="M681 140l-281 -254q-26 -24 -51 -1l-281 255q-21 19 -21 61v253q0 40 17 56l284 251q26 23 51 1l286 -252q18 -16 18 -56v-253q0 -42 -22 -61zM374 -64l276 248v287l-276 240l-274 -240v-288z" />
<glyph d="M368 261h6q10 0 15 20l17 189q4 36 -28 36h-13q-33 0 -28 -36l17 -189q5 -20 14 -20zM368 150h7q31 0 31 31v6q0 31 -31 31h-7q-31 0 -31 -31v-6q0 -31 31 -31zM374 -32q-149 0 -252 103t-103 252q0 150 103 253t253 103q149 0 252.5 -103.5t103.5 -252.5 q0 -150 -103.5 -252.5t-253.5 -102.5z" />
<glyph d="M222 240h38l-12 -40q-3 -12 -3 -20q0 -15 8.5 -22t17.5 -7q8 0 8 2l27 87h77l-12 -40q-4 -16 -4 -20q0 -15 8.5 -22t18.5 -7q6 0 8 2l26 87h53q25 0 25 21v5q0 20 -25 20h-39l26 85h54q25 0 25 20v6q0 20 -25 20h-39l12 39q4 12 4 21q0 15 -8.5 22t-17.5 7q-8 0 -8 -2 l-27 -87h-78l13 39q3 14 3 21q0 15 -8.5 22t-18.5 7q-7 0 -7 -2l-27 -87h-53q-24 0 -24 -21v-5q0 -20 24 -20h39l-27 -85h-52q-25 0 -25 -20v-6q0 -20 25 -20zM319 285l27 87h79l-27 -87h-79zM374 -32q-149 0 -252 103t-103 252q0 150 103 253t253 103q149 0 252.5 -103.5 t103.5 -252.5q0 -150 -103.5 -252.5t-253.5 -102.5z" />
<glyph d="M368 98h3q23 0 23 28v25q49 5 79 32.5t30 68.5q0 25 -10.5 43t-30 29t-36.5 17t-41 12q-30 7 -44 11.5t-26.5 15.5t-12.5 27q0 22 20.5 36.5t50.5 14.5q60 0 93 -45q1 -1 7.5 2.5t12.5 11.5t6 17q0 20 -26.5 38.5t-69.5 22.5v23q0 28 -23 28h-4q-23 0 -23 -28v-24 q-44 -7 -72 -34t-28 -64q0 -32 19 -54t40 -30t53 -16q22 -5 32.5 -8t25.5 -10t21.5 -16.5t6.5 -22.5q0 -22 -21 -36.5t-54 -14.5q-68 0 -104 52q-1 1 -7 -3t-12 -11.5t-6 -16.5q0 -22 29 -42t75 -26v-25q0 -28 24 -28zM374 -32q-149 0 -252 103t-103 252q0 150 103 253 t253 103q149 0 252.5 -103.5t103.5 -252.5q0 -150 -103.5 -252.5t-253.5 -102.5z" />
<glyph d="M334 148q73 0 123 53l35 -33q17 -17 36 -17q11 0 19.5 6t11 12t1.5 7l-73 65q37 55 49 115q1 1 -2 4.5t-9 7t-14 3.5q-23 0 -32 -31q-13 -45 -27 -69l-79 71q81 25 81 85q0 36 -26 59t-66 23q-43 0 -71 -24.5t-28 -62.5t30 -70q-85 -27 -85 -100q0 -49 34.5 -76.5 t91.5 -27.5zM339 192q-34 0 -55 17.5t-21 47.5q0 48 58 68l102 -92q-34 -41 -84 -41zM316 422q0 19 12.5 32t33.5 13q19 0 31 -12t12 -31q0 -39 -61 -58q-28 28 -28 56zM374 -32q-149 0 -252 103t-103 252q0 150 103 253t253 103q149 0 252.5 -103.5t103.5 -252.5 q0 -150 -103.5 -252.5t-253.5 -102.5z" />
<glyph d="M372 148q68 0 107 44t39 119v35q0 76 -38.5 119.5t-107.5 43.5q-68 0 -107 -44t-39 -119v-36q0 -76 38.5 -119t107.5 -43zM372 197q-41 0 -63.5 29.5t-22.5 82.5v40q0 53 22.5 82t63.5 29t64 -29.5t23 -82.5v-40q0 -53 -22.5 -82t-64.5 -29zM374 -32q-149 0 -252 103 t-103 252q0 150 103 253t253 103q149 0 252.5 -103.5t103.5 -252.5q0 -150 -103.5 -252.5t-253.5 -102.5z" />
<glyph d="M383 151h7q27 0 27 27v300q0 27 -27 27h-21q-2 -19 -17 -32t-35 -13q-23 0 -40 17q-1 0 -5 -3t-8 -10.5t-4 -16.5q0 -18 16 -29.5t37 -11.5q26 0 45 17v-245q0 -27 25 -27zM374 -32q-149 0 -252 103t-103 252q0 150 103 253t253 103q149 0 252.5 -103.5t103.5 -252.5 q0 -150 -103.5 -252.5t-253.5 -102.5z" />
<glyph d="M289 156h186q27 0 27 23v2q0 25 -27 25h-59v273q0 27 -27 27h-21q-2 -19 -17 -32t-35 -13q-23 0 -40 17q-1 0 -5 -3t-8 -10.5t-4 -16.5q0 -18 16 -29.5t37 -11.5q28 0 48 20v-221h-71q-26 0 -26 -25v-2q0 -23 26 -23zM374 -32q-149 0 -252 103t-103 252q0 150 103 253 t253 103q149 0 252.5 -103.5t103.5 -252.5q0 -150 -103.5 -252.5t-253.5 -102.5z" />
<glyph d="M393 297q25 11 39 19t31 21.5t24.5 30.5t7.5 40q0 49 -33 77t-91 28q-57 0 -91.5 -28t-34.5 -59q0 -14 9.5 -21.5t19.5 -8.5t10 0q19 66 83 66q69 0 69 -55q0 -6 -1 -11.5t-4.5 -10.5t-6.5 -9t-9 -8.5l-10 -7.5t-12.5 -7.5t-12.5 -7t-14.5 -7.5t-14.5 -7q-50 -24 -79 -52 t-29 -75v-15q0 -18 8.5 -24.5t28.5 -6.5h192q28 0 28 24v3q0 23 -28 23h-174q2 31 25 49.5t70 39.5zM374 -32q-149 0 -252 103t-103 252q0 150 103 253t253 103q149 0 252.5 -103.5t103.5 -252.5q0 -150 -103.5 -252.5t-253.5 -102.5z" />
</font>
</defs>
</svg>
